<svg xmlns="http://www.w3.org/2000/svg" width="1218" height="406" fill="none" viewBox="0 0 1218 406">
    <path fill="#FF5662" d="M118.7 307.9c17.3-1.2 32-1.6 40.2-1.7zM170.2 306.2c7.9.1 21.7.4 38.1 1.5zM164.4 209.7s-32.3 71.3-33.1 73.2c23.8-1.5 45.6-.9 64.4 0-1-2.5-31.3-73.2-31.3-73.2z"/>
    <path fill="#FF5662" d="M240.2 310.7l23.2 51.7h-31.1l-24.1-54.6c-16.4-1.1-30.1-1.4-38.1-1.5h-11.3c-8.3.1-22.9.5-40.2 1.7l-25.3 54.5H62.7l23.9-51.4C41.5 316.7 0 329.1 0 355.9c0 48.2 147 49.6 164.5 49.6 17.4 0 164.5-1.4 164.5-49.6 0-27.5-43-39.7-88.8-45.2zM229.2 286.1c28.9 3 57.4 8.7 86.1 17.1 0 0-136.8-278.5-149.7-303.2C151.6 25.7 16 303.1 16 303.1c27.4-8 54.5-13.5 82.1-16.6L164.9 143l64.3 143.1z"/>
    <path fill="#212529" d="M475.5 242.9H436l-10.3 22.4h-15l45.6-98 44 98h-15.2l-9.6-22.4zm-5.7-13l-13.7-31.3-14.3 31.3h28zM552.1 265.3l19.4-99.1 31.6 71.7 32.8-71.6 17.4 99.1h-14.2l-8.9-55.6-27.3 59.9-26.5-59.9-9.9 55.7h-14.4v-.2zM716.3 265.3v-92.2h13.8c6.2 0 11.1.5 14.7 1.4 3.7 1 6.8 2.6 9.4 4.8 2.6 2.3 4.6 5.3 6.1 8.8 1.6 3.5 2.3 7.1 2.3 10.7 0 6.6-2.5 12.2-7.6 16.8 4.9 1.7 8.8 4.6 11.6 8.8 2.9 4.1 4.3 9 4.3 14.4 0 7.2-2.5 13.3-7.6 18.3-3.1 3.1-6.5 5.2-10.3 6.4-4.2 1.2-9.4 1.7-15.7 1.7h-21v.1zm13.9-52.6h4.4c5.2 0 9-1.1 11.4-3.4 2.4-2.3 3.6-5.7 3.6-10.1 0-4.3-1.2-7.6-3.7-9.9-2.5-2.3-6-3.4-10.7-3.4h-4.9l-.1 26.8zm0 39.5h8.6c6.3 0 10.9-1.2 13.8-3.7 3.1-2.7 4.7-6 4.7-10.1 0-4-1.5-7.3-4.5-10-2.9-2.7-8.1-4-15.6-4h-7v27.8zM845.9 173.1v92.2H832v-92.2h13.9zM962.3 186.2h-37v22.1h35.9v13.1h-35.9v30.8h37v13.1h-50.9v-92.2h50.9v13.1zM1023.9 265.3v-98.4l67.2 70.3v-64.1h13.9v97.8l-67.2-70.1v64.5h-13.9zM1196 186.2v79.1h-13.9v-79.1h-21.2v-13.1h56.2v13.1H1196z"/>
</svg>
