<svg id="Grupo_2" data-name="Grupo 2" xmlns="http://www.w3.org/2000/svg" width="240.875" height="34.004" viewBox="0 0 240.875 34.004">
  <path id="Caminho_1" data-name="Caminho 1" d="M320.3,304.5V289.456h1.464V304.5Z" transform="translate(-280.067 -279.714)" fill="#161615"/>
  <path id="Caminho_2" data-name="Caminho 2" d="M338.741,300.611a3.58,3.58,0,0,1-.339,1.559,3.934,3.934,0,0,1-.913,1.231,4.136,4.136,0,0,1-1.337.806,4.609,4.609,0,0,1-1.634.286h-7.086V289.429h7.235a2.971,2.971,0,0,1,1.421.34,3.552,3.552,0,0,1,1.083.881,4.045,4.045,0,0,1,.689,1.23,4.148,4.148,0,0,1,.244,1.39,3.956,3.956,0,0,1-.573,2.09,3.54,3.54,0,0,1-1.591,1.41,3.77,3.77,0,0,1,2.048,1.422,4.016,4.016,0,0,1,.753,2.419Zm-9.845-9.887v5.558h5.177a2.318,2.318,0,0,0,1.029-.233,2.76,2.76,0,0,0,.827-.616,2.7,2.7,0,0,0,.541-.88,2.883,2.883,0,0,0,.191-1.051,3.2,3.2,0,0,0-.18-1.081,2.637,2.637,0,0,0-.509-.881,2.521,2.521,0,0,0-.785-.594,2.216,2.216,0,0,0-.986-.222Zm8.359,9.632a3.066,3.066,0,0,0-.191-1.071,2.778,2.778,0,0,0-1.369-1.548,2.221,2.221,0,0,0-1.029-.245H328.9V303.2h5.622a2.567,2.567,0,0,0,1.083-.234,2.681,2.681,0,0,0,.869-.625,3.04,3.04,0,0,0,.574-.913,2.825,2.825,0,0,0,.211-1.072Z" transform="translate(-281.495 -279.708)" fill="#161615"/>
  <path id="Caminho_3" data-name="Caminho 3" d="M355.8,303.177v1.316h-10.12V289.429h9.929v1.316h-8.465v5.431h7.383v1.253h-7.383v5.749Z" transform="translate(-285.148 -279.708)" fill="#161615"/>
  <path id="Caminho_4" data-name="Caminho 4" d="M362.473,304.493V289.429h6.344a3.975,3.975,0,0,1,1.8.414,4.668,4.668,0,0,1,1.422,1.082,4.958,4.958,0,0,1,.922,1.517,4.722,4.722,0,0,1,.329,1.719,5.109,5.109,0,0,1-.243,1.581,4.749,4.749,0,0,1-.69,1.358,4.263,4.263,0,0,1-1.061,1.018,3.7,3.7,0,0,1-1.379.562l3.714,5.813h-1.676l-3.564-5.559h-4.456v5.559Zm1.464-6.874h4.944a2.535,2.535,0,0,0,1.2-.286,2.876,2.876,0,0,0,.923-.774,3.762,3.762,0,0,0,.593-1.1,3.939,3.939,0,0,0,.213-1.294,3.666,3.666,0,0,0-.9-2.4,3.118,3.118,0,0,0-.976-.743,2.638,2.638,0,0,0-1.177-.276h-4.816v6.875Z" transform="translate(-288.508 -279.708)" fill="#161615"/>
  <path id="Caminho_5" data-name="Caminho 5" d="M380.51,304.5V289.456h1.465V304.5Z" transform="translate(-292.119 -279.714)" fill="#161615"/>
  <path id="Caminho_6" data-name="Caminho 6" d="M385.657,304.493l6.3-15.064h1.209l6.3,15.064h-1.591l-1.952-4.71h-6.768l-1.93,4.71Zm6.916-13.324-3.1,7.447h6.11l-3.013-7.447Z" transform="translate(-293.149 -279.708)" fill="#161615"/>
  <path id="Caminho_7" data-name="Caminho 7" d="M407.65,292.187v12.306h-1.463V289.429h1.145l9.972,12.539V289.45h1.465v15.043H417.5l-9.845-12.306Z" transform="translate(-297.258 -279.708)" fill="#161615"/>
  <path id="Caminho_8" data-name="Caminho 8" d="M426.585,307.742v-2.08h1.231v2.08Z" transform="translate(-301.341 -282.958)" fill="#161615"/>
  <path id="Caminho_9" data-name="Caminho 9" d="M432.5,304.493V289.429h6.324a4.189,4.189,0,0,1,1.877.425,4.811,4.811,0,0,1,1.475,1.114,5.262,5.262,0,0,1,.966,1.57,4.806,4.806,0,0,1,.35,1.792,5.2,5.2,0,0,1-.329,1.835,5.119,5.119,0,0,1-.924,1.571,4.5,4.5,0,0,1-1.431,1.1,4.137,4.137,0,0,1-1.856.414h-4.074v5.241Zm2.376-7.341H438.8a2.005,2.005,0,0,0,.923-.212,2.124,2.124,0,0,0,.71-.594,2.975,2.975,0,0,0,.467-.891,3.552,3.552,0,0,0,.17-1.125,3.233,3.233,0,0,0-.191-1.146,2.669,2.669,0,0,0-.53-.88,2.434,2.434,0,0,0-.774-.573,2.111,2.111,0,0,0-.9-.2h-3.8v5.622Z" transform="translate(-302.524 -279.708)" fill="#161615"/>
  <path id="Caminho_10" data-name="Caminho 10" d="M449.5,304.493V289.429h6.556a4.189,4.189,0,0,1,1.877.425,4.8,4.8,0,0,1,1.475,1.114,5.245,5.245,0,0,1,.965,1.57,4.791,4.791,0,0,1,.35,1.792,5.037,5.037,0,0,1-.211,1.464,5.184,5.184,0,0,1-.594,1.294,4.169,4.169,0,0,1-.934,1.029,3.852,3.852,0,0,1-1.209.647l3.586,5.729h-2.694l-3.311-5.241H451.88v5.241Zm2.376-7.341h4.158a1.921,1.921,0,0,0,.923-.222,2.184,2.184,0,0,0,.711-.616,3.094,3.094,0,0,0,.466-.9,3.394,3.394,0,0,0,.17-1.082,2.915,2.915,0,0,0-.2-1.082,3.126,3.126,0,0,0-.531-.891,2.526,2.526,0,0,0-.764-.6,1.95,1.95,0,0,0-.9-.222H451.88v5.622Z" transform="translate(-305.928 -279.708)" fill="#161615"/>
  <path id="Caminho_11" data-name="Caminho 11" d="M473.56,304.573a6.424,6.424,0,0,1-2.9-.648,7.272,7.272,0,0,1-2.249-1.718,7.71,7.71,0,0,1-1.453-2.451,8.053,8.053,0,0,1-.51-2.821,7.824,7.824,0,0,1,.542-2.887,7.942,7.942,0,0,1,1.495-2.44,7.152,7.152,0,0,1,2.271-1.686,6.571,6.571,0,0,1,2.863-.626,6.26,6.26,0,0,1,2.9.668,7.363,7.363,0,0,1,2.239,1.751,8.123,8.123,0,0,1,1.952,5.241,7.938,7.938,0,0,1-2.036,5.314,7.271,7.271,0,0,1-2.26,1.677,6.507,6.507,0,0,1-2.853.626Zm-4.689-7.638a6.5,6.5,0,0,0,.329,2.057,5.539,5.539,0,0,0,.944,1.761,4.687,4.687,0,0,0,1.485,1.22,4.142,4.142,0,0,0,1.953.456,4.1,4.1,0,0,0,1.984-.478,4.642,4.642,0,0,0,1.484-1.262,5.812,5.812,0,0,0,.924-1.76,6.4,6.4,0,0,0,.318-1.994,6.332,6.332,0,0,0-.339-2.069,5.608,5.608,0,0,0-.956-1.74,4.734,4.734,0,0,0-1.485-1.209,4.329,4.329,0,0,0-3.914.022,4.752,4.752,0,0,0-1.486,1.241,5.516,5.516,0,0,0-.922,1.751,6.5,6.5,0,0,0-.319,2.005Z" transform="translate(-309.32 -279.682)" fill="#161615"/>
  <path id="Caminho_12" data-name="Caminho 12" d="M487.912,304.493V289.429h6.324a4.186,4.186,0,0,1,1.877.425,4.814,4.814,0,0,1,1.475,1.114,5.246,5.246,0,0,1,.965,1.57,4.807,4.807,0,0,1,.349,1.792,5.2,5.2,0,0,1-.328,1.835,5.136,5.136,0,0,1-.924,1.571,4.5,4.5,0,0,1-1.431,1.1,4.138,4.138,0,0,1-1.857.414h-4.074v5.241Zm2.376-7.341h3.926a2,2,0,0,0,.922-.212,2.108,2.108,0,0,0,.71-.594,2.959,2.959,0,0,0,.467-.891,3.554,3.554,0,0,0,.17-1.125,3.231,3.231,0,0,0-.19-1.146,2.68,2.68,0,0,0-.53-.88,2.435,2.435,0,0,0-.774-.573,2.11,2.11,0,0,0-.9-.2h-3.8v5.622Z" transform="translate(-313.615 -279.708)" fill="#161615"/>
  <path id="Caminho_13" data-name="Caminho 13" d="M515.247,302.393v2.1H504.915V289.429h10.141v2.1h-7.765v4.286h6.725v1.973h-6.725v4.6Z" transform="translate(-317.018 -279.708)" fill="#161615"/>
  <path id="Caminho_14" data-name="Caminho 14" d="M521.547,304.493V289.429H528.1a4.19,4.19,0,0,1,1.878.425,4.822,4.822,0,0,1,1.475,1.114,5.262,5.262,0,0,1,.966,1.57,4.809,4.809,0,0,1,.35,1.792,5.032,5.032,0,0,1-.212,1.464,5.1,5.1,0,0,1-.594,1.294,4.179,4.179,0,0,1-.933,1.029,3.879,3.879,0,0,1-1.209.647l3.586,5.729h-2.695l-3.31-5.241h-3.48v5.241Zm2.375-7.341h4.158a1.921,1.921,0,0,0,.924-.222,2.2,2.2,0,0,0,.71-.616,3.115,3.115,0,0,0,.467-.9,3.416,3.416,0,0,0,.17-1.082,2.913,2.913,0,0,0-.2-1.082,3.086,3.086,0,0,0-.53-.891,2.531,2.531,0,0,0-.763-.6,1.956,1.956,0,0,0-.9-.222h-4.032v5.622Z" transform="translate(-320.347 -279.708)" fill="#161615"/>
  <path id="Caminho_15" data-name="Caminho 15" d="M550.086,291.53h-5.007v12.963H542.7V291.53h-5.029v-2.1h12.412v2.1Z" transform="translate(-323.575 -279.708)" fill="#161615"/>
  <path id="Caminho_16" data-name="Caminho 16" d="M556.783,289.429l4.18,7.554,4.2-7.554h2.588l-5.6,9.675v5.389h-2.4v-5.432l-5.58-9.633Z" transform="translate(-326.877 -279.708)" fill="#161615"/>
  <path id="Caminho_17" data-name="Caminho 17" d="M304,311.28H270v-34h34v34Zm-30.515-3.49h27.025V280.766H273.489V307.79Z" transform="translate(-270 -277.276)" fill="#0f1f6f"/>
  <path id="Caminho_18" data-name="Caminho 18" d="M284.649,304.236V293.275h-2.8v10.961Zm0-12.488v-2.783h-2.8v2.783Z" transform="translate(-272.371 -279.616)" fill="#0f1f6f"/>
  <path id="Caminho_19" data-name="Caminho 19" d="M291.708,304.236v-5.4h3.514a4.232,4.232,0,0,0,1.883-.419,4.614,4.614,0,0,0,1.465-1.109,5.087,5.087,0,0,0,.941-1.579,5.156,5.156,0,0,0,.334-1.831,4.79,4.79,0,0,0-.355-1.789,5.337,5.337,0,0,0-.983-1.589,4.923,4.923,0,0,0-1.5-1.13,4.223,4.223,0,0,0-1.893-.429h-6.3v15.271Zm0-12.739h3.221a1.868,1.868,0,0,1,.743.157,1.749,1.749,0,0,1,.637.47,2.473,2.473,0,0,1,.44.764,2.9,2.9,0,0,1,.167,1.014,2.68,2.68,0,0,1-.533,1.757,1.653,1.653,0,0,1-1.329.649h-3.347V291.5Z" transform="translate(-273.767 -279.616)" fill="#0f1f6f"/>
</svg>
