<svg width="147" height="58" viewBox="0 0 147 58" fill="none" xmlns="http://www.w3.org/2000/svg">
<g clip-path="url(#clip0)">
<path d="M57.9942 11.2505C57.9478 10.9373 57.9072 10.6589 57.855 10.3921C57.4779 8.30408 56.5673 6.34948 55.2157 4.71388C53.8526 3.07828 52.1008 1.83708 50.0126 1.03668C48.9395 0.624876 47.4023 0.329076 45.4591 0.166676C43.7538 0.0216758 42.031 -0.00152422 40.8825 -0.00732422H17.4771C16.3286 -0.00152422 14.6059 0.0216758 12.9005 0.166676C10.9515 0.329076 9.42014 0.624876 8.34123 1.03668C6.25303 1.83708 4.50125 3.07248 3.13231 4.71388C1.78078 6.34948 0.875888 8.30408 0.493049 10.3863C0.307431 11.3897 0.179818 12.5729 0.0986099 14.0055C0.0348035 15.2235 0 16.6387 0 18.3265V40.8188C0.0116012 43.5738 0.0580058 45.8532 0.516252 48.0282C1.05571 50.586 2.08241 52.5754 3.74717 54.2864C5.77738 56.3628 8.06281 57.5054 11.1603 57.9984C11.1835 58.0042 11.2125 58.0042 11.2357 58.0042C11.3227 58.0042 11.4155 57.981 11.4909 57.9288C12.7207 57.1574 13.9446 56.3686 15.1511 55.5624H37.9416C41.3349 55.545 44.3396 55.4812 46.7411 54.9186C48.9627 54.3966 50.5811 53.4802 52.1646 51.862C53.6322 50.3598 54.5022 48.643 54.9953 46.2998C55.5928 43.4636 55.587 41.5961 55.5638 23.7553C55.558 21.2439 55.558 18.4193 55.5522 15.2293C56.3642 14.0229 57.1531 12.8049 57.9246 11.5811L57.9304 11.5753C57.9826 11.4767 58.0116 11.3607 57.9942 11.2505ZM47.2283 32.5597C48.2956 32.5597 49.1657 33.4238 49.1657 34.491C49.1657 35.5582 48.3014 36.4282 47.2341 36.4282C46.1668 36.4282 45.2967 35.564 45.2967 34.4968C45.2967 33.4296 46.161 32.5655 47.2283 32.5597ZM4.43164 53.6136C2.89449 52.0418 1.94899 50.2032 1.45015 47.831C1.0093 45.743 0.968697 43.5101 0.957096 40.813V18.3265C0.957096 16.6561 0.991899 15.2641 1.06151 14.0635C1.14271 12.6715 1.26453 11.5231 1.44434 10.5603C1.80978 8.58248 2.62766 6.81928 3.87479 5.32868C5.13351 3.81488 6.75768 2.67228 8.68927 1.93568C9.68117 1.55868 11.1255 1.28028 12.9817 1.12368C14.6523 0.984476 16.3518 0.961276 17.4771 0.955476H40.8767C42.0078 0.961276 43.7074 0.984476 45.3779 1.12368C47.2341 1.28028 48.6843 1.55288 49.6704 1.93568C51.602 2.67808 53.2261 3.82068 54.4848 5.32868C55.732 6.82508 56.5499 8.58248 56.9153 10.5661C56.9501 10.7459 56.9791 10.9373 57.0139 11.1461C50.9233 17.1259 44.6355 18.1061 38.5565 19.0515C33.3823 19.8577 28.4924 20.6175 24.5365 24.5615C20.5805 28.5055 19.8148 33.3949 19.0027 38.5684C18.0456 44.6468 17.0595 50.9282 11.0733 57.0066C8.31223 56.531 6.25303 55.4812 4.43164 53.6136ZM54.6009 23.7553C54.6241 41.1262 54.6299 43.3592 54.0498 46.0968C53.5974 48.2544 52.8027 49.8204 51.4685 51.1834C50.6971 51.9722 49.914 52.5812 49.0497 53.0452L46.19 49.513V45.8417C47.849 45.5343 48.9395 43.9392 48.6321 42.2862C48.3246 40.6274 46.7295 39.5371 45.0763 39.8445C43.4173 40.1519 42.3268 41.7468 42.6343 43.3998C42.8663 44.641 43.835 45.6096 45.0763 45.8417V49.9074L48.0056 53.5266C47.5242 53.7122 47.0253 53.863 46.5206 53.979C44.2178 54.5184 41.2711 54.5822 37.9416 54.5996H16.5665C18.5851 53.2192 20.5631 51.7866 22.5063 50.3076H28.3532L31.1839 48.0224H34.8557C35.1631 49.6812 36.7583 50.7716 38.4114 50.4642C40.0704 50.1568 41.1609 48.5618 40.8535 46.9088C40.5461 45.2558 38.9509 44.1596 37.2977 44.467C36.0564 44.699 35.0877 45.6676 34.8557 46.9088H30.7895L27.9588 49.194H23.9564C32.1816 42.7676 39.6992 35.4829 46.3814 27.4673L46.6715 27.8269V31.4982C45.0125 31.8056 43.922 33.4007 44.2294 35.0537C44.5369 36.7125 46.132 37.8029 47.7852 37.4954C49.4383 37.188 50.5347 35.5931 50.2272 33.9401C49.9952 32.6989 49.0265 31.7302 47.7852 31.4982V27.4325L47.1007 26.5915C49.7284 23.3957 52.2284 20.0607 54.5835 16.6387C54.5951 19.2545 54.5951 21.6209 54.6009 23.7553ZM45.6332 44.7802C44.5659 44.7802 43.7016 43.916 43.7016 42.8488C43.7016 41.7816 44.5659 40.9174 45.6332 40.9174C46.7005 40.9174 47.5648 41.7816 47.5648 42.8488C47.5706 43.9102 46.7005 44.7802 45.6332 44.7802ZM35.9172 47.4598C35.9172 46.3926 36.7815 45.5227 37.8488 45.5227C38.9161 45.5227 39.7862 46.3868 39.7862 47.454C39.7862 48.5212 38.9219 49.3912 37.8546 49.3912C36.7815 49.397 35.9172 48.5328 35.9172 47.4598Z" fill="black"/>
<path d="M73 17.3843H75.56V30.3763L86.984 17.3843H90.184L81.32 27.4643L90.76 41.2243H87.688L79.56 29.4803L75.56 34.0243V41.2243H73V17.3843Z" fill="black"/>
<path d="M100.992 41.608C99.3923 41.608 97.9203 41.224 96.5763 40.456C95.2543 39.6667 94.1983 38.5893 93.4083 37.224C92.6403 35.8373 92.2563 34.3013 92.2563 32.616C92.2563 30.9307 92.6304 29.416 93.3764 28.072C94.1444 26.7067 95.1903 25.64 96.5123 24.872C97.8563 24.0827 99.3503 23.688 100.992 23.688C102.635 23.688 104.118 24.072 105.44 24.84C106.763 25.608 107.798 26.6747 108.544 28.04C109.312 29.4053 109.696 30.9307 109.696 32.616C109.696 34.344 109.302 35.8907 108.512 37.256C107.744 38.6213 106.688 39.688 105.344 40.456C104.022 41.224 102.571 41.608 100.992 41.608ZM94.8163 32.616C94.8163 33.8533 95.0833 34.9733 95.6163 35.976C96.1713 36.9787 96.9183 37.768 97.8563 38.344C98.8163 38.92 99.8623 39.208 100.992 39.208C102.123 39.208 103.158 38.92 104.096 38.344C105.035 37.768 105.771 36.9787 106.304 35.976C106.859 34.952 107.136 33.832 107.136 32.616C107.136 31.4 106.859 30.3013 106.304 29.32C105.771 28.3173 105.035 27.528 104.096 26.952C103.158 26.376 102.123 26.088 100.992 26.088C99.8623 26.088 98.8163 26.376 97.8563 26.952C96.9183 27.528 96.1713 28.3173 95.6163 29.32C95.0833 30.3013 94.8163 31.4 94.8163 32.616Z" fill="black"/>
<path d="M113.929 17H116.329V41.224H113.929V17Z" fill="black"/>
<path d="M129.273 41.608C127.673 41.608 126.201 41.224 124.857 40.456C123.535 39.6667 122.479 38.5893 121.689 37.224C120.921 35.8373 120.537 34.3013 120.537 32.616C120.537 30.9307 120.911 29.416 121.657 28.072C122.425 26.7067 123.471 25.64 124.793 24.872C126.137 24.0827 127.631 23.688 129.273 23.688C130.916 23.688 132.399 24.072 133.721 24.84C135.044 25.608 136.079 26.6747 136.825 28.04C137.593 29.4053 137.977 30.9307 137.977 32.616C137.977 34.344 137.583 35.8907 136.793 37.256C136.025 38.6213 134.969 39.688 133.625 40.456C132.303 41.224 130.852 41.608 129.273 41.608ZM123.097 32.616C123.097 33.8533 123.364 34.9733 123.897 35.976C124.452 36.9787 125.199 37.768 126.137 38.344C127.097 38.92 128.143 39.208 129.273 39.208C130.404 39.208 131.439 38.92 132.377 38.344C133.316 37.768 134.052 36.9787 134.585 35.976C135.14 34.952 135.417 33.832 135.417 32.616C135.417 31.4 135.14 30.3013 134.585 29.32C134.052 28.3173 133.316 27.528 132.377 26.952C131.439 26.376 130.404 26.088 129.273 26.088C128.143 26.088 127.097 26.376 126.137 26.952C125.199 27.528 124.452 28.3173 123.897 29.32C123.364 30.3013 123.097 31.4 123.097 32.616Z" fill="black"/>
</g>
<defs>
<clipPath id="clip0">
<rect width="147" height="58" fill="white"/>
</clipPath>
</defs>
</svg>
