<?xml version="1.0" encoding="utf-8"?>
<!-- Generator: Adobe Illustrator 26.4.1, SVG Export Plug-In . SVG Version: 6.00 Build 0)  -->
<svg version="1.1" id="Layer_1" xmlns="http://www.w3.org/2000/svg" xmlns:xlink="http://www.w3.org/1999/xlink" x="0px" y="0px"
	 viewBox="0 0 1409.6 595.3" style="enable-background:new 0 0 1409.6 595.3;" xml:space="preserve">
<style type="text/css">
	.st0{fill:#7560E2;}
</style>
<g>
	<path class="st0" d="M145.6,368.1l8.3-55.9c25.9,18.6,50.7,28,71.8,28c19,0,26.9-10,26.9-20.7c0-9.7-5.5-18.3-27.3-25.2l-14.5-4.8
		c-42.4-13.8-59.4-41.8-59.4-74.5c0-42.1,32.8-74.2,82.5-74.2c21.7,0,44.9,5.5,69.4,16.9l-7.9,54.9c-24.5-12.8-45.6-19.7-62.4-19.7
		c-15.9,0-23.5,8.6-23.5,19c0,10,6.2,17.9,27.3,24.5l14.1,4.8c44.8,14.5,61.4,43.8,61.4,74.5c0,38.6-26.9,76.9-85.6,76.9
		C194.6,392.6,167.3,381.5,145.6,368.1L145.6,368.1z"/>
	<path class="st0" d="M501.6,224.5v162.9h-53.5v-17.6c-11,13.8-26.9,22.1-47.6,22.1c-43.1,0-78.3-36.9-78.3-84.2
		s35.5-83.8,78.3-83.8c18.6,0,33.5,6.9,44.5,18.6v-17.9H501.6L501.6,224.5z M446.1,307.7c0-20-14.8-35.2-34.2-35.2
		c-19.7,0-34.5,15.2-34.5,35.2c0,19.7,14.8,34.9,34.5,34.9C431.2,342.5,446.1,327.4,446.1,307.7L446.1,307.7z"/>
	<polygon class="st0" points="520.8,144.8 580.2,138.3 580.2,387.4 520.8,387.4 	"/>
	<path class="st0" d="M672,274.2v44.5c0,13.1,6.2,20.4,19.7,20.4c6.2,0,13.1-1.4,18.6-3.5V384c-9,3.5-21,5.9-34.5,5.9
		c-43.1,0-63.1-24.5-63.1-62.8v-52.8H594v-46.6h18.6v-27.3l59.3-28.3v55.6h38.3v46.6L672,274.2L672,274.2z"/>
	<path class="st0" d="M903.8,232.8c0,50.7-39.7,87.6-94.5,87.6h-20v66.9h-61.1V145.9h81.1C864.2,145.9,903.8,182.4,903.8,232.8
		L903.8,232.8z M842.4,232.8c0-20.7-16.6-35.2-39.3-35.2h-13.8v71.1h13.8C825.8,268.7,842.4,253.9,842.4,232.8L842.4,232.8z"/>
	<path class="st0" d="M1082.6,224.5v162.9h-53.5v-17.6c-11,13.8-26.9,22.1-47.6,22.1c-43.1,0-78.3-36.9-78.3-84.2
		s35.5-83.8,78.3-83.8c18.6,0,33.5,6.9,44.5,18.6v-17.9H1082.6L1082.6,224.5z M1027,307.7c0-20-14.8-35.2-34.2-35.2
		c-19.7,0-34.5,15.2-34.5,35.2c0,19.7,14.8,34.9,34.5,34.9C1012.2,342.5,1027,327.4,1027,307.7L1027,307.7z"/>
	<polygon class="st0" points="1269.6,224.6 1177.1,458.5 1115,458.5 1151.9,382.2 1090.8,224.6 1152.6,224.6 1180.2,315.6 
		1207.8,224.6 	"/>
</g>
</svg>
