<svg xmlns="http://www.w3.org/2000/svg" width="98" height="48" viewBox="0 0 98 48">
  <g fill="none">
    <path fill="#FFDA00" d="M92.4567719,40.2580645 C95.5004463,40.2580645 98,42.6183378 98,45.4276896 C98,46.0566722 97.8747067,46.6631443 97.6460655,47.2256569 L87.1995649,47.2256569 C86.9705377,46.6631443 86.8455282,46.0566722 86.8455282,45.4276896 C86.8455282,42.6183378 89.3394141,40.2580645 92.4567719,40.2580645 Z"/>
    <path fill="#131010" d="M11.2241096,23.104003 C17.3210114,23.104003 21.8318551,25.8456852 22.7936973,30.8759103 L16.504427,30.8759103 C15.7388792,28.9186539 13.528605,27.9895283 11.2241096,27.9895283 C8.25221349,27.9895283 6.57193405,28.8691513 6.57193405,30.5027369 C6.57193405,32.0373173 7.86747661,32.5970774 9.78723517,32.7341615 L15.016516,33.1530296 C19.8178753,33.5262031 23.0292505,35.5253463 23.0292505,39.9501166 C23.0292505,45.25451 18.235743,48 11.8993621,48 C5.5158706,48 0.906879789,45.2050074 0,40.041506 L6.23823371,40.041506 C6.9527451,42.1358465 9.16301918,43.1144747 12.284099,43.1144747 C15.2088845,43.1144747 17.0815324,42.1815412 17.0815324,40.4146794 C17.0815324,38.8344043 15.6878426,38.2251416 13.77201,38.0880575 L8.34643478,37.6196868 C4.1732174,37.2503213 0.620290074,35.110286 0.620290074,30.780713 C0.620290074,25.8913799 5.03691244,23.104003 11.2241096,23.104003 Z M53.4466269,23.5697082 L58.1223577,38.6451521 C58.1694684,38.8279309 58.3147262,38.9231282 58.5031687,38.9231282 C58.6523524,38.9231282 58.7976102,38.8279309 58.8407949,38.6451521 L63.6500062,23.5697082 L69.9824607,23.5697082 L63.3555643,44.0447427 C62.154243,47.0682089 60.6663324,47.768861 58.4089474,47.768861 C56.0573414,47.768861 54.5694304,46.9311248 53.4662563,44.0447427 L47.0199506,23.5697082 L53.4466269,23.5697082 Z M87.6422766,23.5678043 L87.6422766,29.2910657 L84.8588229,29.2910657 C80.8269375,29.2910657 78.0905942,32.0403637 78.0905942,36.1338474 L78.0905942,47.5346756 L72.0957658,47.5346756 L72.0957658,36.1338474 C72.0957658,27.2424199 77.1326784,23.5678043 84.8588229,23.5678043 L87.6422766,23.5678043 Z M32.4470597,23.5137322 L32.4470597,47.5339141 L26.4483051,47.5339141 L26.4483051,23.5137322 L32.4470597,23.5137322 Z M43.6750952,0 L43.6750952,47.5339141 L37.6763406,47.5339141 L37.6763406,0 L43.6750952,0 Z"/>
  </g>
</svg>
