<svg width="562" height="95" viewBox="0 0 562 95" fill="none" xmlns="http://www.w3.org/2000/svg">
<path d="M166.297 36.2615H179.763C179.649 25.3808 170.984 18.0228 157.462 18.0228C144.166 18.0228 134.592 25.2672 134.678 36.091C134.649 44.9263 140.842 49.8978 150.899 52.199L156.979 53.6194C163.371 55.0967 166.24 56.8297 166.297 60.0967C166.24 63.6478 162.916 66.1194 157.263 66.1194C151.041 66.1194 146.95 63.2217 146.638 57.6251H133.172C133.342 71.2331 142.803 77.7388 157.433 77.7388C171.922 77.7388 180.501 71.1763 180.558 60.1251C180.501 50.8353 174.223 45.1535 162.746 42.6251L157.746 41.4888C152.462 40.3524 149.109 38.591 149.223 35.1251C149.251 31.9433 151.979 29.6422 157.433 29.6422C162.916 29.6422 165.928 32.1137 166.297 36.2615Z" fill="black"/>
<path d="M187.661 77.0001H201.553V33.3638H187.661V77.0001ZM194.621 28.2785C198.57 28.2785 201.751 25.2956 201.751 21.6308C201.751 17.966 198.57 15.0115 194.621 15.0115C190.7 15.0115 187.49 17.966 187.49 21.6308C187.49 25.2956 190.7 28.2785 194.621 28.2785Z" fill="black"/>
<path d="M210.395 77.0001H224.287V51.1763C224.287 46.8581 226.815 44.1024 230.452 44.1024C234.06 44.1024 236.446 46.6308 236.446 50.6649V77.0001H249.798V50.949C249.798 46.7728 252.099 44.1024 255.935 44.1024C259.457 44.1024 261.957 46.4603 261.957 50.8069V77.0001H275.849V47.6251C275.849 38.3922 270.168 32.7956 261.929 32.7956C255.48 32.7956 250.395 36.1762 248.776 41.3751H248.321C247.156 36.1478 242.469 32.7956 236.418 32.7956C230.452 32.7956 225.906 36.0626 224.088 41.3751H223.605V33.3638H210.395V77.0001Z" fill="black"/>
<path d="M284.457 93.3638H298.349V69.9263H298.634C300.395 73.9603 304.315 77.6251 310.906 77.6251C320.565 77.6251 328.349 70.0683 328.349 55.2103C328.349 39.8126 320.111 32.7956 310.991 32.7956C304.088 32.7956 300.31 36.8297 298.634 40.8353H298.207V33.3638H284.457V93.3638ZM298.065 55.1819C298.065 48.0512 301.02 43.6478 306.105 43.6478C311.247 43.6478 314.088 48.1649 314.088 55.1819C314.088 62.2274 311.247 66.8013 306.105 66.8013C301.02 66.8013 298.065 62.2558 298.065 55.1819Z" fill="black"/>
<path d="M349.521 18.8183H335.629V77.0001H349.521V18.8183Z" fill="black"/>
<path d="M378.761 77.824C390.21 77.824 397.739 72.2842 399.33 63.7047L386.574 63.3353C385.494 66.2331 382.653 67.7956 379.017 67.7956C373.676 67.7956 370.381 64.2444 370.381 58.9035V58.5342H399.472V55.0683C399.472 40.6933 390.722 32.7956 378.335 32.7956C365.153 32.7956 356.688 41.8297 356.688 55.3524C356.688 69.3297 365.04 77.824 378.761 77.824ZM370.381 50.466C370.58 46.1194 374.017 42.824 378.619 42.824C383.193 42.824 386.489 46.0058 386.545 50.466H370.381Z" fill="black"/>
<path d="M423.754 77.0001H437.817V58.9319H447.362C460.686 58.9319 469.01 51.0342 469.01 38.9603C469.01 27.0001 460.857 18.8183 447.788 18.8183H423.754V77.0001ZM437.817 47.8524V30.1535H444.749C451.055 30.1535 454.436 33.5626 454.436 38.9603C454.436 44.3297 451.055 47.8524 444.749 47.8524H437.817Z" fill="black"/>
<path d="M495.452 77.824C509.173 77.824 517.497 68.7615 517.497 55.324C517.497 41.8581 509.173 32.7956 495.452 32.7956C481.73 32.7956 473.406 41.8581 473.406 55.324C473.406 68.7615 481.73 77.824 495.452 77.824ZM495.537 67.341C490.395 67.341 487.554 62.4547 487.554 55.2388C487.554 47.9944 490.395 43.0797 495.537 43.0797C500.509 43.0797 503.349 47.9944 503.349 55.2388C503.349 62.4547 500.509 67.341 495.537 67.341Z" fill="black"/>
<path d="M538.506 18.8183H524.614V77.0001H538.506V18.8183Z" fill="black"/>
<path d="M561.24 18.8183H547.348V77.0001H561.24V18.8183Z" fill="black"/>
<path fill-rule="evenodd" clip-rule="evenodd" d="M73.3514 0.872803C69.7054 0.872803 66.7532 3.82666 66.7532 7.47104V94.6786H93.1157C96.7601 94.6786 99.714 91.7232 99.714 88.0788V7.47104C99.714 3.82666 96.7601 0.872803 93.1157 0.872803H73.3514Z" fill="#F93D6B"/>
<path d="M33.3701 38.0943C33.3701 35.6904 35.3188 33.7417 37.7227 33.7417H66.74V94.678H33.3701V38.0943Z" fill="#F99F36"/>
<path d="M0 65.6609C0 63.2571 1.94872 61.3083 4.35259 61.3083H33.3699V94.6782H5.07802C2.27351 94.6782 0 92.4047 0 89.6002V65.6609Z" fill="#5AD2F9"/>
</svg>
