<svg fill="none" xmlns="http://www.w3.org/2000/svg" viewBox="0 0 964 1210"><path d="m401.437 680.655-.6 2.028.983.044 2.836-.846 1.117.118 2.716 1.425 2.145.314 2.144-.314.708-.531 1.359-1.763.915-.674-.038-1.4.493-1.989.745-1.788.715-.772.721-1.06.389-4.932.381-1.528.987-.081 2.686 1.826 1.232.493 8.053-.399 7.105-3.333 4.31-.321 1.045-.799.956-1.322 1.205-1.093 1.354-.708 1.382-.17 2.238 1.384 1.5.455 2.353-1.57 1.574.396 6.045 3.468.998.28 1.381-.226 2.373-1.017 1.218-.24 2.441.446 1.235.596.535.817.511.294 2.304 2.585.631 1.158-.219 6.092-.424 1.786-.913 2.345.481.979 1.182.163 1.167-.071.819.118.925.404.806.698.465 1.002-.12 1.96-1.127 4.038.128.751 1.813.304 1.67.876 1.478 1.405 1.263 1.859.271.737.421 1.747.371.816.403.481.981.847.49.555.573.852.562 1.093.437 1.33.172 1.564.665 2.986 1.574.999 1.847.748 1.479 2.251h.386l-1.129-2.323-3.976-4.251.987-1.859 1.877.524 1.932 1.718 1.162 1.765.754 3.416-.172 3.017-.889 2.399-1.397 1.564-1.843.927-3.707 1.111-1.679.905-1.628 1.501-1.2 1.619-1.471 2.744-.803 1.494.752.509.262.945.06.959.162.531.779.087.474-.54.329-.683.685-.661 1.384-2.251.609-.701 2.192-1.064 2.135-1.619 1.344-.623.967.369.983.769 1.365.127 7.475-1.227.356.338.766 1.526.598.342.654.233.208.623.031.912.168 1.104.978 3.777.737 1.55 1.05.62.423.885.376 4.234.266 1.485 1.964 3.048.394.289-.423 1.022.065.584.19.424-.022.562-.312.654-1.202 1.875-.383 1.304.428 1.774-.235 1.778-.605.827-.819.723-.32.858.889 1.176-.918.522-.775 1.501-.857.17-.741-.77-.58-1.497-.631-2.121-.741-.379-.654-.949-.446-1.208-.112-1.18.421-1.263 1.433-1.846.311-1.609-.228-3.353-.665-2.45-1.077-1.835-4.334-4.166-1.681-.973-1.876-.096v.744l.456 1.041-.172 1.062-.537.919-.598.643.88.04.691.459.556.56.463.34 2.313.175.707.621-1.016.389-1.373.262-.398.487 1.892 1.066-.3 1.292.011 1.244.38.916.804.275-.069.462-.081.309-.32.694.468.668-1.742 5.582-.492 1.005-2.27 1.851-.683 1.126 2.525-.951 2.877-1.712 2.644-.752 1.818 1.955.613 4.072-.77 3.078-1.648 2.437-2.064 2.151-.284.082-.708-.185-.286.105-.426 2.188-.427.309-.555.265-.477-.126-.204-.851-.759-.782-3.618-.311-2.65.273-2.691.995-1.223.231-1.231.481-.372 1.284.126 3.66.013.39-.168 2.04-.38 2.213-.535 2.104-.659 1.709-1.132 1.422-2.609 1.34-1.923 2.056-2.648 2.025-.826.401-2.434.199-.989-.19-1.088-.8v-.66l1.24-.614.501-.112-4.77-1.781-.795-.061-.721-1.953-1.663-.614-1.865-.138-1.319-.525-.387.724-.92-.78-.932.126-.884.461-.83.193-.737-.538-.479-.737-.508-.083-.829 1.418-.078.659.107.818.045.884-.264.885-.396.374-1.464.253-1.603.583-.444.011-.398-.285-.369-.472-.249-.45-.043-.186-1.721.076-5.324 1.991-.49-.06-.954-.406-.492.099-.325.367-.307.475-.358.556-.34.208-.882-.484-1.661-2.052-.95-.773.963-2.497.081-1.208-.663-1.218 1.401-1.814.587-1.947-.36-1.904-.506-.603-.909-1.082-1.303-1.122-.667-.385-.742-.099-.667.404-.47.694-.501.54-.744-.067-1.352-.869-1.33-1.134-1.217-1.42-1.035-1.709-.36-1.069-.215-1.037-.282-.898-.558-.634-2.212-1.154 1.091-.584.499-1.075-.11-1.551-.723-1.995-.604-1.667-.39-.43-.743-.06-.502-.305-.566-1.808-.434-.723-3.867-3.253-2.102-1.079-1.956.176-1.823 1.799-3.022 4.809-2.046 1.559-.509.016-1.094-.204-.24.135-.186.103-.094.508.155.652.237.542.164.166.022.067-.484.988-.08-.016-.341.437-.465-.154-.3.078.15 1.147 2.089 1.044-.374 1.485 2.218 1.886-.862 1.218.399 1.752-1.332.872-3.412.909-.707.555-.513.522-.399.699-.351 1.062.3.423.58.495.078.563-1.22.62.28 1.062-.164 1.084-.45.93-.579.649-.858.439-.222-.412.065-.968-.006-1.225.087-.945.181-.771-.212-.264-1.897 1.122-.447.551v.71l1.423 2.986-.382.043-.654.074-3.022-1.033-.918.226-.278-.076-.123-.461-.457-.934-.515-.148-.624.105-.22-.159.692-.929-1.554-.133-2.563 2.05-1.343.269-6.647-1.573-.734-.54-.204-.891-.103-.941-.434-.676-4.491-3.392-1.111-.208-3.705.249-3.418-.462-1.214-.755-.824-1.646-.248-4.713-.412-1.705-.916-.701-2.438-.369-.497-.195-.544-.213-1.072-1.21-.811-1.534-1.318-3.353-1.816-.012-1.565-.84-1.462-1.532-2.646-3.752-1.491-1.662-.604-.891-.13-.865-.19-.824-.788-.744.335-.186 1.14-.634 3.309-.988 1.533-.909.714-.67.318-.455.766-1.574 1.263-1.875 1.314-1.476 4.721 1.115 2.447.101 2.385-.943 6.203-5.941 2.579-.862-.004-.065-.164-2.099-.662-.172-.97.712-1.045.513-.972-.379-1.995-1.807-.859-.502-.47.146-.965.741-.522-.022-.49-.534-.627-1.364-.524-.34-1.079-.307-1.03-.674-.513-1.114.48-1.621-.381-.211-1.023-.869 3.087-1.543 2.131-2.16.858.045 1.78 1.561 2.059 1.093 2.111-.156 2.138-1.232 2.168-2.148 1.11-.659 2.138.596 1.867-.58 1.169.654.653.033.815-.356.003-.228-.336-.368-.206-.808.123-2.691.396-1.458 4.52-5.647.983-1.919.645-2.323v-1.132l-.264-2.757.23-1.284.515-.667 1.236-.515.087-.144.441-.732.079-.903-.354-2.773.251-.768.331-.119.163-.186-.257-.95 1.762-2.753.624-.725.744-.585 3.978-.618.508-.567.479-.766.549-.686 1.202-.477ZM686.853 1041.3l-1.769 2.12-1.206.96-2.951.68-2.342 1.64-1.139.79-2.635.95-5.273.36-.805-.32-.486-.71-.334-.71-.324-.31-.583.45-1.632 2.05-.34.64-3.615 2.33-.173.06-.774.27-1.039.79-1.626 1.68-.21.41-.365 1.16-.275.48-.439.28-.887.12-.358.27-.02.01.788 2.13-.441 2.14-1.099 1.28-1.196-.4-.924-.11-4.395 1.85-15.559-1.43-1.138-.66-1.112-1.53-1.834-2.53-3.642-3.05-.86-.08-1.148.55-1.402-.7-1.227-1.23-.649-1.01-.087-.44.11-.17.194-.06.168-.08-.465-1.97-.159-.5-.439-1.37-.696-1.66-.753-1.34-.501-.53-1.088-.73-.576-.73-.978-1.91-.557-.6-.826-.24-1.988.25-4.711.58-.886.37-.831.54-.548.63-.072.94.477.98.651.96.448.86h-2.59l.004.26-.293.45-.356.19-.168-.53-.172-.39-.41-.31-.492-.21-.417-.09-.197.22-.578.95-.288.2-.41-.14-.651-.49-1.55-.37-.593-.04-.656.3-.656.61-.877 1.07-.598.37-.629-.17-.699-.45-.562-.06-.235 1.06-.799-.04-3.68-1.56-1.089-.08-.212-.36-.114-.28-.137-.73 1.187-.9-.157-1.07-.553-1.27-.014-1.56 2.127-.68.233-.33.669-1.23.408-.56.387.75h-.387v.62l.428.32.425.43 1.925-.65 3.182-.2 2.973-.76 1.312-2.25.024-.67-.036-.54-.011-.17-.304-.18-.737.9-.51.37-.71.09-2.46-.28-3.376-1.89-.898.62-4.905.74-1.346-.52-1.686-1.35-1.5-1.77-.799-1.85 2.568.36 1.126-.16.593-.89-1.137.08-1.148-.29-.958-.71-.578-1.2.19-.22.365-.69.305-.94-.014-.9-.427-.7-.399.31-.484 1.08-.351.34-.501.82-.386.21-.633-.15-.533-.48-.537-.74-1.202.2-.22.71.495.95.927.96-2.134 1.16-2.375.09-4.693-.63-1.82.19-2.229.61-.383.11-2.046 1.47-.13 2.49-.571.11-.137.18v.39l-.145.76-1.144 2.84-.569-.19-.842-.73-.43.32-1.079 1.12-5.549-.14-.947.22-.963.67-.551.75-.495.9-.562.72-1.177.53-.517.96-.562.25-.311-.11-.65-.52-4.058-1.33-1.507-1.09.571-1.05-.907-1.96-3.072-.78-1.2-1.38.395-.69 4.786.69-.132-.34-.164-.77-.132-.33.921-.02 1.627.55.896.16.846-.21 2.091-1.23 3.013-.62 1.518-1.05.636-.16.824.46v-.63l-1.78-1.78-.349-2.45 1.025-2.05 2.38-.59v-.75l-.728.5-1.804.75-3.508.33-.766.48 1.019-.01.75.42.288.91-.356 1.5.882.79-.223 1.13-.927 1.01-4.836 1.14-1.354.05-8.68-1.18-1.099.43.618 1.63-.726.87-.886-.03.136-1.1v-.62l-3.082-2.39-1.207-.36 1.33-.03.884-.18.69-.51.729-1.03.891-.87 2.094-.42 1.074-.47.979-1 .197-.97-.325-2.53-.069-1.57-.256-1.51-.521-1.24-.858-.8-.425.69-1.115-.97-2.454-.35-1.11-.75-.887.67-3.463.71h-1.218l.417-.37.432-.26v-.75l-.209-.44-.116-.33.15-.31.6-.37v-.62l-.486-1.29.587-.61 2.247-.17 1.162-.44 1.872-1.95.81-.44 1.917-.29 2.545-.96 1.961-1.72.188-2.62h.887v-.63l-.746-.65.097-.68.685-.53 1.03-.215 1.688.112.721.213 3.32 1.8 1.197.01 1.798-.75-.425-1.383 1.179.213 2.394.95 1.356.22.571-.42-.098-.987-.276-1.149.018-.903.475-.396 2.082-.359 1.209-.853.898-1.114 1.526-2.531 1.147-1.272.857-.011 2.062 1.63-.139-2.999 2.378-1.174 7.706.285.72-.274.406-.519.3-.699.416-.605 1.843-.582 1.24-.845 1.209-1.138 1.858-2.226.891-.596 1.03-.287 1.269-.074 1.153-.351 7.395-6.414 3.617-5.192 1.836-3.579.831-2.305.553-4.315.524-2.343.687-2.105.71-1.458-.329-.941-.137-1.241.092-1.21.376-.867.501-.105 1.364.726.649.145 1.086-.407 3.203-2.39v-.764l-1.69.015-3.201 1.147-1.699.3-.956-.788-2.844-3.947-.707-1.57.204-2.549 1.014-2.545 1.316-1.969 1.104-.777.224-.294.293-1.388.141-.419.24-.159.669-.251 2.548-2 .799-1.047-1.648.202-1.074.862-1.05.242-4.755-5.842-1.196-2.524-.291-.957.175-.84 1.079-.351.721-.735-.153-1.599-.497-1.595-.277-.681.013-1.463.132-.696.39-.417 3.712-2.679-.459-.197-.197-.177-.191-.399-.714.809-.709.488-.629-.159-.497-1.136-1.61 1.228-1.697.134-3.544-.589-4.498 1.405-1.034.642-1.247.758-4.316-.05-1.285.677-1.182 1.037-2.21 2.583.233.264.152.432-.989.614-.598 1.176-.023 1.331.762 1.106-.8.842-.45.365-.454.202-.752-.101-.867-1.053-1.339-.47-1.191-.97-.72-.222-.741.177-.437.413-.356.47-.443.347-1.386.365-3.484-.365-.922.583-.866 1.032-.885.419-.96-.625.645-.956.067-.457-.249-.63.385-.513.891-1.671 8.651-10.116.94-.526 1.176-.105 1.155-.354 1.218-.652 5.019-3.925 1.229-2.119 4.079-2.676.515-1.351.266-1.864.115-4.314.185-1.212.408-.419.418.215.182.706.251.663.523-.824.466-1.201.072-.448 2.496-3.035.696-.509 1.111-.477.823-1.147 1.292-2.701 1.406-1.727 1.648-1.093 1.824-.56 1.966-.177.519.17.5.3.463.166.795-.551 1.359-.661 1.457-.39 2.136-1.805 6.808-2.849h2.12l-.631-1.911-1.827-1.897-.477-1.248 1.149.132 1.209.365 1.094.654.802.99 1.222-.663 1.348.446 1.287 1.185 1.014 1.557.974.618 7.108-.204 2.485-.578 11.852-5.893 2.602-.094 2.361 1.176 1.312 1.041.576 1.049.703.828 8.01 5.244.916 1.082.772 1.311.459.483.199-.407V871.707l-.71-1.216-.951-1.633-1.509-3.235-2.25-2.97-.851-1.568-.071-1.619.674-1.042 1.135-.629 2.657-.408 1.272-.493 2.241-1.817 1.415.108 1.455 1.783 3.689 9.693 1.111 1.507 1.531 1.371 1.809.826 1.927-.076.061-.217.076-.455.213-.475.461-.28.557.039.947.488.452.123 1.019-.09.889-.255 1.706-1.019-.345-1.337.172-.957.482-.721.539-.616.52.255.541-.076.551-.356.551-.592-.891-.06-3.132.753-.685.434-.437 1.528-1.086.555-.655-.071-2.076-.229-2.666-1.006-2.398-1.715-1.992-2.146-1.489-2.321-7.211-15.87-.332-1.438.153-1.465.736-1.649 4.1-6.841 3.313-4.337.517-.371.537-1.105 2.51-1.787.772-1.093-5.346-.07-2.281-1.024-1.726-2.502-.448-3.537.714-7.969-.73-2.926.994-1.839 1.44-.892 5.724-2.197 1.024-.121.819.648.472.181.197-.475.211-.638.486-.542.561-.406.446-.224-.703-1.189 2.167-2.227.273-1.718-1.088.811-1.079.432-1.91.206-.3-.275-.982-2.292-.132-.824.429-.6.654-.522.542-.554 1.209-2.282.859-.999 2-.831.723-1.06 1.195-2.806-1.05-1.564-1.471-2.95-.904-1.814-.206-1.006 1.33-.529 1.406-1.371.938-1.875-.045-2.051h-.425l-.238 1.601-.886 1.275-1.852 1.492-2.229 1.223-1.138.918-.499 1.136-.481 1.59-1.171.742-2.803.208-.842-.683-.848-1.55-.372-1.698.571-1.093-.448-1.232-.568-1.033-.703-.468-.838.416.282 1.468-.197 1.491-.356 1.387-.192 1.178-.273.885-1.852 2.39-1.054 2.224-.638 1.035-1.704.934-.136 1.208.19 1.44-.061 1.205-2.189-3.087-.575-.535-.994-.069-.862-.238-.721-.463-.614-.744.177-1.644.347-1.819-.038-1.541-.951-.816v-.728l2.068-.658.524-3.1-.141-3.605.103-2.161-.98.573-.513 1.111-.598 2.682.549 2.081-.934.49-1.433-.125-.989.204-1.297.566-1.354-1.371-2.241-4.025-1.851-2.336-.822-1.425-.345-1.711.157-.822.273-.874.117-.952-.457-1.519-.123-1.091-.18-.208-1.484-.73-2.124-4.467-1.46-1.319-5.866-8.281-1.014-.556-.313-.363-.654-1.55-.654-.73.459-.809.663-.768.289-.253 1.323-3.73 1.65-8.406 2.1-4.881.88-2.677.425-.948.526-.466 1.361-.531.67-.474.79-1.051.99-1.776.535-2.054-.574-1.835 2.033-6.339 1.223-2.961 1.459-1.781 1.216-.296.723.569.663.802 1.014.401.669-.078 2.561-1.398-.79-.618-3.112-1.607 1.608-1.774.933-.732 3.918-1.192.784.238.459.387.355.451.486.396 2.326.791 1.247.092 5.185-1.573 1.102-.786h-4.292v-.742l1.198-.203.954-.619.953-.396 1.189.477v-.809l-1.522-.717-.249.068-5.301 1.458-19.838-1.485-1.05-.291-.967-.549-.922-.327-.887.358.184.226.056.027.036.097.107.459-1.05.504-.985-.385-1.787-1.604-.812 2.97.495 1.167.313 2.146.116 2.338-.112 1.757-.694 1.756-1.038.609-5.819-.564-1.612.255-1.345 2.278-4.415-.701.141.564.065.018.215.22-.562.401-.463-.079-.39-.436-.325-.688.706-1.331.306.155.307.502-.094-.816-.099-.336-.232-.331-.741 1.212-.963.943.284 1.124.141.423-.412.11-.859.697 2.122 2.148-.609.502-3.246 1.469-4.887 3.734-2.96.401-1.941-.136v-.805l-.244-.118-.213-.056-.194-.155-.153-.278.175-.315.175-.383.029-.106-.128-1.086.251-1.409-.139-1.1-.848-.392-.03-.506-.906.802-.714 1.554-.213 1.848.6 1.703-2.436.423-3.177-2.085-2.191-3.669.535-4.335-.925.569-1.516 1.951-.998.506-.934-.118-4.643-2.247-.725-.583-.542-.752-.593-1.561-.293-1.19-.43-.746-1.003-.273-.381.464-.486 1.106-.421 1.349-.183 1.18.577 2.547.486 1.59.405.708 1.01.059.889.25.799.563.746 1.008.197 1.386-.542 1.232-.309 1.311.889 1.574-.788 1.568.203 2.267.321 2.041-.41.882-.349.238-.309.499-.41.504-.654.238-1.424-.215-1.323-.592-1.576-1.211-.582-.265-2.216.065-.553-.434-3.616-5.587-2.057-2.041-7.339-4.601-2.812-.81-1.338-.838-1.156-3.053-1.332-.583-2.373.041-1.491.669-1.421 1.116-1.241 1.344-.951 1.373-.535.959-.253.629-.072.567.007.793.114.914.309 1.259.477 1.113.629.475.43 1.165.705 2.551.994 2.556 1.789 1.554.02.935-.325 1.955-.018.999.023.517.806 1.754-1.339-.349-2.671-1.456-1.283-.329-.597-.751-.385-1.702.056-1.772.729-1.001-.472-.672-.253-.713-.011-.741.271-.818-1.164-.132-.511-.206-.414-.394-.278-.975-.273-1.516-.387-1.398-.607-.607-1.256-.593-5.921-7.197-1.8-3.266-1.146-3.851-.32-4.316.19-3.925.423-1.971.878-.854 1.316.077.687-.101.302-.341.287-1.265.618.584.604 1.208.229.584.933 1.539.461 1.035.307 1.14.047 1.19-.092 2.632.273.997.831 1.173 1.03.975 1.115.186 1.09-1.161.206-.428.255-.374v-.741l-2.236-4.541-.356-.99-.17-.893-.034-.168-.871-2.153-.204-1.275.039-2.412.129-.735.258-.929 1.099-2.659.425-1.476.173-2.223.521-2.022 1.216-1.252 2.554-1.665 4.041-5.53.303-.253.64-.173.121-.347-.018-1.165.049-.551 1.424-3.689.246-.975.047-1.077-.156-2.379.109-1.035.343-.667 2.073-2.588 1.13-.963.497-.643.37-1.061.521-2.549.594-1.259 2.008-1.837 4.144-1.976 1.507-2.191.532-2.99-.559-2.657-1.516-1.926-2.266-.779 1.303-1.992-.015-.121-.289-2.327-1.346-2.294-1.822-1.546-3.396-1.509-2.008-.081-.582-.394.465-1.033v-.822l-3.609-2.388-2.019-1.848-1.218-1.796 2.754-2.955.951-2.379-.264-3.738-.401-1.326-.378-.952-.307-1.147-.369-4.792-.009-.085-.237-3.064.385-2.977.891-1.951 1.419-1.227 1.948-.825 1.166-.253.846.103 3.954 1.879 1.052.182.714-.323 1.337.843 10.374 1.635 1.514-1.024-6.786-1.472-2.456-.528-2.704-1.736-3.181-4.066-2.526-.97-1.146-1.18-.983-1.485-.71-1.429-.817-3.338-.038-.54-.924-.235-.32.853.035 1.118.385 1.38 2.953 4.507.699 2.018-.399.898-1.139.218-1.52-.027-1.464-.634-.67-1.573-.192-2.014-.092-4.253.092-.937 2.433-6.424 4.415-7.181.284-1.604-.288-.428-.67.497-.851 1.19-3.57 7.504-.898 1.319-1.337.067-.465-.878.1-3.432-.262-1.507-.647-1.149-.844-.314-.837 1.026.712 2.01.862 3.94.562 3.837-.184 1.736-.794.327-.153.844.269 2.258v2.178l.128 1.496.335 1.274-.857.444-.938-.327-.999-.576-1.072-.304v.761l.79.381.82.576.649.869.298 1.277-.231 1.603-.613 1.087-.714.896-.533.976-.305 1.304-.177 1.086-.264 1.026-.609 1.141-.882.981-.723.136-1.97-.434-1.003-1.226-.889-2.84-.627-3.169-.248-2.216-2.494-3.371-.325-1.42-.472-.916-.998.797.987 1.832 2.373 6.062.463 2.327-.517 1.078-1.189-.412-4.105-3.399-.569-1.435v-2.325l-.634.842-.548 1.467-.381 1.561-.136 1.1-.294.833-1.833 2.697 1.491 3.134.62 1.711.441 1.974-1.139.004-2.727-1.59-2.089-.768-.649-.858-.39-2.78-.369-.408-.493-.271-.474-.571-.215-.786-.052-1.033.052-2.041.136-.869.618-1.232.137-.938-.112-.952-.782-3.268 1.536-1.761 6.799-11.957 3.616-1.528 2.608-2.058.6-.657 2.212-5.12.996-1.479 1.878-1.268 2.389-1.055 2.172-1.615 1.22-2.959-1.095.764-2.303 2.581-1.05.562-2.539.206-1.05.461-.936.867-.676 1.382-1.496 3.925-.588.811-7.431 5.091-5.158 7.952-.56.35-1.128.091-.477.323.025.569-.307 1.584-.383 1.357-.188-.11-.577 1.261-1.348.417-1.54-.137-1.171-.367-.045-.531-.009-.967-.15-.713-.454.273-.217.59-.021.694.038.739-.459 5.994.224.245.934.497.351.087.621 2.213.253 1.277.044 1.046.217.869.755.746v.688h-.425v.759l.266.126.627.555-.3.24-.3.356-.293.231 3.452 3.759 1.558 2.645.56 2.834-.424 1.527-.868.731-2.111.689-.943.677-2.859 3.243-.692 1.04-.584 1.221-.448 1.377-.152.919-.159 1.951-.152.905-1.339 1.039.114.473.249.508.123.314-.098 2.52.568.674.755.21.476 1.114-.38 1.449-.985.43-.737.641.403 2.072-1.323 2.616-.38 1.071-.061.587.061 2.078-.083.896-.206.063-.282-.143-.28.278-1.386 3.682-.996 1.499-1.44.889v.683l.779-.121.627.269.56.585.586.835 1.012 2.48.047.446.73.723-.629 1.651-2.051 2.934-1.02 1.08-1.23.972-1.381.717-1.475.293-.596-.138-1.22-.625-.734-.054-.654.302-1.41 1.033-.721.228-1.805-.031-1.105-.428-.659-1.346-.734-4.695-.128-2.491.33-2.144 1.743-1.474 2.369-2.802.609-1.135.025-2.308-.305-2.488-.112-2.46.882-3.248-.268-.811-.423-.725-.186-.802.23-1.23 1.473-3.286 1.319-3.873.244-2.22-.714-1.519 3.387-2.894.441-1.256.39-1.526.927-1.906 1.065-1.622.831-.69 1.786-.784 2.152-2.043 1.939-2.914 1.152-3.342-6.028 6.892-2.226 1.826-.745.325-.822.04.425-1.438-1.708-.659-.842-.524-.85-1.091-.473-1.516-.065-2.975-.313-.88 2.622-4.001.398-.896.387-1.478.936-1.167 1.126-1.078.952-1.245-1.399.728-2.125 2.516-1.632.86-1.115 1.189-.573.022-.441-.741-.385-1.29-.139-1.223 6.826-10.699.522-1.388-.265-.5.377-.399.349-.557-.802-.354-.781.437-.837.757-.981.618-.38 2.07-2.689 3.142.051 2.462-1.041 2.003-.23.349-.625-.248-.188-.648.101-.788.244-.666.345-2.954 2.276-4.581 4.691-6.854.192-.406.092-.517.163-.455.401-.228.401.105.501.246.365.269.011.146.168.242.522.354.49.058.094-.654-.289-.71-.416-.442-.381-.269-.188-.172-.4-1.765-.11-.961.251-.737 2.003-3.174.423-1.001.381-1.533-1.885.556-1.406 1.736-1.256 1.94-1.439 1.187.4-2.307.806-2.301 1.059-2.141 1.176-1.797-.556-1.487.762-1.192 1.345-.793 1.211-.286.712-.37.119-.817-.401-.814-.837-.369-2.59.835-.553.356-.592.726-.606.571-.611-.118-.367-.986.154-1.27.683-2.339.75-4.193.613-1.46 1.187-1.326 1.15.701 1.684-.193 3.121-1.277v-.701l-1.498.11-2.693.912-1.379-.321 1.258-3.723.479-.884.667-.464.802-.381.501-.54-.266-.927 1.574-2.224 2.084-1.033 6.273-.56 5.035 1.44 2.075-.522 1.672-1.444 3.947-5.43 2.047-4.635 1.316-1.85-1.368.75-.813 1.68-.685 2.01-.958 1.738-2.55 2.307-1.45 2.415-.679.739-2.659.327-6.629-1.552-1.74 1.579-1.01-.735-1.014-4.307-.846.403-.734 1.006-1.187 2.439-.848-.699 2.198-5.407.356-1.606 1.487 1.494 1.529.611 1.406-.056 1.146-.506 2.975-2.318 1.587-.742.78-.58.653-.994-2.091 1.301-.694.175-1.247-.083-.259.083-1.044.837-.685.267-1.347 1.14-.753.213-.743-.349-1.005-1.154-.837-.114.19-.838.224-.367.286-.24.379-.484.246-.538.21-.951.168-.442 1.614-3.109.549-.755 2.557-2.343.396-.741.378-.71-1.204-.845v-.844l.542-.332 1.388-1.218 1.576.188.826-.083 1.824-1.658h1.399l2.687.845 1.287-.374 2.447-1.649 5.02-1.165 1.072-.757-10.276 2.283-4.842-2.357-.016-.674.629-1.581.396-.574 4.2-4.637 1.137-1.875 1.037-2.237-3.696 3.322-.524.92-.267.742-.653.629-.773.444-.64.165-.53.348-.224.833-.117 1.012-.195.908-.821 1.691-.824.965-.927.421-1.099.092-.548.235-.583 1.022-1.307.504-.513.665-.685 1.384-1.786 2.243-.988.678-1.267.249-.633.47-.894 2.075-.586.479-.788.222-.734.58-.67.779-2.498 3.791-4.122 4.959-4.222 3.452-.417.179-.557-.423-.728-1.495-.667-.318-1.021-.206-1.186-.537-1.081-.76-.75-.887.938-1.832.257-.903.119-1.129h-.468l-2.317 3.244-3.77-.816-9.284-7.723-.401-.885.103-1.785.631-.863.905-.331 3.109-.217 2.152.443 2.006 1.053 1.723 1.702.466-.844-1.491-1.219-.62-.761-.016-1.123 6.593-4.473 1.527-.179 3.918 2.065 1.572.332 3.315-.24 1.827-.49 1.316-.887-5.785.77-1.37-.235-3.134-2.023-2.563-.679-6.793 3.784-2.352.692-.659.013-.806-.338-1.397-.997-.799-.217-4.318.338-4.594-1.279-1.572.153-1.227 1.218-1.133.757-1.549-.327-1.435-.835-.819-.795-.338-.639-.271-.618-.175-.665-.065-.758.119-1.081.307-.056.423.212.463-.277 1.361-2.146.806-.695 9.566-1.037.753-.374 2.18-1.653.916-.374 1.057.264.638.639.588.79.927.708 3.284 1.472.542.434-.071-1.241-.3-1.202-.638-.843-1.118-.177v-.846l.768-.097.762.07.729.3.679.573.906-1.158 1.404-.481 1.587.434 1.243.356-4.675-2.334-1.191-1.44-.022-1.241.855-.876 6.454-.932 2.564-1.155 2.015-2.061-.822-.403-1.148.138-1.035.558-.987 1.906-1.254-.035-2.456-.659.533-1.142 2.483-2.758-2.807-.528-5.873 1.323-2.881-.793 2.091-.571 2.203-.139v-.84l-.477-.324-1.262-1.311 1.094-1.339.692-2.343.555-2.653.674-2.253 1.095-1.416 1.748-1.268 1.919-.685 1.614.311.589.717 1.242 2.227.726.963.886.699.965.47 2.053.325 3.385-.824 2.991-1.524v-.781l-1.07.32-1.001.582-.92.316-.83-.437-1.4.988-1.354-.387-1.314-.889-1.272-.493-.947-.643.237-1.467.103-1.58-1.365-.996-.558.083-1.271.591-.685.107-.636-.289-1.061-1.048-.659-.228-.682-.863.929-1.899 2.599-3.394.736-1.265.437-.417.77-.079 1.843.198.635-.538 1.098-.659 1.558.616 2.641 2.032 1.259.686 6.132.069.302-.365.472-.827 1.037-.065 1.027.289.441.211h.426v-.856l-1.225-.784-5.223.916-1.464.598-.824.126-.441-.426-1.594-2.04-.705-.668-5.221-1.604-.775-1.178.441-1.964 2.181-3.15.824-1.597-1.155-1.953 1.497-2.18 2.609-1.682 2.151-.479 1.999 1.527 1.961 2.377 2.107 1.606 2.433-.793v-.782l-2.592-.618-.578-.524-.92-1.678-.624-.784-.598-.334-.589-.779.811-1.703 1.5-1.637 1.504-.6v-.856l-1.516-.652-1.043.948-.781 1.418-.741.723-1.075.347-2.183 1.582-1.244.437-1.308-.184-2.368-1.127-1.216-.269-2.684.892-1.279-.103-.544-1.577.253-.394 1.451-3.551.513-.549 1.356-.846.531-.607.569-.493.445.466.358.775.307.394 1.455-.253 6.972-3.353 2.78-2.608.533-3.259-1.057-.253-1.681 1.752-2.832 4.027-1.616 1.252-1.444-.226-1.512-.735-1.808-.291 1.517-.988.531-.766-.132-1.003-.533-1.427-.116-.762-.273.034-.994.97-4.187 5.58-1.572.808-3.25.484-1.444-.732-1.066-4.559.161.099.305-.197.282-.334.103-.358-.168-.386-.575-.905-.11-.363-.025-1.554.211-.768.667-.773-.645-.377-1.932-.571-.405-.269-.134-1.245-.58-2.009-.135-1.501.186-.831.849-1.965.239-.732.072-1.658-.025-1.474.273-.907.959.009-.135-.529-.197-1.323-.134-.525 1.108-.454 1.108.213 1.075.719 3.351 3.478 1.055.796.537-.455 1.075 1.673.553.439 1.871 1.333.679.184-.336-.652-.186-.605-.139-.571-.188-.554 4.487-.792 2.57.452 1.459-.043.258-.77-1.896-1.611-2.819-.656-2.763.388-1.723 1.52-2.125-2.524.329-.358.517-1.15-2.075-.396-1.088-1.812-.784-2.292-1.155-1.861-.956-.403-.963-.132-.765-.475-.329-1.452.36-1.409 1.269-1.438-.358-1.053v-.869l2.317-1.339 1.189-.056 1.838 2.078.779-.109.656-.892.493-1.277-.692-.204-.443-.593-.408-.768-.624-.755-.728-.446-5.189-1.221-.195-1.259.304-3.033-.109-1.359.159-.961-.54-2.361-.078-1.472.237-1.257.461-1.144.649-.972.811-.693 1.583-.638 1.643-.018 1.627.52 1.532 1.005-.237 1.593.192 2.321.425 2.356.473 1.723.613 1.218.822.885.947.471 1.018-.034-.465-.551-.289-.585-.479-1.404.783-.047.609.181 1.162.733-.407-2.294.257-1.658.11-1.505-.855-1.805-2.402-2.283-.8-1.335.65-1.183-.482-.134-.192-.215-.173-.453.598-1.117 1.444-1.958.506-.928.898 1.147.68.46h2.291l-.359 3.207 1.767 2.366 2.545 1.373 1.997.253-.385-.795.755-1.011.743-3.344.591-1.245.792.013 2.83 1.246.864.734 1.751 2.108 2.096 1.317 4.502 1.779-.918-1.631-.699-.73-1.82-.84-2.736-2.854-4.002-1.832-.497-.477-.094-.67-.153-.273-.031-.316.275-.789.396-.096.473.54.45.089.345-1.409 1.186.746 1.744 2.579 1.359.759.708-.056 1.186-.616.667-.13.786.258 1.41 1.041.607.229.779.506 2.277 2.262 2.633 1.23 1.798 3.241 1.267.834-.354-.625-.432-1.058-.37-1.133-.156-.815-.329-.787-6.235-5.505-1.516-.406v-.874l1.227.014.495-.86-.099-1.371-.557-1.467-.761-.675-2.006-.412-.889-.842-1.836-.479-2.57-3.282-1.587-.336.136-.316.032-.096.297-.311-.935-1.338-1.225-.43-2.557.159.209-.513.12-.403.173-.365.351-.403v-.804l-2.059-3.779 1.177-1.602 2.371.681 1.487 3.089 1.363-1.122 1.337.446 1.376.185 1.496-1.919h-.394l.311-1.161-.045-1.075-.295-.954-.435-.835h.858v-.807l-1.283-.878.826-.62 1.78-.437.839-.486v-.881l-2.055.097-.982-.211-.869-.683.463-.746-.463-.582-.515-.471-.551-.347-.595-.211.132-.553.197-1.386.136-.554-.801-.009-.62-.432-2.873-4.48.052-1.976 1.01-.338 1.432.627 2.624 1.842 1.055.293 1.052-.293 2.471-1.687 1.324-.448 1.354.168 1.316 1.075.473-.867.833-.782.866-.564.557-.213 1.111.372 1.885 1.678.846.376 3.112-.275.954.275 4.289 3.3-.613-1.248-.71-.737-1.692-1.315.819-.694 1.778-.318.846-.607-3.954-.811-1.227.004-.506.327-.705 1.055-.665.231-.629-.255-1.283-1.105-.682-.255-.921-.636-1.84-2.78-.638-.636-.076-.439-1.18-1.821-.235-.238-.477-1.503-.201-.88-.137-.865h1.24l-.629-1.261.032-1.18.436-1.185.589-1.248.061-.605-.077-.784-.006-.688.235-.28.472.121.826.5.385.116 3.618 2.536 2.604-.101-1.729-1.422-.588-.78.192-.967-.421-.883-.568.6-.625.314-.665.072-.698-.108v-.882l.618.029.192-.029v-.813l-.421-.088-.264-.204-.593-.6 3.452-2.059 1.531.726 1.865 1.333-6.848-6.061-.005-2.171.121-1.035.486-.553 3.307-1.983.922-1.03.734-1.828h-.421l.482-2.471.226-2.452.414-2.054 1.043-1.266 8.017 1.808 1.469.979 1.11 1.451.011.638.321 1.869.378 1.619.181-.116-.047 1.321-.165 1.04-.274.905-.402.884 1.141-.931.497-1.098.119-1.205-.016-1.284.273-1.74.54-.748.342-.847-.306-2.005 1.099.963 1.921 2.59 1.039.524 1.748 1.382.802.253.647.424.044.992-.246 1.093-.253.757-.73.972-2.207 2.184-1.117 3-1.191 2.246-.589 1.624 1.155-.183 3.703-4.176.593-.336.412-1.854 1.019-.84 1.249-.599 1.142-1.155.689-2.066.37-2.159.633-1.691 1.52-.686 2.682.525 2.617 1.182 3.052 2.301v.893l-.087.428-.052.068.137 1.205-1.46 1.724-.922 2.171-.804 2.464-1.104 2.598 1.075-.479 1.054-1.062 1.7-2.522.073-.475-.078-.567-.016-.466.253-.203.265-.132 2.527-2.783.186-.266 2.4-1.7 1.672-.818.625-.078 1.233.412 1.861 1.783 1.406.399-.885-.885.67-.524.369-.715.284-.685.417-.453.705-.116 1.178.607.859.174.547-.36.476-1.575.699-.365h2.375l1.305.423.549.029.698-.452.542-.86.791-2.005.561-.399.571-.136.099-.132.076.291 1.155 2.32.343.321 1.392-.292 5.34.89 5.332-.89 2.689-1.274 4.274-3.282 2.395-1.158 3.884-.755 1.997.063 1.427.692-.616.643-.235.175 1.509 1.422 1.746-.145 3.551-1.277 3.461 1.597 1.706-.02.826-2.397-1.055-.464-1.139-.842-1.01-1.232-.665-1.624 1.424-1.942.945-.634 1.034.19.244.639.159 1.118.244 1.052.457.469h1.912l4.088-1.302 2.5-.253 3.251 2.379 2.066.02 4.104-.842 2.104.936-.389 2.177-1.187 2.455-.297 1.781-.703.993-.934 2.159-.569 1.006-1.632 1.59-.454.786-.699 2.317-.002 1.937.658 1.427 1.321.829.775-.092.692-.408.593-.154.486.654.206 1.398-.273 1.061-.562.679-.641.195-.577 4.204-2.707 5.343-3.3 4.852-2.353 2.715-2.601 1.534-5.456 1.958-2.19 1.364-3.306 3.382-.555 1.098-.482 1.964-1.166 1.978-2.606 2.959-13.688 11.357-4.62 2.388-1.142 1.16-.544 1.25-.614 2.386-.349.855-.553.585-1.558.885-1.975.464-3.994 2.806-.593.372-.419.703-.23.975-.036 1.232-1.019-.587-.295-.287.428-.73-.869-.459-1.596-.211-1.782-1.079-.294.472.173.97.541 1.037.934.717 1.941.09.954.468.421.531 1.318 2.278-1.287 2.191-.305 1.202.278 1.34-.983-.018-1.851-.735-.958.018-.569.457-1.095 1.512-.501.428-1.742-.052-3.582-1.863-1.728-.482-5.028 1.335-1.375-.967-2.008-2.834-1.191-1.089-1.252-.443 3.291 4.991 1.986 1.668 2.389.538 2.512-1.216 1.298-.229 1.099 1.044 1.068 1.319 1.478 1.078 1.014-.038-.349-1.958 3.987 2.773 2.189.587 3.513-2.829 1.995.472 1.108 1.481-.849 1.519 2.029.587 2.312-1.058 2.23-2.128 1.764-2.602.941-1.103.772.128.412 1.145-.173 1.902-.485 1.019-8.472 11.213-1.421 1.154-1.644 2.526-.812.849-1.232.256-.973-.471-.309-1.153.774-1.824-1.668-1.628-2.2.831-4.823 4.402-.823.365-1.586.105-4.065 1.147-1.155-.224-1.057.051-.459 1.347-.416 1.601-.947.769-.882.369-4.048 4.14-.56.761-.506 1.165-.508 1.792.311.085.844-.658 1.872-.8.92-.918.875-1.179.638-1.14.753-1.062 2.841-1.762 2.402-2.518 2.655-1.394.508-.06.717.318.823 1.053 3.132.705 1.366-.047 1.001-.802.786-.853 2.706-1.736.954-.157.302 1.465-1.294 2.419-1.802 2.27-1.82 1.44-2.19 3.537.193.596.197.43.213.311.244.251-2.891.284-1.202.711-1.05 1.384.587 1.077-.426.162-1.437-.455h-3.401v.869l1.785-.06.85.199.766.582-1.139 2.664-.694 1.176-.715.911 2.25.614 1.12.067 1.303-.678 1.014-1.279.472-.76.045-.331 1.404-.115.658-.34 1.164-1.729.904-.899.979-.642.882-.247 1.13-.558-.714-1.276-2.328-2.124 1.735.114 5.711-.909 5.984.591 1.919-.591 9.51-7.157 3.716-.871-.461 1.279-.32.549-.495.56.82.672.801-.068.844-.378.941-.229-1.283-3.109 2.29.816 1.238.147 1.193-.242.889-.683.999-1.265.591-1.481-.359-1.34.614-1.2.562-.105.609.351.77.157.799-.327 1.659-1.039.752-.229 7.751.338 4.652 3.087 8.185 2.865 2.726.094 2.517-.806 3.85-2.809 1.035-.374h9.846l.425.255.629 1.138.627.271.696-.242.52-.394.499-.085.658.721 2.12-1.039 5.328 1.866 1.957-.106.99 1.604.497-.175.441-.896.817-.53 1.115.132 2.939 1.527.457-.887.481.171.562.539.667.175.714-.403 1.066-1.048.56-.209 1.211.76.752.208.334-.569.19-.654.446-.627.579-.475.524-.233 1.328.251 2.754 1.713 1.258.424 1.612-.343 3.72-2.843 1.01-.25 6.882.25.045.442.38 1.01.54 1.082.539.65.762.094 1.032-.917.763.025.423.488.714 1.566 5.279 5.97.56 1.993.215 2.11.349 2.057.958 1.848v.719l-.25 1.456.653 1.279 1.769 2.016-.887.11-.42.873.055.997.594.482.77.311-.41.712-1.446 1.273-2.552 3.505-1.079 2.086-.155 1.595-6.512 6.151-1.608 2.522-4.009 10.696-1.487 5.969-.349 2.348.17 2.141 1.187.934.19.986-.994 2.101-.036.081-5.626 9.072-1.916 4.121-.822 4.113.186.968.367.696.309.847-.007 1.393-.306.641-1.147 1.496-.248.585-.385 2.061-.918 1.281-2.14 1.716-1.673 2.401-1.495 2.697-1.014 1.223-3.473 2.236-1.05.938-1.106 1.324-.593 1.239-.3.629-.678 4.982-.752 1.384-.851 1.145-.627 1.68-.004.885.389 1.55.04.663-.347.788-1.112 1.217-.654 1.962-.963 1.216-5.841 4.225-1.07 2.379-1.271.918-2.393 1.196-.558.865-1.177 2.986-.6.284-.441-.284-.495-.459-.779-.24-3.397.5-14.722 2.161-.309.047-2.408 1.111-2.159 1.682-6.496 6.669-2.615 1.109-2.698-.903.746 1.057 1.09.421 2.646-.009 1.303-.356 2.63-1.592 2.418-.605 12.416-6.344.645-.752.578-1.073 1.343-.863 1.5-.257 1.063.692 1.111 1.106 2.201.184.745 1.404.119 2.146-.459 2.012-.831 1.678-.994 1.153h1.531l.236.343.275 1.548.121.416.705.33.553.096.459.246.414.796 5.698.439 1.363.703 2.122 1.994.5.282 2.265 2.02v.69l-3.32 3.284-1.135 2.222-1.475.708-3 .683-3.949 2.726-1.404.401-1.531-.264-3.822-2.034-2.989-.058-1.513.423-.645.82-.481 1.03-3.311 2.375-3.457 3.989-1.027.601-1.247.45-.67 1.191-.868 3.766-.706 1.635-.922.645-4.365.235-1.243.563-2.16 1.494-2.47 1.158-2.438.421-2.438-.168-10.067-2.997-5.539.101-2.4-.809-2.205-1.577-.065-.063-2.225-2.168-1.303-1.669-.864-.573-1.277-.041v.693l3.723 2.636.533.858.517.3 2.145 3.842.311.817.549.191 1.193-.24.425.049.442.585.295.753.405.663.75.286 3.522-.784 1.392.023 10.713 3.044h2.937l1.081-.526.614.04.662.898 1.057.939 11.315.925.441.354 1.115 1.577.38.421.779.15 3.896-.408 4.719-2.092 1.451-1.259 1.034-1.731 1.07-1.373 1.552-.191-.352-1.348-.168-.5-.289-.441 1.133-1.013 1.845-2.231 1.267-.566 10.446.759 1.193.544 1.769 2.48 1.13.721-.557 1.837-.329.585.877.313 1.59-.304.94.681.26-.446.638-.58.412-.495.913.965 2.539 1.814 2.375.771 3.952 3.358 2.689 1.467 10.025 1.969.55.298.341.909.092 1.026.145.822.486.343 1.339.547 1.202 1.379 3.571 7.092.821 1.624 8.212 10.625.913 2.573.629 1.358 1.344.954.34.782.273.795.325.39.582-.179.396-.522.28-.554.231-.255.696.099.797.414.754.916.551 1.591h-1.265v.687l.748.453 2.187-.63 1.354.175 4.254 3.076v.752l-.342.728.103.802.436.802.654.753-.851.676v.753l.537.354 1.203 1.151v.753l-.522.963.309.529.625.367.436.466.273 1.317.224 7.37-.11 1.068-.322 1.796-.051.59-.016.949.376 2.393 1.54 2.827.173 1.926-.076.517-.121.5-.184.468-.24.455-.268.815.114.721.246.695.137.721.349 1.272.781 1.219 1.431 1.584-.51 1.435.315.672.611.583.394 1.106-.176 1.08-.421.932-.285.954.262 1.127 1.073 1.673.297.786.213 2.355.549 2.318.228.688.239.19.806.363.231.186.094.309.21.889 1.021 2.751.569.983.32.97.285 1.376.411 1.238.71.531.208.305 1.742 1.857.472 1.167.059.663-.112.482-.032.658.072 2.415.157.963.447.383-.167 1.001 3.678 13.461 1.327 3.402 2.181 2.89.958.716 3.293 1.488v.804h-1.269l.011.486.105.334.35.658.152.865.244.789.367.687.513.601-.513.925-.595.535-1.483.674.159.78.305.446.439.192.602.052.172-.175.056-.354.092-.275.296.069.165.271.26.526.154.513-.109.233.75-.147.369-.569.54-3.024 1.088 1.458 1.056.898 1.209.455 2.626.358 3.027 2.041 12.806 4.016 14.012 8.958 1.764 1.754.735 1.492.064.967-.111.838.197 1.089.649.911 2.068 1.539.876.881.935 1.689 1.071 2.555.754 2.702.025 2.148.217.708.345.699.485.546.652.227-.26 1.108-.168.421.517.547 1.171 1.745.479.555 2.541.686.629.473.735.741 1.435.737.466 1.075.438 2.832.137.436 1.65 1.759 7.627 3.073 2.239 2.068-5.507 3.053-1.917 2.24-1.542 4.197 1.374 2.966 1.789 6.937 1.095 3.179 6.6 10.367 11.126 16.703.983 3.472-.77 3.41-.356.387-1.343 1.107 1.354-3.235.289-1.783-.983-.782-1.291-.441-2.698-1.993-1.348-.504-1.227.295-2.413 1.514-1.316.348-1.518-.146-1.424-.432-1.267-.681-1.086-.898-5.937-7.773-2.183-1.633-2.199-.356-.593-.094-7.847 2.674h-4.94l-2.114.511-.441-.179-1.54-1.526-.184-.244-3.604-.423-1.328.423-4.242 2.881.568.206.549.309.521.412.482.511.933-1.667 1.724-.817 1.885-.133 1.456.399 2.534 1.85.669.728.922.621.992-.381 1.726-1.386 11.156-2.084 1.737.755 1.185 2.117 4.468 7 2.778 1.449 1.921 2.312 1.075.786 2.18.334.894.376 2.91 3.676 5.971 4.926 1.191.537 1.182.274 1.11.504.994 1.185.193.784.136 1.073.168.949.356.413.569.194 1.8 1.295-.472.715 1.085.824.967 1.447.699 1.658.269 1.42 5.088 14.096.878 3.929.024 4.451-1.298 5.43-.369.721-.695.291-1.237.258-1.019.658-5.572 5.679-1.156.481-.85.67-4.903 7.278-1.305 1.413-1.469.603-.963.681-.846 1.442.105 1.257 1.894.143 3.233-.768.817.327 1.733 1.463.851.327 1.48 1.021 3.208 5 1.515 1.85 1.106-.822 1.319-.192 2.485.246 1.014.591 1.749 2.516.913.477v-.703l-.329-1.611 1.258-1.926 1.628-1.842.817-1.377.333-2.511.791-2.782.973-2.527.831-1.763 2.154-2.251 3.071-1.452 3.352-.656 3.022.125-.466-.77 1.268-.468 1.374.329 1.395.594 1.327.315h5.308l2.479.65 2.838 1.398 2.951.741 2.834-1.31-.653-.475-.741-.282-.782-.097-.806.086v-.708l19.225 4.681 7.558 3.902 15.46 11.926 1.816 2.074 1.475 2.538 1.171 4.863 1.142 2.995.817 3.022-.405 2.184.381 1.577.116 2.025-.072 3.691 1.471 4.801-.253.916-.79.983-1.567 5.293.056.99-.141.982-2.758 7.324-1.977 3.609-.67.746-.658 1.156-.141 2.609.161 4.583-.333 1.974-1.126 3.497-.244 1.839-.894 2.741-.1 1.405-.329.558-4.899 2.078-1.05 1.212-.922-.73-.325.833-.181 1.304-.502.672-.425.357-1.507 2.34-4.359 4.84-.705 1.13-.698.28-4.229-5.49-1.841-.6-3.091-2.51-1.704-.345v.695l2.221 2.11 1.298.95 2.859.67.654.34.273.45-.045 1.63-.212.45-1.263-.32-.734.1-1.328.44-.741.09-.781-.22-1.74-1.16-1.383.1-3.027 1.02-1.581.26 1.644.77 10.376.67 1.243-.75-.217 1.89-4.919 5.07.79.61.974.43 2.277.34.645-.64.465-1.03.274-.11.1 2.13-.741 1.59-3.559 3.32-3.204 2.18-2.017.86-4.359.65-1.171-.18-.582-.52-.994-2.05-2.028-2.79-.558-1.35-.172 1.92-.934 1.09-2.301 1.13-1.921 1.81-.457.25-.035.55-.182 1.2-.284 1.21-.325.55-.73.17-.998.89-.638.3-.761-.01-1.375-.59-.602-.15-1.536.18-2.879 1.13-1.388.82.974.48 1.135.15 1.05.53.714 1.59 1.764-1.76 3.985-.88 1.901-.8 1.795-1.47 1.1-.21.967.99.116.86-.177.98-.257.75-.141.17.128.79.237.79.486 1.23-.629.54-.233.85.011 2.34-.213.54-.497.5-.954.71 1.684-.12.598.35.233.45-1.704 2.88-3.188 2.9-2.803 1.76-.75.47-2.803.89-4.932-.8-1.724.12-.04-.05-.822-.02-.244.04-.163.03-.081.16-1.206 1.15-.918.3-.838.04-.806.21-.837.82-1.003-.96-.345.02-1.358.08-4.319 1.14-.325.73-.176 1-.397 1.12-.821 1-.898.52-.927.35-.913.53 3.98-.68.522-.32.289-.71.212-.7.294-.32 4.065-1.13 9.967 1.46.913.66.775 1.42.076.96-.624.55-1.292.17-2.237-.5-.967.03-1.968 1.91-2.281.55-1.135.74.481.56.426.69.461.6.589.26h5.352l2.555.68-.497-1.17-.284-1.39.308-.96 1.312.05.121 1.27.679 1.83.882 1.64.685.71 13.258 1.52 7.705-2.4 20.116-1.88 1.52.91-.569 3.28-.224.63-.293.6-.356.48-.405.33-2.221-.01-.334.35.188 2.14.45 1.68 1.024 2.65.548 3.94-.517 3.8-1.267 3.17-1.7 2.06-4.161 1.43-1.708 1.32-.706.07-1.347-.11-.742.27-.613.62-.533.7-.477.5-1.238.52-4.081.1-1.218.34-1.262.85-2.45 2.25-3.188 4.68-.617 1.16.163 2.56.669 3.83-2.16.87-4.695-1.56-4.209-1.39-2.478.82-6.109 5.99-2.505 1.14-13.5 2.9-2.317 1.04-.314-.02-.685.93-.613 1.04-.132.38-2.129 1.4-2.313 3.31-2.313.04-1.231-.19-2.854-1.07-.681-.13-2.201.03-.561-.33-1.091-1.08-1.153-.39-2.648-.19-1.057-.38-11.881-4.36-2.053-.2-.172.09-1.511.81-2.277-.92-7.968 2.88h-10.677l-10.201 3.43-.551-.19-.517-.46-.52-.32-.582.24-.345.85.426 1.86-.293 1.01-1.183.68-1.423-.47-5.689-3.65-.459-.59.349-1.01.833-.65 1.798-.73v-.61l-.62-.46-1.218-1.23-.721-.39-.302.33-.759.43-.45-.12.618-1.32-.672-.38-.587-.32-1.967-.37-1.5-.01h-.437l-1.175.34-.8 1.75-.566 2.37-.846 1.86-1.652.21-1.263-1.44.584-1.72 1.142-1.69.383-1.34-1.131-.61-.051.01-3.842.3-.927.3 2.181 1.83.369.62.159 1.92-.23 1.05-.82.76-.812-.04-1.136-.44-1.014-.65-.436-.61-.417-.92-2.008-1.08-1.475-1.29-2.053-.71-.826-.44-1.07-1.31-1.267-1.56-6.876-3.89-1.068-.6v.61l.621.32 1.15.73.77.12 1.527 1.87 4.863 5.48.548 1.34-.188 1.17-1.403.51-3.994.35-.918.31.456.35.401.39v.61l-2.838.53-1.603.58-.706.57-.273.04-2.044-.37-2.024 3.72-.136.4-.112.02-1.216-.36-1.334-.89-4.269-.82h-.141l-1.252.01-1.375.41-2.395 1.27-1.133.27-1.603-.3-2.344-.45-1.392.08-1.243.4-1.184.65-.034.02-1.058.85-.947 1.14-.679.49-.268-.67-.112-1.01-.197-.53-2.394-.67-1.632.12-.501-.12-.217-.37-.045-.12-.477-1.18-.32-.28-.569.5-2.153 3.54.817-.12.736-.27.692-.43.685-.6 1.339 2.42.725.73 1.146.28 1.039-.01.914.2.432.76-.441 1.67.918.59.358.14-2.167 2.69.13 1.46-1.153.55-5.076.1-1.059-.22-4.681-2.23-11.543-1.3-2.144-1.35-1.326.19-2.339.79-.73.95-.775 2.1-.347 2.09.573.95 1.572.52.157 1.24-.659 1.55-.877 1.39h-.385l-.052-3.72-1.441-2.44-13.048-10.07-10.708-4.03-1.401-.06-3.627.85-1.072.25-2.208 1.48-1.473.17-2.36-.67-.725.23-1.419 1.18-.318.19-1.034.89-.6.27-.65-.07-1.2-.53-.707-.15-1.191.21-2.089.97-2.534.62-.721.99-.562 1.31-.942 1.34-4.523 2.01-1.406-.07-1.047-.34-.838-.81-.77-1.47-.81-2.35-.253-.39-.177-.1-.134-.21-.197-.21-.363-.1-.208.21-.072.47.065.46.781.89.826 3.38.542 1.31-1.11 1.06-1.003 1.36-.902 1.67-.818 2-.691 2.68.058 1.92 1.095 4.1-1.388.09-1.395.36-1.077.81-.425 1.41.434 1.61 1.079.53 2.774-.13v.66l-.625 1.7-.051.36-.562.09-.477.28-.322.5-.424 2.44-.745.53-.974-.31-.998-.86-.45 2.18-1.328.81-1.399.38-.649.93-.334 1.65-.636 2.04-.358 2.29.479 2.44-.936.49-2.509.73-1.066.11-1.395-.34-1.135-.58-.974-.11-.918 1.03-2.326-2.13-3.604-4.51-4.097-3.76-.689-.32-.574.15-1.591.91-.614.21-.358.23-.837.95-.511.22-.691-.15-.641-.38-.989-.87.141-.35.244-.92-1.368-.39-1.386-1.01-.651-1.49.857-1.84-2.29.16-.685-.16-.795-.55-.369-.63-.269-.79-.501-1-.477-1.62.472-1.38.846-1.31.672-1.4-1.24.62-.632-.06-.685-.56-.194.78-.065.27-.477.7-.632.35-.761-.04v.61l.905.61.253 1-.224 1.04-.549.75-.806.26-3.017-.26 1.052 1.51 3.541-.57 1.397 1.06-2.164.61v.67l.521-.15 1.22.15-.463.73h1.742v.6l-.703.26-.417.52-.071.66.333.68v.61l-1.323-.09-.667-1.2-.587-1.38-1.074-.67-5.317-1.39-2.864.31-4.517 2.86-2.438.95-10.245.61.016.15-.195.28-.318.24-.351-.01-.856-2.66-.445-.08-.365.25-.336.33-.36.17-1.261.11-1.28.43-.697.8.491 1.26v.73l-.432.36-.578.63-.513.7-.217.63.092.6.334.65v.42l-.744 1.82-.107.54-.625.69-3.087-.49-1.184.5-1.158 1.4-1.088.64-2.646.89-.837.86-2.602 4.52-.754-1.22-.363-3.44-.799-.72-1.231.35-.041.86.11 1.11-.79 1.06v.6l.378.29.938 1.1-.524-.04-.409.18-.768.53-.594.44-.08.71.04.8-.253.71-.553.43-1.997.89.705-.03.536.15.884.54.309.05.721-.14.284.09.146.43.221 1.29.253.27.271.82-.808 1.79-1.78 2.7-.575.13-1.254-.24-.761.11-.426.37-1.847 2.19-.723 2.27-.212.52-.558-.22-.638-.52-1.871-2.09-.303-.46-.266-.68-.222-1.21.05-.79-.025-.68-.441-.96-1.784-2.92-.994-1.22-1.223-.9-3.752-1.79-2.525-.46-2.082-1.28-1.041-.44-1.299.07-1.63.58-1.188 1 .018 1.33.373 1.69-.678 1.3-1.115.9-.933.48-2.555.83-2.986.32-2.353-.91-.654-2.96.602-.07.446-.19.268-.4.005-.61-.168-.46-.199-.26h-.103l-.338-1.83-.114-1.03.239-.45.117-.33 1.175-2.03.492-.34 1.829-.69 3.972-2.31 2.129-.75 2.396-1.55 1.361-.03 1.932 1.85 1.253.63 1.283-.79.9-1.46.441-.96.186-.91.331-.36h2.221l2.308-1.3 7.135-7.53 2.288-1.61.851-.28.213-.5.051-1.14-.087-1.22-.414-1.96.703-.49.942-.08.468.05 4.328-2.34.132-.56.588-1.32.558-3.81.072-1.98.21-1.69.6-1.35 1.247-1h1.272l.456-.33.811-.95.472-.12.361.54.27 1.15.168 1.34.054 1.12.419-.26.159-.16.235-.31 1.128.7 2.584.13 1.003.5-.686-1.3-1.088-.66-2.052-.77-.974-1.27.1-.91.314-.82-.331-1.02v-.61l1.549.32 4.638-.32 1.789-.6.99-1.43.721-1.79.982-1.61-.385-1.47.217-1.05.625-.47.86.25 4.412-3.82.73-1.22.484-1.74 1.171-1.34 2.601-1.96 1.69-3.44-.3-8.71.694-4.09.432-.83.882-2.49-.248-.76-.233-1.41-.056-1.39.305-.62h5.55l.678.23 1.287.97.625.22 3.615.39 1.272-.39.934-.68 4.211-4.74.347-.57.277-.6.385-.53.654-.39-.39-.95-.75-2.7-.136-.72-.213-.62-1.065-1.61-.421-.86 2.084.18.466-.18.403-1.07-.092-1.05-.464-.85-.698-.48v-.62l4.746-1.9 11.391-1.07 2.335-.9 1.171-.2h4.504l1.366-.26 1.983-1.07 1.117-.09 8.062 2.12 5.01-.17 7.796 1.82 1.858 1.76 1.207.58 7.117-.31 4.475-1.41 2.25-.32 4.112.22 2.443-.36 1.759-1.22.464.68-.855 1.42.855.68 1.061-2.05.215-.73.11-1.27-.121-.65-.215-.53-.197-.95.033-3.73-.185-1.89-.699-1.18 1.209.37.638-.28.005-.01.23-.91.038-1.55.493-.92.866-.9.399-.93-.941-1 1.355-1.42 1.99.41 2.295-2.26 4.222-5.66 1.11-.9 1.102-.65 1.225-.38 1.47-.12 1.321-.55 1.263-1.31 5.503-9.5.512-.4.647-.29.549-.44.226-.89.148-.82.342-.93.419-.85.365-.59 3.564-3.77 2.129-2.93 1.075-.6 2.668-.93 1.019-.94.483-1.15-.161-1.15-.915-.89-.271 1.87-1.12 1.05-1.435.47-1.236.12-1.17.44-.858 1.09-.754 1.36-.882 1.22-3.712 2.48-.589.64-.566.98-4.048 4.87Zm98.588 89.86 1.271 2.01v.74l-.288.01-.168.17-.139.25-.213.24-2.33.7-.994.49-1.726 1.54-.365.47-.155.5.036 2.12-.056 1.09-.213.47-6.899 2.06-2.264-.66-8.124-5.79-.426-.6-2.066-1.48-.714-.3-2.349.29-1.018.42-1.12.7 1.505-2.76 2.454-2.13 5.433-2.56-.137.33-.159.66-.118.35 1.527-.18 1.453-1.2 2.122-2.65 1.556-1.1 1.417-.1 9.436 3.88 1.541-.04.649.14.752.58.038.24-.076.83.038.27.175.06.539-.13.175.07Zm7.654-9.36v.61l.329.32.558.69.423.34v.73l-5.102-.73v-.67l1.374-.57 1.628-2.84.79.04.596.55.154.59-.224.53-.526.41Zm116.574-59.96 1.308 1.45.604 1.47-.361 1.19-1.551.66-7.269-.61-1.227-.47-1.09-1.11-.878-1.37-.598-1.21.806-2.74.441-.61.811-.22 7.717 2.69.609.35.678.53ZM567.751 872.063l.283.576.548.632.343.802-.323 1.126-.515.256-.624-.262-1.279-1.154-1.269-2.383-.609-.731-.546-.147-1.809.147-.39-.224-1.077-1.845v-.713l1.662-1.489.725.432.714.025 1.115-.141.461.394.938.929.833 1.109.593 1.261.226 1.4Zm29.847-3.92 1.821-.076.864.191.759.598-1.279 1.409-2.16 4.079-1.491.855-1.54.298-1.574.802-1.469 1.156-1.202 1.36-.228.329-.117.267-.04.418v.762l-.063.833-.186.094-.27-.1-2.192 1.586-.972 1.243-3.969 2.381-.654.219-.768-.152-1.603-.719-.018.238-.373.342-.495.224-.387-.152-.092-.6.038-.964.107-.88.139-.399.486-.448.721-.972.327-.974-.663-.444-.943.471-1.367 2.004-.918.363-.061-.324-2.064-1.804-.175-.076-.499.132-.177-.056-.04-.28.081-.862-.041-.28.016-.305-.076-.761-.206-.775-1.263-1.208-2.068-4.072-1.117-1.409v-.78l.36-1.052.128-1.588-.025-2.276.309-3.475-.137-1.514-.633-1.561 1.095-.816 7.978-2.732.782-.025 4.318.719 1.171.061 2.378 1.366.611.567.302 1.25.157 1.25.208.569-.056.28.772.6.9.511.332.029.062.531-.071.714-.02.634.226.26.058.242.983 1.185.342 1.2.119.887.262.565.788.199.795-.103 1.426-.446.772-.103.365-.237.551-1.019.362-.233.426.123.786.535.279.121ZM464.397 654.228l3.215.495.654.32.152 1.172-.387 1.38-.591 1.229-.452.704.096-.881.024-.524.068-.392.235-.508-1.44-1.239-1.54-.152-1.545.177-1.43-.218.687-.654.689-.49.739-.303.826-.116Zm72.612-21.737-1.384.981.121 1.447.638 1.718.159 1.799-.859 1.01-1.606.697-2.852.537-3.351-.34-2.85-1.015-2.59-1.642-2.555-2.255v-.749l-.031-.725-.571-2.957-.251-.833v-.753l.32-.273.121-.278.117-.35.293-.528-1.54-2.202-1.162-2.204-.549-2.644.309-3.57.842-2.383 1.507-2.375 1.923-1.705 2.107-.391-.13-.379-.159-.824-.137-.379 1.621-.107.511.107 4.04 2.047 1.1 1.044 1.287 2.066.871 2.347 1.247 5.459-.714 1.49 2.691 2.809.147 2.47-.611.377-.895.031-.573.385.342 1.465.511.408 2.545 1.167Zm2.554-26.515.67.464.479.842.121.927-.423.717-.786-.054-.602-.945-.735-1.951-4.068-3.864-.647-1.846-.723-3.109-.129-1.436-2.154-1.485-.401-.822-.495-1.705-.761-1.93.078-1.732 2.033-1.086 1.928 1.655 1.896 2.139.562.354.553.099.419.338.358 2.518.445.533.573.217.533.488.761 1.481.571 1.458.441 1.517.647 3.452-.08.676-.401.578-.663 1.512Zm-62.333 2.26-.15 1.261.027 1.252.19 1.12.36.896v.693l-.741.378-.644.464-.493.652-.289.907-.385-.827-1.119 1.718-1.435 1.313-1.648.925-1.751.571-2.648-.432-.795.432-.463 2.33-.262.417-.598.678-1.576 1.302-1.587.591-1.484-.529-.871-2.459.369-2.507 1.357-1.572 3.378-1.951-1.343-3.909-.766-.941-2.471-1.225-.524-.036.264-2 1.585-2.041 2.836-2.764-1.359-.685-1.784-.307-1.762.293-1.265 1.078-1.464 3.843-.875 1.815-1.993 1.404-1.977 2.993-.788.896-1.743.291-.784-1.053.067-1.805.795-1.962-.314-.204-.244-.432-.329-.191.665-1.814 2.779-4.164-2.089-1.512.817-.717.515-.695.26-1.046.073-1.742.168-1.391.473-.881 2.25-1.64 3.403-1.536.736-.831.703-.56.81.36-.472.706-.766 3.15v.692l.466 1.991.466.813.768.231v-.759l-.471-2.182 1.337-2.471 2.006-2.025 2.225-1.322 1.547-2.145.802-.475.886-.249.929-.598.82-.75.557-.684.625.218.401.434.214.674.267 4.743.846 6.168.195 3.354.383 1.032.871 1.132.942.898.587.374.297.405-.156.919-.285 1.019-.085.676.314.605.412.415 1.005.499Zm-10.921-41.559.466-.396.974.41.517-.428-.193-.428-.1-.3-.173-.728 1.05-.15.97-.464.709.027.289 1.351-2.01 3.479-.717 2.235.177 1.976-1.247.945-1.704.5-1.712-.054-1.29-.695.972-.79.466-1.286.32-1.49.562-1.355 1.303-1.718.371-.641Zm25.423-1.104 3.184-3.257 1.903-1.274 1.336.643.229 1.07.177 1.539-.083 1.378-.981.976-.938 1.665-1.251 1.299-2.49 6.22-5.252 10.47-1.361 4.453-.654-.244-1.538 1.958-1.034.555-.455.854-.62 4.276-.416 1.698-1.587 1.124-2.434-.163-2.23-1.485-.978-2.823-.548-5.338.12-1.93.609-1.739.936-.773 1.061-.562 1.008-1.109 1.84-1.534 4.883-.965 2.037-1.754-1.475-.041-2.295.652-2.109.081-.927-1.794.768-2.545 1.749-2.885 1.916-2.37 1.276-.99 1.885-.592 4.739-4.744Zm6.809-10.01.461.837.452 1.75-1.281 1.158-1.932.647-1.491.195.672-1.837 1.003-1.075 2.116-1.675Zm3.436-6.888.329.392.305.264.306-.056.338-.603.128 1.58-.472 1.61-.625 1.629-.578 3.501-.631-.684-1.189-3.037.638-1.068.69-2.684.761-.844Zm0-6.207.77-.614 1.424.264.826-.421-.363 1.344-.593.914-.336.959.397 1.462-1.415.883-1.158-.755-.401-1.796.849-2.24Zm4.683-10.752 1.959.082.882-.21.598-.643-.953 1.944-1.131 1.311-1.357.649-1.661-.065.3-1.059.365-.728.998-1.281Zm-37.505-6.23-3.269.193-1.556-.249-1.632-1.487.649-1.089.697-.759.776-.424.889-.036.907.984 1.88 1.557.659 1.31Zm-41.025-7.712 3.201-1.214 1.578.083.786 1.977-.877 1.416-3.771.473-.109 1.888-1.243 1.084-1.383.28-1.344.583-1.135 1.978.37 2.009-1.301.06-3.909-1.816-.548-1.313-.358-1.763-.634-1.866 1.357-.773 4.213-.698 1.397-.525 2.301-1.516 1.409-.347Zm70.411 11.63.544.77.908 1.586.457 1.555-.79.71-2.037.045-.898-.45.112-1.21-.376-.477-.388-.22-.423-.056-.477.056.204 1.476-.748 1.329-2.046 1.805v.838l.994-.768 1.12-.495 2.352-.343 1.015.535-.421 1.223-1.075 1.329-5.527 3.805-2.461.594-1.988-1.344.401-.334.685-.741.573-.961.081-1.031-.513-.618-.763.07-1.529.548-.321.357-.34.795-.436.795-.587.356-2.1.479-4.959 2.565-1.063 1.208-.712.593-.781-.21-.773-.522-.712-.283-.633.229-1.48 1.042-.665.338h-5.785l-.369.356-.287.786-.38.795-.647.357-.775-.07-1.292-.439-1.71-1.037-1.128-1.243-.907-1.718-.37-2.086.569-1.592 1.343-.926 1.567-.315 1.241.219.989 1.185.829 1.638.871.97 1.141-.796v-.768l-.492-.114-.269-.188-.213-.224-.34-.233 1.135-.513 2.812.636.981-.509 1.056-1.014 4.296-.908 2.806-2.047 1.188-1.236-.382-.565-1.245.343-3.645 2.034-3.027.782-1.551-.11-1.222-1.091-.292-1.205.274-1.127.6-.838.694-.32.826-.215.472-.544.907-2.321.188-.822.282-.798.535-.687.598-.22 2.205.22 3.718-1.768.748-.616.363-1.142.045-1.098-.262-.927-.573-.681-4.017 2.099-1.323.206-.474.285-.531.501-.558.215-.582-.573-1.014-2.33-.562-1.035-.761-.84-1.285-.754-5.827-1.013-1.198-.567-1.034-.786-.864-.882 2.977-2.252-.517-1.05-1.278-1.441-.372-1.373 2.288-.212 1.016-.48.99-.923.551.876.548.457h.524l.463-.493.155-2.188 1.84-1.434 2.458-.779 2.008-.236.856.61 2.932.941-.105.513-.17 1.231-.112.507 1.925.17 1.541 2.28 2.525 6.113.19.791.002.746.162.56.649.222h6.226l.501.405.45.672.464.432.96-.663.614-.125.613.125.437.345 1.379 2.193.532.468.607.184 1.153-.197.412.013.714.587.846 1.038.699 1.308.289 1.377.463.244.909-.228.649.45-.32 2.229-.517-.385-.51-.193-1.126-.179Zm-48.024-27.519-.593 1.132-.86 2.298-.443.871-.472.663-.482.484-.58.3-.808.101-2.297 3.152-3.253 2.661-1.041.363-1.504-.663-.73.004-.313 1.044-.244 1.165-.558-.625-.589-1.382-.349-1.091 1.708-.318 1.643-1.631 2.817-4.619.716-.932 2.002-1.523 1.47-.631 1.856-1.649 1.01-.374 1.704-.291.609.318-.419 1.173Zm-58.228-37.844.305.755.186.949.255.89.528.535-1.8-.061-.537.419-.506.731-.501.544-.486.376-.457.265.345 1.059-.528.753-.965.445-.981.148-4.041-.781-.956-.498.034-1.093.705-1.106 1.05-.493.721-.522.306-1.196-.152-1.291-.64-.833 1.52-1.131 1.509-.336 1.157-.979.493-3.096.282.005.206.154.401.625.425.047.323.139.266.238.266.358-.895 1.967-.385.448 2.001 1.053.546.513Zm66.579-5.542 3.255 2.103 1.368 1.566-1.178 1.03v.843h1.661l-.842 4.166-1.202 2.363-1.719 1.042-2.382.242-1.115-.623-1.019-2.726-.882-.623-.94-.446-1.954-2.054-1.167-.629 3.752-4.348 1.932-1.572 2.432-.334Zm-17.516.784.967-.831 2.149-1.279 1.173-.307.723.654 1.516.396.741.583-1.637.905-2.012.354-2.006-.094-1.614-.381Zm40.351-26.757-1.634-.685-1.431-1.521-.381-1.597 1.491-.93 2.134.45 1.643 1.662.244 1.79-2.066.831Zm-80.058-4.733.732.775.582.943.674.663 1.021-.085-.307 1.689-.582.634-.73.385-.734.901-.369 1.041-.65 2.372-.445.919-1.207.571-4.791-1.284v.713l4.001 1.247 1.106 1.111.553 1.77.28 2.431-.137 2.291-.694 1.366-1.081-.696-1.193-.211-2.403.121v.786l1.106.202 2.241-.309.947.107 1.075.908.723 1.214.775.952 1.249.125v.715l-1.449 1.527-5.142-1.077-1.952 1.192-1.805-2.158-.541-1.229-1.617-6.037-.233-1.857.372-1.344v-.786l-1.061-1.519-.674-.596-.819-.244.79-.927.484-.82.81-2.191.289-1.216.147-.999.309-.677.804-.253.459-1.593-.734-3.51-1.659-5.23 1.227-.923 2.838-1.422.614-.018 5.572 3.944-.531.424-.438.038-1.202-.462v.791l1.374.273 1.961 1.882 1.384.215v.784l-1.726.916-1.337-.649-1.144-1.147-2.583-1.562-1.232-1.825-1.226-1.261-1.424.79.385.377.416.517.334.569.136.522.191.979.454.222.562-.061.497.112 1.504.715.253.244.788 1.4.936.466 1.923.034.974.293Zm-1.236-18.234-.107.504-.027.085-.078-.017-.253.221.533.482.514-.085.531-.269.589-.128.425.197 1.704 1.383-.39.716-.848-.519-1.413 1.306-1.175.08.333 1.14.533.448 1.449-.004.897.358.495.782-.083.791-5.395 1.606-1.632-.381-4.851-3.006-.715-1.349.307-2.168.837-1.801 1.225-1.095 1.46-.072.73.562.767.256.768-.141.71-.675.369.538.497.282.609.072.685-.099Zm74.701 15.799-.685-.977-.108-1.933.502-7.443.463-1.922 1.003-.919 1.798-.23v-.789l-.432-.551-.341-.605-.501-1.223.698-.732.625-.061 1.263.793v-.873l-.887-1.577.558.157.472.311.381.482.291.627-.262 1.765-1.017 3.409-.911 4.01.061 3.539.483.856.86 1.906.349 1.895-1.057.869-1.02.408-.986.748-1.002.39-1.068-.686.168-.831.1-.338.202-.475Zm5.991-19.835-.963-.52-.39-1.227.168-1.55.723-1.456-.273-.307-.018-.115-.134-.45.425-.699.439-.492.421-.086.419.558-.799 4.482-.018 1.862Zm-72.332-15.698.922.067 1.368.029 1.153.663.562 1.445-.647.654-1.054 1.96-.426.489-.866-.162-.625-.815-.477-.905-.407-.426-.692-.255-1.415-1.407h-2.787v.867l.725.072.437.246.069.475-.374.73v.867l1.8-.136.551.548.202 1.577.429 1.051 1.012.042 1.995-.696-1.22 2.54-1.518 1.093-3.64.336-.457.17-.902.578-.381.038-.434-.468-.548-1.532-.291-.374-.82.226-2.628 2.146v.869h4.486l3.661-1.082 1.251.213 1.061.412.403.397.235.779-.21.728-1.263 2.446-2.594-.188-1.286.217-1.025.836-1.01-.78-2.178.18-1.11-.265-.587-.41-.235-.282-.716-1.375-.217-.634-.289-.63-.502-.562.538-.056 1.202-.813-2.053-.188-3.761-2.491-1.917-.482-.425.742-.419.52-.434.246-.497-.103-.772-.497-1.006-.413-2.827-2.085v-.795l1.408-.999.974-1.998.844-2.312 1.025-1.924 1.323.755 4.25-.755v.797l-.486.076-1.214.722 1.113 1.507 1.851-1.877 1.962-2.874 1.45-1.451v.721l-.38.408-.291.479-.6 1.494 3.403 1.44 1.318.153v-.795l-.416-.103-.862-.693 1.325-.582 2.922-2.224 1.704-.294.781 1.091.235 1.086-.383.973-1.095.748 1.014.645 1.885-.995.82.594Zm35.213 35.533-1.023.898-5.727-1.978-1.462-.978-1.17-1.412-.477-1.655-.578-3.013-2.586-1.978-.665-2.591h3.829l-.867-1.011-.555-1.245-.119-1.396.462-1.462.837-1.261.647-.325.591.383 3.295 4.899.388 1.061.575.726 1.126.901.824.183-.358-1.451v-.717l.266-.226.255-.368.292-.192-1.073-1.331-.168-.255-.177-.383-.562-.836-.112-.448.153-.499.573-.24.127-.401.495-.567 1.111.142 1.838.855-.614-2.101-1.583-1.837-1.9-1.277-1.552-.412.822-1.149.658-1.727.132-1.664-.721-1.008v-.876l1.288.018.882.885.705 1.05 1.374.932.24.957.096 1.068.173.728.593.737.425.341 2.899 1.626.674.614.706 1.077.882.981.826-.094.871-.452 1.052-.077-1.415 3.457.62.188 1.334-1.727.737-2.276.828.43 4.737 6.337v-.788l-.304-.392-.322-.755-.265-.439.036-1.591-.866-1.467-2.145-2.565-1.034-2.428.23-1.183.838-1.153.783-2.37-.752.127-.712-.123-.609-.318-.443-.481.273-1.591-.327-.938-.524-.677-.311-.773-.072-1.379.139-.399.426-.128 2.494-1.622.418-.45.54-1.4.367-1.409.457-.811.794.37.479-.199.2-.171.21-.428.54 1.219.555.741 1.46 1.224.586.801 1.52 2.617.213.553 2.783 2.388 1.191 1.548.653 1.135.28.966.573 8.079.596 3.475.11 1.599-.168 1.732-.562 2.629-.117 1.564-.344.876-1.644 1.619-.568 1.064.754-.748 1.034-.757 1.1-.397.938.321.537 1.187-.349 1.102-.658.95-.376.705.304 1.913.902 1.19.938.856.403.846-.459 1.024-2.1 1.272-.846.789 5.337-.719 1.42.407.268.943-.734 1.051-1.572.75v.789l1.7-.184 1.367-.703 1.272-.164 1.384 1.436.595.459.824.099 1.576-.164.927.46.589 1.041.416 1.082.405.643.898.094.555-.544.374-.742.343-.45 2.585.112 1.778-1.801 1.739-.647 1.83.013 1.038 1.458h4.639l-1.03 2.861.025.75.273 1.246-.242 1.124-.479.928-1.263 1.74-2.265 1.924-.938.5-2.474.253-.432.777-.112 2.538-.598 1.57-1.312 1.064-1.321.742-.595.575-.493.874-3.66 5.188-1.001 1.021-1.153.811-3.32.656-.877-.4-.596-1.492.195-1.978 1.683-2.496-.174-1.008v-.784l.371-.253.177-.322.265-1.064.19-.504.425-.56 1.137-2.187.562-.766.699-.683 5.993-3.069v-.786l-1.719.954-1.74.516-5.317.103-.34-.296-.088-.688-.015-.804-.141-.641-1.476-2.515-.806-1.026-.734-.394.264 1.214.273.909.742 1.812-.659 1.685-.421.8-.624.654.425.851-.763.936-.52 1.282-.575 1.144-.92.5-.799-.892-.359-2.047-.25-2.33-.106-1.727-.501-.632-.343-.163-.349.235-.501.562-.457-.716-.506-.502-.553-.285-.613-.069v.717l.902.932-1.079.739-8.796 2.32v-.851l.707-.627 1.885-2.513v-.717l-1.157-.047-1.108.287-1.053.562-.973.773-1.191-1.869-.938-2.134.678-.309.586-.421.484-.619.381-.932-2.855.272-1.045-.323-2.946-3.954-.157-.385-.309-1.089-.193-.497-.32-.493-.273-.277-.224-.386-.188-.817 2.863-2.068 1.232-.555 1.394.253 1.102.988 1.11 1.379 1.301 1.194 1.666.386-.808-1.53-3.907-3.275-.806-1.001-.414-.359-.714-.141-.697.146-1.354.578-.772-.009.891-.715v-.865l-.497-.103-1.205-.685.448-.17.184-.171.176-.452-.573-.3-.418-.621-.121-.945.304-1.286-.927.253-1.231 1.553-.822.555.316-1.017.067-1.077-.224-1.042-.586-.88-.517 1.521-.715.499-.729.296-.587.91-.101 1.326.688 2.112-.108 1.308Zm-41.023-42.15 2.646-2.921 1.183-.271.573 1.25-1.122 1.301-1.802.84-1.478-.199Zm-87.109-14.439.978.795 2.257.32 1.05.558-1.041 1.329-1.366.329-1.234-.934-.644-2.397Zm98.202-8.073-.217 1.322-.441.777-.645.367-.862.085.142-.974.017-.244-.069-.058-.092-.41 2.59-2.541 1.384-.658 1.131.802.02 2.529-.755.463-2.203-1.46Zm10.672-37.076.65.038.203-.038v-.742l-.785-.443-.629-1.123-.244-1.344.385-1.2 1.175.519 2.008 2.319.645-.41.557.593.477.724.387.867.282 1.05h-5.111v-.81Zm-5.102 55.596-1.144 1.226-.454-.2-3.168-3.779-.607-.36-3.77-4.792-.678-.515-.282-.842-.457-.901-.027-.719.974-.295.775.161.521.542.336.972.244 1.452 5.105-4.803.781-1.31 1.406-.462 2.995.11-3.013-2.336v-.802l3.174-1.866 1.863-.435 1.858.435 1.223.997-.598-.583-.602-.51-.502-.448-.208-.33-.179-.387 1.173-.773.492-.101v-.802h-3.611l-.855-.387-1.632-1.707-.938-.388-3.593.173-1.652-.632-.517-1.87-.791.67-.533-.018-2.926-2.258 1.003-.851.737-.995.813-.703 1.238.062v-.723l-.188-.265-.045-.109-.029-.148-.13-.354 1.889-.302 2.035-.733 3.775-2.184-5.861 1.64-1.838-.029.286-1.078.491-.571.636-.148.716.186v-.732h-1.737l.568-.388.484-.533.394-.69.291-.867-2.707 1.985-.501.058-1.827-3.837-.493-.625.327-1.407-.351-.517-.544-.26-.282-.634.19-1.499.703-1.037-.04-1.167.537-.201.249-.278.156-.428.289-.634-.452-.201-.446-.475-.336-.202v-.73l4.677-.307 1.278-.567-1.634-.77-.654-.641-.266-1.42.134-1.454.368-.795 1.202-1.461.92.724 2.418 1.331.486.071.463-.405 3.407 1.583v.809l-1.853-.125.416 1.675 1.292 2.021.783.905-.078 1.816.64 2.46.945 2.242.826 1.181-.114-1.062-.027-.652.141-1.586-.436-.75-.934-2.063-.369-1.154.624-.448.224-.851.079-.822.197-.365 2.767-.704.615-.511 1.041-.318 1.612.814 1.498 1.487.736 1.718 1.702-2.486-1.556-.977-.533-.641-.244-.721-.358-1.844-.289-.665-.365-.15-.92.26-.376-.11-.116-.304-.238-1.069-.107-.318-.714-1.071-.309-.589-.26-.699.318-.23.251-.289.293-.236.421-.049-.325-.858-.293-.56-.408-.251-.676.043 5.085-4.572 1.332-1.904.761.45.461-.304.39-.581.517-.376h2.122l1.661-.502 3.936-2.116.56-.504 1.567-2.14 11.07-8.621 3.072-4.061 1.8-1.763 1.506.125 1.259 1.402 1.099 2.14.788 2.289.295 1.899 1.122 1.92.195 1.25-1.126.562-.464.672-1.428 4.935.524.768.707.58.829.309.92-.033v.885l-1.33.676-2.796 2.135-1.014 1.169.311 1.048-.09.782-.461.498-.81.172-.737.376-.595 1.674-1.845.748-.13.873.186 1.042-.088.883-.568.586-.687.251-1.722.043 1.146 1.908 2.297.724 2.49-.173 1.723-.775 3.016-3.299.938-.549 1.162-.405.649.071-.58.883v.737h.383l-.291.578-.295.737-.26.376.161.432.302 1.181-1.645.813-.549.403-.432.533-.586 1.147-.228.336-1.136.612-.864-.139-1.824-1.279-1.05-.365-2.781.365-1.039-.365-1.855-1.223-.972-.03 1.448 4.308.679 1.351-.522.524-.219.477.047.591.268.894-1.106.889-3.147.726-2.087 2.616-.931.605-.589-.038-.954-.676-.586-.088-1.702 1.609-3.244.896-1.009-.092v.806l2.373.067 8.095-1.966 1.912-1.176.844-.144.813.601.631 1.18.331 1.501-.076 1.539.253.201.598.677-.472.661-.513.475-.549.297-.595.106.672.504.734.286.783.101.788-.085-1.153 1.342-.879 1.33-.983 1.015-1.471.401-5.841-1.028-1.312-.547-.349-.029-.36.876.528.518 1.339.573.973.977 2.21.66.882 1.215v.804l-.593.477-1.01 1.863-.528.789-1.115.831-.784-.072-.792-.45-1.135-.311v.873l.273.211.293.349.282.244v.874l-1.392.717-1.162-.235-.96-.899-.78-1.261-.537-1.59-.342-.632-.587-.257-.32.602.336 1.333.598 1.418.465.802-.425.73-1.981-1.021-.609-.583-.325-.602-.39-1.443-1.706-3.528-.494-1.57-.101-1.685.918-3.084 1.795-1.716 2.266-.739 2.333-.164v-.732h-5.998v.732l-.273 1.338-1.455 1.881-1.773 1.705-1.216.775.819 1.283 1.294 3.531.692.732.887.417.716.956.611 1.093.589.818-.336.228-.255.307-.311.253-.448.086.419.75.537.338.497.173.284.271.166.788.262 2.491-5.104-1.283-2.165-1.271-.582.381-.336.596-.309.744-.513.831.706.481 1.334.583.551.39 1.453 2.679.25.658-.327.93-.85.587-1.115.219-1.106-.134v.8h.461v.728l-1.388-.229-2.899-2.171-.432.872.34.271.517.824.421.433-.69 1.142-.685.77-1.643 1.347.3.228.305.352.284.219-1.287 1.338-3.811 2.656Zm249.314-130.003 2.866.231 1.453.71-.105 1.461-1.758 1.151-.365.484-.107 1.077.336.822.112.699-.771.69.683 2.041.271 1.617-.423 1.241-1.377.919-2.98-3.208v-.894l.838-.867-.654-1.81-1.921-3.075.734.54.784.186.775-.186.727-.54v-.892h-4.258v-.755l2.402-1.077 2.738-.565Zm-18.405 5.757 1.863-.132 3.636-1.772 1.771.186-1.534 2.37-3.089.93-5.817-.009-.309-.567-1.195-3.089-.269-1.057-.613-.677-.721-.544-.564-.569-1.279-2.462-.069-.685.244-.52.152-.529-.327-.736-.434-.157-.741.705-.293-.136-.6-.52-.636.119-.497-.099-.197-1.221.927-2.356.132-.457 1.44-1.445 2.733-1.001.761-.02.954.609 2.134 2.137 1.379.47 1.206.708 3.296 5.136-.885.746v.892l.737.069.517.354.905 1.226v.754l-1.189.166-1.476.529-1.32 1.028-.733 1.626Zm32.442-21.553.876.486.371.954.09 1.391-.02 1.815-.513.84-1.184.643-2.38.535-.813.605-1.433 2.739-.985.78-.965-.132-4.714-1.987-.735-.692-.649-1.013-2.265-4.901-.473-.762-.783.157-.876 1.181-.998 1.032-1.155-.304-.634.51-.573-.074-.618-.295-.802-.144.887 1.73-1.928-.173-.745.419-.302 1.322-1.534-.663-3.745.638-1.565-1.543-.663-2.684.197-2.616.75-2.274.992-1.66v-.752l-.459-.748-.356-.802-.264-.858-.199-.892-.677.415-.441.562-.087.685.39.813v.829l-.589-.385-.549-.164-.517.133-.517.414.573.502.222.752-.063.95.123.202.318 1.579-.521 1.107-1.498 1.509v.762l-2.107-.822-1.871-3.1-.838-4.028.99-3.626.425-.818-.387-5.479 1.645-3.577 2.774-1.958 3.005-.594 3.011.153 1.654.598 2.154 2.22.826-.03.77-.38.71-.079.644.513.981 1.458.578.446-.896.742-.421.089 1.176 1.349 3.546 2.043-.459.188-.195.183-.197.448.273.258.298.356.282.217-3.687 1.51-.569-.266-.521 1.942-1.23 1.778-1.432 1.277-1.109.379.936.833 1.207.502 2.342.32.942-.797.958-1.492 1.075-.858 2.337 2.215.878-.251.824-.772.875-.453.983.621.669 1.162.697.67 1.056-.872-.132.563-.184 1.413-.118.58 1.285.276 1.063-.659 1.028-.896 1.133-.448 1.421-.103.594.235.326.769-.405 1.209-2.53 1.86-.938.987.706 1.568.891.997 1.067.37 1.209-.314-.875-2.56-.407-.822 1.146-.099 2.089-1.411 1.027-.206Zm11.566-18.137-.403 1.397.378.737 1.722 1.111-1.113 1.244-2.704.423-1.326.82-.134-2.74-.927-1.377-1.249-.168-1.086.893.168 1.911-1.343.484-.959-.927 1.283-2.296.936-.446.976-.119.772-.45.289-1.405-.403-.712-1.925-2.117-.645-.479 2.483-.876.878.119v.757l-.206.372-.184.455 1.726-.054.755.201.532.603-.806-.213-.655.659-.146 1.097.721 1.093.75.209.804-.242 1.459-.869.034.622-.11.159-.175-.02-.167.144Zm-28.831-.903-1.972-.134-1.816-.549-1.632-1.118-1.424-1.888-.36-2.218 1.124-1.664 1.757-.883 1.558.079.07.237.111.491.233.548.437.386.401.098.454.005 2.554-.623h.806l.929.52.032.609-.087.172-.182.005-.224.114-1.047 1.505.194 1.929-.076 1.671-1.84.708Zm10.885-8.373.795.683.633-.069.614-.392.705-.224.065-.426-.334-2.101.072-.802-.173-1.557.249-1.25.651-.694 1.019.098v.912h-.47v.824l.821-.188.735.159.588.58.408 1.116-.408 1.055-1.379 2.126-.295.605v1.921l.134 1.593.491.99 1.034.103v.827l-1.84.701-1.079.148-.484-.475-.213-1.617-.564-1.158-.819-.699-.954-.229v-2.56h-.002Zm23.901-11.724 1.336-2.126.867-1.044.382.323.587 2.598.188 1.172-2.948.159-1.194.616-.497 1.33-.678.665-1.218 2.872-.443.71-.638.361-.094-2.648-1.05.119-2.723 3.288.314-1.263.148-.401v-.824l-1.196.723-.51-.058-.459-.665-2.308 3.248-1.285 1.323-1.086-.342-.161 1.648-.361.753-.309-.258-.02-1.386.309-1.738.434-.63.591-.266.793-.621.566-.797 1.032-1.866.533-.735.748-.396.613.015.448-.416.278-1.698-.345-.372-.927-1.371 1.487-.016 2.521-1.534 1.564-.119v.91l-.924.595-.925.849-1.556 1.967.466.139.19.168.19.452.724-.698 2.046-.428 1.643-1.837.947-.168.999.011.911-.293Zm-37.551-3.264-.593-.392-.517.036-.397-.224-.23-1.163 1.294-.029 1.99.477 1.005-.448 1.735-2.567.943-.717 1.153.856.02.533-.081.123-.156-.009-.173.11-.685.916-.036.596.26 1.073-1.283.079-.425-.079v.831l4.874 1.555.875.497 1.182 3.179.347.685.708.462.669.089.613.208.558.829v.755l-1.247-.004-.752.6-1.444 2.047.082-1.075.112-.829.24-.719.463-.773-3.073-3.032-1.689-.984-1.699-.224v.91l.305.448.589 1.294-.894-.909-.481 1.077-.452.348-.508-.13-.647-.388-.435-.437-.32-.665-.898-2.547-.127-.67-.202-.645-.573-.954Zm87.081-25.632.474-2.052 1.149-1.25 1.395-.547 1.229.036.044.596-.091.175-.159.011-.184.139-.891.19-.28.442-.141.965h.851v.916l-1.037.67-1.112 1.18-.887.354-.36-1.825Zm53.992-135.71.96.248.672.712.224 1.096-.37 1.41-1.527 1.461-1.739-.526-1.807-.997-1.764.063v.945l.347.403.186.383.145.404.213.47-1.704-.408-1.358-2.07-2.087-4.377v-.94h7.269l.663.363.092.833-.077.894.137.506.549.042.421-.32.324-.392.231-.204ZM784.55 54.827l.562-2.085.951-1.456 1.171-.757 1.216-.016-.889 2.184-4.395 5.307-.362.954.08 1.033.387.206.468-.605.612-1.241.358-.37.81-.595.822-.012.369 1.371-.036.704-.156 1.299-.311 1.265-.547.565-4.862.538-.936.4 1.285 1.297 3.139.78 1.614 1.281-2.978 3.098-.698.426-.224.282-.04.645.091.733.173.526.302.2.454-.661.325.067.477.318.842.139.38.322-2.489 2.475-1.131.502-1.05-.322-.62-1.662-.515-.917-.604-.076-.406.706.063.797.347.706.459.443v.782l-.609-.02-.519.188-1.003.69v.777h2.514l-.405.85-.334.873-.533 1.78 1.149-1.704.616-.591.826-.265-1.829 4.196-.336 1.866 1.003-1.45 1.329-.586.697.627-.867 2.188 2.125 1.79v.78h-1.742v.931h.464v.856l-1.035-.732-.629.62-.658.867-1.115.025.889.931-.291 1.04-.329.58-.461.224-.665-.056v.768l.492.132 1.254.724-1.063 1.413.584 1.658 1.148 1.19.607.004-.334 1.783-.94.961-1.155.217-.976-.401.268 1.692 1.4 3.577-.538 1.384-.906-.06-1.961-1.324.268 2.571-.139 2.63-.519 2.341-.882 1.731-.255-.591-.17-.258.497 1.452.197 1.371-.157 1.44-.537 1.678.673.889.173 1.055-.251.939-.595.575-.242-.611-1.034-1.929-.491 1.284-.512-.152-.11-.939.712-1.111v-.849l-.938-.88-1.957.495-1.003-.536-.745-1.532 1.117-1.608-.372-1.96.517-1.013.614-.611.689-.217.735.141v-.699l-1.127-1.389-.539-.39v-.846h1.666l-.359-2.22.667-1.949.943-2.106.945-5.942.913-2.447.652-2.484-.32-3.391-.332-.504-.367.137-.347-.108-.271-1.239.045-.474.179-.628.992-2.612-.634.04-.904.684-.256.419-.687-.092-.199-.448.193-1.05.913-3.307.492-1.24.567-.998.62-.642v-.858l-1.195-.14-.914 1.32-1.724 3.958-.857-2.916-.914-2.115-1.303-1.313-2.028-.51v.936l1.202.614.981 1.077.848 1.503.793 1.869-.425 1.796-1.216-1.297-.575-.439-.795-.06.033 2.307-.438 1.653-.562.316-.314-1.71-.752.72-.257 1.306-.175 1.386-.513.948-.591-.047-2.42-1.743-.132-.26-1.341-1.546-.19.097-.39-1.154.034-.582.358-.838.714-.715 1.876-.51.808-.403-.799-.628-1.52-2.652-.269 1.013-.335 1.711-.73 1.17-.73.178-.334-1.256-.38-1.105-.898.287-1.892 1.281-1.379.189-.593-.189-.347-.459-.058-.627-.101-.551-.502-.235-1.271-.215-.526-.715-.598-3.281-.674-2.446.235-.726.905-1.116.902-.808 1.16-.661 1.206-.363 1.023.112.914.809.689 1.043.744.762 1.052-.036-.461-1.72 2.169.86v-.86h-.463v-.86l2.928-.379.862 1 .074 3.751.311-.127.698-.507.264-.307-.309-.696-.344-1.33-.195-.543h1.281l-.173-.513-.26-1.29 1.444-.652 1.646.538 1.377 1.689.638 2.795.871-1.454.866-1.115-1.739-1.803 1.278-3.356.432.522.39.18.92.082-.784-1.425 1.117-.4 3.103.103-1.491-1.067-1.84-.42-1.478-.96-.369-2.714-1.187 1.422-.676.457-.687-.163-.658-.955-.224-1.216.208-1.207.674-.926v-.862l-1.943.02-.84-.262-.622-.712.172-1.564-.114-2.19-.49-4.015-.838 2.46-.651 1.337-.638.603-.965-.433-.217-1.034.376-1.19.808-.88-1.253.031-1.03.325-.956-.063-1.017-1.158-.566 1.467-.905.495-2.16-.154-.168-.679.325-1.478.562-1.49.557-.674 1.536.181.354-.181.32-.876.031-.927-.031-.892.141-.757.602-1.216.732-.995.808-.123.838 1.393.77 2.661 2.064 2.149 2.342.844 2.057-1.257-.705-.578-.934-.246-1.571-.04-.45-.453-.549-.97-.741-.918-1.012-.249.531-.898.846-2.209.325-.439.694-.185 1.9-1.472-.644-.733-.244-.212.553-.914.152-.62-.099-.498-.19-.57 1.529-.763 1.701.264 1.689.966 1.508 1.344.191-.538.235-.403-1.088-1.23.136-1.292 1.404-2.762.625 2.533.044 1.013-.27.869.183 1.107-.089.806-.35.506-.595.182.454 2.916-.499 1.362-.904.97-.755 1.68h1.281l-.298.623-.282.217-.703.098.345.242.203.278.247.233.485.114-1.28 4.245.595-.123.562-.32.52-.504.481-.702.399.782-.88 1.927-.173.777.202.757v.94l-1.2.54-1.484 4.4-1.149 1.1v.945l.793.092.774-.112.728-.338.647-.585-.083-2.28 1.704-1.295 3.947-.735-2.951-2.282-.875-1.174.64-.956.797-.706.624.34.099 2.11.571-.75 1.271-2.26.244-.833.583-.34 1.135.71.81 1.28-.396 1.405.774.37.638.643.473.992.28 1.45-.325.57-.101.294.808.777-.763.674-1.366-.77-.631.57-.517.874-.602.652-.634.448.213.294.754-.202 1.462-.73-.246.314-.645.548v.946l2.12-1.248.732.524.121 2.44h.464l.248-1.3.208-.076.3.186.522-.524.251-.755.19-.95.289-1.008.537-.905.215.421.099.41.096.972Zm6.844-35.656-.672 1.539.056 1.212 1.079 2.468-.374 1.371-.483 1.304-2.017-2.395-1.042-.9-1.229-.17.735.931.857 1.616 1.424 3.525-.822.64-.866.27-.891-.186-.864-.724.304 1.405.762.815.978.372.974.083-.121.423-.016.114-.327.254 1.068 1.285.02 1.548-.734 1.248-1.205.33.927 2.18.283 1.09.107 1.485-.19 1.586-.495.293-1.48-.654-1.531.083-.746-.32-.311-.99-.228.062-.365.504-.074.757.667.84v.782l-2.086-.48-1.456-1.56-.866-2.798-.763-11.953.539-2.71 2.075-.415v.786l-.185 1.51.678 1.505.974.874.689-.34-.194-.59-.876-3.355-.197-1.734.175-.838.591-1.874-.152-.368-.35-.493-.056-1.151.15-1.31.256-.96.617-1.404.742-1.218.761-.025.669 2.216.719-1.474 1.285-.435 2.709.253.02 1.712-.099.524-.382.284v.95l.306.186.271.374.278.235Zm5.138 1.74-1.876.245-.965-.28-.99-.746.302-1.255.085-1.198-.116-1.084-.271-.903 1.095.898.336-1.025-.159-1.822-.417-1.536 1.043-.466.596-1.734-.002-1.922-.788-1.024v-.952l.98-.51 1.178-1.26.848-1.486-.031-1.188.593-1.301.71-.02.609.979.257 1.738-.257 1.409-.613.838-.715.707-.582 1.044.168.374.761-.374.882-.712.551-.677 1.33-4.697.602-.972.408.614.365.177.886.087.79.358.683.614.495 1.02.197 1.57-.501.058-1.196.732 1.211.764.486.11-.938 1.09-1.245.76-.79.894.423 1.543v.95l-1.229.074.425.177.408.26.396.354v.96l-2.561 2.653-.45.746.437 1.55.882 1.416.434 1.258-.905 1.073-.609.079-.517-.296-.481-.419-.515-.311-1.225-.119-.908.117ZM460.509 1207.09l.409.33.502.91-.208.84-.609.43-.741-.39.105-1.33.542-.79Zm-2.17-2.34.35.3.096.72-.374.72-.542-.29-.425-1.11-.056-.79.445.07.309.26.197.12Zm103.921-120.12.092.65.031 1.21-.437.47-.501-.69-.078-1.34.21-1.25.325-.19.264.73.094.41ZM.056 396.417 0 396.388v-.076l.056-.076H.17l.058.076v.034l-.058.071H.056Zm770.911-301.04.426-.052.214.946-.311 1.276-.494 1.266-.562 1.951-.423.874-.341-.036.063-.898.257-1.302.045-1.52-.094-.33-.074.784-.159.753-.965 1.601-.875.798-.121-.538.802-1.129.309-1.418.279-1.738.596-1.25-.152-.78-.408-.609.081-.549 1.115-.304.414-.536.331.025.05 1.136-.419 1.664-.099.612.515-.697Zm-45.981-7.73.268 1.05.052 2.242-.927 1.405-1.491-.663-1.151-1.1-.432-.744.121-.916.432-.591.967-.677 1.444-.228.717.222Zm61.693-1.071.768-.699.004.856-.141 1.798-.421 1.351-.454 1.055-.439 2.688-.629.32-1.809-1.388-.578-.856.186-4.066-1.021-1.55.045-1.346 1.191-.184 1.137.556.495-.307.197-1.041.435-.231.282.688.112 1.23.199 1.101.441.025Zm8.975-27.922.381-.076.091.565-.405.712-.851 1.03-1.072 1.59-1.706 1.959-2.442.78-1.176-.76.323-.692.331-.477.128-.637.32-.95.624-.877.697-.339.723-.083.571-.457.427-.647 2.201-.215.654-.23.181-.196Z" fill="#fff" fill-opacity=".1"/></svg>
