<?xml version="1.0" encoding="utf-8"?>
<svg width="225" height="74" viewBox="0 0 225 74" fill="none" xmlns="http://www.w3.org/2000/svg">
<path d="M13.356 26.252C12.528 26.036 11.844 25.964 10.944 25.964C5.148 25.964 1.404 29.636 1.404 35.288C1.404 41.156 4.932 44.216 11.7 44.216C13.968 44.216 16.056 44 18.9 43.46V17H13.356V26.252ZM13.356 39.608C12.564 39.716 12.06 39.752 11.448 39.752C8.568 39.752 7.02 38.132 7.02 35.18C7.02 32.156 8.64 30.428 11.484 30.428C12.168 30.428 12.708 30.5 13.356 30.716V39.608ZM23.9318 26.36V37.304C23.9318 42.128 23.6798 43.964 22.8878 45.548C22.1318 47.096 20.9438 48.104 18.4958 49.256L23.6438 51.704C26.0918 50.48 27.2798 49.364 28.1798 47.6C29.1518 45.764 29.4758 43.64 29.4758 39.212V26.36H23.9318ZM23.9318 23.516H29.4758V17.828H23.9318V23.516ZM34.6964 31.904C36.8564 30.788 39.1604 30.212 41.2124 30.212C42.6164 30.212 43.1204 30.572 43.1204 31.58V32.804C36.3164 33.38 33.5444 35.18 33.5444 39.068C33.5444 42.668 35.6324 44.288 40.2764 44.288C42.5804 44.288 45.7124 44.036 48.1964 43.676V32.408C48.1964 30.104 48.0524 29.024 47.5844 28.196C46.7564 26.72 44.8844 25.964 42.0404 25.964C39.4844 25.964 37.1444 26.468 34.6964 27.62V31.904ZM43.3724 40.148C42.2924 40.328 41.5364 40.4 40.7084 40.4C39.1964 40.4 38.5124 39.896 38.5124 38.816C38.5124 37.376 39.7004 36.8 43.3724 36.44V40.148ZM52.6838 44H58.2278V30.824C59.3438 30.5 60.0278 30.428 60.7838 30.428C62.7638 30.428 63.4838 31.22 63.4838 33.344V44H69.0278V33.128C69.0278 30.356 68.6678 29.06 67.5158 27.872C66.2918 26.612 64.2398 25.964 61.3958 25.964C58.6598 25.964 55.9598 26.36 52.6838 27.224V44ZM72.9512 52.136C74.8952 52.892 76.7672 53.216 78.9272 53.216C83.1752 53.216 86.1632 51.884 87.8912 49.184C89.0792 47.348 89.4752 45.116 89.4752 40.364C89.4752 39.86 89.4752 39.536 89.4752 38.852C89.4392 38.096 89.4392 37.34 89.4032 36.584L89.3672 33.56L89.2952 31.22V30.644C90.4112 30.752 90.9512 30.86 92.4272 31.148V26.792C89.7632 26.252 87.5672 26 85.1912 26C77.0912 26 72.5192 29.564 72.5192 35.864C72.5192 40.94 75.6152 44.144 80.4752 44.144C81.9152 44.144 82.9952 43.928 84.0752 43.388C84.0752 43.424 84.0752 43.46 84.0752 43.496C84.0752 47.024 82.5272 48.5 78.8912 48.5C76.8392 48.5 74.8952 48.032 72.9512 47.024V52.136ZM83.9672 30.896L84.0032 32.732L84.0392 35.288C84.0392 36.044 84.0752 36.764 84.0752 37.412V38.924V39.32C83.3552 39.536 82.7072 39.68 81.9872 39.68C79.5392 39.68 78.1352 38.096 78.1352 35.324C78.1352 33.38 78.8192 32.012 80.1512 31.256C81.0512 30.716 82.2752 30.428 83.3912 30.464H83.7872C83.8592 30.464 83.8952 30.464 83.9672 30.464V30.896ZM94.0416 35.36C94.0416 40.976 97.4616 44.468 103.006 44.468C108.622 44.468 112.15 40.832 112.15 35.036C112.15 29.384 108.766 25.892 103.222 25.892C97.5696 25.892 94.0416 29.528 94.0416 35.36ZM99.6576 35.18C99.6576 32.12 100.918 30.356 103.15 30.356C105.31 30.356 106.534 32.156 106.534 35.18C106.534 38.24 105.274 40.004 103.114 40.004C100.918 40.004 99.6576 38.24 99.6576 35.18ZM129.79 26.972C128.062 26.216 126.766 25.928 124.966 25.928C118.99 25.928 114.922 29.744 114.922 35.396C114.922 40.904 118.63 44.36 124.534 44.36C126.694 44.36 128.17 44 129.97 43.1V38.6C128.53 39.356 127.45 39.644 125.938 39.644C122.662 39.644 120.538 37.808 120.538 34.928C120.538 32.156 122.698 30.392 125.938 30.392C127.414 30.392 128.53 30.716 129.79 31.472V26.972ZM132.292 35.36C132.292 40.976 135.712 44.468 141.256 44.468C146.872 44.468 150.4 40.832 150.4 35.036C150.4 29.384 147.016 25.892 141.472 25.892C135.82 25.892 132.292 29.528 132.292 35.36ZM137.908 35.18C137.908 32.12 139.168 30.356 141.4 30.356C143.56 30.356 144.784 32.156 144.784 35.18C144.784 38.24 143.524 40.004 141.364 40.004C139.168 40.004 137.908 38.24 137.908 35.18ZM154.18 44H159.724V30.824C160.84 30.5 161.524 30.428 162.28 30.428C164.26 30.428 164.98 31.22 164.98 33.344V44H170.524V33.128C170.524 30.356 170.164 29.06 169.012 27.872C167.788 26.612 165.736 25.964 162.892 25.964C160.156 25.964 157.456 26.36 154.18 27.224V44ZM175.171 44H181.543V37.412H175.171V44ZM202.368 36.764L202.404 36.368C202.44 35.756 202.44 35.252 202.44 34.964C202.44 29.204 199.488 25.928 194.34 25.928C188.976 25.928 185.448 29.6 185.448 35.252C185.448 41.012 188.904 44.396 194.808 44.396C197.184 44.396 199.38 43.856 201.504 42.74V38.456C199.812 39.572 197.796 40.148 195.6 40.148C192.684 40.148 190.992 38.96 190.812 36.764H202.368ZM190.884 32.912C191.172 31.004 192.468 29.816 194.34 29.816C196.14 29.816 197.184 30.896 197.364 32.912H190.884ZM206.243 26.36V36.44C206.243 39.716 206.711 41.228 208.043 42.452C209.339 43.64 211.391 44.216 214.379 44.216C216.647 44.216 218.771 44 221.759 43.46L222.443 43.352V26.36H216.899V39.248C216.179 39.392 215.387 39.5 214.631 39.5C212.435 39.5 211.787 38.78 211.787 36.512V26.36H206.243Z" fill="white"/>
<path d="M103.77 66.9844C105.723 66.9844 107.275 66.3724 108.428 65.1484L108.916 65.8027C108.05 66.9811 106.758 67.7396 105.039 68.0781C104.499 68.1888 103.939 68.2441 103.359 68.2441C102.233 68.2441 101.217 68.0488 100.312 67.6582C99.4076 67.2611 98.6393 66.7272 98.0078 66.0566C96.6992 64.6699 96.0449 62.9577 96.0449 60.9199C96.0449 58.7715 96.6406 56.9193 97.832 55.3633C98.6328 54.3151 99.6647 53.5794 100.928 53.1562C101.566 52.9479 102.158 52.8438 102.705 52.8438C103.258 52.8438 103.665 52.86 103.926 52.8926C104.193 52.9251 104.43 52.9674 104.639 53.0195C104.847 53.0716 105.033 53.1302 105.195 53.1953C105.365 53.2539 105.547 53.3158 105.742 53.3809C106.276 53.5632 106.706 53.6543 107.031 53.6543C107.357 53.6543 107.712 53.3874 108.096 52.8535H109.033L107.734 58.0293H106.807C106.839 57.528 106.855 57.1764 106.855 56.9746C106.855 56.5449 106.803 56.1673 106.699 55.8418C106.602 55.5098 106.432 55.2266 106.191 54.9922C105.951 54.7578 105.664 54.5592 105.332 54.3965C104.668 54.071 103.936 53.9082 103.135 53.9082C102.34 53.9082 101.657 54.0677 101.084 54.3867C100.518 54.7057 100.039 55.1419 99.6484 55.6953C98.9128 56.7565 98.4733 58.1986 98.3301 60.0215H104.629L104.365 61.125H98.3008C98.3659 62.6419 98.8672 63.9701 99.8047 65.1094C100.84 66.3594 102.161 66.9844 103.77 66.9844ZM120.702 56.7207C119.692 53.7259 117.671 51.8932 114.637 51.2227L114.842 50.3633C117.83 50.806 120.08 52.069 121.59 54.1523C122.944 56.0273 123.621 58.3548 123.621 61.1348C123.621 63.3223 123.123 65.054 122.127 66.3301C121.131 67.5996 119.797 68.2344 118.123 68.2344C116.522 68.2344 115.213 67.5898 114.198 66.3008C113.254 65.1159 112.782 63.7096 112.782 62.082C112.782 60.4349 113.221 59.0254 114.1 57.8535C115.07 56.5645 116.392 55.9199 118.065 55.9199C119.1 55.9199 119.979 56.1868 120.702 56.7207ZM121.395 61.3789C121.395 58.4427 120.347 56.9746 118.25 56.9746C117.072 56.9746 116.216 57.5052 115.682 58.5664C115.239 59.4258 115.018 60.6074 115.018 62.1113C115.018 64.3379 115.558 65.8646 116.639 66.6914C117.043 66.9974 117.564 67.1504 118.202 67.1504C118.846 67.1504 119.38 67.0039 119.803 66.7109C120.226 66.418 120.555 66.0143 120.789 65.5C121.193 64.6081 121.395 63.2344 121.395 61.3789ZM128.141 52.3066L129.919 50.5586L131.657 52.3066L129.919 54.0742L128.141 52.3066ZM127.331 67.1895L127.673 67.1406C127.953 67.1016 128.18 67.0625 128.356 67.0234C128.532 66.9779 128.669 66.8997 128.766 66.7891C128.936 66.5872 129.02 66.125 129.02 65.4023V58.7812C129.02 58.0391 128.942 57.5931 128.786 57.4434C128.63 57.2871 128.441 57.1895 128.22 57.1504C127.998 57.1113 127.702 57.0755 127.331 57.043V56.2031H132.673V57.043C132.302 57.082 132.005 57.1211 131.784 57.1602C131.563 57.1992 131.393 57.2741 131.276 57.3848C131.087 57.5605 130.993 58.026 130.993 58.7812V65.4023C130.993 66.1445 131.052 66.584 131.169 66.7207C131.286 66.8574 131.429 66.9486 131.598 66.9941C131.774 67.0397 132.005 67.0853 132.292 67.1309L132.673 67.1895V68H127.331V67.1895ZM139.878 58.2344C140.471 57.056 141.532 56.0794 143.062 55.3047C144.188 55.9036 145.054 56.5612 145.659 57.2773C146.616 58.4297 147.196 60.1419 147.398 62.4141C147.463 63.1953 147.495 63.9505 147.495 64.6797C147.495 65.4089 147.508 65.9036 147.534 66.1641C147.56 66.4245 147.616 66.623 147.7 66.7598C147.785 66.89 147.909 66.9779 148.071 67.0234C148.234 67.0625 148.397 67.0951 148.56 67.1211C148.723 67.1471 148.836 67.1634 148.902 67.1699C148.973 67.1699 149.045 67.1764 149.116 67.1895V68H143.775V67.1895C144.146 67.1439 144.442 67.1016 144.663 67.0625C144.885 67.0169 145.054 66.9355 145.171 66.8184C145.36 66.6296 145.454 66.1055 145.454 65.2461V64.1133C145.454 62.6224 145.418 61.5905 145.347 61.0176C145.275 60.4382 145.184 59.9629 145.073 59.5918C144.969 59.2142 144.826 58.8594 144.644 58.5273C144.286 57.9023 143.726 57.2871 142.964 56.6816C140.907 57.9512 139.878 59.6699 139.878 61.8379V65.1484C139.878 66.0078 139.94 66.5221 140.064 66.6914C140.194 66.8607 140.353 66.9714 140.542 67.0234C140.731 67.069 140.988 67.1146 141.314 67.1602L141.568 67.1895V68H136.226V67.1992C136.265 67.1797 136.314 67.1699 136.372 67.1699C136.437 67.1634 136.551 67.1504 136.714 67.1309C136.883 67.1048 137.056 67.069 137.232 67.0234C137.414 66.9779 137.554 66.8997 137.652 66.7891C137.814 66.6133 137.896 66.1706 137.896 65.4609V58.498C137.896 57.9056 137.821 57.5443 137.671 57.4141C137.521 57.2773 137.336 57.1895 137.114 57.1504C136.893 57.1048 136.597 57.069 136.226 57.043V56.2031H139.878V58.2344ZM152.347 67.1895C153.096 67.1243 153.548 67.0137 153.705 66.8574C153.861 66.6947 153.955 66.5189 153.988 66.3301C154.02 66.1348 154.037 65.8809 154.037 65.5684V53.5957C154.037 52.9707 153.92 52.5703 153.685 52.3945C153.529 52.2773 153.083 52.1829 152.347 52.1113V51.3008H157.709V52.1113C156.979 52.1829 156.543 52.2708 156.4 52.375C156.153 52.5508 156.029 52.9577 156.029 53.5957V57.209C156.628 56.571 157.429 56.1478 158.431 55.9395C158.75 55.8743 159.118 55.8418 159.535 55.8418C159.958 55.8418 160.394 55.9232 160.843 56.0859C161.293 56.2422 161.699 56.4603 162.064 56.7402C162.429 57.0202 162.751 57.3522 163.031 57.7363C163.311 58.1139 163.542 58.5273 163.724 58.9766C164.108 59.9076 164.3 60.8939 164.3 61.9355C164.3 63.6283 163.835 65.0833 162.904 66.3008C162.266 67.1276 161.452 67.707 160.463 68.0391C159.961 68.2083 159.479 68.293 159.017 68.293C158.418 68.293 157.793 68.2604 157.142 68.1953C155.925 68.0651 155.173 68 154.886 68H152.347V67.1895ZM156.029 65.1387C156.029 65.7572 156.205 66.2292 156.556 66.5547C157.012 66.9583 157.78 67.1602 158.861 67.1602C159.942 67.1602 160.768 66.6328 161.341 65.5781C161.849 64.6667 162.103 63.4525 162.103 61.9355C162.103 59.735 161.615 58.2344 160.638 57.4336C160.274 57.1341 159.851 56.9844 159.369 56.9844C158.887 56.9844 158.451 57.056 158.06 57.1992C157.67 57.3424 157.324 57.5378 157.025 57.7852C156.361 58.3255 156.029 58.9668 156.029 59.709V65.1387ZM172.902 68.5078C171.665 67.7656 170.754 67.0755 170.168 66.4375C169.139 65.3112 168.521 63.6771 168.312 61.5352C168.234 60.7669 168.195 60.0508 168.195 59.3867C168.195 58.7161 168.189 58.2702 168.176 58.0488C168.163 57.821 168.111 57.6387 168.02 57.502C167.863 57.2546 167.466 57.1016 166.828 57.043V56.2031H171.633V57.043C170.988 57.1081 170.572 57.2513 170.383 57.4727C170.233 57.6615 170.158 58.1172 170.158 58.8398C170.158 59.5625 170.168 60.2363 170.188 60.8613C170.214 61.4863 170.259 62.0462 170.324 62.541C170.389 63.0358 170.484 63.4818 170.607 63.8789C170.731 64.2695 170.897 64.6406 171.105 64.9922C171.483 65.6432 172.082 66.3529 172.902 67.1211C173.742 66.3333 174.302 65.6953 174.582 65.207C174.868 64.7122 175.074 64.2695 175.197 63.8789C175.321 63.4818 175.415 63.0358 175.48 62.541C175.591 61.7012 175.646 60.7767 175.646 59.7676C175.646 58.752 175.633 58.1465 175.607 57.9512C175.581 57.7559 175.52 57.5964 175.422 57.4727C175.233 57.2513 174.82 57.1081 174.182 57.043V56.2031H178.967V57.043C178.329 57.1341 177.954 57.2643 177.844 57.4336C177.733 57.5964 177.665 57.7884 177.639 58.0098C177.619 58.2311 177.609 58.6836 177.609 59.3672C177.609 60.0443 177.57 60.7669 177.492 61.5352C177.421 62.3034 177.303 62.987 177.141 63.5859C176.984 64.1849 176.783 64.7155 176.535 65.1777C176.288 65.6335 175.988 66.0534 175.637 66.4375C175.051 67.0755 174.139 67.7656 172.902 68.5078ZM189.336 59.748C189.701 59.3965 189.883 58.8626 189.883 58.1465C189.883 57.7949 189.717 57.5182 189.385 57.3164C189.105 57.1536 188.679 57.0723 188.106 57.0723C186.869 57.0723 186.25 57.4759 186.25 58.2832V65.7051C186.25 65.985 186.276 66.2161 186.329 66.3984C186.387 66.5807 186.514 66.7272 186.709 66.8379C187.048 67.0332 187.829 67.1504 189.053 67.1895V68H182.53V67.1992L182.549 67.1895C183.317 67.1113 183.776 67.0039 183.926 66.8672C184.082 66.724 184.177 66.5612 184.209 66.3789C184.248 66.1901 184.268 65.9395 184.268 65.627V58.8594C184.268 58.1497 184.196 57.7103 184.053 57.541C183.916 57.3717 183.747 57.2546 183.545 57.1895C183.343 57.1243 183.077 57.0723 182.745 57.0332V56.2031H184.766C185.567 56.2031 186.136 56.1868 186.475 56.1543C186.814 56.1217 187.08 56.099 187.276 56.0859C187.862 56.0339 188.337 56.0078 188.702 56.0078C189.073 56.0078 189.454 56.0371 189.844 56.0957C190.235 56.1543 190.58 56.2552 190.879 56.3984C191.537 56.7109 191.866 57.196 191.866 57.8535C191.866 58.3809 191.651 58.8724 191.221 59.3281C190.817 59.7578 190.368 60.041 189.873 60.1777L189.336 59.748ZM203.534 66.8867C202.688 67.7852 201.669 68.2344 200.477 68.2344C198.837 68.2344 197.557 67.6257 196.639 66.4082C195.819 65.321 195.409 63.9375 195.409 62.2578C195.409 60.5456 195.861 59.1068 196.766 57.9414C197.769 56.6523 199.188 56.0078 201.024 56.0078C201.545 56.0078 202.089 56.0273 202.655 56.0664C203.736 56.151 204.41 56.1934 204.677 56.1934H207.206V57.0234C206.464 57.0755 206.014 57.1829 205.858 57.3457C205.702 57.502 205.608 57.681 205.575 57.8828C205.542 58.0781 205.526 58.332 205.526 58.6445V67.502C205.526 69.1947 205.061 70.6302 204.13 71.8086C203.121 73.0911 201.763 73.7324 200.057 73.7324C199.205 73.7324 198.381 73.5371 197.587 73.1465L197.968 72.0918C198.527 72.3132 199.156 72.4238 199.852 72.4238C200.549 72.4238 201.135 72.2806 201.61 71.9941C202.092 71.7142 202.476 71.3464 202.762 70.8906C203.277 70.0508 203.534 68.9277 203.534 67.5215V66.8867ZM197.626 62.2578C197.626 65.5195 198.602 67.1504 200.555 67.1504C201.402 67.1504 202.111 66.877 202.684 66.3301C203.251 65.7897 203.534 65.1387 203.534 64.377V59.0547C203.534 58.3971 203.427 57.9544 203.212 57.7266C202.795 57.2839 202.053 57.0625 200.985 57.0625C198.746 57.0625 197.626 58.7943 197.626 62.2578ZM214.509 58.2344C215.095 57.082 216.179 56.1055 217.761 55.3047C218.894 55.9102 219.753 56.571 220.339 57.2871C221.296 58.459 221.876 60.168 222.077 62.4141C222.142 63.2018 222.175 63.9603 222.175 64.6895C222.175 65.4186 222.185 65.9134 222.204 66.1738C222.23 66.4342 222.286 66.6296 222.37 66.7598C222.455 66.89 222.575 66.9779 222.732 67.0234C222.894 67.0625 223.054 67.0951 223.21 67.1211C223.373 67.1471 223.487 67.1634 223.552 67.1699C223.624 67.1699 223.692 67.1764 223.757 67.1895V68H218.454V67.1895C218.825 67.1439 219.122 67.1016 219.343 67.0625C219.564 67.0169 219.734 66.9355 219.851 66.8184C220.04 66.6296 220.134 66.1055 220.134 65.2461V64.1035C220.134 62.6257 220.098 61.597 220.027 61.0176C219.955 60.4316 219.864 59.9531 219.753 59.582C219.649 59.2109 219.506 58.8594 219.323 58.5273C218.978 57.9089 218.428 57.2936 217.673 56.6816C216.703 57.2741 215.984 57.8828 215.515 58.5078C214.844 59.4062 214.509 60.5163 214.509 61.8379V65.1484C214.509 65.5977 214.522 65.9492 214.548 66.2031C214.574 66.4505 214.642 66.6393 214.753 66.7695C214.87 66.8997 215.04 66.9909 215.261 67.043C215.489 67.0885 215.801 67.1374 216.198 67.1895V68H210.837V67.1992L210.857 67.1895C211.241 67.1439 211.543 67.0983 211.765 67.0527C211.986 67.0007 212.152 66.916 212.263 66.7988C212.432 66.6165 212.517 66.1673 212.517 65.4512V53.6152C212.517 52.8926 212.439 52.4596 212.282 52.3164C212.133 52.1732 211.947 52.082 211.726 52.043C211.504 51.9974 211.208 51.9583 210.837 51.9258V51.1055H216.198V51.9258C215.834 51.9648 215.541 52.0039 215.32 52.043C215.098 52.082 214.929 52.1536 214.812 52.2578C214.61 52.4271 214.509 52.8796 214.509 53.6152V58.2344Z" fill="#FEFE83"/>
<path opacity="0.7" d="M36.828 19H45.882V16.426L40.95 16.462C44.136 14.518 45.54 12.61 45.54 10.252C45.54 7.606 43.74 5.896 40.968 5.896C39.636 5.896 38.538 6.256 37.386 7.048V9.658C38.304 8.866 39.258 8.488 40.338 8.488C41.76 8.488 42.642 9.298 42.642 10.612C42.642 11.584 42.174 12.43 41.058 13.492C40.32 14.212 39.24 15.022 37.188 16.408L36.828 16.66V19ZM47.6 12.736C47.6 14.86 47.996 16.408 48.86 17.578C49.652 18.64 50.876 19.252 52.298 19.252C53.702 19.252 54.944 18.64 55.754 17.578C56.69 16.354 57.122 14.698 57.122 12.466C57.122 10.342 56.726 8.794 55.862 7.624C55.07 6.544 53.846 5.95 52.424 5.95C51.02 5.95 49.778 6.544 48.968 7.624C48.05 8.848 47.6 10.504 47.6 12.736ZM50.588 12.592C50.588 9.91 51.218 8.434 52.37 8.434C53.504 8.434 54.134 9.91 54.134 12.592C54.134 15.292 53.504 16.768 52.37 16.768C51.218 16.768 50.588 15.292 50.588 12.592ZM58.66 19H67.714V16.426L62.782 16.462C65.968 14.518 67.372 12.61 67.372 10.252C67.372 7.606 65.572 5.896 62.8 5.896C61.468 5.896 60.37 6.256 59.218 7.048V9.658C60.136 8.866 61.09 8.488 62.17 8.488C63.592 8.488 64.474 9.298 64.474 10.612C64.474 11.584 64.006 12.43 62.89 13.492C62.152 14.212 61.072 15.022 59.02 16.408L58.66 16.66V19ZM69.954 18.568C71.106 19.108 72.006 19.288 73.302 19.288C76.452 19.288 78.486 17.776 78.486 15.436C78.486 13.852 77.604 12.736 75.858 12.106C77.424 11.494 78.126 10.594 78.126 9.208C78.126 7.138 76.542 5.896 73.95 5.896C72.816 5.896 71.7 6.148 70.71 6.652V9.172C71.466 8.668 72.42 8.38 73.338 8.38C74.49 8.38 75.228 8.866 75.228 9.676C75.228 10.666 74.238 11.188 72.15 11.332L71.952 11.35V13.582C74.274 13.582 75.498 14.176 75.498 15.328C75.498 16.246 74.58 16.804 73.086 16.804C71.934 16.804 71.106 16.552 69.954 15.832V18.568Z" fill="white"/>
</svg>
