<?xml version="1.0" encoding="utf-8"?>
<svg width="500" height="500" viewBox="0 0 500 500" fill="none" xmlns="http://www.w3.org/2000/svg">
<path d="M192.8 165.6H219.7V293.6C205.9 296.1 195.9 297.2 184.8 297.2C151.9 297.2 135 282.3 135 254C135 226.6 153.2 208.8 181.1 208.8C185.5 208.8 188.7 209.2 192.7 210.3V165.6H192.8ZM192.8 232C189.7 230.9 187 230.5 183.7 230.5C170.1 230.5 162.3 238.9 162.3 253.6C162.3 267.9 169.7 275.8 183.5 275.8C186.4 275.8 188.9 275.6 192.8 275.1V232Z" fill="white"/>
<path d="M270.5 211.5V273.8C270.5 295.2 268.9 305.6 264.1 314.5C259.7 323 253.9 328.5 242.1 334.3L217.2 322.5C229 316.9 234.8 312 238.4 304.5C242.2 296.9 243.5 288 243.5 264.5V211.5H270.5Z" fill="white"/>
<path d="M364.1 235.3C357.9 231.7 352.7 230 345.4 230C330 230 319.4 238.5 319.4 252C319.4 266 329.8 274.9 345.4 274.9C352.7 274.9 357.9 273.4 365 269.8V291.6C356.3 296 349.2 297.8 338.7 297.8C310.2 297.8 292.2 281.1 292.2 254.4C292.2 227 312 208.6 340.9 208.6C349.6 208.6 355.8 210.1 364.3 213.7L364.1 235.3Z" fill="white"/>
<path d="M243.7 166.1H270.6V193.7H243.7V166.1Z" fill="white"/>
<path d="M293 323.9H302.6V333.8H293V323.9Z" fill="white"/>
<path d="M316.6 323C316.8 326.3 319.4 328.1 323.8 328.1C327.1 328.1 330.1 327.2 332.7 325.5V331.9C329.5 333.6 326.1 334.4 322.6 334.4C313.7 334.4 308.5 329.3 308.5 320.6C308.5 312.1 313.8 306.6 321.9 306.6C329.7 306.6 334.1 311.6 334.1 320.2C334.1 320.7 334.1 321.4 334.1 322.3V322.9L316.6 323ZM326.4 317.1C326.2 314.1 324.6 312.5 321.9 312.5C319.1 312.5 317.2 314.3 316.7 317.1H326.4Z" fill="white"/>
<path d="M348.1 307.3V322.5C348.1 325.9 349.1 327 352.4 327C353.5 327 354.8 326.9 355.8 326.7V307.3H364.2V333L363.2 333.1C358.7 333.9 355.5 334.2 352.1 334.2C347.6 334.2 344.5 333.3 342.5 331.5C340.5 329.7 339.8 327.4 339.8 322.5V307.4L348.1 307.3Z" fill="white"/>
</svg>
