<?xml version="1.0" encoding="UTF-8"?>
<svg width="281.39" height="107.94" fill="none" version="1.1" viewBox="0 0 281.39 107.94" xmlns="http://www.w3.org/2000/svg">
 <g transform="scale(2.4902 2.9174)">
  <g fill="#030130">
   <path d="m49.157 13.48c2.855 0 4.6395 1.7464 4.6395 4.63v2.5994c0 2.8836-1.7845 4.6301-4.6395 4.6301-2.8551 0-4.6395-1.7465-4.6395-4.6301v-2.5994c0-2.8836 1.7844-4.63 4.6395-4.63zm0 9.4632c1.2689 0 1.9827-0.8529 1.9827-2.4775v-2.1526c0-1.6246-0.7138-2.4775-1.9827-2.4775-1.269 0-1.9827 0.8529-1.9827 2.4775v2.1526c0 1.6246 0.7137 2.4775 1.9827 2.4775z"/>
   <path d="m60.101 22.944c0.9517 0 1.8637-0.2437 2.6568-0.7311l0.912 1.9495c-0.9913 0.6498-2.3792 1.0966-3.7274 1.0966-2.7361 0-4.4016-1.7464-4.4016-4.6301v-2.5993c0-2.8837 1.6655-4.6301 4.4016-4.6301 1.3482 0 2.6964 0.4468 3.6878 1.0966l-0.9121 1.9495c-0.793-0.4467-1.7051-0.6904-2.6171-0.6904-1.2689 0-1.9034 0.8529-1.9034 2.5181v2.0713c0.0397 1.7465 0.6741 2.5994 1.9034 2.5994z"/>
   <path d="m71.681 24.893c-0.5551 0.2843-1.5465 0.4468-2.1809 0.4468-2.7361 0-3.6085-1.1779-3.6085-4.0615v-5.3611h-1.3086v-2.1932h1.4275l0.4759-2.1526h2.062v2.1526h2.974v2.1932h-2.974v5.158c0 1.4215 0.2776 1.9495 1.4275 1.9495 0.4362 0 0.9914-0.0812 1.3483-0.2437z"/>
   <path d="m77.629 13.48c2.8551 0 4.6395 1.7464 4.6395 4.63v2.5994c0 2.8836-1.7844 4.6301-4.6395 4.6301-2.855 0-4.6394-1.7465-4.6394-4.6301v-2.5994c0-2.8836 1.7844-4.63 4.6394-4.63zm0 9.4632c1.269 0 1.9827-0.8529 1.9827-2.4775v-2.1526c0-1.6246-0.7137-2.4775-1.9827-2.4775-1.2689 0-1.9826 0.8529-1.9826 2.4775v2.1526c0 1.6246 0.7137 2.4775 1.9826 2.4775z"/>
   <path d="m93.53 17.908v2.8837c0 2.8836-1.5862 4.5082-4.2826 4.5082-1.0706 0-2.062-0.3249-2.8947-0.8529l-0.1586 0.6498h-1.8241v-16.408h2.6568v5.8485c0.7138-0.6498 1.7448-1.056 2.8154-1.056 2.6568 0 3.6878 1.7058 3.6878 4.427zm-2.6568 0.2437c0-1.5027-0.4362-2.2744-1.6654-2.2744-0.6742 0-1.5069 0.3249-2.1413 1.1778v5.3612c0.5155 0.3249 1.2292 0.4873 1.8637 0.4873 1.2689 0 1.943-0.731 1.943-2.2338z"/>
   <path d="m99.993 13.48c2.855 0 4.639 1.7464 4.639 4.63v2.5994c0 2.8836-1.784 4.6301-4.639 4.6301-2.8551 0-4.6395-1.7465-4.6395-4.6301v-2.5994c0-2.8836 1.7844-4.63 4.6395-4.63zm0 9.4632c1.269 0 1.983-0.8529 1.983-2.4775v-2.1526c0-1.6246-0.714-2.4775-1.983-2.4775-1.2689 0-1.9827 0.8529-1.9827 2.4775v2.1526c0 1.6246 0.7138 2.4775 1.9827 2.4775z"/>
   <path d="m113 24.893c-0.555 0.2843-1.546 0.4468-2.181 0.4468-2.736 0-3.608-1.1779-3.608-4.0615v-5.3611h-1.309v-2.1932h1.428l0.476-2.1526h2.062v2.1526h2.974v2.1932h-2.974v5.158c0 1.4215 0.277 1.9495 1.427 1.9495 0.436 0 0.992-0.0812 1.348-0.2437z"/>
  </g>
  <path d="m1.6258 25.994c0.87239 0 1.5465 0.731 1.5465 1.5839 0 3.4117 2.7361 6.2141 6.067 6.2141 3.3309 0 6.067-2.8024 6.067-6.2141 0-0.8935 0.7138-1.5839 1.5465-1.5839 0.8724 0 1.5465 0.731 1.5465 1.5839 0 5.1987-4.124 9.4226-9.1996 9.4226-5.0757 0-9.1997-4.2239-9.1997-9.4226 0.039654-0.8529 0.75342-1.5839 1.6258-1.5839z" fill="#f8387b"/>
  <path d="m21.73 25.994c0.8724 0 1.5465 0.731 1.5465 1.5839 0 3.4117 2.7361 6.2141 6.067 6.2141s6.067-2.8024 6.067-6.2141c0-0.8935 0.7138-1.5839 1.5465-1.5839 0.8724 0 1.5465 0.731 1.5465 1.5839 0 5.1987-4.124 9.4226-9.1996 9.4226-5.0757 0-9.1997-4.2239-9.1997-9.4226 0.0396-0.8529 0.7534-1.5839 1.6258-1.5839z" fill="#f8387b"/>
  <path d="m8.3658 27.374c0.95169 0 1.7447-0.8123 1.7447-1.787 0-1.0154-0.51545-1.8277-1.4275-3.2492-1.2689-1.9089-2.974-4.5895-2.974-9.0165 0-7.5949 5.7894-13.322 13.482-13.322 3.6878 0 7.098 1.2184 9.6358 3.4929 2.6568 2.3556 4.124 5.7267 4.124 9.4632 0 4.7113-1.9034 7.8386-3.2516 10.154-0.7138 1.1778-1.2293 2.0713-1.2293 2.5181 0 0.9747 0.7931 1.787 1.7448 1.787 0.8724 0 1.5465 0.7311 1.5465 1.584 0 0.8935-0.7138 1.584-1.5465 1.584-2.6965 0-4.8378-2.2338-4.8378-4.955 0-1.4215 0.7931-2.7212 1.6655-4.2239 1.2293-2.0714 2.8154-4.6707 2.8154-8.4479 0-2.843-1.0706-5.2799-3.0533-7.0264-1.9431-1.7464-4.6395-2.6806-7.5739-2.6806-2.8947 0-5.5119 1.0154-7.4152 2.843-1.9034 1.8277-2.9741 4.427-2.9741 7.27 0 3.4929 1.2689 5.4424 2.4586 7.2701 0.9517 1.4621 1.943 3.0055 1.943 4.9956 0 2.7618-2.181 4.955-4.8378 4.955-0.87238 0-1.5465-0.7311-1.5465-1.584-0.03965-0.8935 0.63446-1.6246 1.5068-1.6246z" fill="url(#paint0_linear)"/>
  <path d="m1.6658 25.994c0.87238 0 1.5465 0.731 1.5465 1.5839 0 3.4117 2.7361 6.2141 6.067 6.2141 3.3309 0 6.067-2.8024 6.067-6.2141 0-0.8935 0.7137-1.5839 1.5465-1.5839 0.8724 0 1.5465 0.731 1.5465 1.5839 0 5.1987-4.124 9.4226-9.1997 9.4226-5.0757 0-9.1997-4.2239-9.1997-9.4226 0.039654-0.8529 0.75342-1.5839 1.6258-1.5839z" fill="url(#paint1_linear)" opacity=".6"/>
  <path d="m21.73 25.994c0.8724 0 1.5465 0.731 1.5465 1.5839 0 3.4117 2.7361 6.2141 6.067 6.2141s6.067-2.8024 6.067-6.2141c0-0.8935 0.7138-1.5839 1.5465-1.5839 0.8328 0 1.5465 0.731 1.5465 1.5839 0 5.1987-4.124 9.4226-9.1996 9.4226-5.0757 0-9.1997-4.2239-9.1997-9.4226 0.0793-0.8529 0.7931-1.5839 1.6258-1.5839z" fill="#f8387b" opacity=".6"/>
  <path d="m8.4054 27.374c0.95169 0 1.7448-0.8123 1.7448-1.787 0-1.0154-0.5155-1.8277-1.4275-3.2492-1.2689-1.9089-3.0137-4.5895-3.0137-9.0165 0-7.5949 5.8291-13.322 13.522-13.322 3.6878 0 7.098 1.2184 9.6359 3.4929 2.6568 2.3556 4.124 5.7267 4.124 9.4632 0 4.7113-1.9034 7.8386-3.2517 10.154-0.7137 1.1778-1.2292 2.0713-1.2292 2.5181 0 0.9747 0.7931 1.787 1.7447 1.787 0.8724 0 1.5465 0.7311 1.5465 1.584 0 0.8935-0.7137 1.584-1.5465 1.584-2.6964 0-4.8377-2.2338-4.8377-4.955 0-1.4215 0.7931-2.7212 1.6654-4.2239 1.2293-2.0714 2.8155-4.6707 2.8155-8.4479 0-2.843-1.0707-5.2799-3.0534-7.0264-1.943-1.7464-4.6395-2.6806-7.5738-2.6806-2.8948 0-5.5119 1.0154-7.4153 2.843-1.9034 1.8277-2.974 4.427-2.974 7.27 0 3.4929 1.2689 5.4424 2.4585 7.2701 0.912 1.4215 1.9034 2.9648 1.9034 4.955 0 2.7618-2.181 4.955-4.8378 4.955-0.87238 0-1.5465-0.7311-1.5465-1.584s0.67412-1.584 1.5465-1.584z" fill="url(#paint2_linear)" opacity=".6"/>
 </g>
 <defs>
  <linearGradient id="paint0_linear" x1="19.324" x2="19.324" y2="30.578" gradientUnits="userSpaceOnUse">
   <stop stop-color="#C50548" offset="0"/>
   <stop stop-color="#F8387B" offset="1"/>
  </linearGradient>
  <linearGradient id="paint1_linear" x1="14.977" x2="3.2987" y1="35.044" y2="23.642" gradientUnits="userSpaceOnUse">
   <stop stop-color="#F7065A" offset="0"/>
   <stop stop-color="#D819E0" offset=".75"/>
   <stop stop-color="#A538F8" offset=".9934"/>
  </linearGradient>
  <linearGradient id="paint2_linear" x1="27.314" x2="9.9332" y1="32.561" y2="3.1682" gradientUnits="userSpaceOnUse">
   <stop stop-color="#F7065A" offset="0"/>
   <stop stop-color="#D819E0" offset=".75"/>
   <stop stop-color="#A538F8" offset=".9934"/>
  </linearGradient>
 </defs>
</svg>
