<svg xmlns="http://www.w3.org/2000/svg" width="127" height="120" viewBox="0 0 127 120">
    <defs>
        <linearGradient id="lf4cjrk3pa" x1="87.818%" x2="30.527%" y1="47.385%" y2="51.679%">
            <stop offset="0%" stop-color="#0034DB"/>
            <stop offset="100%" stop-color="#0052FF"/>
        </linearGradient>
        <linearGradient id="ioum2m0pib" x1="74.598%" x2="37.334%" y1="41.035%" y2="55.756%">
            <stop offset="0%" stop-color="#0034DB"/>
            <stop offset="100%" stop-color="#0052FF"/>
        </linearGradient>
        <linearGradient id="ocji7dgvyc" x1="87.818%" x2="30.527%" y1="48.858%" y2="50.733%">
            <stop offset="0%" stop-color="#0034DB"/>
            <stop offset="100%" stop-color="#0052FF"/>
        </linearGradient>
        <linearGradient id="nzelrm80dd" x1="87.818%" x2="30.527%" y1="49.343%" y2="50.422%">
            <stop offset="0%" stop-color="#0034DB"/>
            <stop offset="100%" stop-color="#0052FF"/>
        </linearGradient>
    </defs>
    <g fill="none" fill-rule="evenodd">
        <path fill="#0052FF" d="M22.923 10.61c.218-.553.877-1.078 1.465-1.166L86.015.19c.588-.088 1.373.22 1.743.684l32.403 40.639 1.348 1.69 5.083 6.374c.37.465.496 1.298.278 1.85l-22.793 57.958c-.218.553-.876 1.077-1.464 1.165l-61.628 9.255c-.588.088-1.373-.22-1.743-.685L6.732 78.347l-1.348-1.69-4.976-6.24c-.37-.465-.496-1.297-.278-1.85L22.923 10.61z"/>
        <path fill="url(#lf4cjrk3pa)" d="M64.684 68.203L87.302 101.119 38.417 109.223 11.351 76.245z"/>
        <path fill="url(#ioum2m0pib)" d="M91.905 68.203L85.607 94.531 80.491 94.531 70.672 70.42z"/>
        <path fill="url(#ocji7dgvyc)" d="M102.124 51.64L100.442 60.317 65.385 64.75 65.385 56.074z"/>
        <path fill="url(#nzelrm80dd)" d="M8.4 69.089L70.653 60.317 58.451 51.64 6.182 58.195z"/>
        <path fill="#FFF" d="M73.878 68.203L82.574 90.7l8.196-20.924c.322-.868 1.338-1.573 2.262-1.573h8.257L89.012 99.639c-.335.863-1.358 1.565-2.285 1.567h-8.162c-.928-.002-1.95-.704-2.284-1.567L64.525 69.764c-.34-.861.135-1.561 1.065-1.561h8.288zM65.65 51.64c.928 0 1.982.687 2.357 1.534l2.774 7.143h-8.378c-.927 0-1.95-.701-2.279-1.567l-2.136-5.59c-.39-.839.042-1.52.968-1.52zm40.605 0c.928 0 1.36.681.966 1.52l-2.136 5.59c-.329.866-1.35 1.567-2.277 1.567h-8.379l2.772-7.143c.378-.847 1.433-1.534 2.362-1.534h6.692z"/>
    </g>
</svg>
