<?xml version="1.0" encoding="UTF-8" standalone="no"?>
<!DOCTYPE svg PUBLIC "-//W3C//DTD SVG 1.1//EN" "http://www.w3.org/Graphics/SVG/1.1/DTD/svg11.dtd">
<!-- Created with Vectornator (http://vectornator.io/) -->
<svg height="650.0pt" stroke-miterlimit="10" style="fill-rule:nonzero;clip-rule:evenodd;stroke-linecap:round;stroke-linejoin:round;" version="1.1" viewBox="0 0 1040 650" width="1040.0pt" xml:space="preserve" xmlns="http://www.w3.org/2000/svg" xmlns:xlink="http://www.w3.org/1999/xlink">
<defs/>
<g id="Untitled">
<g fill="#231f20" opacity="1" stroke="none">
<path d="M195.391 517.929L200.798 506.215L84.1098 506.215L204.852 359.342L204.852 358.891L86.813 358.891L81.4066 370.605L180.524 370.605L59.781 517.479L59.781 517.929L195.391 517.929Z"/>
<path d="M269.279 607.585L364.792 358.891L351.726 358.891L295.86 505.765L230.533 358.891L216.116 358.891L289.553 521.534L256.664 607.585L269.279 607.585Z"/>
<path d="M494.545 517.929L511.665 517.929L429.218 422.867L505.808 358.891L486.886 358.891L401.735 430.526L401.735 166.514L388.67 166.514L388.67 517.929L401.735 517.929L401.735 446.295L419.757 430.977L494.545 517.929Z"/>
<path d="M549.96 166.514L536.895 166.514L536.895 517.929L549.96 517.929L549.96 166.514Z"/>
<path d="M706.746 517.929L719.811 517.929L719.811 358.891L706.746 358.891L706.746 461.162C706.746 494.502 678.362 509.82 658.088 509.82C633.759 509.82 610.332 498.106 610.332 458.459L610.332 358.891L597.266 358.891L597.266 462.063C597.266 499.007 617.991 521.984 654.484 521.984C677.011 521.984 696.834 510.27 706.746 495.853L706.746 517.929Z"/>
<path d="M779.732 415.658C779.732 382.319 802.709 367.001 820.73 367.001C842.356 367.001 861.729 378.715 861.729 418.362L861.729 517.929L874.794 517.929L874.794 413.856C874.794 384.572 895.969 367.001 915.342 367.001C939.671 367.001 956.791 378.715 956.791 418.362L956.791 517.929L969.857 517.929L969.857 414.757C969.857 377.814 949.583 354.837 918.046 354.837C894.167 354.837 876.597 369.254 869.839 385.473C862.179 366.1 845.96 354.837 822.983 354.837C803.16 354.837 787.391 366.1 779.732 379.616L779.732 358.891L766.667 358.891L766.667 517.929L779.732 517.929L779.732 415.658Z"/>
</g>
</g>
</svg>
