<svg width="448" height="92" fill="none" xmlns="http://www.w3.org/2000/svg"><path d="M25.317 25.253c-1.689 0-3.057 1.418-3.057 3.167 0 .981.431 1.859 1.108 2.44.654 19.535 1.131 38.67 1.983 58.65.26-2.538.715-14.395 1.85-58.598a3.2 3.2 0 0 0 1.176-2.491c0-1.75-1.37-3.168-3.06-3.168h0Z" stroke="#FDFDFD" stroke-width="1.541" stroke-linecap="round" stroke-linejoin="round"/><path d="M25.696 35.222c10.594-.786 17.505-1.178 20.734-1.178 3.247 0 5.803.305 7.671.916 1.885.593 3.57 1.422 5.053 2.487 2.88 2.042 5.053 4.756 6.519 8.142 1.483 3.386 2.225 6.816 2.225 10.289s-.567 6.51-1.702 9.11c-1.117 2.584-2.67 4.765-4.66 6.546-4.066 3.682-9.329 5.515-15.786 5.497H25.696v-41.81ZM41.98 48.495v15.944a43.922 43.922 0 0 1 3.01-2.33c4.154-2.985 6.231-6.11 6.231-9.373 0-1.588-.471-3.054-1.413-4.398-.943-1.361-2.173-2.042-3.692-2.042-1.5 0-2.88.733-4.136 2.199ZM81.669 85.723c-4.206 0-7.872-1.257-10.996-3.77l.052-6.754a5.696 5.696 0 0 0 2.252.445c.803 0 1.475-.218 2.016-.655a8.235 8.235 0 0 0 1.492-1.675c1.047-1.554 1.57-3.08 1.57-4.582V44.49h15.657v29.636c0 3.543-1.161 6.362-3.482 8.457-2.304 2.094-5.158 3.141-8.561 3.141Zm4.634-56.313c2.548 0 4.442.54 5.68 1.623 1.24 1.064 1.85 2.426 1.833 4.084 0 1.658-.794 3.185-2.382 4.581-1.57 1.397-3.665 2.095-6.283 2.095-3.7 0-6.004-1.117-6.912-3.351-.262-.629-.392-1.327-.392-2.095 0-.768.183-1.57.55-2.408a6.737 6.737 0 0 1 1.622-2.252c1.641-1.518 3.735-2.277 6.284-2.277ZM103.241 74.151c-1.396-1.308-2.513-2.95-3.35-4.921-.821-1.99-1.231-4.128-1.231-6.415 0-2.286.227-4.267.68-5.942.908-3.334 2.496-6.135 4.765-8.404a16.576 16.576 0 0 1 3.613-2.828c2.723-1.588 5.594-2.382 8.613-2.382 3.037 0 5.699 1.004 7.985 3.01.733.646 1.37 1.388 1.911 2.226l3.744-4.006h8.587v32.542h-8.587l-3.744-5.419c-2.862 4.224-7.199 6.344-13.011 6.362-1.606.017-3.325-.297-5.158-.943a13.534 13.534 0 0 1-4.817-2.88Zm21.206-19.792c-.628-.366-1.379-.55-2.251-.55-.873 0-1.798.315-2.775.943-.96.61-1.824 1.387-2.592 2.33-1.711 2.112-2.566 4.259-2.566 6.44 0 1.536.471 2.618 1.414 3.247.872.576 2.199.497 3.979-.236 1.798-.75 3.395-1.72 4.791-2.906V54.36ZM162.461 53.338c-1.397 0-2.095 1.126-2.095 3.377v20.316h-15.551V44.49h8.587l3.744 5.08c1.396-1.938 3.325-3.474 5.786-4.608 2.478-1.135 4.791-1.702 6.938-1.702 3.944 0 7.068 1.047 9.372 3.142 2.322 2.094 3.482 4.904 3.482 8.43v22.2h-15.656V61.323c0-5.323-1.535-7.985-4.607-7.985ZM200.658 90.436v-9.268c.89.104 1.858.253 2.906.445 1.064.192 2.094.288 3.089.288.995 0 1.911-.114 2.749-.34.855-.227 1.614-.673 2.278-1.336 1.431-1.43 2.155-3.84 2.172-7.225-3.054 3.333-6.754 5-11.1 5-4.328.017-7.941-1.353-10.839-4.11-2.879-2.758-4.319-6.694-4.319-11.808 0-3.665.803-6.92 2.408-9.765 1.606-2.862 3.762-5.087 6.467-6.676 2.723-1.588 5.611-2.382 8.665-2.382 3.072 0 5.725 1.004 7.959 3.01a10.026 10.026 0 0 1 1.885 2.226l3.77-4.006h8.561v32.542c.018 6.72-3.011 11.136-9.084 13.247-2.444.856-5.245 1.283-8.404 1.283-3.142 0-6.196-.375-9.163-1.125Zm12.566-36.077a3.887 3.887 0 0 0-1.99-.55c-.68 0-1.343.14-1.989.42-1.327.575-2.514 1.51-3.561 2.8-1.763 2.043-2.644 4.207-2.644 6.493 0 1.536.454 2.618 1.361 3.247.768.506 1.955.497 3.561-.026 1.536-.507 3.29-1.528 5.262-3.064v-9.32ZM255.924 53.757c-.349-.174-.803-.262-1.361-.262-.541 0-1.144.166-1.807.498a8.726 8.726 0 0 0-1.963 1.309c-1.362 1.187-2.505 2.627-3.43 4.32-.925 1.693-1.387 3.255-1.387 4.686 0 1.413.541 2.365 1.623 2.853.384.175.855.262 1.413.262.559 0 1.144-.166 1.755-.497a9.78 9.78 0 0 0 1.832-1.388c1.274-1.204 2.391-2.661 3.351-4.372.96-1.728 1.44-3.272 1.44-4.634 0-1.361-.489-2.286-1.466-2.775ZM250.845 78c-4.992 0-9.294-1.58-12.907-4.739-3.857-3.35-5.786-7.566-5.786-12.645 0-5.096 1.807-9.259 5.42-12.488 3.613-3.246 8.072-4.87 13.378-4.87 5.306 0 9.765 1.59 13.378 4.766 3.613 3.159 5.428 7.391 5.445 12.697.018 3.404-.846 6.414-2.592 9.032-1.745 2.618-4.075 4.643-6.99 6.074-2.914 1.431-6.03 2.156-9.346 2.173ZM307.944 48.835a10.044 10.044 0 0 0-3.639-.654c-2.653 0-4.966.968-6.938 2.906-1.955 1.92-2.932 4.223-2.932 6.911 0 1.798.349 3.203 1.047 4.215.698 1.013 1.65 1.519 2.854 1.519 1.204 0 2.531-.306 3.979-.916 1.466-.629 3.613-1.982 6.441-4.059v17.044c-3.718 1.5-7.671 2.251-11.86 2.251-4.171 0-8.02-.803-11.545-2.408-5.603-2.566-9.294-6.58-11.075-12.043-.593-1.868-.899-3.927-.916-6.179 0-2.251.279-4.407.838-6.466a21.874 21.874 0 0 1 2.435-5.707c2.129-3.509 5.113-6.258 8.953-8.247 3.857-1.99 8.273-2.976 13.247-2.959 3.788 0 6.825.428 9.111 1.283v13.51ZM337.423 53.757c-.349-.174-.803-.262-1.362-.262-.541 0-1.143.166-1.806.498a8.726 8.726 0 0 0-1.963 1.309c-1.362 1.187-2.505 2.627-3.43 4.32-.925 1.693-1.388 3.255-1.388 4.686 0 1.413.541 2.365 1.624 2.853.384.175.855.262 1.413.262.559 0 1.143-.166 1.754-.497a9.753 9.753 0 0 0 1.833-1.388c1.274-1.204 2.391-2.661 3.351-4.372.96-1.728 1.44-3.272 1.44-4.634 0-1.361-.489-2.286-1.466-2.775ZM332.344 78c-4.992 0-9.294-1.58-12.907-4.739-3.857-3.35-5.786-7.566-5.786-12.645 0-5.096 1.807-9.259 5.42-12.488 3.612-3.246 8.072-4.87 13.378-4.87 5.305 0 9.765 1.59 13.378 4.766 3.613 3.159 5.428 7.391 5.445 12.697.018 3.404-.846 6.414-2.592 9.032-1.745 2.618-4.075 4.643-6.99 6.074-2.914 1.431-6.03 2.156-9.346 2.173ZM374.075 53.338c-1.396 0-2.094 1.126-2.094 3.377v20.316H356.43V44.49h8.587l3.744 5.08c1.396-1.938 3.324-3.474 5.785-4.608 2.479-1.135 4.791-1.702 6.938-1.702 3.945 0 7.069 1.047 9.373 3.142 2.321 2.094 3.482 4.904 3.482 8.43v22.2h-15.656V61.323c0-5.323-1.536-7.985-4.608-7.985ZM402.52 69.832c1.222-.009 2.142.336 2.762 1.034.628.69.942 1.553.942 2.592 0 1.038-.384 1.976-1.152 2.814-.768.83-1.788 1.24-3.063 1.23-1.274 0-2.216-.335-2.827-1.007-.611-.681-.916-1.532-.916-2.553 0-1.03.405-1.972 1.217-2.827.812-.856 1.824-1.283 3.037-1.283ZM419.445 65.42c0-.768-.357-1.151-1.073-1.151-.82.078-1.353.501-1.597 1.27a6.202 6.202 0 0 0-.262 1.282c-.043.48-.113.995-.209 1.545l2.867-.642.248-2.002.026-.302Zm-1.767 5.956h-.72c-.227 0-.445-.008-.654-.026 0 1.039.554 1.606 1.662 1.702.306.026.602.04.89.04.742 0 1.672-.171 2.789-.511a8.223 8.223 0 0 0 3.023-1.663l.812 4.071c-1.946 1.684-4.887 2.527-8.823 2.527-2.26 0-4.202-.66-5.825-1.977-1.763-1.44-2.644-3.434-2.644-5.982 0-1.92.497-3.644 1.492-5.17.925-1.397 2.177-2.457 3.757-3.182 1.58-.724 3.286-1.086 5.118-1.086 2.374 0 4.167.52 5.38 1.558 1.222 1.038 1.828 2.32 1.82 3.848 0 1.527-.729 2.884-2.186 4.071-1.458 1.187-3.421 1.78-5.891 1.78ZM436.227 68.34c0 2.862.694 4.293 2.081 4.293.698 0 1.104-.34 1.218-1.021.034-.21.052-.44.052-.694V60.76h7.775v16.271h-4.293l-1.872-2.552c-1.108 1.51-2.71 2.491-4.804 2.945-2.566.55-4.634.113-6.205-1.309-1.187-1.073-1.78-2.491-1.78-4.254v-11.1h7.828v7.578ZM6.022 39.352c-.126-.293-1.342-.274-2.702.042-1.36.316-2.677.394-2.927.172-.249-.221-.424.06-.388.626.05.815.708.89 3.154.361 1.7-.367 2.988-.907 2.863-1.2Z" fill="#FDFDFD"/><path d="M11.214 34.33c-3.596.497-7.685 2.552-7.884 3.415.574.83 5.902.802 1.387 3.653 2.108 1.033 6.43 2.04 9.713 1.222 6.105-1.522 7.753-1.61 12.957-1.603 8.716-.275 14.117 8.383 2.167 11.96-1.362.527-2.289.5-3.38.68l.526 4.753c4.977-.382 7.642-2.153 10.421-3.894 4.731-3.686 7.23-13.337-2.192-19.313-3.496-2.31-11.915-2.18-20.704-.89-.98-.147-2.004-.122-3.011.017ZM117.375 25.7c2.757 0 4.948-.863 6.575-2.591l.689.923c-1.222 1.664-3.046 2.734-5.472 3.212-.763.156-1.553.235-2.371.235-1.59 0-3.023-.276-4.301-.828-1.277-.56-2.361-1.314-3.253-2.26-1.847-1.957-2.77-4.374-2.77-7.25 0-3.033.84-5.647 2.522-7.844 1.13-1.48 2.587-2.518 4.37-3.115.9-.294 1.737-.441 2.508-.441.782 0 1.356.023 1.723.069.377.046.713.106 1.007.18.294.073.556.155.785.247.239.083.497.17.772.262.754.258 1.36.386 1.82.386.459 0 .96-.377 1.502-1.13h1.324l-1.834 7.305h-1.309a26.79 26.79 0 0 0 .069-1.488c0-.607-.074-1.14-.221-1.6a2.712 2.712 0 0 0-.717-1.198 4.664 4.664 0 0 0-1.213-.841c-.937-.46-1.971-.69-3.101-.69-1.121 0-2.086.226-2.895.676a6.164 6.164 0 0 0-2.026 1.847c-1.038 1.498-1.659 3.533-1.861 6.107h8.891l-.372 1.557h-8.56c.092 2.141.799 4.016 2.123 5.624 1.461 1.764 3.326 2.646 5.596 2.646ZM139.002 11.213c-1.424-4.227-4.277-6.814-8.56-7.76l.29-1.213c4.218.624 7.393 2.407 9.525 5.348 1.911 2.647 2.867 5.932 2.867 9.856 0 3.087-.703 5.532-2.109 7.333-1.406 1.792-3.29 2.688-5.652 2.688-2.26 0-4.107-.91-5.541-2.73-1.332-1.672-1.999-3.657-1.999-5.954 0-2.325.621-4.315 1.861-5.969 1.369-1.82 3.235-2.73 5.597-2.73 1.461 0 2.701.378 3.721 1.131Zm.979 6.575c0-4.144-1.48-6.216-4.439-6.216-1.663 0-2.871.748-3.625 2.246-.625 1.213-.937 2.881-.937 5.004 0 3.143.763 5.298 2.288 6.465.57.432 1.305.648 2.206.648.909 0 1.663-.207 2.26-.62.597-.414 1.061-.984 1.392-1.71.57-1.259.855-3.198.855-5.817ZM147.231 4.983l2.509-2.468 2.454 2.468-2.454 2.495-2.509-2.495Zm-1.144 21.007.483-.07c.395-.055.717-.11.965-.165.248-.064.441-.174.579-.33.239-.285.358-.938.358-1.958v-9.345c0-1.048-.11-1.678-.331-1.889a1.462 1.462 0 0 0-.799-.414 15.333 15.333 0 0 0-1.255-.151v-1.185h7.54v1.185c-.524.055-.942.11-1.254.165-.313.056-.551.161-.717.317-.266.249-.4.906-.4 1.972v9.345c0 1.048.083 1.668.249 1.861.165.193.367.322.606.386.248.064.574.129.979.193l.537.083v1.144h-7.54V25.99ZM161.539 13.35c.837-1.664 2.334-3.042 4.494-4.136 1.59.846 2.812 1.774 3.667 2.785 1.35 1.626 2.168 4.043 2.453 7.25a38.49 38.49 0 0 1 .138 3.198c0 1.03.018 1.728.055 2.095.037.368.115.648.235.841a.883.883 0 0 0 .523.373c.23.055.46.1.69.137.229.037.39.06.482.07.101 0 .202.008.303.027v1.144h-7.54V25.99c.524-.064.942-.124 1.255-.18.312-.064.551-.178.716-.344.267-.266.4-1.006.4-2.22v-1.598c0-2.104-.05-3.561-.151-4.37-.101-.817-.23-1.488-.386-2.012a6.963 6.963 0 0 0-.607-1.503c-.505-.882-1.296-1.75-2.371-2.605-2.904 1.792-4.356 4.218-4.356 7.278v4.673c0 1.213.088 1.939.262 2.178.184.239.409.395.676.469.266.064.629.128 1.089.192l.358.042v1.144h-7.54v-1.13a.463.463 0 0 1 .207-.042c.092-.008.253-.026.482-.055.239-.037.483-.087.731-.151.257-.065.455-.175.593-.331.229-.248.344-.873.344-1.875v-9.828c0-.836-.105-1.346-.317-1.53a1.529 1.529 0 0 0-.785-.372 9.968 9.968 0 0 0-1.255-.152v-1.185h5.155v2.867ZM176.881 25.99c1.057-.092 1.696-.248 1.916-.469.221-.23.354-.478.4-.744.046-.276.069-.634.069-1.075v-16.9c0-.882-.166-1.447-.496-1.695-.221-.166-.85-.299-1.889-.4V3.563h7.568v1.144c-1.029.101-1.645.225-1.847.372-.35.248-.524.823-.524 1.723v5.1c.845-.9 1.976-1.498 3.391-1.792.45-.091.969-.137 1.557-.137.598 0 1.213.114 1.847.344.635.22 1.209.529 1.723.924.515.395.97.864 1.365 1.406.395.533.721 1.116.979 1.75.542 1.314.813 2.707.813 4.177 0 2.39-.657 4.443-1.971 6.161a7.124 7.124 0 0 1-3.446 2.454 6.37 6.37 0 0 1-2.04.358c-.846 0-1.728-.046-2.647-.137-1.718-.184-2.78-.276-3.184-.276h-3.584V25.99Zm5.197-2.895c0 .873.248 1.54.744 1.999.643.57 1.728.854 3.253.854 1.526 0 2.693-.744 3.501-2.233.717-1.286 1.076-3 1.076-5.141 0-3.106-.69-5.224-2.068-6.355a2.74 2.74 0 0 0-1.792-.634c-.68 0-1.296.101-1.847.304a4.951 4.951 0 0 0-1.461.827c-.938.762-1.406 1.668-1.406 2.715v7.664ZM203.636 27.85c-1.746-1.047-3.032-2.021-3.859-2.922-1.452-1.59-2.325-3.896-2.619-6.92a29.888 29.888 0 0 1-.166-3.032c0-.946-.009-1.576-.027-1.888-.019-.322-.092-.58-.221-.772-.22-.35-.781-.565-1.681-.648v-1.185h6.781v1.185c-.909.092-1.498.294-1.764.607-.211.266-.317.91-.317 1.93s.014 1.97.041 2.853c.037.882.101 1.672.193 2.37.092.699.226 1.328.4 1.889.175.551.409 1.075.703 1.571.533.92 1.378 1.92 2.536 3.005 1.186-1.112 1.976-2.012 2.371-2.701.405-.699.694-1.324.869-1.875.174-.56.308-1.19.399-1.889a29.95 29.95 0 0 0 .235-3.914c0-1.434-.019-2.288-.055-2.564a1.358 1.358 0 0 0-.262-.675c-.267-.313-.85-.515-1.751-.607v-1.185h6.754v1.185c-.9.129-1.429.312-1.585.551a1.8 1.8 0 0 0-.289.814c-.028.312-.042.95-.042 1.916 0 .955-.055 1.975-.165 3.06-.101 1.084-.266 2.049-.496 2.894a10.25 10.25 0 0 1-.855 2.247 8.946 8.946 0 0 1-1.268 1.778c-.827.901-2.114 1.875-3.86 2.923ZM224.561 15.486c.514-.496.772-1.25.772-2.26 0-.497-.235-.887-.703-1.172-.395-.23-.997-.345-1.806-.345-1.746 0-2.619.57-2.619 1.71v10.476c0 .395.037.721.11.978.083.258.262.464.538.62.478.276 1.58.442 3.308.497v1.144h-9.208v-1.13l.028-.013c1.084-.11 1.732-.262 1.943-.455.221-.202.354-.432.4-.689.055-.266.083-.62.083-1.061v-9.553c0-1.001-.101-1.622-.303-1.86a1.495 1.495 0 0 0-.717-.497 6.152 6.152 0 0 0-1.13-.22v-1.172h2.853c1.13 0 1.934-.023 2.412-.07.478-.045.855-.077 1.13-.095a23.7 23.7 0 0 1 2.013-.11c.524 0 1.061.04 1.613.123a5.146 5.146 0 0 1 1.461.427c.928.442 1.392 1.126 1.392 2.054 0 .745-.303 1.438-.91 2.082-.57.606-1.204 1.006-1.902 1.199l-.758-.608ZM242.328 25.563c-1.194 1.268-2.632 1.902-4.314 1.902-2.316 0-4.121-.86-5.417-2.578-1.158-1.535-1.737-3.487-1.737-5.858 0-2.417.639-4.448 1.916-6.093 1.415-1.82 3.419-2.73 6.01-2.73.735 0 1.502.029 2.302.084 1.525.12 2.476.179 2.853.179h3.57v1.172c-1.047.073-1.681.225-1.902.454-.22.221-.354.474-.4.759a6.772 6.772 0 0 0-.069 1.075V26.43c0 2.39-.657 4.415-1.971 6.079-1.424 1.81-3.34 2.715-5.748 2.715a7.808 7.808 0 0 1-3.487-.827l.537-1.488c.791.312 1.678.468 2.661.468.983 0 1.81-.202 2.481-.606a4.635 4.635 0 0 0 1.626-1.558c.726-1.185 1.089-2.77 1.089-4.755v-.896Zm-8.339-6.534c0 4.604 1.378 6.906 4.135 6.906 1.195 0 2.197-.386 3.005-1.158.8-.763 1.199-1.682 1.199-2.757v-7.512c0-.929-.151-1.553-.454-1.875-.589-.625-1.636-.937-3.143-.937-3.161 0-4.742 2.444-4.742 7.333ZM255.561 13.35c.827-1.627 2.357-3.005 4.59-4.136 1.599.855 2.812 1.788 3.639 2.799 1.351 1.654 2.169 4.066 2.454 7.236.092 1.112.138 2.183.138 3.212 0 1.03.013 1.728.041 2.095.036.368.115.643.234.827.12.184.29.308.51.373a9.835 9.835 0 0 0 1.158.206c.101 0 .198.01.29.028v1.144h-7.485V25.99c.524-.064.942-.124 1.254-.18.313-.064.551-.178.717-.344.266-.266.4-1.006.4-2.22v-1.612c0-2.086-.051-3.538-.152-4.356-.101-.827-.23-1.502-.386-2.026a7.04 7.04 0 0 0-.606-1.489c-.487-.873-1.264-1.741-2.33-2.605-1.369.836-2.384 1.696-3.046 2.578-.947 1.268-1.42 2.835-1.42 4.7v4.673c0 .634.018 1.13.055 1.489.037.349.133.615.29.8.165.183.404.312.716.385.322.064.763.133 1.324.207v1.144h-7.568v-1.13l.028-.013c.542-.064.969-.128 1.282-.193.312-.073.546-.193.703-.358.238-.257.358-.891.358-1.902V6.83c0-1.02-.11-1.63-.331-1.833a1.477 1.477 0 0 0-.786-.386 11.46 11.46 0 0 0-1.254-.165V3.289h7.568v1.157c-.515.056-.929.11-1.241.166-.312.055-.551.156-.717.303-.285.239-.427.878-.427 1.916v6.519Z" fill="#FDFDFD"/><path d="M117.375 25.7c2.757 0 4.948-.863 6.575-2.591l.689.923c-1.222 1.664-3.046 2.734-5.472 3.212-.763.156-1.553.235-2.371.235-1.59 0-3.023-.276-4.301-.828-1.277-.56-2.361-1.314-3.253-2.26-1.847-1.957-2.77-4.374-2.77-7.25 0-3.033.84-5.647 2.522-7.844 1.13-1.48 2.587-2.518 4.37-3.115.9-.294 1.737-.441 2.508-.441.782 0 1.356.023 1.723.069.377.046.713.106 1.007.18.294.073.556.155.785.247.239.083.497.17.772.262.754.258 1.36.386 1.82.386.459 0 .96-.377 1.502-1.13h1.324l-1.834 7.305h-1.309a26.79 26.79 0 0 0 .069-1.488c0-.607-.074-1.14-.221-1.6a2.712 2.712 0 0 0-.717-1.198 4.664 4.664 0 0 0-1.213-.841c-.937-.46-1.971-.69-3.101-.69-1.121 0-2.086.226-2.895.676a6.164 6.164 0 0 0-2.026 1.847c-1.038 1.498-1.659 3.533-1.861 6.107h8.891l-.372 1.557h-8.56c.092 2.141.799 4.016 2.123 5.624 1.461 1.764 3.326 2.646 5.596 2.646ZM139.002 11.213c-1.424-4.227-4.277-6.814-8.56-7.76l.29-1.213c4.218.624 7.393 2.407 9.525 5.348 1.911 2.647 2.867 5.932 2.867 9.856 0 3.087-.703 5.532-2.109 7.333-1.406 1.792-3.29 2.688-5.652 2.688-2.26 0-4.107-.91-5.541-2.73-1.332-1.672-1.999-3.657-1.999-5.954 0-2.325.621-4.315 1.861-5.969 1.369-1.82 3.235-2.73 5.597-2.73 1.461 0 2.701.378 3.721 1.131Zm.979 6.575c0-4.144-1.48-6.216-4.439-6.216-1.663 0-2.871.748-3.625 2.246-.625 1.213-.937 2.881-.937 5.004 0 3.143.763 5.298 2.288 6.465.57.432 1.305.648 2.206.648.909 0 1.663-.207 2.26-.62.597-.414 1.061-.984 1.392-1.71.57-1.259.855-3.198.855-5.817ZM147.231 4.983l2.509-2.468 2.454 2.468-2.454 2.495-2.509-2.495Zm-1.144 21.007.483-.07c.395-.055.717-.11.965-.165.248-.064.441-.174.579-.33.239-.285.358-.938.358-1.958v-9.345c0-1.048-.11-1.678-.331-1.889a1.462 1.462 0 0 0-.799-.414 15.333 15.333 0 0 0-1.255-.151v-1.185h7.54v1.185c-.524.055-.942.11-1.254.165-.313.056-.551.161-.717.317-.266.249-.4.906-.4 1.972v9.345c0 1.048.083 1.668.249 1.861.165.193.367.322.606.386.248.064.574.129.979.193l.537.083v1.144h-7.54V25.99ZM161.539 13.35c.837-1.664 2.334-3.042 4.494-4.136 1.59.846 2.812 1.774 3.667 2.785 1.35 1.626 2.168 4.043 2.453 7.25a38.49 38.49 0 0 1 .138 3.198c0 1.03.018 1.728.055 2.095.037.368.115.648.235.841a.883.883 0 0 0 .523.373c.23.055.46.1.69.137.229.037.39.06.482.07.101 0 .202.008.303.027v1.144h-7.54V25.99c.524-.064.942-.124 1.255-.18.312-.064.551-.178.716-.344.267-.266.4-1.006.4-2.22v-1.598c0-2.104-.05-3.561-.151-4.37-.101-.817-.23-1.488-.386-2.012a6.963 6.963 0 0 0-.607-1.503c-.505-.882-1.296-1.75-2.371-2.605-2.904 1.792-4.356 4.218-4.356 7.278v4.673c0 1.213.088 1.939.262 2.178.184.239.409.395.676.469.266.064.629.128 1.089.192l.358.042v1.144h-7.54v-1.13a.463.463 0 0 1 .207-.042c.092-.008.253-.026.482-.055.239-.037.483-.087.731-.151.257-.065.455-.175.593-.331.229-.248.344-.873.344-1.875v-9.828c0-.836-.105-1.346-.317-1.53a1.529 1.529 0 0 0-.785-.372 9.968 9.968 0 0 0-1.255-.152v-1.185h5.155v2.867ZM176.881 25.99c1.057-.092 1.696-.248 1.916-.469.221-.23.354-.478.4-.744.046-.276.069-.634.069-1.075v-16.9c0-.882-.166-1.447-.496-1.695-.221-.166-.85-.299-1.889-.4V3.563h7.568v1.144c-1.029.101-1.645.225-1.847.372-.35.248-.524.823-.524 1.723v5.1c.845-.9 1.976-1.498 3.391-1.792.45-.091.969-.137 1.557-.137.598 0 1.213.114 1.847.344.635.22 1.209.529 1.723.924.515.395.97.864 1.365 1.406.395.533.721 1.116.979 1.75.542 1.314.813 2.707.813 4.177 0 2.39-.657 4.443-1.971 6.161a7.124 7.124 0 0 1-3.446 2.454 6.37 6.37 0 0 1-2.04.358c-.846 0-1.728-.046-2.647-.137-1.718-.184-2.78-.276-3.184-.276h-3.584V25.99Zm5.197-2.895c0 .873.248 1.54.744 1.999.643.57 1.728.854 3.253.854 1.526 0 2.693-.744 3.501-2.233.717-1.286 1.076-3 1.076-5.141 0-3.106-.69-5.224-2.068-6.355a2.74 2.74 0 0 0-1.792-.634c-.68 0-1.296.101-1.847.304a4.951 4.951 0 0 0-1.461.827c-.938.762-1.406 1.668-1.406 2.715v7.664ZM203.636 27.85c-1.746-1.047-3.032-2.021-3.859-2.922-1.452-1.59-2.325-3.896-2.619-6.92a29.888 29.888 0 0 1-.166-3.032c0-.946-.009-1.576-.027-1.888-.019-.322-.092-.58-.221-.772-.22-.35-.781-.565-1.681-.648v-1.185h6.781v1.185c-.909.092-1.498.294-1.764.607-.211.266-.317.91-.317 1.93s.014 1.97.041 2.853c.037.882.101 1.672.193 2.37.092.699.226 1.328.4 1.889.175.551.409 1.075.703 1.571.533.92 1.378 1.92 2.536 3.005 1.186-1.112 1.976-2.012 2.371-2.701.405-.699.694-1.324.869-1.875.174-.56.308-1.19.399-1.889a29.95 29.95 0 0 0 .235-3.914c0-1.434-.019-2.288-.055-2.564a1.358 1.358 0 0 0-.262-.675c-.267-.313-.85-.515-1.751-.607v-1.185h6.754v1.185c-.9.129-1.429.312-1.585.551a1.8 1.8 0 0 0-.289.814c-.028.312-.042.95-.042 1.916 0 .955-.055 1.975-.165 3.06-.101 1.084-.266 2.049-.496 2.894a10.25 10.25 0 0 1-.855 2.247 8.946 8.946 0 0 1-1.268 1.778c-.827.901-2.114 1.875-3.86 2.923ZM224.561 15.486c.514-.496.772-1.25.772-2.26 0-.497-.235-.887-.703-1.172-.395-.23-.997-.345-1.806-.345-1.746 0-2.619.57-2.619 1.71v10.476c0 .395.037.721.11.978.083.258.262.464.538.62.478.276 1.58.442 3.308.497v1.144h-9.208v-1.13l.028-.013c1.084-.11 1.732-.262 1.943-.455.221-.202.354-.432.4-.689.055-.266.083-.62.083-1.061v-9.553c0-1.001-.101-1.622-.303-1.86a1.495 1.495 0 0 0-.717-.497 6.152 6.152 0 0 0-1.13-.22v-1.172h2.853c1.13 0 1.934-.023 2.412-.07.478-.045.855-.077 1.13-.095a23.7 23.7 0 0 1 2.013-.11c.524 0 1.061.04 1.613.123a5.146 5.146 0 0 1 1.461.427c.928.442 1.392 1.126 1.392 2.054 0 .745-.303 1.438-.91 2.082-.57.606-1.204 1.006-1.902 1.199l-.758-.608ZM242.328 25.563c-1.194 1.268-2.632 1.902-4.314 1.902-2.316 0-4.121-.86-5.417-2.578-1.158-1.535-1.737-3.487-1.737-5.858 0-2.417.639-4.448 1.916-6.093 1.415-1.82 3.419-2.73 6.01-2.73.735 0 1.502.029 2.302.084 1.525.12 2.476.179 2.853.179h3.57v1.172c-1.047.073-1.681.225-1.902.454-.22.221-.354.474-.4.759a6.772 6.772 0 0 0-.069 1.075V26.43c0 2.39-.657 4.415-1.971 6.079-1.424 1.81-3.34 2.715-5.748 2.715a7.808 7.808 0 0 1-3.487-.827l.537-1.488c.791.312 1.678.468 2.661.468.983 0 1.81-.202 2.481-.606a4.635 4.635 0 0 0 1.626-1.558c.726-1.185 1.089-2.77 1.089-4.755v-.896Zm-8.339-6.534c0 4.604 1.378 6.906 4.135 6.906 1.195 0 2.197-.386 3.005-1.158.8-.763 1.199-1.682 1.199-2.757v-7.512c0-.929-.151-1.553-.454-1.875-.589-.625-1.636-.937-3.143-.937-3.161 0-4.742 2.444-4.742 7.333ZM255.561 13.35c.827-1.627 2.357-3.005 4.59-4.136 1.599.855 2.812 1.788 3.639 2.799 1.351 1.654 2.169 4.066 2.454 7.236.092 1.112.138 2.183.138 3.212 0 1.03.013 1.728.041 2.095.036.368.115.643.234.827.12.184.29.308.51.373a9.835 9.835 0 0 0 1.158.206c.101 0 .198.01.29.028v1.144h-7.485V25.99c.524-.064.942-.124 1.254-.18.313-.064.551-.178.717-.344.266-.266.4-1.006.4-2.22v-1.612c0-2.086-.051-3.538-.152-4.356-.101-.827-.23-1.502-.386-2.026a7.04 7.04 0 0 0-.606-1.489c-.487-.873-1.264-1.741-2.33-2.605-1.369.836-2.384 1.696-3.046 2.578-.947 1.268-1.42 2.835-1.42 4.7v4.673c0 .634.018 1.13.055 1.489.037.349.133.615.29.8.165.183.404.312.716.385.322.064.763.133 1.324.207v1.144h-7.568v-1.13l.028-.013c.542-.064.969-.128 1.282-.193.312-.073.546-.193.703-.358.238-.257.358-.891.358-1.902V6.83c0-1.02-.11-1.63-.331-1.833a1.477 1.477 0 0 0-.786-.386 11.46 11.46 0 0 0-1.254-.165V3.289h7.568v1.157c-.515.056-.929.11-1.241.166-.312.055-.551.156-.717.303-.285.239-.427.878-.427 1.916v6.519Z" stroke="#FDFDFD" stroke-width="2.165"/><path d="M110.478 8.167c-.276-.3 1.07 1.763-3.184 9.345 0 0-16.493-5.928-1.641-15.383 3.655-.35 5.428.125 5.428.125s-6.111 2.72-7.1 6.32c-.419 1.523.08 3.204 2.346 4.903 3.726-5.252 4.158-5.309 4.151-5.31Z" fill="#FDFDFD"/><path d="M103.934 27.11c-.818-.451-4.662-5.167.462-11.716-.8.722 10.189 7.486-.488 15.392-3.559-.025-5.197-.677-5.197-.677s13.463-5.043 6.319-10.715c-3.048 4.016.011 5.831.011 5.831s.168.916-1.107 1.885Z" fill="#FDFDFD"/><path fill-rule="evenodd" clip-rule="evenodd" d="M9.986 36.998a.29.29 0 0 1-.115.172.7.7 0 0 1-.256.116c-.105.027-.226.04-.356.04a2.117 2.117 0 0 1-.792-.154A1.463 1.463 0 0 1 8.152 37a.698.698 0 0 1-.194-.203.29.29 0 0 1-.042-.203c.025-.13.159-.233.37-.287.213-.054.486-.054.76 0 .275.053.528.156.705.285.176.13.26.276.235.406Z" fill="#0099CD" fill-opacity=".992"/><path d="m26.175 53.658.525 4.752c-10.624-.287-15.47 23.788 8.53 23.776-6.741 2.343-13.546.325-17.382-1.36-6.733-2.394-8.75-15.524-4.537-21.78 2.356-2.846 6.223-5.816 12.864-5.388Z" fill="#FDFDFD"/></svg>
