<?xml version="1.0" encoding="UTF-8" standalone="no"?>
<!-- Created with Inkscape (http://www.inkscape.org/) -->

<svg
   xmlns:dc="http://purl.org/dc/elements/1.1/"
   xmlns:cc="http://creativecommons.org/ns#"
   xmlns:rdf="http://www.w3.org/1999/02/22-rdf-syntax-ns#"
   xmlns:svg="http://www.w3.org/2000/svg"
   xmlns="http://www.w3.org/2000/svg"
   xmlns:sodipodi="http://sodipodi.sourceforge.net/DTD/sodipodi-0.dtd"
   xmlns:inkscape="http://www.inkscape.org/namespaces/inkscape"
   width="12.044366in"
   height="2.4385467in"
   viewBox="0 0 305.92689 61.939085"
   version="1.1"
   id="logo"
   sodipodi:docname="DJC-EU-Logo-Coloured-Blue.svg"
   inkscape:version="0.92.5 (2060ec1f9f, 2020-04-08)"
   inkscape:export-filename="/home/raquel/Downloads/DjanCon-Europe-Logos/DJC-EU-Logo-Coloured-Blue.png"
   inkscape:export-xdpi="599.94751"
   inkscape:export-ydpi="599.94751">
  <defs
     id="defs12148" />
  <sodipodi:namedview
     id="base"
     pagecolor="#ffffff"
     bordercolor="#666666"
     borderopacity="1.0"
     inkscape:pageopacity="0.0"
     inkscape:pageshadow="2"
     inkscape:zoom="0.35"
     inkscape:cx="275.35067"
     inkscape:cy="582.17866"
     inkscape:document-units="mm"
     inkscape:current-layer="g13515"
     showgrid="false"
     guidecolor="#0000ff"
     guideopacity="1"
     inkscape:window-width="1920"
     inkscape:window-height="1043"
     inkscape:window-x="0"
     inkscape:window-y="0"
     inkscape:window-maximized="1"
     showguides="false"
     fit-margin-top="0"
     fit-margin-left="0"
     fit-margin-right="0"
     fit-margin-bottom="0"
     inkscape:guide-bbox="true"
     units="in">
    <sodipodi:guide
       position="164.89212,36.852703"
       orientation="0,1"
       id="guide13130"
       inkscape:locked="false" />
    <sodipodi:guide
       position="57.329316,22.049763"
       orientation="1,0"
       id="guide13132"
       inkscape:locked="false" />
    <sodipodi:guide
       position="156.61995,55.592087"
       orientation="1,0"
       id="guide13148"
       inkscape:locked="false" />
    <sodipodi:guide
       position="182.09003,24.001514"
       orientation="1,0"
       id="guide13150"
       inkscape:locked="false" />
    <sodipodi:guide
       position="229.01657,24.455187"
       orientation="1,0"
       id="guide13152"
       inkscape:locked="false" />
  </sodipodi:namedview>
  <metadata
     id="metadata12151">
    <rdf:RDF>
      <cc:Work
         rdf:about="">
        <dc:format>image/svg+xml</dc:format>
        <dc:type
           rdf:resource="http://purl.org/dc/dcmitype/StillImage" />
        <dc:title></dc:title>
      </cc:Work>
    </rdf:RDF>
  </metadata>
  <g
     inkscape:label="Layer 1"
     inkscape:groupmode="layer"
     id="layer1"
     transform="translate(17.284852,-66.160018)">
    <g
       id="g13233"
       transform="matrix(1.1773505,0,0,1.1773505,3.0654759,-22.718428)">
      <g
         id="g13515"
         inkscape:export-xdpi="299.95401"
         inkscape:export-ydpi="299.95401">
        <g
           id="g14305">
          <path
             d="m -2.57929,89.58402 c -0.98104,0 -1.77574,0.82383 -1.77574,1.83959 0,0.56999 0.25015,1.07984 0.64328,1.41721 0.38022,11.34701 0.65709,22.46133 1.15169,34.06678 0.15105,-1.47447 0.41568,-8.36118 1.07461,-34.03635 0.41499,-0.33665 0.68331,-0.85907 0.68331,-1.44724 0,-1.01571 -0.79622,-1.8396 -1.77721,-1.8396 z"
             id="path2989-4-6-5-1-5"
             inkscape:connector-curvature="0"
             style="fill:none;fill-opacity:1;stroke:#2160ad;stroke-width:0.89497811;stroke-linecap:round;stroke-linejoin:round;stroke-miterlimit:4;stroke-dasharray:none;stroke-opacity:1" />
          <g
             transform="matrix(0.9942903,0,0,0.9942903,-43.16255,65.74889)"
             id="text1384-1-4-0-7-2"
             style="font-style:normal;font-variant:normal;font-weight:normal;font-stretch:normal;font-size:15.66103077px;line-height:1.25;font-family:Celticmd;-inkscape-font-specification:Celticmd;letter-spacing:0px;word-spacing:0px;opacity:1;fill:#2160ad;fill-opacity:1;stroke:none;stroke-width:0.48940721"
             aria-label="DjangoCon.eu">
            <path
               inkscape:connector-curvature="0"
               id="path4968-7-9-4-7-1"
               style="font-size:31.32206154px;fill:#2160ad;fill-opacity:1;stroke-width:0.48940721"
               d="m 41.037188,29.795614 q 9.283443,-0.688229 12.112828,-0.688229 2.84468,0 4.481135,0.535289 1.651749,0.519996 2.951737,1.452928 2.523506,1.789395 3.8082,4.756426 1.299988,2.967032 1.299988,6.010533 0,3.043501 -0.994108,5.322303 -0.978815,2.263508 -2.722328,3.823494 -3.563496,3.227029 -9.222267,3.211735 H 41.037188 Z m 9.512852,7.754046 v 9.314031 q 0.810581,-0.688229 1.758808,-1.361164 3.639966,-2.61527 3.639966,-5.475243 0,-1.391752 -0.825875,-2.569388 -0.825875,-1.19293 -2.156451,-1.19293 -1.315281,0 -2.416448,1.284694 z" />
            <path
               inkscape:connector-curvature="0"
               id="path4970-5-8-0-9-9"
               style="font-size:31.32206154px;fill:#2160ad;fill-opacity:1;stroke-width:0.48940721"
               d="m 73.735706,59.297693 q -3.685848,0 -6.423469,-2.202333 l 0.03059,-3.945846 q 0.611759,0.259998 1.315281,0.259998 0.703523,0 1.177636,-0.382349 0.474114,-0.397644 0.871757,-0.978815 0.917639,-1.361164 0.917639,-2.676445 V 35.209681 h 9.145797 v 17.312781 q 0,3.104677 -2.034099,4.939954 -2.018805,1.835277 -5.00113,1.835277 z M 76.44274,26.400352 q 2.23292,0 3.318793,0.948226 1.085872,0.932933 1.070578,2.38586 0,1.452928 -1.391752,2.676446 -1.376458,1.223518 -3.670554,1.223518 -3.242323,0 -4.03761,-1.957629 -0.229409,-0.550583 -0.229409,-1.223518 0,-0.672935 0.321173,-1.407046 0.321174,-0.73411 0.948227,-1.315282 1.437633,-1.330575 3.670554,-1.330575 z" />
            <path
               inkscape:connector-curvature="0"
               id="path4972-1-3-1-8-7"
               style="font-size:31.32206154px;fill:#2160ad;fill-opacity:1;stroke-width:0.48940721"
               d="m 86.33794,52.537755 q -1.223518,-1.147048 -1.957629,-2.875267 -0.718817,-1.743513 -0.718817,-3.747024 0,-2.003511 0.397644,-3.471732 0.795287,-2.92115 2.783503,-4.909366 0.948227,-0.978815 2.110569,-1.65175 2.38586,-1.391751 5.031718,-1.391751 2.661152,0 4.664662,1.758807 0.642347,0.565877 1.116461,1.299988 l 2.187039,-2.339979 h 5.01642 v 19.010412 h -5.01642 L 99.766051,51.05424 q -2.508212,3.701142 -7.601106,3.716436 -1.407046,0.01529 -3.012913,-0.550583 Q 87.561458,53.66951 86.33794,52.537755 Z M 98.72606,40.97551 q -0.550583,-0.321173 -1.315282,-0.321173 -0.764698,0 -1.621161,0.550583 -0.841169,0.535289 -1.514104,1.361164 -1.498809,1.850571 -1.498809,3.762317 0,1.34587 0.825874,1.896453 0.764699,0.504702 2.324685,-0.137645 1.575279,-0.657641 2.798797,-1.697632 z" />
            <path
               inkscape:connector-curvature="0"
               id="path4974-7-8-3-1-6"
               style="font-size:31.32206154px;fill:#2160ad;fill-opacity:1;stroke-width:0.48940721"
               d="m 120.93292,40.379045 q -1.22352,0 -1.22352,1.972923 v 11.868125 h -9.08462 V 35.209681 h 5.01642 l 2.18704,2.967032 q 1.22352,-1.697632 3.37997,-2.69174 2.17174,-0.994108 4.0529,-0.994108 3.45644,0 5.47525,1.835277 2.0341,1.835277 2.0341,4.92466 v 12.969291 h -9.1458 v -9.176385 q 0,-4.664663 -2.69174,-4.664663 z" />
            <path
               inkscape:connector-curvature="0"
               id="path4976-4-5-7-0-8"
               style="font-size:31.32206154px;fill:#2160ad;fill-opacity:1;stroke-width:0.48940721"
               d="m 143.24682,62.050608 v -5.414067 q 0.78,0.09176 1.69763,0.259997 0.93294,0.168234 1.80469,0.168234 0.87176,0 1.60587,-0.198821 0.74941,-0.198822 1.33058,-0.779993 1.2541,-1.254106 1.2694,-4.221137 -2.67645,2.921149 -6.48465,2.921149 -3.7929,0.01529 -6.3317,-2.401154 -2.52351,-2.416448 -2.52351,-6.897583 0,-3.211735 1.40705,-5.704653 1.40704,-2.508212 3.77761,-3.899964 2.38586,-1.391751 5.0623,-1.391751 2.69174,0 4.64937,1.758807 0.64235,0.565877 1.10117,1.299988 l 2.20233,-2.339979 h 5.00113 v 19.010412 q 0.0153,5.88818 -5.30701,7.738751 -2.14116,0.749405 -4.90937,0.749405 -2.75291,0 -5.35289,-0.657641 z m 7.34111,-21.075098 q -0.55058,-0.321173 -1.16234,-0.321173 -0.59647,0 -1.16234,0.244703 -1.16234,0.504701 -2.07998,1.636456 -1.54469,1.789395 -1.54469,3.792905 0,1.34587 0.79528,1.896453 0.67294,0.443526 2.07998,-0.01529 1.34587,-0.443525 3.07409,-1.789395 z" />
            <path
               inkscape:connector-curvature="0"
               id="path4978-1-2-4-7-2"
               style="font-size:31.32206154px;fill:#2160ad;fill-opacity:1;stroke-width:0.48940721"
               d="m 175.53241,40.623749 q -0.30588,-0.15294 -0.79529,-0.15294 -0.47411,0 -1.05528,0.290585 -0.58117,0.275292 -1.14705,0.764699 -1.19293,1.039991 -2.00351,2.523506 -0.81058,1.483516 -0.81058,2.737622 0,1.238812 0.94822,1.667043 0.33647,0.15294 0.82588,0.15294 0.48941,0 1.0247,-0.290586 0.53529,-0.305879 1.07057,-0.81058 1.11646,-1.055285 1.95763,-2.554094 0.84117,-1.514104 0.84117,-2.707034 0,-1.19293 -0.85646,-1.621161 z m -2.96703,14.162221 q -4.37408,0 -7.53993,-2.76821 -3.37997,-2.936443 -3.37997,-7.38699 0,-4.465841 3.16585,-7.295226 3.16586,-2.844679 7.81522,-2.844679 4.64937,0 7.81523,2.783503 3.16585,2.76821 3.18114,7.417578 0.0153,2.982325 -1.5141,5.276422 -1.5294,2.294096 -4.08349,3.548202 -2.5541,1.254106 -5.45995,1.2694 z" />
            <path
               inkscape:connector-curvature="0"
               id="path4980-7-2-1-6-0"
               style="font-size:31.32206154px;fill:#2160ad;fill-opacity:1;stroke-width:0.48940721"
               d="m 205.92154,37.748481 q -0.9941,-0.382349 -2.12586,-0.382349 -2.32468,0 -4.0529,1.697631 -1.71293,1.682337 -1.71293,4.03761 0,1.575279 0.61176,2.46233 0.61176,0.88705 1.66705,0.88705 1.05528,0 2.32468,-0.535289 1.28469,-0.550583 3.76232,-2.370566 v 9.956378 q -3.25762,1.315282 -6.92817,1.315282 -3.65526,0 -6.74465,-1.407046 -4.90936,-2.248214 -6.46935,-7.035229 -0.51999,-1.636455 -0.53529,-3.609378 0,-1.972923 0.48941,-3.777612 0.48941,-1.804689 1.42234,-3.334086 1.86587,-3.074089 5.23054,-4.817603 3.37997,-1.743513 7.73875,-1.728219 3.31879,0 5.3223,0.749405 z" />
            <path
               inkscape:connector-curvature="0"
               id="path4982-1-2-13-0-6"
               style="font-size:31.32206154px;fill:#2160ad;fill-opacity:1;stroke-width:0.48940721"
               d="m 223.14255,40.623749 q -0.30588,-0.15294 -0.79529,-0.15294 -0.47411,0 -1.05528,0.290585 -0.58118,0.275292 -1.14705,0.764699 -1.19293,1.039991 -2.00351,2.523506 -0.81058,1.483516 -0.81058,2.737622 0,1.238812 0.94822,1.667043 0.33647,0.15294 0.82588,0.15294 0.4894,0 1.02469,-0.290586 0.53529,-0.305879 1.07058,-0.81058 1.11646,-1.055285 1.95763,-2.554094 0.84117,-1.514104 0.84117,-2.707034 0,-1.19293 -0.85646,-1.621161 z m -2.96703,14.162221 q -4.37408,0 -7.53993,-2.76821 -3.37997,-2.936443 -3.37997,-7.38699 0,-4.465841 3.16585,-7.295226 3.16585,-2.844679 7.81522,-2.844679 4.64937,0 7.81522,2.783503 3.16586,2.76821 3.18115,7.417578 0.0153,2.982325 -1.5141,5.276422 -1.5294,2.294096 -4.08349,3.548202 -2.5541,1.254106 -5.45995,1.2694 z" />
            <path
               inkscape:connector-curvature="0"
               id="path4984-1-7-0-1-4"
               style="font-size:31.32206154px;fill:#2160ad;fill-opacity:1;stroke-width:0.48940721"
               d="m 244.55412,40.379045 q -1.22352,0 -1.22352,1.972923 v 11.868125 h -9.08462 V 35.209681 h 5.01642 l 2.18704,2.967032 q 1.22352,-1.697632 3.37997,-2.69174 2.17175,-0.994108 4.0529,-0.994108 3.45644,0 5.47525,1.835277 2.0341,1.835277 2.0341,4.92466 v 12.969291 h -9.1458 v -9.176385 q 0,-4.664663 -2.69174,-4.664663 z" />
            <path
               inkscape:connector-curvature="0"
               id="path4986-1-0-32-0-3"
               style="font-style:normal;font-variant:normal;font-weight:normal;font-stretch:normal;font-family:'Rammetto One';-inkscape-font-specification:'Rammetto One';fill:#2160ad;fill-opacity:1;stroke-width:0.48940721"
               d="m 261.17102,50.01425 q 1.07058,-0.0076 1.61351,0.604112 0.55059,0.604112 0.55059,1.514103 0,0.909992 -0.67294,1.644102 -0.67293,0.726464 -1.78939,0.718817 -1.11646,0 -1.65175,-0.588818 -0.53529,-0.596465 -0.53529,-1.491162 0,-0.902345 0.71117,-1.65175 0.71117,-0.749404 1.7741,-0.749404 z" />
            <path
               inkscape:connector-curvature="0"
               id="path4988-7-3-1-2-3"
               style="font-style:normal;font-variant:normal;font-weight:normal;font-stretch:normal;font-family:'Rammetto One';-inkscape-font-specification:'Rammetto One';fill:#2160ad;fill-opacity:1;stroke-width:0.48940721"
               d="m 271.05858,47.437215 q 0,-0.672935 -0.62705,-0.672935 -0.71882,0.06882 -0.93293,0.741758 -0.10706,0.321173 -0.15294,0.749404 -0.0382,0.420585 -0.12235,0.902345 l 1.67469,-0.374702 0.14529,-1.16999 z m -1.03234,3.479379 q 0,0 -0.42058,0 -0.19882,0 -0.38235,-0.01529 0,0.909992 0.97116,0.994109 0.26765,0.02294 0.52,0.02294 0.64999,0 1.62881,-0.298232 0.98646,-0.298233 1.76645,-0.971167 l 0.47412,2.378213 q -1.70528,1.475868 -5.15407,1.475868 -1.98057,0 -3.40291,-1.154695 -1.54469,-1.261753 -1.54469,-3.494673 0,-1.682337 0.87175,-3.02056 0.81058,-1.223518 2.19469,-1.858218 1.3841,-0.6347 2.98997,-0.6347 2.07998,0 3.14291,0.909991 1.07058,0.909992 1.06293,2.248215 0,1.338222 -1.27704,2.378213 -1.27705,1.03999 -3.44115,1.03999 z" />
            <path
               inkscape:connector-curvature="0"
               id="path4990-0-4-7-5-6"
               style="font-style:normal;font-variant:normal;font-weight:normal;font-stretch:normal;font-family:'Rammetto One';-inkscape-font-specification:'Rammetto One';fill:#2160ad;fill-opacity:1;stroke-width:0.48940721"
               d="m 280.86202,49.142493 q 0,2.508212 1.21587,2.508212 0.61176,0 0.71117,-0.596465 0.0306,-0.183528 0.0306,-0.40529 v -5.934063 h 4.54231 v 9.505206 h -2.50821 l -1.09352,-1.491163 q -0.97117,1.322929 -2.80645,1.720572 -2.24821,0.481761 -3.62467,-0.764698 -1.03999,-0.94058 -1.03999,-2.485271 v -6.484646 h 4.5729 z" />
          </g>
          <path
             style="fill:#2160ad;fill-opacity:1;stroke:none;stroke-width:0.16804977;stroke-opacity:1"
             d="m -13.787131,97.773854 c -0.07294,-0.170386 -0.779147,-0.159462 -1.569249,0.02423 -0.790142,0.183678 -1.55515,0.228733 -1.699929,0.10008 -0.144793,-0.128629 -0.246443,0.03497 -0.225903,0.363582 0.02957,0.472962 0.411471,0.516645 1.832533,0.209666 0.987365,-0.213296 1.735519,-0.527204 1.662522,-0.697556 z"
             id="path2858-8-6-5-7-0"
             inkscape:connector-curvature="0" />
          <path
             style="fill:#2160ad;fill-opacity:1;stroke:none;stroke-width:0.09532013;stroke-opacity:1"
             d="m -10.771287,94.856703 c -2.08846,0.288474 -4.463538,1.482046 -4.579319,1.983561 0.333515,0.482256 3.428103,0.465567 0.805517,2.121562 1.224498,0.600068 3.735216,1.185104 5.6419808,0.709821 3.5461903,-0.883928 4.5031834,-0.935021 7.5256,-0.930997 5.0629944,-0.159702 8.199915,4.86942 1.25880291,6.94671 -0.79087865,0.30628 -1.32913381,0.29021 -1.96272111,0.39561 l 0.3054139,2.76046 c 2.8905563,-0.22181 4.4383592,-1.25056 6.0529029,-2.26173 2.7478617,-2.14143 4.1993574,-7.74674 -1.2735601,-11.218347 -2.03049141,-1.34149 -6.9205514,-1.266409 -12.0255275,-0.516566 -0.5689215,-0.08561 -1.1641628,-0.07113 -1.7489308,0.0096 z"
             id="path3762-5-3-4-1-4"
             inkscape:connector-curvature="0"
             sodipodi:nodetypes="cccsccccccccc" />
          <g
             style="fill:#0099cc;fill-opacity:1;stroke:#0099cc;stroke-width:1.16455364;stroke-miterlimit:4;stroke-dasharray:none;stroke-opacity:1"
             id="g6275-9-3-4-8-2"
             transform="matrix(1.1073521,0,0,1.1073521,-7.8112573,-39.68803)">
            <g
               style="fill:#0099cc;fill-opacity:1;stroke:#0099cc;stroke-width:1.02344894;stroke-miterlimit:4;stroke-dasharray:none;stroke-opacity:1"
               id="g5120-7-7-4-3-2"
               transform="matrix(1.1378718,0,0,1.1378718,-122.34314,-20.399079)">
              <path
                 inkscape:connector-curvature="0"
                 id="path5058-8-9-3-5-1"
                 style="font-style:normal;font-variant:normal;font-weight:normal;font-stretch:normal;font-size:10.39372921px;line-height:1.25;font-family:Metamorphous;-inkscape-font-specification:Metamorphous;letter-spacing:0px;word-spacing:0px;fill:#0099cc;fill-opacity:1;stroke:#0099cc;stroke-width:1.02344894;stroke-miterlimit:4;stroke-dasharray:none;stroke-opacity:1"
                 d="m 252.03241,121.90525 q -0.10732,-0.55825 -0.59404,-0.55825 h -6.05487 l -0.1646,-0.29343 2.03259,-1.72485 q 2.06123,-1.77495 2.83419,-3.09185 0.42942,-0.71571 0.42942,-1.39562 0,-1.33837 -1.05924,-1.79642 -0.38648,-0.16462 -0.97336,-0.16462 -0.93757,0 -1.56738,0.52247 -0.62267,0.52246 -1.03778,1.53161 h -0.70139 l 0.89463,-3.58568 h 0.79443 q -0.0358,0.47952 0.25765,0.55109 0.0859,0.0215 0.15745,0.0215 0.0787,0 0.1861,-0.0215 l 0.22902,-0.0501 q 0.75149,-0.17177 1.29542,-0.17177 0.55109,0 1.10935,0.2004 0.55824,0.2004 0.98767,0.57972 0.95905,0.82306 0.95905,2.10417 0,1.23817 -0.98768,2.39761 -0.65845,0.76581 -1.69622,1.6175 l -1.91809,1.5316 h 3.33519 q 0.83737,0 1.28111,-0.3507 0.40794,-0.32207 0.73001,-1.15228 h 0.7014 l -0.75865,3.2994 z" />
              <path
                 inkscape:connector-curvature="0"
                 id="path5060-2-7-9-6-6"
                 style="font-style:normal;font-variant:normal;font-weight:normal;font-stretch:normal;font-size:10.39372921px;line-height:1.25;font-family:Metamorphous;-inkscape-font-specification:Metamorphous;letter-spacing:0px;word-spacing:0px;fill:#0099cc;fill-opacity:1;stroke:#0099cc;stroke-width:1.02344894;stroke-miterlimit:4;stroke-dasharray:none;stroke-opacity:1"
                 d="m 254.60894,116.59472 q 0,-0.60835 0.11451,-1.20954 0.1217,-0.60835 0.3507,-1.15228 0.23617,-0.5511 0.57972,-1.0163 0.3507,-0.47237 0.81591,-0.81591 0.98766,-0.73717 2.2974,-0.73717 1.92524,0 3.06322,1.55308 1.03062,1.40278 1.03062,3.38528 0,2.02544 -1.03062,3.39959 -1.13798,1.53162 -3.06322,1.53162 -1.32406,0 -2.31173,-0.73719 -0.88746,-0.65844 -1.38847,-1.82504 -0.45804,-1.08787 -0.45804,-2.37614 z m 0.80159,0.007 q 0,2.61948 2.17573,3.22068 0.51532,0.14313 1.18808,0.14313 0.67992,0 1.18091,-0.13594 0.501,-0.14314 0.866,-0.38648 0.36501,-0.25048 0.6012,-0.57256 0.23618,-0.32922 0.37932,-0.70139 0.25765,-0.67992 0.25765,-1.32405 0,-0.64414 -0.0573,-1.05209 -0.0573,-0.40795 -0.2004,-0.78727 -0.14314,-0.37933 -0.37932,-0.7014 -0.23619,-0.32922 -0.6012,-0.57256 -0.78727,-0.52246 -2.03259,-0.52246 -2.39762,0 -3.10616,1.8322 -0.27197,0.69423 -0.27197,1.56024 z" />
              <path
                 inkscape:connector-curvature="0"
                 id="path5062-5-4-7-5-2"
                 style="font-style:normal;font-variant:normal;font-weight:normal;font-stretch:normal;font-size:10.39372921px;line-height:1.25;font-family:Metamorphous;-inkscape-font-specification:Metamorphous;letter-spacing:0px;word-spacing:0px;fill:#0099cc;fill-opacity:1;stroke:#0099cc;stroke-width:1.02344894;stroke-miterlimit:4;stroke-dasharray:none;stroke-opacity:1"
                 d="m 271.56398,121.90525 q -0.10732,-0.55825 -0.59404,-0.55825 h -6.05485 l -0.16462,-0.29343 2.0326,-1.72485 q 2.06123,-1.77495 2.83419,-3.09185 0.42943,-0.71571 0.42943,-1.39562 0,-1.33837 -1.05925,-1.79642 -0.38647,-0.16462 -0.97336,-0.16462 -0.93756,0 -1.56739,0.52247 -0.62266,0.52246 -1.03777,1.53161 h -0.70139 l 0.89462,-3.58568 h 0.79445 q -0.0358,0.47952 0.25765,0.55109 0.0859,0.0215 0.15745,0.0215 0.0787,0 0.18608,-0.0215 l 0.22902,-0.0501 q 0.75151,-0.17177 1.29543,-0.17177 0.5511,0 1.10934,0.2004 0.55826,0.2004 0.98767,0.57972 0.95905,0.82306 0.95905,2.10417 0,1.23817 -0.98767,2.39761 -0.65844,0.76581 -1.69622,1.6175 l -1.91808,1.5316 h 3.33518 q 0.83737,0 1.28111,-0.3507 0.40795,-0.32207 0.73002,-1.15228 h 0.70138 l -0.75864,3.2994 z" />
              <path
                 inkscape:connector-curvature="0"
                 id="path5064-3-9-2-9-0"
                 style="font-style:normal;font-variant:normal;font-weight:normal;font-stretch:normal;font-size:10.39372921px;line-height:1.25;font-family:Metamorphous;-inkscape-font-specification:Metamorphous;letter-spacing:0px;word-spacing:0px;fill:#0099cc;fill-opacity:1;stroke:#0099cc;stroke-width:1.02344894;stroke-miterlimit:4;stroke-dasharray:none;stroke-opacity:1"
                 d="m 280.73932,111.8496 q 0,2.56938 -2.39045,4.35148 1.90378,0.32923 2.60516,1.71054 0.25765,0.51531 0.25765,1.29542 0,0.77297 -0.29342,1.49583 -0.29345,0.7157 -0.78012,1.30258 -0.47952,0.59404 -1.10219,1.05924 -0.62267,0.46521 -1.28111,0.81591 -1.18092,0.62981 -2.49065,0.9662 l -0.30776,-0.61551 q 1.38847,-0.32922 2.92008,-1.44572 1.15228,-0.84454 1.66043,-1.93956 0.27197,-0.57257 0.27197,-1.1165 0,-0.54394 -0.18608,-0.98052 -0.18609,-0.43658 -0.55825,-0.78727 -0.83738,-0.79443 -2.18291,-0.75149 l -0.33638,0.17177 q -0.17177,0.0787 -0.32922,0.14314 l -0.37216,-0.58688 q 1.47435,-0.54393 2.46917,-1.68906 0.87316,-1.00199 1.10935,-2.15427 h -3.18488 q -0.59404,0 -0.93758,0.42226 -0.25049,0.3006 -0.57256,1.08787 h -0.71571 l 0.95188,-3.32802 h 0.68708 q -0.0644,0.57256 0.4509,0.57256 z" />
            </g>
          </g>
          <g
             style="fill:#0099cc;fill-opacity:1;stroke:#0099cc;stroke-width:1.04181957;stroke-miterlimit:4;stroke-dasharray:none;stroke-opacity:1"
             id="g6268-4-1-8-9-2"
             transform="matrix(1.2072082,0,0,1.2072082,-17.058437,-52.162844)">
            <path
               d="m 56.287165,117.63244 q 1.989676,0 3.163575,-1.24685 l 0.331619,0.44434 q -0.88209,1.20044 -2.633,1.54531 -0.55048,0.11279 -1.140742,0.11279 -1.147378,0 -2.069259,-0.39793 -0.921881,-0.40457 -1.565204,-1.08769 -1.333083,-1.41267 -1.333083,-3.48856 0,-2.18864 1.2137,-3.77374 0.815758,-1.06779 2.102414,-1.49889 0.649959,-0.21223 1.207074,-0.21223 0.563732,0 0.829029,0.0332 0.271922,0.0332 0.484149,0.0863 0.212235,0.053 0.378036,0.11937 0.172444,0.0597 0.37141,0.12602 0.543836,0.1857 0.875455,0.1857 0.331609,0 0.722915,-0.54384 h 0.636688 l -0.88208,3.51509 h -0.630063 q 0.03317,-0.51069 0.03317,-0.71628 0,-0.43774 -0.106113,-0.76935 -0.0995,-0.33824 -0.34488,-0.57701 -0.245392,-0.23875 -0.583636,-0.40455 -0.676489,-0.33162 -1.492257,-0.33162 -0.809133,0 -1.39277,0.32498 -0.577001,0.32498 -0.974933,0.88872 -0.749446,1.08105 -0.89535,2.93808 h 4.277786 l -0.17907,0.74944 h -4.118612 q 0.06635,1.54531 1.021359,2.70595 1.054525,1.27339 2.692687,1.27339 z"
               style="font-style:normal;font-variant:normal;font-weight:normal;font-stretch:normal;font-size:10.39372921px;line-height:1.25;font-family:Metamorphous;-inkscape-font-specification:Metamorphous;letter-spacing:0px;word-spacing:0px;fill:#0099cc;fill-opacity:1;stroke:#0099cc;stroke-width:1.04181957;stroke-miterlimit:4;stroke-dasharray:none;stroke-opacity:1"
               id="path5040-9-7-9-0-2"
               inkscape:connector-curvature="0" />
            <path
               d="m 66.693145,110.66196 q -1.027994,-3.05083 -4.118622,-3.73395 l 0.139279,-0.58364 q 3.044201,0.45099 4.582875,2.57331 1.379509,1.91009 1.379509,4.74205 0,2.22843 -1.014734,3.52835 -1.014733,1.29328 -2.719217,1.29328 -1.631526,0 -2.666156,-1.31318 -0.961672,-1.20707 -0.961672,-2.86512 0,-1.67796 0.895351,-2.87176 0.988203,-1.31319 2.692686,-1.31319 1.054525,0 1.790701,0.54385 z m 0.470888,3.16357 q 0,-2.99114 -2.13558,-2.99114 -1.20043,0 -1.744275,1.08106 -0.450993,0.87545 -0.450993,2.4075 0,2.26823 1.100952,3.11053 0.411201,0.3117 1.061159,0.3117 0.656585,0 1.087682,-0.29843 0.431097,-0.29846 0.669854,-0.82241 0.411201,-0.90862 0.411201,-2.79881 z"
               style="font-style:normal;font-variant:normal;font-weight:normal;font-stretch:normal;font-size:10.39372921px;line-height:1.25;font-family:Metamorphous;-inkscape-font-specification:Metamorphous;letter-spacing:0px;word-spacing:0px;fill:#0099cc;fill-opacity:1;stroke:#0099cc;stroke-width:1.04181957;stroke-miterlimit:4;stroke-dasharray:none;stroke-opacity:1"
               id="path5042-0-0-0-7-9"
               inkscape:connector-curvature="0" />
            <path
               d="m 70.652592,107.66419 1.207064,-1.18717 1.180543,1.18717 -1.180543,1.20043 z m -0.55048,10.10752 0.232131,-0.0332 q 0.285183,-0.0399 0.464253,-0.0796 0.179071,-0.0464 0.278558,-0.15917 0.172435,-0.2056 0.172435,-0.94178 v -4.49665 q 0,-0.75608 -0.159174,-0.90862 -0.159175,-0.15918 -0.384671,-0.19897 -0.225496,-0.0397 -0.603532,-0.0729 v -0.57037 h 3.627837 v 0.57037 q -0.378036,0.0398 -0.603532,0.0796 -0.225496,0.0398 -0.34488,0.15255 -0.19233,0.17907 -0.19233,0.9484 v 4.49666 q 0,0.75608 0.119374,0.89535 0.119383,0.13928 0.291818,0.1857 0.17907,0.0464 0.470888,0.0928 l 0.258662,0.0399 v 0.55047 h -3.627837 z"
               style="font-style:normal;font-variant:normal;font-weight:normal;font-stretch:normal;font-size:10.39372921px;line-height:1.25;font-family:Metamorphous;-inkscape-font-specification:Metamorphous;letter-spacing:0px;word-spacing:0px;fill:#0099cc;fill-opacity:1;stroke:#0099cc;stroke-width:1.04181957;stroke-miterlimit:4;stroke-dasharray:none;stroke-opacity:1"
               id="path5044-2-6-2-6-7"
               inkscape:connector-curvature="0" />
            <path
               d="m 77.536847,111.68995 q 0.603533,-1.20043 2.162111,-1.98966 1.147378,0.61016 1.76418,1.3397 0.974933,1.17391 1.180534,3.48856 0.06635,0.79588 0.06635,1.53869 0,0.74281 0.0265,1.00809 0.0265,0.26528 0.112749,0.40457 0.08618,0.13265 0.252027,0.17907 0.165809,0.0398 0.331609,0.0663 0.16581,0.0265 0.232131,0.0332 0.07293,0 0.145905,0.0134 v 0.55048 h -3.627828 v -0.55048 q 0.378036,-0.0464 0.603532,-0.0863 0.225496,-0.0464 0.34488,-0.1658 0.19233,-0.19234 0.19233,-1.06779 v -0.76934 q 0,-1.51879 -0.07293,-2.10243 -0.07293,-0.59026 -0.185705,-0.9683 -0.106113,-0.38467 -0.291818,-0.72291 -0.364775,-0.6367 -1.140743,-1.2535 -2.095789,1.29329 -2.095789,3.50183 v 2.24833 q 0,0.87544 0.126018,1.04789 0.132644,0.17244 0.324984,0.22549 0.192331,0.0464 0.523941,0.0928 l 0.172444,0.0198 v 0.55048 h -3.627838 v -0.54383 q 0.03975,-0.0198 0.09949,-0.0198 0.06635,-0.006 0.232131,-0.0265 0.172435,-0.0265 0.351506,-0.0729 0.185705,-0.0464 0.285192,-0.15916 0.1658,-0.17908 0.1658,-0.90199 V 111.869 q 0,-0.60354 -0.152539,-0.73618 -0.15254,-0.13927 -0.378036,-0.17907 -0.225496,-0.0464 -0.603532,-0.0729 v -0.57037 h 2.48045 z"
               style="font-style:normal;font-variant:normal;font-weight:normal;font-stretch:normal;font-size:10.39372921px;line-height:1.25;font-family:Metamorphous;-inkscape-font-specification:Metamorphous;letter-spacing:0px;word-spacing:0px;fill:#0099cc;fill-opacity:1;stroke:#0099cc;stroke-width:1.04181957;stroke-miterlimit:4;stroke-dasharray:none;stroke-opacity:1"
               id="path5046-0-0-4-3-4"
               inkscape:connector-curvature="0" />
            <path
               d="m 84.918531,117.77171 q 0.762707,-0.0663 0.921881,-0.22549 0.159175,-0.16582 0.192331,-0.35814 0.03317,-0.19896 0.03317,-0.51732 v -8.13111 q 0,-0.6367 -0.238757,-0.81577 -0.159175,-0.11937 -0.908621,-0.19233 v -0.55048 h 3.641099 v 0.55048 q -0.742811,0.0729 -0.888716,0.17907 -0.252027,0.17907 -0.252027,0.82903 v 2.45392 q 0.610167,-0.64996 1.631527,-0.86219 0.324983,-0.0663 0.749446,-0.0663 0.431097,0 0.888715,0.1658 0.457628,0.15918 0.829038,0.44437 0.371401,0.28518 0.656584,0.67649 0.285193,0.38467 0.470888,0.84229 0.391306,0.94841 0.391306,2.00957 0,1.72438 -0.948412,2.9646 -0.649958,0.84231 -1.658057,1.18053 -0.510679,0.17246 -0.981568,0.17246 -0.610167,0 -1.273395,-0.0663 -1.240221,-0.13265 -1.532039,-0.13265 H 84.91854 Z m 2.500346,-1.39276 q 0,0.63005 0.358141,0.96166 0.464262,0.41121 1.565214,0.41121 1.100951,0 1.684587,-1.07442 0.517315,-0.92851 0.517315,-2.47383 0,-2.24169 -0.994838,-3.05745 -0.37141,-0.30509 -0.862194,-0.30509 -0.490784,0 -0.888716,0.14591 -0.397931,0.14591 -0.703019,0.39793 -0.67649,0.55048 -0.67649,1.30656 z"
               style="font-style:normal;font-variant:normal;font-weight:normal;font-stretch:normal;font-size:10.39372921px;line-height:1.25;font-family:Metamorphous;-inkscape-font-specification:Metamorphous;letter-spacing:0px;word-spacing:0px;fill:#0099cc;fill-opacity:1;stroke:#0099cc;stroke-width:1.04181957;stroke-miterlimit:4;stroke-dasharray:none;stroke-opacity:1"
               id="path5048-1-8-7-7-3"
               inkscape:connector-curvature="0" />
            <path
               d="m 97.791692,118.66707 q -1.260117,-0.75607 -1.857023,-1.40604 -1.04789,-1.14738 -1.260126,-3.32937 -0.0796,-0.78262 -0.0796,-1.4591 0,-0.68312 -0.01325,-0.90862 -0.01325,-0.23213 -0.106114,-0.3714 -0.159174,-0.25202 -0.809133,-0.31172 v -0.57037 h 3.263063 v 0.57037 q -0.656594,0.0663 -0.848924,0.29182 -0.15254,0.19234 -0.15254,0.92851 0,0.73618 0.01992,1.37288 0.0265,0.6367 0.09285,1.14074 0.06635,0.50405 0.19234,0.90862 0.126009,0.39793 0.338245,0.75607 0.384661,0.66323 1.220325,1.44583 0.855559,-0.80249 1.140742,-1.29991 0.291818,-0.50406 0.417837,-0.90199 0.126018,-0.40457 0.19233,-0.90862 0.112758,-0.85556 0.112758,-1.88355 0,-1.03463 -0.0265,-1.2336 -0.0265,-0.19896 -0.126018,-0.32498 -0.192331,-0.2255 -0.842289,-0.29182 v -0.57037 h 3.249795 v 0.57037 q -0.64996,0.0928 -0.76271,0.2653 -0.11276,0.1658 -0.13928,0.39129 -0.0199,0.2255 -0.0199,0.92188 0,0.68975 -0.0796,1.47237 -0.0729,0.7826 -0.23876,1.39277 -0.15917,0.61015 -0.4112,1.08104 -0.25203,0.46426 -0.610169,0.85556 -0.596897,0.64997 -1.857023,1.40604 z"
               style="font-style:normal;font-variant:normal;font-weight:normal;font-stretch:normal;font-size:10.39372921px;line-height:1.25;font-family:Metamorphous;-inkscape-font-specification:Metamorphous;letter-spacing:0px;word-spacing:0px;fill:#0099cc;fill-opacity:1;stroke:#0099cc;stroke-width:1.04181957;stroke-miterlimit:4;stroke-dasharray:none;stroke-opacity:1"
               id="path5050-9-5-6-6-5"
               inkscape:connector-curvature="0" />
            <path
               d="m 107.85943,112.71796 q 0.37141,-0.35814 0.37141,-1.08769 0,-0.35814 -0.33825,-0.56374 -0.28518,-0.1658 -0.86883,-0.1658 -1.26012,0 -1.26012,0.82239 v 5.04049 q 0,0.28519 0.0531,0.47089 0.0598,0.18571 0.25866,0.29845 0.34487,0.19897 1.59173,0.23876 v 0.55048 h -4.43033 v -0.54384 l 0.0132,-0.006 q 0.7826,-0.0796 0.93514,-0.21885 0.15918,-0.14592 0.19233,-0.33162 0.0399,-0.19232 0.0399,-0.51068 v -4.59614 q 0,-0.72291 -0.14591,-0.89535 -0.13927,-0.17244 -0.34488,-0.23876 -0.20559,-0.0663 -0.54383,-0.10612 v -0.56374 h 1.37286 q 0.81578,0 1.16065,-0.0332 0.34487,-0.0332 0.54384,-0.0464 0.5969,-0.0531 0.9683,-0.0531 0.37804,0 0.77599,0.0597 0.39792,0.0597 0.703,0.2056 0.66985,0.31835 0.66985,0.9882 0,0.53721 -0.43772,1.00147 -0.41119,0.43773 -0.91524,0.57701 z"
               style="font-style:normal;font-variant:normal;font-weight:normal;font-stretch:normal;font-size:10.39372921px;line-height:1.25;font-family:Metamorphous;-inkscape-font-specification:Metamorphous;letter-spacing:0px;word-spacing:0px;fill:#0099cc;fill-opacity:1;stroke:#0099cc;stroke-width:1.04181957;stroke-miterlimit:4;stroke-dasharray:none;stroke-opacity:1"
               id="path5052-6-3-5-1-6"
               inkscape:connector-curvature="0" />
            <path
               d="m 116.40838,117.56612 q -0.86219,0.91524 -2.07588,0.91524 -1.67133,0 -2.60647,-1.24022 -0.83566,-1.10759 -0.83566,-2.8187 0,-1.74428 0.92187,-2.93145 1.02137,-1.31318 2.89166,-1.31318 0.53058,0 1.10758,0.0398 1.10095,0.0863 1.37287,0.0863 h 1.71775 v 0.56374 q -0.75607,0.053 -0.91525,0.21886 -0.15918,0.15917 -0.19233,0.36477 -0.0332,0.19897 -0.0332,0.51732 v 6.01543 q 0,1.72437 -0.9484,2.92481 -1.028,1.30656 -2.76563,1.30656 -0.86884,0 -1.67797,-0.39795 l 0.25866,-0.71628 q 0.57037,0.22551 1.28002,0.22551 0.70964,0 1.1938,-0.29183 0.4908,-0.28517 0.7826,-0.74944 0.52395,-0.85555 0.52395,-2.28811 z m -4.0125,-3.14368 q 0,3.32274 1.98968,3.32274 0.86218,0 1.44582,-0.5571 0.577,-0.55047 0.577,-1.32644 v -3.61457 q 0,-0.66986 -0.21887,-0.90199 -0.42445,-0.45099 -1.51214,-0.45099 -2.28149,0 -2.28149,3.52835 z"
               style="font-style:normal;font-variant:normal;font-weight:normal;font-stretch:normal;font-size:10.39372921px;line-height:1.25;font-family:Metamorphous;-inkscape-font-specification:Metamorphous;letter-spacing:0px;word-spacing:0px;fill:#0099cc;fill-opacity:1;stroke:#0099cc;stroke-width:1.04181957;stroke-miterlimit:4;stroke-dasharray:none;stroke-opacity:1"
               id="path5054-2-9-7-5-1"
               inkscape:connector-curvature="0" />
            <path
               d="m 122.77532,111.68995 q 0.59691,-1.1739 2.20855,-1.98966 1.154,0.61679 1.7509,1.34634 0.97494,1.1938 1.18054,3.48192 0.0662,0.8025 0.0662,1.54531 0,0.74281 0.0198,1.00811 0.0265,0.26529 0.11279,0.39793 0.0863,0.13265 0.24538,0.17907 0.16581,0.0398 0.32498,0.0663 0.16581,0.0265 0.23214,0.0332 0.0729,0 0.13928,0.0134 v 0.55048 h -3.60128 v -0.55048 q 0.37802,-0.0464 0.60353,-0.0863 0.22549,-0.0464 0.34487,-0.1658 0.19234,-0.19234 0.19234,-1.06779 V 115.676 q 0,-1.50551 -0.0729,-2.09579 -0.0729,-0.59689 -0.1857,-0.97493 -0.10611,-0.37804 -0.29181,-0.71628 -0.35151,-0.63006 -1.12086,-1.2535 -0.98819,0.60353 -1.46572,1.24023 -0.68312,0.91525 -0.68312,2.2616 v 2.24833 q 0,0.45761 0.0265,0.71627 0.0265,0.25203 0.13928,0.38468 0.11932,0.13264 0.34487,0.18569 0.23213,0.0464 0.63671,0.0995 v 0.55048 h -3.6411 v -0.54384 l 0.0132,-0.006 q 0.3913,-0.0464 0.61679,-0.0928 0.2255,-0.0531 0.33825,-0.17244 0.17244,-0.18571 0.17244,-0.91526 v -8.03825 q 0,-0.73619 -0.15917,-0.88209 -0.15255,-0.14592 -0.37804,-0.18571 -0.2255,-0.0464 -0.60353,-0.0796 v -0.55712 h 3.6411 v 0.55697 q -0.37142,0.0398 -0.59691,0.0796 -0.2255,0.0398 -0.34488,0.14591 -0.2056,0.17243 -0.2056,0.92188 z"
               style="font-style:normal;font-variant:normal;font-weight:normal;font-stretch:normal;font-size:10.39372921px;line-height:1.25;font-family:Metamorphous;-inkscape-font-specification:Metamorphous;letter-spacing:0px;word-spacing:0px;fill:#0099cc;fill-opacity:1;stroke:#0099cc;stroke-width:1.04181957;stroke-miterlimit:4;stroke-dasharray:none;stroke-opacity:1"
               id="path5056-1-4-1-0-4"
               inkscape:connector-curvature="0" />
          </g>
          <path
             style="fill:#0099cc;fill-opacity:1;stroke:#0099cc;stroke-width:0.85067266;stroke-miterlimit:4;stroke-dasharray:none;stroke-opacity:1"
             inkscape:connector-curvature="0"
             id="path4-4-6-2-1-3-6-0"
             d="m 46.885857,79.659566 c -0.160435,-0.173661 0.621455,1.024267 -1.849492,5.42856 0,0 -9.579627,-3.443403 -0.953363,-8.935402 2.123567,-0.203809 3.153122,0.07265 3.153122,0.07265 0,0 -3.549433,1.57957 -4.124088,3.670476 -0.243239,0.884817 0.04632,1.861201 1.36299,2.848186 2.163927,-3.050293 2.414759,-3.083402 2.410832,-3.084486 z"
             sodipodi:nodetypes="ccccsccc" />
          <path
             style="fill:#0099cc;fill-opacity:1;stroke:#0099cc;stroke-width:0.85067266;stroke-miterlimit:4;stroke-dasharray:none;stroke-opacity:1"
             inkscape:connector-curvature="0"
             id="path12-8-2-0-5-3-5-3"
             d="m 43.084762,90.662986 c -0.475036,-0.262136 -2.70753,-3.00121 0.268525,-6.805412 -0.464645,0.419268 5.918398,4.348268 -0.283294,8.940314 -2.067218,-0.01446 -3.019144,-0.392971 -3.019144,-0.392971 0,0 7.819927,-2.929048 3.670676,-6.223767 -1.77039,2.332523 0.006,3.387022 0.006,3.387022 0,0 0.09767,0.531503 -0.64288,1.094337 z"
             sodipodi:nodetypes="cccccccc" />
          <ellipse
             style="opacity:1;vector-effect:none;fill:#ffffff;fill-opacity:1;fill-rule:evenodd;stroke:none;stroke-width:0.15486938;stroke-linecap:butt;stroke-linejoin:miter;stroke-miterlimit:4;stroke-dasharray:none;stroke-dashoffset:0;stroke-opacity:1"
             id="path13077"
             cx="6.5690589"
             cy="96.822021"
             rx="0.61249638"
             ry="0.29012984"
             transform="rotate(11.0354)"
             inkscape:transform-center-x="-0.62343862"
             inkscape:transform-center-y="0.30791201" />
          <path
             sodipodi:nodetypes="ccccccc"
             style="fill:#2160ad;fill-opacity:1;stroke:none;stroke-width:0.12804416;stroke-opacity:1"
             d="m -2.0814272,106.08297 0.3054147,2.76046 c -6.1709803,-0.16669 -8.9854115,13.817 4.9539801,13.81017 -3.91521051,1.36091 -7.8677124,0.18867 -10.0958524,-0.79 -3.9108502,-1.39056 -5.0822322,-9.01698 -2.635312,-12.65114 1.368619,-1.65264 3.614579,-3.3778 7.4717696,-3.12949 z"
             id="path3762-1-4-1-3-2-3-8-2"
             inkscape:connector-curvature="0" />
        </g>
      </g>
    </g>
  </g>
</svg>
