<svg width="1026" height="512" viewBox="0 0 1026 512" fill="none" xmlns="http://www.w3.org/2000/svg">
<g clip-path="url(#clip0_4_2)">
<path d="M0 0H1025.5V512H0V0Z" fill="white"/>
<path opacity="0.3" d="M668.88 145.68C670.438 145.68 671.7 144.417 671.7 142.86C671.7 141.303 670.438 140.04 668.88 140.04C667.323 140.04 666.06 141.303 666.06 142.86C666.06 144.417 667.323 145.68 668.88 145.68Z" fill="#0099CC"/>
<path opacity="0.3" d="M522.82 61.64C524.377 61.64 525.64 60.3774 525.64 58.82C525.64 57.2626 524.377 56 522.82 56C521.263 56 520 57.2626 520 58.82C520 60.3774 521.263 61.64 522.82 61.64Z" fill="#0099CC" stroke="#0099CC" stroke-width="8.088" stroke-miterlimit="10" stroke-linecap="round" stroke-linejoin="round"/>
<path opacity="0.3" d="M991.83 244.17C993.387 244.17 994.65 242.907 994.65 241.35C994.65 239.793 993.387 238.53 991.83 238.53C990.273 238.53 989.01 239.793 989.01 241.35C989.01 242.907 990.273 244.17 991.83 244.17Z" fill="#66225C"/>
<path opacity="0.3" d="M564.65 146.2C564.65 147.13 563.89 147.89 562.96 147.89H557.88V152.97C557.88 153.9 557.12 154.66 556.19 154.66C555.25 154.66 554.5 153.89 554.5 152.97V147.89H549.42C548.48 147.89 547.73 147.12 547.73 146.2C547.73 145.26 548.49 144.51 549.42 144.51H554.5V139.43C554.5 138.49 555.26 137.74 556.19 137.74C557.13 137.74 557.88 138.5 557.88 139.43V144.51H562.96C563.9 144.5 564.65 145.26 564.65 146.2Z" fill="#005EB8"/>
<path opacity="0.3" d="M963.64 178C965.198 178 966.46 176.737 966.46 175.18C966.46 173.623 965.198 172.36 963.64 172.36C962.083 172.36 960.82 173.623 960.82 175.18C960.82 176.737 962.083 178 963.64 178Z" fill="#66225C"/>
<path opacity="0.3" d="M725.1 253.23C725.1 254.16 724.34 254.92 723.41 254.92H718.33V260C718.33 260.93 717.57 261.69 716.64 261.69C715.7 261.69 714.95 260.92 714.95 260V254.92H709.87C708.93 254.92 708.18 254.15 708.18 253.23C708.18 252.29 708.94 251.54 709.87 251.54H714.95V246.46C714.95 245.52 715.71 244.77 716.64 244.77C717.58 244.77 718.33 245.53 718.33 246.46V251.54H723.41C724.34 251.54 725.1 252.3 725.1 253.23Z" fill="#005EB8"/>
<path d="M1025.5 150.035L1014.08 308.883H1008.06V392.363L1001.55 316.778L995.854 402.327H994.899V389.248H984.911V402.327H964.947V384.884H953.368V369.522H941.798V373.881H933.553L930.226 365.158H926.897L919.129 384.678H888.695V367.234H880.45V373.675H870.466V384.47H862.222V356.231H852.238V362.668H837.336V367.027H830.677V384.47H804.047V362.668H800.72V354.775L796.122 348.757L777.258 362.668H775.83V401.707H749.202V416.863H740.957V410.426H727.641V401.707H716.072V410.426H706.084V443.025H687.855V429.946H679.614V416.863H669.625V429.946H662.969V462.545H644.739V443.025H636.496V429.946H631.582V406.067H628.253V384.264H620.012V410.426H575.151V386.546H567.54C575.467 375.749 560.408 370.142 560.408 370.142C561.041 350.208 543.764 341.072 543.764 341.072V319.268H540.435V341.072C540.435 341.072 523.476 350.001 524.268 370.142C524.268 370.142 509.525 374.712 517.45 386.546L503.977 386.96V382.601H495.735V376.165H485.747V408.764H467.518V389.248H450.874V374.088H454.203V365.368H448.023C448.023 365.368 448.023 348.963 440.096 347.095C440.096 347.095 429.949 347.926 432.01 365.368H404.43V332.765L399.991 326.536C399.991 326.536 394.919 298.919 381.762 288.953L377.8 283.554V254.484H371.142V221.88H367.811V254.484H361.155V283.348L357.985 288.745C344.828 298.713 340.071 326.328 340.071 326.328L334.684 332.559V367.444H321.842C324.537 350.002 313.601 347.507 313.601 347.507C303.139 349.377 303.297 365.158 303.297 365.158H285.068V373.881H286.653V408.764H258.436V389.248H251.464V382.807H231.488V424.131H221.503V415.41H211.516V386.754C219.758 374.918 204.701 370.348 204.701 370.348C205.336 350.414 188.372 341.278 188.372 341.278V319.476H185.045V341.278C185.045 341.278 167.767 350.207 168.4 370.348C168.4 370.348 155.242 374.918 161.742 386.754V448.009H91.9945V463.17H61.7192C53.4756 467.53 53.7928 489.332 53.7928 489.332H55.3779V543.735C50.9388 529.199 40.0023 542.696 40.0023 542.696C44.4414 527.123 27.4795 532.938 27.4795 532.938C32.7104 519.233 17.8108 518.196 17.8108 518.196C8.14071 507.399 2.59383 528.162 2.59383 528.162C-0.417557 520.271 -8.82126 520.48 -8.82126 520.48V459.637H-17.0622V446.558H-22.1332V433.475H-27.0509V450.918H-35.2919V437.834H-48.6079V422.678H-55.2639V437.834H-66.8376V429.114H-85.0659V420.395H-95.0506V439.91H-101.711V422.472H-123.268V437.627H-159.727V413.747H-171.299V437.627H-181.284V422.472H-189.529V413.747H-196.185V450.085L-207.759 481.233H-271.322V468.154H-284.636V457.353H-277.978V423.925C-281.306 405.858 -297.954 396.515 -297.954 396.515V381.356H-302.867V355.192H-307.145L-308.732 314.908L-310.315 355.192H-316.185V381.356H-321.097V393.4C-326.012 395.478 -332.667 403.158 -332.667 403.158V394.439H-339.327V408.558C-345.984 412.087 -347.568 450.918 -347.568 450.918H-359.141V464.001H-374.356V455.277H-382.597V546.852H1240.6V332.126H1240.13L1237.42 283.948L1233.47 332.126H1226.17L1224.28 283.948L1219.52 332.126H1218.72L1214.29 275.435L1210.79 332.126H1209.06L1202.55 283.948L1202.24 332.126H1200.66V386.529H1177.36V364.725H1164.03V384.701H1140.74V395.496H1132.5V428.095H1122.51V393.212H1114.27V384.489H1101.1V393.212H1094.45V384.489H1079.54V393.212H1076.22V373.692H1061.31V369.333H1059.25L1053.55 306L1048.96 369.333H1044.52V308.489H1039.76L1025.5 150.035ZM-309.049 391.946C-305.563 391.946 -302.709 401.084 -302.709 412.089C-302.709 423.303 -305.562 427.869 -309.049 427.869C-312.537 427.869 -315.39 423.095 -315.39 412.089C-315.39 400.876 -312.536 391.946 -309.049 391.946ZM189.008 399.419C193.287 399.419 196.776 405.856 196.776 413.955C196.776 422.053 193.287 428.489 189.008 428.489C184.728 428.489 181.241 422.053 181.241 413.955C181.241 405.856 184.728 399.419 189.008 399.419Z" fill="#005EB8"/>
<path opacity="0.3" d="M604.41 210.82C609.055 210.82 612.82 207.055 612.82 202.41C612.82 197.765 609.055 194 604.41 194C599.765 194 596 197.765 596 202.41C596 207.055 599.765 210.82 604.41 210.82Z" fill="#420F3B"/>
<path d="M805.982 430.995C805.301 430.814 804.738 430.754 803.998 430.754C799.233 430.754 796.154 433.83 796.154 438.566C796.154 443.482 799.055 446.046 804.62 446.046C806.485 446.046 808.202 445.865 810.54 445.412V423.243H805.982V430.995ZM805.982 442.185C805.33 442.276 804.916 442.306 804.413 442.306C802.045 442.306 800.772 440.948 800.772 438.475C800.772 435.942 802.104 434.494 804.442 434.494C805.005 434.494 805.449 434.554 805.982 434.735V442.185ZM814.677 431.085V440.255C814.677 444.296 814.47 445.835 813.819 447.162C813.197 448.459 812.22 449.303 810.208 450.269L814.44 452.32C816.453 451.294 817.43 450.359 818.17 448.881C818.969 447.343 819.236 445.563 819.236 441.853V431.085H814.677ZM814.677 428.703H819.236V423.937H814.677V428.703ZM823.528 435.73C825.304 434.795 827.199 434.313 828.886 434.313C830.04 434.313 830.455 434.614 830.455 435.459V436.484C824.86 436.967 822.581 438.475 822.581 441.733C822.581 444.749 824.298 446.106 828.116 446.106C830.011 446.106 832.586 445.895 834.628 445.593V436.153C834.628 434.222 834.51 433.317 834.125 432.624C833.444 431.387 831.905 430.754 829.567 430.754C827.465 430.754 825.541 431.176 823.528 432.141V435.73ZM830.662 442.638C829.774 442.788 829.152 442.849 828.471 442.849C827.228 442.849 826.666 442.426 826.666 441.522C826.666 440.315 827.643 439.832 830.662 439.531V442.638ZM838.318 445.865H842.876V434.826C843.794 434.554 844.356 434.494 844.978 434.494C846.606 434.494 847.198 435.157 847.198 436.937V445.865H851.756V436.756C851.756 434.433 851.46 433.348 850.513 432.352C849.507 431.297 847.819 430.754 845.481 430.754C843.231 430.754 841.011 431.085 838.318 431.809V445.865ZM854.982 452.682C856.581 453.315 858.12 453.586 859.896 453.586C863.389 453.586 865.845 452.47 867.266 450.208C868.243 448.67 868.569 446.8 868.569 442.818C868.569 442.396 868.569 442.125 868.569 441.552C868.539 440.918 868.539 440.285 868.509 439.651L868.48 437.118L868.421 435.157V434.675C869.338 434.765 869.782 434.856 870.996 435.097V431.447C868.805 430.995 867 430.784 865.046 430.784C858.386 430.784 854.627 433.77 854.627 439.048C854.627 443.301 857.173 445.986 861.169 445.986C862.353 445.986 863.241 445.805 864.129 445.352C864.129 445.382 864.129 445.412 864.129 445.443C864.129 448.398 862.856 449.635 859.866 449.635C858.179 449.635 856.581 449.243 854.982 448.398V452.682ZM864.04 434.886L864.069 436.424L864.099 438.566C864.099 439.199 864.129 439.802 864.129 440.345V441.612V441.944C863.537 442.125 863.004 442.245 862.412 442.245C860.399 442.245 859.245 440.918 859.245 438.596C859.245 436.967 859.807 435.821 860.902 435.187C861.642 434.735 862.649 434.494 863.566 434.524H863.892C863.951 434.524 863.981 434.524 864.04 434.524V434.886ZM872.323 438.626C872.323 443.331 875.135 446.257 879.694 446.257C884.311 446.257 887.212 443.211 887.212 438.354C887.212 433.619 884.43 430.693 879.871 430.693C875.224 430.693 872.323 433.74 872.323 438.626ZM876.941 438.475C876.941 435.911 877.977 434.433 879.812 434.433C881.588 434.433 882.595 435.942 882.595 438.475C882.595 441.039 881.559 442.517 879.783 442.517C877.977 442.517 876.941 441.039 876.941 438.475ZM901.716 431.598C900.295 430.965 899.23 430.723 897.75 430.723C892.836 430.723 889.491 433.921 889.491 438.656C889.491 443.271 892.54 446.166 897.395 446.166C899.171 446.166 900.384 445.865 901.864 445.111V441.341C900.68 441.974 899.792 442.215 898.549 442.215C895.855 442.215 894.109 440.677 894.109 438.264C894.109 435.942 895.885 434.464 898.549 434.464C899.763 434.464 900.68 434.735 901.716 435.368V431.598ZM903.773 438.626C903.773 443.331 906.585 446.257 911.144 446.257C915.761 446.257 918.662 443.211 918.662 438.354C918.662 433.619 915.88 430.693 911.321 430.693C906.674 430.693 903.773 433.74 903.773 438.626ZM908.391 438.475C908.391 435.911 909.427 434.433 911.262 434.433C913.038 434.433 914.045 435.942 914.045 438.475C914.045 441.039 913.009 442.517 911.233 442.517C909.427 442.517 908.391 441.039 908.391 438.475ZM921.77 445.865H926.329V434.826C927.246 434.554 927.809 434.494 928.43 434.494C930.058 434.494 930.65 435.157 930.65 436.937V445.865H935.209V436.756C935.209 434.433 934.913 433.348 933.965 432.352C932.959 431.297 931.272 430.754 928.933 430.754C926.684 430.754 924.464 431.085 921.77 431.809V445.865ZM939.03 445.865H944.269V440.345H939.03V445.865ZM961.391 439.802L961.421 439.47C961.451 438.958 961.451 438.535 961.451 438.294C961.451 433.468 959.023 430.723 954.791 430.723C950.38 430.723 947.479 433.8 947.479 438.535C947.479 443.361 950.321 446.197 955.175 446.197C957.129 446.197 958.935 445.744 960.681 444.809V441.22C959.29 442.155 957.632 442.638 955.827 442.638C953.429 442.638 952.038 441.642 951.89 439.802H961.391ZM951.949 436.575C952.186 434.976 953.251 433.981 954.791 433.981C956.271 433.981 957.129 434.886 957.277 436.575H951.949ZM964.578 431.085V439.531C964.578 442.276 964.962 443.542 966.058 444.568C967.123 445.563 968.81 446.046 971.267 446.046C973.132 446.046 974.878 445.865 977.335 445.412L977.898 445.322V431.085H973.339V441.883C972.747 442.004 972.096 442.095 971.474 442.095C969.669 442.095 969.136 441.491 969.136 439.591V431.085H964.578Z" fill="white"/>
<path d="M880.322 465.122C881.928 465.122 883.204 464.609 884.152 463.584L884.553 464.132C883.841 465.119 882.779 465.755 881.365 466.038C880.921 466.131 880.461 466.177 879.984 466.177C879.058 466.177 878.223 466.014 877.479 465.687C876.735 465.354 876.103 464.907 875.584 464.345C874.508 463.183 873.97 461.748 873.97 460.041C873.97 458.241 874.46 456.689 875.44 455.385C876.098 454.507 876.946 453.891 877.985 453.536C878.51 453.362 878.997 453.275 879.446 453.275C879.901 453.275 880.236 453.288 880.45 453.315C880.67 453.343 880.865 453.378 881.036 453.422C881.207 453.465 881.36 453.514 881.494 453.569C881.633 453.618 881.783 453.67 881.943 453.725C882.382 453.877 882.736 453.954 883.003 453.954C883.271 453.954 883.563 453.73 883.879 453.283H884.649L883.581 457.619H882.819C882.845 457.199 882.859 456.905 882.859 456.735C882.859 456.375 882.816 456.059 882.73 455.786C882.65 455.508 882.511 455.271 882.313 455.075C882.115 454.878 881.879 454.712 881.606 454.575C881.06 454.303 880.458 454.166 879.8 454.166C879.146 454.166 878.585 454.3 878.113 454.567C877.648 454.835 877.254 455.2 876.933 455.664C876.328 456.553 875.967 457.761 875.849 459.288H881.028L880.811 460.213H875.825C875.879 461.484 876.291 462.597 877.062 463.551C877.913 464.598 878.999 465.122 880.322 465.122ZM894.244 456.523C893.413 454.014 891.752 452.478 889.257 451.916L889.426 451.196C891.882 451.567 893.732 452.625 894.974 454.371C896.087 455.942 896.644 457.892 896.644 460.221C896.644 462.054 896.234 463.505 895.415 464.574C894.597 465.638 893.5 466.169 892.123 466.169C890.807 466.169 889.731 465.629 888.896 464.549C888.12 463.557 887.732 462.378 887.732 461.015C887.732 459.635 888.093 458.454 888.816 457.472C889.613 456.392 890.7 455.852 892.076 455.852C892.927 455.852 893.649 456.075 894.244 456.523ZM894.814 460.426C894.814 457.966 893.952 456.735 892.228 456.735C891.259 456.735 890.555 457.18 890.116 458.069C889.752 458.789 889.57 459.779 889.57 461.039C889.57 462.905 890.014 464.184 890.903 464.877C891.235 465.133 891.664 465.261 892.188 465.261C892.718 465.261 893.157 465.138 893.505 464.893C893.852 464.648 894.123 464.309 894.315 463.878C894.648 463.131 894.814 461.98 894.814 460.426ZM900.36 452.824L901.822 451.36L903.251 452.824L901.822 454.305L900.36 452.824ZM899.694 465.294L899.976 465.253C900.206 465.22 900.392 465.187 900.537 465.155C900.682 465.117 900.794 465.051 900.874 464.958C901.014 464.789 901.083 464.402 901.083 463.797V458.249C901.083 457.627 901.019 457.254 900.891 457.128C900.762 456.997 900.607 456.916 900.425 456.883C900.243 456.85 899.999 456.82 899.694 456.793V456.089H904.087V456.793C903.782 456.825 903.537 456.858 903.356 456.891C903.174 456.924 903.034 456.986 902.938 457.079C902.783 457.226 902.705 457.616 902.705 458.249V463.797C902.705 464.418 902.754 464.787 902.85 464.901C902.946 465.016 903.064 465.092 903.203 465.13C903.347 465.168 903.537 465.207 903.773 465.245L904.087 465.294V465.973H899.694V465.294ZM910.011 457.791C910.498 456.804 911.371 455.985 912.629 455.336C913.555 455.838 914.267 456.389 914.764 456.989C915.551 457.955 916.028 459.389 916.194 461.293C916.247 461.947 916.274 462.58 916.274 463.191C916.274 463.802 916.284 464.217 916.306 464.435C916.327 464.653 916.373 464.819 916.442 464.934C916.512 465.043 916.614 465.117 916.747 465.155C916.881 465.187 917.015 465.215 917.149 465.237C917.283 465.258 917.376 465.272 917.43 465.277C917.489 465.277 917.548 465.283 917.606 465.294V465.973H913.215V465.294C913.52 465.256 913.763 465.22 913.945 465.187C914.128 465.149 914.267 465.081 914.363 464.983C914.518 464.825 914.595 464.386 914.595 463.666V462.717C914.595 461.467 914.566 460.603 914.508 460.123C914.448 459.637 914.373 459.239 914.282 458.928C914.197 458.612 914.079 458.315 913.929 458.036C913.635 457.513 913.175 456.997 912.548 456.49C910.857 457.554 910.011 458.994 910.011 460.81V463.584C910.011 464.304 910.062 464.735 910.164 464.877C910.271 465.018 910.401 465.111 910.557 465.155C910.712 465.193 910.923 465.231 911.191 465.269L911.4 465.294V465.973H907.008V465.302C907.04 465.286 907.08 465.277 907.128 465.277C907.181 465.272 907.275 465.261 907.409 465.245C907.548 465.223 907.69 465.193 907.835 465.155C907.985 465.117 908.1 465.051 908.18 464.958C908.314 464.811 908.381 464.44 908.381 463.846V458.012C908.381 457.516 908.319 457.213 908.196 457.104C908.073 456.989 907.921 456.916 907.738 456.883C907.556 456.845 907.313 456.815 907.008 456.793V456.089H910.011V457.791ZM920.263 465.294C920.879 465.239 921.251 465.147 921.38 465.016C921.508 464.879 921.585 464.732 921.612 464.574C921.639 464.41 921.653 464.198 921.653 463.936V453.905C921.653 453.381 921.556 453.045 921.363 452.898C921.235 452.8 920.868 452.721 920.263 452.661V451.982H924.672V452.661C924.072 452.721 923.713 452.794 923.596 452.882C923.392 453.029 923.29 453.37 923.29 453.905V456.932C923.783 456.397 924.442 456.043 925.265 455.868C925.528 455.814 925.83 455.786 926.173 455.786C926.521 455.786 926.879 455.855 927.249 455.991C927.619 456.122 927.952 456.305 928.253 456.539C928.553 456.774 928.817 457.052 929.048 457.374C929.278 457.69 929.468 458.036 929.617 458.413C929.933 459.193 930.091 460.019 930.091 460.892C930.091 462.31 929.709 463.529 928.943 464.549C928.419 465.242 927.749 465.727 926.936 466.006C926.523 466.147 926.127 466.218 925.747 466.218C925.255 466.218 924.741 466.191 924.206 466.137C923.205 466.028 922.587 465.973 922.351 465.973H920.263V465.294ZM923.29 463.576C923.29 464.094 923.435 464.489 923.724 464.762C924.099 465.1 924.73 465.269 925.619 465.269C926.508 465.269 927.187 464.827 927.658 463.944C928.076 463.18 928.285 462.163 928.285 460.892C928.285 459.048 927.883 457.791 927.08 457.12C926.781 456.869 926.433 456.744 926.037 456.744C925.64 456.744 925.282 456.804 924.96 456.924C924.64 457.044 924.355 457.207 924.109 457.415C923.563 457.867 923.29 458.405 923.29 459.026V463.576ZM937.164 466.398C936.147 465.777 935.398 465.198 934.916 464.664C934.07 463.72 933.562 462.351 933.39 460.557C933.326 459.913 933.294 459.313 933.294 458.756C933.294 458.195 933.289 457.821 933.278 457.635C933.267 457.445 933.225 457.292 933.15 457.177C933.021 456.97 932.694 456.842 932.17 456.793V456.089H936.12V456.793C935.59 456.847 935.248 456.967 935.093 457.153C934.969 457.311 934.908 457.693 934.908 458.298C934.908 458.904 934.916 459.468 934.932 459.992C934.954 460.516 934.991 460.985 935.044 461.399C935.098 461.814 935.176 462.187 935.277 462.52C935.379 462.847 935.515 463.158 935.686 463.453C935.997 463.998 936.49 464.593 937.164 465.237C937.854 464.577 938.315 464.042 938.545 463.633C938.78 463.218 938.95 462.847 939.051 462.52C939.153 462.187 939.23 461.814 939.284 461.399C939.375 460.696 939.42 459.921 939.42 459.076C939.42 458.225 939.409 457.717 939.388 457.554C939.367 457.39 939.316 457.256 939.236 457.153C939.08 456.967 938.741 456.847 938.216 456.793V456.089H942.151V456.793C941.626 456.869 941.318 456.978 941.227 457.12C941.136 457.256 941.08 457.417 941.059 457.603C941.042 457.788 941.034 458.167 941.034 458.74C941.034 459.307 941.002 459.913 940.938 460.557C940.879 461.2 940.782 461.773 940.649 462.275C940.52 462.777 940.355 463.221 940.151 463.608C939.948 463.99 939.701 464.342 939.413 464.664C938.931 465.198 938.181 465.777 937.164 466.398ZM950.676 459.059C950.976 458.765 951.126 458.317 951.126 457.717C951.126 457.423 950.989 457.191 950.717 457.022C950.486 456.885 950.136 456.817 949.665 456.817C948.648 456.817 948.139 457.155 948.139 457.832V464.05C948.139 464.285 948.16 464.478 948.204 464.631C948.251 464.784 948.356 464.907 948.516 464.999C948.795 465.163 949.437 465.261 950.444 465.294V465.973H945.08V465.302L945.096 465.294C945.727 465.228 946.105 465.138 946.228 465.024C946.356 464.904 946.434 464.767 946.461 464.615C946.493 464.457 946.509 464.247 946.509 463.985V458.315C946.509 457.72 946.45 457.352 946.332 457.21C946.22 457.068 946.081 456.97 945.915 456.916C945.749 456.861 945.53 456.817 945.257 456.785V456.089H946.919C947.577 456.089 948.045 456.075 948.324 456.048C948.603 456.021 948.821 456.002 948.982 455.991C949.464 455.947 949.855 455.925 950.155 455.925C950.46 455.925 950.773 455.95 951.094 455.999C951.415 456.048 951.699 456.133 951.945 456.253C952.486 456.515 952.756 456.921 952.756 457.472C952.756 457.914 952.58 458.326 952.226 458.707C951.894 459.067 951.525 459.305 951.118 459.419L950.676 459.059ZM962.35 465.04C961.655 465.793 960.817 466.169 959.837 466.169C958.488 466.169 957.436 465.659 956.681 464.639C956.007 463.728 955.67 462.569 955.67 461.162C955.67 459.727 956.041 458.522 956.785 457.545C957.61 456.465 958.777 455.925 960.286 455.925C960.715 455.925 961.162 455.942 961.627 455.975C962.516 456.045 963.07 456.081 963.29 456.081H965.369V456.776C964.759 456.82 964.389 456.91 964.261 457.046C964.133 457.177 964.055 457.327 964.028 457.496C964.001 457.66 963.988 457.873 963.988 458.135V465.556C963.988 466.974 963.606 468.177 962.84 469.164C962.011 470.238 960.894 470.776 959.491 470.776C958.791 470.776 958.113 470.612 957.46 470.285L957.774 469.401C958.233 469.587 958.75 469.679 959.323 469.679C959.896 469.679 960.378 469.559 960.768 469.319C961.165 469.085 961.48 468.777 961.715 468.395C962.139 467.691 962.35 466.75 962.35 465.572V465.04ZM957.492 461.162C957.492 463.895 958.295 465.261 959.901 465.261C960.597 465.261 961.18 465.032 961.651 464.574C962.117 464.121 962.35 463.576 962.35 462.937V458.478C962.35 457.927 962.262 457.556 962.085 457.366C961.743 456.995 961.132 456.809 960.254 456.809C958.413 456.809 957.492 458.26 957.492 461.162ZM971.374 457.791C971.856 456.825 972.747 456.007 974.048 455.336C974.979 455.844 975.686 456.397 976.168 456.997C976.954 457.979 977.431 459.411 977.597 461.293C977.65 461.953 977.677 462.588 977.677 463.199C977.677 463.81 977.685 464.225 977.701 464.443C977.722 464.661 977.768 464.825 977.838 464.934C977.907 465.043 978.006 465.117 978.135 465.155C978.268 465.187 978.4 465.215 978.528 465.237C978.662 465.258 978.756 465.272 978.809 465.277C978.869 465.277 978.925 465.283 978.978 465.294V465.973H974.618V465.294C974.923 465.256 975.167 465.22 975.349 465.187C975.53 465.149 975.67 465.081 975.766 464.983C975.922 464.825 975.999 464.386 975.999 463.666V462.708C975.999 461.47 975.969 460.608 975.911 460.123C975.852 459.632 975.777 459.231 975.686 458.92C975.6 458.609 975.483 458.315 975.332 458.036C975.049 457.518 974.596 457.003 973.976 456.49C973.178 456.986 972.587 457.496 972.201 458.02C971.649 458.773 971.374 459.703 971.374 460.81V463.584C971.374 463.96 971.385 464.255 971.406 464.467C971.427 464.675 971.483 464.833 971.575 464.942C971.671 465.051 971.811 465.128 971.992 465.171C972.18 465.209 972.436 465.25 972.763 465.294V465.973H968.355V465.302L968.371 465.294C968.687 465.256 968.935 465.217 969.118 465.179C969.3 465.136 969.436 465.065 969.527 464.967C969.666 464.814 969.736 464.437 969.736 463.837V453.921C969.736 453.315 969.672 452.953 969.543 452.833C969.42 452.713 969.268 452.636 969.086 452.604C968.903 452.565 968.66 452.533 968.355 452.505V451.818H972.763V452.505C972.463 452.538 972.223 452.571 972.041 452.604C971.858 452.636 971.719 452.696 971.623 452.784C971.457 452.925 971.374 453.305 971.374 453.921V457.791Z" fill="#FEFE83"/>
<path opacity="0.7" d="M825.281 424.919H832.725V422.762L828.67 422.792C831.29 421.164 832.444 419.565 832.444 417.59C832.444 415.373 830.964 413.94 828.685 413.94C827.59 413.94 826.687 414.242 825.74 414.905V417.092C826.494 416.428 827.279 416.112 828.167 416.112C829.336 416.112 830.061 416.79 830.061 417.891C830.061 418.706 829.676 419.414 828.759 420.304C828.152 420.907 827.264 421.586 825.577 422.747L825.281 422.958V424.919ZM834.138 419.671C834.138 421.45 834.463 422.747 835.174 423.728C835.825 424.617 836.831 425.13 838.001 425.13C839.155 425.13 840.176 424.617 840.842 423.728C841.612 422.702 841.967 421.315 841.967 419.444C841.967 417.665 841.641 416.368 840.931 415.388C840.28 414.483 839.273 413.985 838.104 413.985C836.95 413.985 835.929 414.483 835.263 415.388C834.508 416.413 834.138 417.801 834.138 419.671ZM836.595 419.55C836.595 417.303 837.113 416.066 838.06 416.066C838.992 416.066 839.51 417.303 839.51 419.55C839.51 421.812 838.992 423.049 838.06 423.049C837.113 423.049 836.595 421.812 836.595 419.55ZM843.232 424.919H850.676V422.762L846.621 422.792C849.24 421.164 850.395 419.565 850.395 417.59C850.395 415.373 848.915 413.94 846.636 413.94C845.54 413.94 844.638 414.242 843.69 414.905V417.092C844.445 416.428 845.23 416.112 846.118 416.112C847.287 416.112 848.012 416.79 848.012 417.891C848.012 418.706 847.627 419.414 846.71 420.304C846.103 420.907 845.215 421.586 843.528 422.747L843.232 422.958V424.919ZM852.518 424.557C853.465 425.009 854.205 425.16 855.27 425.16C857.861 425.16 859.533 423.893 859.533 421.933C859.533 420.606 858.808 419.671 857.372 419.143C858.66 418.63 859.237 417.876 859.237 416.715C859.237 414.98 857.934 413.94 855.803 413.94C854.871 413.94 853.953 414.151 853.139 414.573V416.685C853.761 416.262 854.545 416.021 855.3 416.021C856.247 416.021 856.854 416.428 856.854 417.107C856.854 417.936 856.04 418.374 854.323 418.494L854.161 418.509V420.38C856.07 420.38 857.076 420.877 857.076 421.842C857.076 422.612 856.321 423.079 855.093 423.079C854.146 423.079 853.465 422.868 852.518 422.265V424.557Z" fill="white"/>
</g>
<defs>
<clipPath id="clip0_4_2">
<rect width="1025.19" height="512" fill="white"/>
</clipPath>
</defs>
</svg>
