<?xml version="1.0" encoding="utf-8"?>
<svg width="1280" height="637" fill="none" xmlns="http://www.w3.org/2000/svg"><g opacity=".1" filter="url(#a)"><path d="m520.326 507.855-.6 2.027.983.045 2.836-.847 1.117.119 2.716 1.424 2.145.314 2.144-.314.708-.531 1.359-1.763.915-.674-.038-1.4.493-1.989.745-1.787.715-.773.72-1.06.39-4.932.381-1.528.987-.081 2.686 1.826 1.232.493 8.052-.399 7.106-3.333 4.31-.32 1.045-.8.956-1.322 1.205-1.093 1.354-.708 1.381-.17 2.239 1.385 1.5.454 2.353-1.57 1.574.397 6.045 3.467.998.28 1.381-.226 2.373-1.017 1.218-.24 2.441.446 1.235.596.535.817.511.294 2.304 2.585.631 1.158-.22 6.093-.423 1.785-.913 2.345.481.979 1.182.164 1.167-.072.819.119.925.403.806.699.465 1.001-.121 1.96-1.126 4.039.128.75 1.813.305 1.67.876 1.478 1.404 1.263 1.859.271.737.42 1.747.372.816.403.481.981.847.49.556.573.851.562 1.093.436 1.331.173 1.563.665 2.986 1.574.999 1.847.748 1.479 2.251h.385l-1.128-2.323-3.976-4.251.987-1.859 1.876.524 1.932 1.718 1.162 1.765.755 3.416-.172 3.017-.889 2.399-1.397 1.564-1.843.927-3.707 1.111-1.679.905-1.628 1.501-1.2 1.62-1.471 2.744-.803 1.494.752.508.262.945.06.959.161.531.78.087.474-.539.329-.684.685-.66 1.384-2.252.609-.701 2.192-1.064 2.135-1.619 1.344-.623.967.37.983.768 1.365.128 7.475-1.228.356.338.766 1.526.598.342.653.233.209.623.031.912.168 1.104.978 3.777.737 1.55 1.05.62.423.885.376 4.234.266 1.485 1.964 3.049.394.288-.423 1.022.065.585.19.423-.023.562-.311.654-1.202 1.875-.383 1.304.428 1.774-.235 1.778-.605.827-.819.724-.32.857.889 1.176-.918.522-.775 1.501-.857.17-.741-.77-.58-1.497-.632-2.121-.741-.378-.653-.95-.446-1.207-.112-1.181.421-1.263 1.433-1.846.311-1.608-.228-3.354-.665-2.45-1.077-1.835-4.334-4.166-1.681-.972-1.877-.097v.744l.457 1.042-.172 1.061-.538.919-.597.643.88.04.691.459.556.56.463.341 2.313.174.707.621-1.016.39-1.373.262-.398.486 1.892 1.066-.3 1.293.011 1.243.38.916.804.275-.069.462-.081.309-.32.694.468.668-1.742 5.582-.492 1.006-2.271 1.85-.682 1.127 2.525-.952 2.877-1.712 2.644-.752 1.818 1.955.613 4.073-.77 3.077-1.648 2.437-2.064 2.151-.284.083-.708-.186-.286.105-.426 2.189-.427.309-.555.264-.477-.125-.204-.852-.759-.781-3.618-.312-2.651.274-2.691.994-1.222.231-1.231.481-.372 1.284.126 3.66.013.39-.168 2.041-.38 2.213-.536 2.103-.658 1.709-1.133 1.422-2.608 1.34-1.923 2.056-2.648 2.025-.826.401-2.434.2-.989-.191-1.088-.799v-.661l1.24-.614.501-.112-4.77-1.781-.795-.06-.721-1.954-1.663-.613-1.865-.139-1.319-.524-.387.723-.92-.779-.932.125-.884.461-.831.193-.736-.537-.479-.737-.508-.083-.829 1.418-.078.658.107.818.045.885-.264.884-.396.374-1.464.254-1.603.582-.444.011-.398-.284-.37-.473-.248-.45-.043-.186-1.721.076-5.324 1.991-.49-.06-.954-.406-.492.099-.325.367-.307.475-.358.556-.34.208-.882-.484-1.661-2.052-.95-.772.963-2.498.081-1.207-.663-1.219 1.401-1.814.587-1.947-.361-1.904-.506-.602-.908-1.082-1.303-1.123-.668-.385-.741-.098-.667.403-.47.694-.501.54-.744-.067-1.352-.869-1.33-1.134-1.218-1.42-1.034-1.709-.36-1.068-.215-1.038-.282-.898-.558-.634-2.212-1.153 1.091-.585.499-1.075-.11-1.55-.723-1.996-.604-1.667-.39-.43-.743-.06-.502-.305-.566-1.808-.434-.723-3.867-3.253-2.102-1.079-1.957.177-1.822 1.798-3.022 4.81-2.046 1.559-.509.015-1.094-.203-.24.134-.186.103-.094.508.155.652.237.542.163.166.023.067-.484.988-.08-.015-.341.436-.465-.154-.3.078.15 1.147 2.088 1.044-.373 1.485 2.218 1.886-.862 1.219.399 1.751-1.332.872-3.412.909-.708.556-.512.522-.399.699-.351 1.061.3.424.58.495.078.562-1.22.62.28 1.062-.164 1.084-.45.93-.58.649-.857.44-.222-.413.065-.967-.006-1.226.087-.945.181-.771-.212-.264-1.897 1.122-.447.551v.711l1.423 2.985-.382.043-.654.074-3.022-1.033-.918.227-.278-.077-.123-.461-.457-.934-.515-.148-.624.105-.22-.159.692-.929-1.554-.132-2.563 2.049-1.343.269-6.647-1.573-.734-.539-.204-.892-.103-.941-.434-.676-4.491-3.392-1.111-.208-3.705.249-3.418-.462-1.214-.755-.824-1.646-.248-4.713-.412-1.705-.916-.701-2.438-.369-.497-.195-.544-.213-1.072-1.21-.811-1.534-1.318-3.353-1.816-.011-1.565-.84-1.462-1.533-2.646-3.752-1.491-1.662-.604-.891-.13-.865-.19-.824-.788-.744.335-.186 1.14-.634 3.309-.987 1.533-.91.714-.67.318-.454.766-1.575 1.263-1.875 1.314-1.476 4.721 1.115 2.447.101 2.385-.943 6.203-5.94 2.579-.863-.004-.065-.164-2.099-.662-.172-.97.712-1.045.513-.972-.378-1.995-1.808-.859-.502-.47.146-.965.741-.522-.022-.49-.533-.627-1.364-.524-.341-1.079-.307-1.03-.674-.513-1.113.48-1.622-.381-.211-1.023-.869 3.087-1.543 2.131-2.159.858.044 1.78 1.562 2.059 1.093 2.111-.157 2.138-1.232 2.167-2.148 1.111-.659 2.138.596 1.867-.58 1.169.654.653.034.815-.357.002-.228-.335-.368-.206-.808.123-2.69.396-1.459 4.52-5.647.983-1.919.645-2.323v-1.131l-.264-2.758.23-1.283.515-.668 1.236-.515.087-.143.441-.733.079-.903-.354-2.773.251-.768.331-.119.163-.186-.257-.949 1.762-2.753.624-.726.744-.585 3.978-.618.508-.567.479-.766.549-.685 1.202-.477Zm285.416 360.649-1.769 2.114-1.206.959-2.951.685-2.342 1.633-1.139.795-2.635.948-5.273.358-.806-.318-.485-.71-.334-.71-.325-.309-.582.446-1.632 2.056-.34.641-3.616 2.332-.172.06-.775.269-1.038.786-1.626 1.682-.21.412-.365 1.152-.275.484-.439.277-.887.119-.358.273-.02.016.788 2.128-.441 2.135-1.099 1.286-1.196-.399-.924-.119-4.395 1.853-15.559-1.427-1.138-.659-1.112-1.532-1.834-2.527-3.642-3.053-.86-.08-1.148.553-1.402-.708-1.227-1.23-.649-1.006-.087-.443.109-.168.195-.061.168-.073-.466-1.974-.159-.502-.438-1.373-.697-1.655-.752-1.34-.501-.535-1.088-.723-.576-.735-.978-1.911-.557-.6-.827-.233-1.988.244-4.71.58-.886.376-.831.54-.548.625-.072.943.477.979.651.954.448.865h-2.59l.004.262-.293.453-.356.183-.168-.526-.172-.388-.41-.309-.493-.219-.416-.081-.197.22-.578.949-.288.2-.41-.139-.652-.497-1.549-.372-.593-.036-.656.302-.656.605-.878 1.069-.597.374-.629-.171-.699-.452-.562-.061-.235 1.064-.799-.035-3.681-1.566-1.088-.081-.212-.358-.114-.282-.137-.731 1.186-.898-.156-1.066-.553-1.277-.014-1.552 2.127-.686.233-.327.669-1.23.408-.564.387.757h-.387v.616l.427.318.426.428 1.925-.645 3.181-.204 2.973-.759 1.312-2.252.025-.667-.036-.54-.011-.168-.305-.184-.736.901-.51.376-.71.085-2.461-.282-3.376-1.89-.897.622-4.905.744-1.346-.524-1.686-1.346-1.5-1.772-.799-1.851 2.568.357 1.126-.153.593-.891-1.137.074-1.148-.282-.959-.713-.577-1.2.19-.222.365-.692.304-.934-.013-.906-.428-.696-.398.311-.484 1.073-.351.345-.502.82-.385.213-.633-.155-.533-.475-.537-.746-1.203.207-.219.701.495.958.927.955-2.134 1.158-2.375.094-4.693-.634-1.82.193-2.229.609-.383.107-2.047 1.479-.129 2.488-.571.11-.137.173v.392l-.145.761-1.144 2.845-.569-.197-.842-.724-.43.318-1.079 1.116-5.55-.134-.947.219-.962.67-.551.752-.495.892-.562.728-1.177.522-.517.963-.562.253-.311-.11-.65-.517-4.059-1.331-1.506-1.09.571-1.058-.907-1.958-3.072-.781-1.2-1.378.394-.692 4.787.692-.132-.342-.164-.762-.132-.332.92-.024 1.628.555.895.155.847-.209 2.091-1.227 3.013-.627 1.518-1.049.636-.154.824.455v-.628l-1.78-1.78-.349-2.446 1.025-2.05 2.38-.594v-.75l-.728.504-1.804.75-3.508.327-.766.475 1.019-.004.75.419.288.914-.356 1.491.882.796-.223 1.131-.927 1.003-4.836 1.143-1.354.049-8.68-1.178-1.099.43.618 1.633-.726.871-.886-.036.136-1.093v-.627l-3.082-2.383-1.207-.368 1.33-.024.884-.18.689-.508.73-1.033.891-.869 2.094-.421 1.074-.468.979-1.008.197-.963-.325-2.532-.07-1.574-.255-1.503-.521-1.243-.858-.805-.425.69-1.115-.97-2.454-.345-1.11-.754-.887.669-3.463.71h-1.218l.417-.365.432-.26v-.754l-.209-.44-.116-.324.15-.312.6-.369v-.621l-.486-1.294.587-.605 2.247-.173 1.162-.443 1.872-1.947.81-.437 1.917-.289 2.545-.958 1.961-1.73.188-2.616h.887v-.627l-.746-.652.097-.681.685-.524 1.03-.22 1.688.112.72.211 3.321 1.805 1.197.005 1.798-.746-.425-1.384 1.179.21 2.394.957 1.356.219.571-.421-.098-.99-.276-1.149.018-.903.475-.396 2.082-.359 1.209-.853.897-1.113 1.527-2.532 1.147-1.272.857-.011 2.062 1.631-.139-3 2.378-1.174 7.705.285.721-.273.406-.52.3-.699.416-.605 1.842-.582 1.241-.845 1.209-1.137 1.858-2.227.891-.596 1.03-.287 1.269-.074 1.153-.351 7.395-6.413 3.617-5.193 1.836-3.579.831-2.305.553-4.314.524-2.343.687-2.106.71-1.458-.33-.941-.136-1.241.092-1.21.376-.867.501-.105 1.364.726.649.146 1.086-.408 3.203-2.39v-.764l-1.69.016-3.201 1.146-1.7.301-.955-.789-2.844-3.947-.707-1.57.204-2.549 1.014-2.545 1.316-1.969 1.104-.777.224-.293.293-1.389.141-.419.24-.159.669-.251 2.548-2 .799-1.046-1.648.201-1.074.863-1.05.242-4.756-5.842-1.195-2.525-.291-.956.175-.84 1.079-.352.721-.735-.153-1.599-.497-1.595-.277-.681.013-1.463.132-.696.39-.417 3.712-2.679-.459-.197-.197-.177-.191-.399-.714.809-.709.488-.63-.159-.497-1.136-1.609 1.228-1.697.134-3.544-.589-4.498 1.405-1.034.643-1.247.757-4.316-.05-1.285.677-1.182 1.037-2.21 2.583.233.264.152.432-.99.614-.597 1.176-.023 1.331.761 1.106-.799.843-.45.365-.454.201-.753-.101-.866-1.052-1.339-.471-1.191-.97-.721-.221-.741.177-.436.412-.356.47-.443.347-1.386.365-3.484-.365-.922.583-.866 1.032-.885.419-.96-.625.645-.956.067-.457-.249-.63.385-.513.891-1.671 8.651-10.115.94-.527 1.176-.105 1.155-.354 1.218-.652 5.019-3.924 1.229-2.119 4.079-2.677.515-1.351.266-1.864.114-4.314.186-1.212.408-.419.418.216.182.705.25.663.524-.824.466-1.201.072-.448 2.496-3.035.696-.509 1.111-.477.823-1.147 1.292-2.701 1.406-1.727 1.648-1.093 1.824-.56 1.966-.177.519.17.5.3.463.166.795-.551 1.359-.661 1.457-.39 2.136-1.805 6.808-2.849h2.12l-.631-1.911-1.827-1.897-.477-1.248 1.148.132 1.209.365 1.095.654.802.991 1.222-.664 1.348.446 1.287 1.185 1.014 1.557.974.618 7.108-.204 2.485-.577 11.852-5.894 2.602-.094 2.361 1.176 1.312 1.042.576 1.048.703.829 8.01 5.244.915 1.081.773 1.311.459.484.199-.408v-3.842l-.71-1.216-.951-1.633-1.509-3.234-2.25-2.971-.851-1.568-.071-1.619.674-1.042 1.135-.629 2.657-.408 1.272-.493 2.241-1.816 1.414.107 1.456 1.783 3.689 9.693 1.111 1.507 1.531 1.371 1.809.827 1.927-.076.061-.218.076-.455.213-.474.461-.28.557.038.947.488.452.123 1.019-.089.889-.256 1.706-1.019-.345-1.337.172-.957.482-.721.539-.616.52.255.541-.076.551-.356.551-.591-.891-.061-3.132.753-.685.434-.437 1.528-1.086.556-.656-.072-2.075-.229-2.666-1.005-2.398-1.716-1.992-2.146-1.489-2.321-7.211-15.87-.332-1.438.153-1.465.736-1.649 4.099-6.841 3.314-4.336.517-.372.537-1.105 2.51-1.787.772-1.093-5.346-.07-2.281-1.023-1.726-2.502-.448-3.537.714-7.97-.73-2.926.994-1.839 1.44-.891 5.724-2.198 1.023-.121.82.648.472.181.197-.475.211-.638.485-.542.562-.406.446-.224-.703-1.189 2.167-2.227.273-1.718-1.088.811-1.079.432-1.91.207-.3-.276-.982-2.291-.133-.825.43-.6.654-.522.542-.553 1.209-2.283.859-.999 2-.831.723-1.06 1.195-2.806-1.05-1.564-1.471-2.95-.904-1.814-.206-1.006 1.33-.529 1.406-1.371.938-1.874-.045-2.052h-.425l-.238 1.601-.886 1.275-1.852 1.492-2.229 1.223-1.138.918-.499 1.136-.481 1.59-1.171.742-2.803.208-.842-.683-.848-1.55-.372-1.698.571-1.093-.448-1.232-.569-1.033-.702-.468-.838.417.282 1.467-.197 1.492-.356 1.386-.192 1.178-.273.885-1.852 2.39-1.054 2.225-.638 1.035-1.704.934-.137 1.207.191 1.44-.061 1.205-2.189-3.086-.576-.536-.993-.069-.862-.238-.721-.463-.614-.744.177-1.644.347-1.819-.038-1.541-.951-.815v-.728l2.068-.659.524-3.1-.141-3.604.103-2.162-.981.573-.512 1.112-.598 2.681.549 2.081-.934.49-1.433-.125-.989.204-1.297.566-1.354-1.37-2.241-4.026-1.852-2.336-.821-1.425-.345-1.711.157-.822.273-.874.116-.952-.456-1.518-.123-1.091-.18-.209-1.484-.73-2.124-4.466-1.46-1.32-5.866-8.281-1.014-.556-.313-.362-.654-1.551-.654-.73.459-.808.663-.769.289-.253 1.323-3.729 1.65-8.407 2.1-4.881.88-2.677.425-.947.526-.466 1.361-.531.67-.475.79-1.051.989-1.776.536-2.054-.574-1.835 2.033-6.339 1.223-2.961 1.459-1.781 1.216-.296.723.569.663.802 1.014.401.669-.078 2.561-1.398-.79-.618-3.112-1.606 1.608-1.774.933-.733 3.918-1.192.784.238.458.387.356.451.486.396 2.326.791 1.247.092 5.185-1.573 1.102-.786h-4.292v-.741l1.198-.204.953-.618.954-.397 1.189.477v-.808l-1.522-.717-.249.067-5.301 1.458-19.838-1.485-1.05-.291-.967-.549-.922-.327-.887.358.184.227.056.027.035.096.108.459-1.05.504-.985-.385-1.787-1.604-.812 2.97.494 1.167.314 2.146.116 2.339-.112 1.756-.694 1.756-1.038.609-5.819-.564-1.612.255-1.345 2.278-4.415-.701.141.565.065.017.215.22-.562.401-.464-.078-.389-.437-.325-.688.706-1.33.306.154.307.502-.094-.816-.099-.335-.233-.332-.74 1.212-.963.943.284 1.124.141.424-.412.109-.859.697 2.122 2.148-.609.502-3.246 1.469-4.887 3.735-2.96.401-1.941-.137v-.804l-.244-.119-.213-.056-.194-.155-.153-.277.175-.316.174-.383.03-.105-.128-1.087.251-1.409-.139-1.1-.849-.392-.029-.506-.906.802-.714 1.555-.213 1.848.6 1.702-2.436.423-3.177-2.085-2.192-3.669.536-4.335-.925.569-1.516 1.951-.998.507-.934-.119-4.643-2.247-.725-.582-.542-.753-.593-1.561-.294-1.19-.429-.746-1.003-.273-.381.464-.486 1.106-.421 1.349-.183 1.18.577 2.547.486 1.591.405.707 1.01.059.889.251.799.562.746 1.008.197 1.386-.542 1.232-.309 1.311.889 1.575-.788 1.567.203 2.267.321 2.041-.41.883-.349.237-.309.5-.41.504-.654.237-1.424-.215-1.323-.591-1.576-1.212-.582-.265-2.216.065-.553-.434-3.616-5.587-2.057-2.04-7.339-4.601-2.812-.811-1.338-.838-1.156-3.053-1.332-.582-2.373.04-1.491.67-1.421 1.115-1.241 1.344-.951 1.373-.535.959-.253.629-.072.567.007.793.114.914.309 1.259.477 1.113.629.475.43 1.165.705 2.551.994 2.556 1.789 1.555.02.934-.325 1.955-.018.999.023.518.806 1.754-1.339-.35-2.671-1.456-1.283-.329-.597-.751-.386-1.702.057-1.772.729-1.001-.472-.672-.253-.712-.011-.742.271-.817-1.164-.133-.511-.206-.414-.394-.278-.974-.273-1.517-.387-1.397-.607-.608-1.256-.593-5.921-7.197-1.8-3.266-1.146-3.851-.321-4.316.191-3.925.423-1.971.877-.853 1.317.076.687-.101.302-.34.287-1.266.618.585.604 1.207.229.585.933 1.538.461 1.035.307 1.141.047 1.189-.092 2.632.273.997.831 1.173 1.03.975 1.115.186 1.09-1.161.206-.427.255-.374v-.742l-2.236-4.54-.356-.99-.17-.894-.034-.168-.871-2.153-.204-1.274.038-2.413.13-.735.258-.929 1.099-2.659.425-1.476.173-2.222.521-2.023 1.216-1.252 2.554-1.665 4.041-5.53.303-.253.64-.173.121-.347-.018-1.165.049-.551 1.424-3.689.246-.974.047-1.078-.157-2.379.11-1.035.343-.667 2.073-2.587 1.13-.963.497-.643.37-1.062.521-2.549.594-1.259 2.008-1.837 4.144-1.976 1.506-2.19.533-2.991-.559-2.656-1.516-1.927-2.266-.779 1.303-1.992-.015-.121-.289-2.327-1.346-2.294-1.822-1.545-3.396-1.51-2.008-.081-.582-.394.465-1.033v-.822l-3.609-2.388-2.019-1.848-1.218-1.796 2.754-2.955.951-2.378-.264-3.739-.401-1.326-.378-.952-.307-1.147-.369-4.791-.009-.085-.237-3.065.385-2.977.891-1.951 1.419-1.227 1.948-.825 1.166-.253.846.103 3.954 1.88 1.052.181.714-.322 1.337.842 10.374 1.635 1.514-1.024-6.786-1.471-2.456-.529-2.704-1.736-3.181-4.066-2.526-.97-1.146-1.18-.983-1.485-.71-1.429-.817-3.338-.038-.54-.924-.235-.321.854.036 1.117.385 1.38 2.953 4.507.699 2.018-.399.898-1.139.218-1.52-.027-1.464-.634-.67-1.572-.192-2.014-.092-4.254.092-.936 2.433-6.425 4.415-7.181.284-1.604-.289-.428-.669.497-.851 1.19-3.57 7.504-.898 1.319-1.337.068-.465-.879.1-3.431-.262-1.508-.647-1.149-.844-.314-.837 1.026.712 2.01.862 3.94.562 3.837-.184 1.736-.794.327-.153.845.269 2.257v2.178l.128 1.496.335 1.275-.857.443-.938-.327-.999-.576-1.072-.304v.761l.79.381.82.576.649.869.298 1.277-.231 1.604-.613 1.086-.714.896-.533.977-.305 1.303-.177 1.087-.264 1.026-.609 1.14-.882.981-.723.137-1.97-.435-1.003-1.225-.889-2.841-.627-3.169-.248-2.216-2.494-3.371-.325-1.42-.472-.916-.999.797.988 1.833 2.373 6.061.463 2.327-.517 1.078-1.189-.412-4.106-3.398-.568-1.436v-2.325l-.634.842-.548 1.467-.381 1.561-.136 1.1-.294.834-1.833 2.696 1.491 3.134.62 1.712.441 1.973-1.14.005-2.726-1.591-2.089-.768-.649-.858-.39-2.78-.369-.408-.493-.271-.474-.571-.215-.786-.052-1.033.052-2.04.136-.869.618-1.233.137-.938-.112-.952-.782-3.268 1.536-1.761 6.799-11.957 3.616-1.528 2.608-2.058.6-.657 2.212-5.12.996-1.479 1.878-1.267 2.389-1.055 2.172-1.616 1.22-2.958-1.095.763-2.304 2.581-1.05.562-2.538.206-1.05.462-.936.866-.676 1.383-1.496 3.924-.588.811-7.431 5.091-5.158 7.952-.56.35-1.128.092-.477.322.025.569-.307 1.584-.383 1.357-.188-.109-.577 1.261-1.348.416-1.54-.136-1.171-.368-.045-.531-.009-.967-.15-.713-.454.274-.218.589-.02.694.038.739-.459 5.995.224.244.934.497.351.087.62 2.214.253 1.276.045 1.046.217.87.755.745v.688h-.426v.76l.267.125.627.556-.3.239-.3.356-.294.231 3.453 3.759 1.558 2.645.559 2.834-.423 1.527-.868.731-2.111.69-.943.676-2.859 3.244-.692 1.039-.584 1.221-.448 1.377-.152.919-.159 1.951-.152.905-1.339 1.039.114.473.249.508.123.314-.099 2.52.569.674.755.211.476 1.113-.38 1.449-.985.43-.737.641.403 2.072-1.323 2.616-.381 1.071-.06.587.06 2.079-.082.896-.206.062-.282-.143-.28.278-1.386 3.682-.996 1.499-1.44.889v.683l.779-.121.627.269.56.585.586.835 1.012 2.48.047.446.73.723-.629 1.651-2.051 2.935-1.02 1.079-1.23.972-1.381.717-1.475.294-.596-.139-1.22-.625-.734-.054-.654.302-1.41 1.033-.721.229-1.805-.032-1.106-.428-.658-1.346-.734-4.695-.128-2.491.329-2.143 1.744-1.474 2.369-2.803.609-1.135.025-2.308-.305-2.488-.112-2.46.882-3.248-.268-.811-.423-.725-.186-.802.23-1.23 1.473-3.286 1.319-3.873.244-2.22-.714-1.519 3.387-2.894.441-1.256.39-1.526.926-1.906 1.066-1.622.831-.69 1.786-.784 2.152-2.043 1.938-2.914 1.153-3.342-6.029 6.893-2.225 1.825-.745.325-.822.04.425-1.438-1.708-.658-.842-.524-.85-1.091-.473-1.517-.065-2.975-.313-.88 2.622-4.001.398-.896.387-1.478.936-1.167 1.126-1.077.952-1.246-1.4.728-2.124 2.516-1.632.86-1.115 1.189-.573.023-.441-.742-.385-1.29-.139-1.223 6.826-10.698.522-1.389-.265-.5.377-.398.349-.558-.802-.354-.781.437-.837.757-.981.618-.381 2.07-2.688 3.143.051 2.461-1.041 2.003-.23.349-.625-.248-.188-.648.101-.788.244-.665.344-2.955 2.277-4.581 4.69-6.854.193-.406.092-.517.163-.455.401-.228.401.105.501.247.365.268.011.146.168.242.522.354.49.058.094-.654-.289-.71-.416-.441-.381-.269-.188-.173-.4-1.765-.11-.961.251-.737 2.003-3.174.423-1.001.381-1.532-1.885.555-1.406 1.736-1.256 1.94-1.439 1.187.4-2.307.806-2.3 1.059-2.142 1.176-1.796-.556-1.488.761-1.191 1.346-.793 1.211-.287.712-.37.119-.817-.401-.813-.837-.37-2.591.836-.553.356-.591.725-.606.572-.611-.119-.368-.986.155-1.27.683-2.338.75-4.194.613-1.46 1.187-1.326 1.15.701 1.684-.193 3.121-1.276v-.702l-1.498.11-2.693.912-1.379-.32 1.258-3.723.479-.885.667-.464.802-.381.501-.539-.266-.928 1.574-2.224 2.084-1.033 6.273-.56 5.035 1.441 2.075-.522 1.672-1.445 3.947-5.43 2.047-4.635 1.316-1.85-1.368.751-.813 1.68-.685 2.009-.958 1.738-2.55 2.307-1.451 2.415-.678.739-2.66.327-6.628-1.552-1.74 1.579-1.01-.735-1.014-4.307-.846.403-.734 1.006-1.187 2.439-.848-.699 2.198-5.407.356-1.606 1.487 1.494 1.529.612 1.406-.056 1.146-.507 2.975-2.318 1.587-.742.779-.58.654-.994-2.091 1.301-.694.175-1.247-.083-.26.083-1.043.838-.685.266-1.348 1.14-.752.213-.743-.349-1.005-1.154-.838-.114.191-.838.224-.367.286-.24.379-.484.246-.537.21-.952.168-.442 1.614-3.109.549-.755 2.556-2.343.397-.741.378-.71-1.204-.845v-.844l.541-.332 1.388-1.218 1.577.188.826-.083 1.824-1.657h1.399l2.687.844 1.287-.374 2.447-1.649 5.019-1.165 1.073-.757-10.276 2.283-4.842-2.357-.016-.674.629-1.581.396-.574 4.2-4.636 1.137-1.875 1.037-2.238-3.696 3.322-.524.92-.267.742-.653.629-.773.444-.64.166-.531.347-.223.833-.117 1.013-.195.907-.821 1.691-.824.965-.927.421-1.099.092-.549.236-.582 1.021-1.307.504-.513.665-.685 1.385-1.786 2.242-.988.679-1.267.248-.633.471-.894 2.074-.586.479-.788.222-.735.58-.669.78-2.498 3.79-4.122 4.959-4.222 3.452-.417.179-.557-.423-.728-1.494-.667-.318-1.021-.206-1.186-.538-1.082-.759-.749-.887.938-1.833.257-.903.119-1.129h-.468l-2.317 3.244-3.77-.815-9.285-7.724-.4-.885.103-1.785.631-.862.905-.332 3.109-.217 2.152.443 2.006 1.053 1.723 1.703.466-.845-1.491-1.218-.62-.762-.016-1.122 6.593-4.474 1.527-.179 3.918 2.065 1.572.332 3.315-.24 1.827-.49 1.316-.887-5.785.77-1.37-.235-3.134-2.023-2.563-.678-6.793 3.783-2.353.692-.658.014-.806-.339-1.397-.996-.799-.218-4.319.339-4.593-1.28-1.572.153-1.227 1.218-1.133.757-1.549-.327-1.435-.835-.819-.795-.338-.639-.271-.618-.175-.665-.065-.757.119-1.082.307-.056.423.213.463-.278 1.361-2.146.806-.695 9.566-1.037.753-.374 2.18-1.653.916-.374 1.057.264.638.639.588.791.927.707 3.284 1.472.542.435-.071-1.241-.3-1.203-.638-.842-1.118-.177v-.847l.768-.096.761.069.73.3.679.574.906-1.159 1.404-.481 1.587.434 1.243.357-4.675-2.334-1.191-1.441-.022-1.241.855-.876 6.454-.931 2.564-1.156 2.015-2.061-.822-.403-1.148.139-1.035.557-.987 1.907-1.254-.036-2.456-.659.533-1.142 2.483-2.758-2.807-.528-5.873 1.324-2.881-.793 2.091-.572 2.203-.138v-.84l-.477-.325-1.263-1.311 1.095-1.339.692-2.343.555-2.652.674-2.254 1.095-1.415 1.748-1.268 1.919-.686 1.614.312.589.716 1.242 2.227.726.963.886.699.965.47 2.053.325 3.385-.824 2.991-1.523v-.782l-1.07.32-1.001.583-.92.316-.831-.437-1.399.988-1.354-.388-1.314-.889-1.272-.493-.947-.643.237-1.467.103-1.579-1.365-.997-.558.083-1.271.591-.685.108-.636-.289-1.061-1.049-.659-.228-.682-.863.929-1.899 2.599-3.394.736-1.265.437-.417.77-.078 1.843.197.635-.538 1.097-.658 1.559.616 2.641 2.031 1.258.686 6.132.069.303-.365.472-.826 1.037-.065 1.027.289.441.21h.426v-.856l-1.225-.784-5.223.917-1.464.598-.824.125-.441-.426-1.594-2.04-.705-.668-5.221-1.604-.775-1.178.441-1.964 2.181-3.15.824-1.597-1.155-1.953 1.497-2.18 2.608-1.682 2.152-.479 1.999 1.527 1.961 2.377 2.107 1.606 2.433-.793v-.782l-2.592-.618-.578-.524-.92-1.678-.624-.784-.598-.333-.589-.78.81-1.702 1.5-1.638 1.505-.6v-.856l-1.516-.652-1.043.948-.781 1.418-.741.723-1.075.348-2.183 1.581-1.244.437-1.308-.184-2.369-1.127-1.215-.268-2.684.891-1.279-.103-.544-1.577.253-.394 1.451-3.551.513-.548 1.356-.847.531-.607.569-.493.445.466.358.775.307.394 1.455-.253 6.972-3.353 2.78-2.607.533-3.26-1.057-.253-1.681 1.752-2.832 4.027-1.616 1.253-1.444-.227-1.512-.734-1.808-.292 1.517-.987.531-.766-.132-1.004-.533-1.427-.116-.761-.273.033-.994.97-4.187 5.58-1.572.809-3.25.483-1.444-.732-1.066-4.559.161.099.305-.197.282-.334.103-.358-.168-.386-.575-.905-.11-.362-.025-1.555.211-.768.667-.773-.645-.376-1.932-.572-.405-.268-.134-1.246-.58-2.009-.135-1.501.186-.831.849-1.964.239-.733.072-1.658-.025-1.473.273-.908.959.009-.135-.528-.197-1.324-.134-.524 1.108-.455 1.108.213 1.075.719 3.351 3.479 1.055.795.537-.455 1.075 1.673.553.439 1.871 1.333.679.184-.336-.652-.186-.605-.139-.571-.188-.553 4.486-.793 2.571.452 1.459-.042.258-.771-1.897-1.61-2.818-.657-2.763.388-1.724 1.521-2.124-2.525.329-.358.517-1.149-2.075-.397-1.088-1.812-.784-2.291-1.155-1.862-.956-.403-.963-.132-.765-.475-.329-1.452.36-1.409 1.269-1.438-.358-1.052v-.87l2.317-1.339 1.189-.056 1.838 2.079.779-.11.656-.892.493-1.276-.692-.204-.443-.594-.408-.768-.624-.755-.728-.446-5.189-1.221-.195-1.259.304-3.033-.109-1.359.158-.961-.539-2.361-.078-1.472.237-1.256.461-1.145.649-.972.811-.692 1.583-.639 1.643-.018 1.627.52 1.532 1.006-.238 1.592.193 2.321.425 2.356.473 1.723.613 1.219.822.884.947.471 1.018-.034-.465-.551-.289-.584-.479-1.405.783-.047.609.181 1.162.733-.407-2.294.257-1.657.11-1.506-.855-1.805-2.403-2.283-.799-1.335.65-1.182-.482-.135-.192-.215-.173-.452.598-1.118 1.444-1.958.506-.927.898 1.147.68.459h2.291l-.359 3.207 1.767 2.366 2.545 1.373 1.997.253-.385-.795.754-1.01.744-3.345.591-1.245.792.013 2.83 1.246.864.735 1.751 2.107 2.095 1.317 4.503 1.779-.918-1.631-.699-.73-1.82-.84-2.736-2.854-4.003-1.832-.497-.477-.094-.67-.152-.273-.031-.316.275-.788.396-.097.473.54.45.09.345-1.409 1.186.746 1.744 2.578 1.359.759.707-.056 1.187-.616.667-.13.786.258 1.41 1.041.607.229.779.506 2.277 2.263 2.633 1.229 1.797 3.242 1.268.833-.354-.625-.432-1.057-.37-1.134-.156-.815-.329-.786-6.235-5.506-1.516-.406v-.873l1.227.013.495-.86-.099-1.371-.557-1.467-.761-.674-2.006-.413-.889-.842-1.836-.479-2.57-3.282-1.587-.336.136-.316.032-.096.297-.311-.935-1.338-1.225-.43-2.557.159.208-.513.121-.403.173-.365.351-.403v-.804l-2.059-3.779 1.177-1.602 2.371.681 1.487 3.089 1.363-1.122 1.336.446 1.377.186 1.496-1.92h-.394l.311-1.16-.045-1.075-.295-.955-.435-.835h.858v-.807l-1.283-.878.826-.62 1.78-.437.839-.486v-.88l-2.055.096-.983-.211-.868-.683.463-.746-.463-.582-.515-.471-.551-.347-.595-.21.132-.554.197-1.386.136-.553-.801-.009-.62-.433-2.873-4.48.052-1.975 1.01-.339 1.432.628 2.624 1.841 1.055.293 1.052-.293 2.471-1.687 1.324-.448 1.354.168 1.316 1.075.473-.867.833-.781.866-.565.557-.213 1.111.372 1.885 1.678.846.376 3.112-.275.954.275 4.289 3.3-.613-1.248-.71-.737-1.693-1.315.82-.694 1.777-.318.847-.607-3.954-.811-1.227.004-.506.327-.705 1.055-.665.231-.629-.255-1.283-1.104-.683-.256-.92-.636-1.84-2.78-.638-.636-.076-.439-1.18-1.821-.235-.238-.477-1.503-.201-.88-.137-.865h1.24l-.629-1.261.032-1.18.436-1.185.589-1.248.06-.605-.076-.784-.006-.687.235-.28.472.121.826.499.385.117 3.618 2.535 2.604-.101-1.729-1.422-.588-.779.192-.968-.421-.883-.568.601-.625.313-.665.072-.698-.108v-.882l.617.029.193-.029v-.813l-.421-.088-.264-.203-.593-.601 3.452-2.058 1.531.725 1.865 1.333-6.848-6.061-.005-2.171.121-1.035.486-.553 3.307-1.982.922-1.031.734-1.828h-.421l.482-2.47.226-2.453.414-2.054 1.043-1.266 8.017 1.808 1.469.979 1.11 1.451.011.639.321 1.868.378 1.619.181-.116-.047 1.321-.165 1.04-.274.905-.403.885 1.142-.932.497-1.098.119-1.205-.016-1.283.273-1.741.54-.748.342-.847-.306-2.005 1.099.964 1.921 2.589 1.039.524 1.748 1.382.801.253.648.424.044.992-.246 1.093-.253.757-.73.972-2.207 2.184-1.117 3-1.191 2.247-.589 1.624 1.155-.184 3.703-4.175.593-.337.412-1.854 1.019-.84 1.249-.598 1.142-1.156.689-2.065.37-2.16.633-1.691 1.52-.685 2.682.524 2.617 1.182 3.052 2.301v.894l-.087.428-.052.067.137 1.205-1.46 1.725-.922 2.17-.804 2.464-1.104 2.599 1.075-.48 1.054-1.061 1.699-2.523.074-.475-.078-.566-.016-.466.253-.204.264-.132 2.528-2.782.186-.267 2.4-1.7 1.672-.818.625-.078 1.233.412 1.861 1.783 1.406.399-.885-.885.67-.524.369-.715.284-.685.417-.453.705-.116 1.178.607.859.175.547-.361.476-1.575.699-.365h2.375l1.305.424.549.029.698-.453.542-.86.79-2.005.562-.398.571-.137.099-.132.076.291 1.155 2.321.343.32 1.392-.291 5.339.889 5.333-.889 2.689-1.275 4.274-3.281 2.395-1.159 3.884-.754 1.997.062 1.426.692-.615.643-.235.175 1.509 1.422 1.746-.145 3.551-1.277 3.461 1.597 1.706-.02.826-2.397-1.055-.463-1.139-.843-1.01-1.232-.665-1.624 1.424-1.942.945-.634 1.034.19.244.64.159 1.117.244 1.053.457.468h1.912l4.088-1.302 2.5-.253 3.251 2.379 2.066.02 4.104-.842 2.104.936-.389 2.178-1.187 2.455-.298 1.781-.702.992-.934 2.159-.569 1.006-1.632 1.59-.454.787-.699 2.316-.002 1.937.658 1.427 1.321.829.775-.092.692-.408.593-.154.486.654.205 1.398-.273 1.062-.562.678-.64.195-.577 4.205-2.707 5.342-3.3 4.852-2.353 2.715-2.601 1.534-5.456 1.958-2.19 1.364-3.306 3.382-.555 1.098-.482 1.965-1.166 1.977-2.606 2.96-13.688 11.356-4.621 2.388-1.141 1.16-.544 1.25-.614 2.386-.349.856-.553.584-1.558.885-1.975.464-3.994 2.806-.593.372-.419.704-.23.974-.036 1.232-1.019-.587-.295-.287.427-.73-.868-.459-1.596-.211-1.782-1.079-.294.472.173.97.541 1.037.934.717 1.941.09.954.468.421.531 1.318 2.278-1.287 2.191-.305 1.203.278 1.339-.983-.018-1.851-.734-.958.017-.569.457-1.095 1.512-.501.428-1.742-.051-3.582-1.864-1.728-.482-5.029 1.335-1.374-.967-2.008-2.834-1.191-1.088-1.252-.444 3.291 4.991 1.986 1.669 2.389.537 2.512-1.216 1.298-.229 1.099 1.044 1.068 1.32 1.478 1.077 1.014-.038-.349-1.958 3.987 2.773 2.189.587 3.513-2.829 1.995.473 1.108 1.48-.849 1.519 2.029.587 2.312-1.057 2.23-2.128 1.764-2.603.941-1.102.772.127.412 1.145-.173 1.902-.485 1.019-8.472 11.213-1.421 1.154-1.644 2.527-.812.849-1.232.255-.974-.47-.308-1.154.774-1.823-1.668-1.629-2.2.831-4.823 4.402-.824.365-1.585.105-4.065 1.147-1.155-.224-1.057.052-.459 1.346-.416 1.601-.947.769-.882.369-4.048 4.14-.56.761-.506 1.165-.508 1.792.311.085.844-.658 1.872-.8.92-.918.875-1.178.638-1.141.753-1.061 2.841-1.763 2.402-2.518 2.655-1.393.508-.061.716.318.824 1.053 3.132.706 1.366-.047 1.001-.802.786-.854 2.706-1.736.954-.156.302 1.464-1.294 2.42-1.802 2.269-1.82 1.44-2.19 3.537.193.596.197.43.213.311.244.251-2.891.285-1.202.71-1.05 1.384.587 1.078-.426.161-1.437-.455h-3.401v.869l1.785-.06.85.199.766.582L708.5 233l-.694 1.176-.715.912 2.25.613 1.12.067 1.303-.678 1.014-1.279.472-.76.045-.331 1.404-.114.658-.341 1.164-1.729.904-.898.979-.643.882-.247 1.13-.557-.714-1.277-2.328-2.124 1.735.114 5.711-.909 5.984.591 1.919-.591 9.51-7.157 3.716-.871-.461 1.279-.32.549-.495.56.82.672.801-.067.844-.379.94-.229-1.282-3.109 2.29.816 1.238.148 1.193-.242.889-.684.998-1.265.591-1.481-.358-1.339.614-1.201.562-.105.609.351.77.157.799-.327 1.659-1.039.752-.229 7.751.339 4.652 3.086 8.185 2.865 2.726.094 2.517-.806 3.85-2.809 1.035-.374h9.846l.425.255.629 1.138.627.271.696-.242.52-.394.499-.085.658.721 2.12-1.039 5.328 1.866 1.957-.105.99 1.603.497-.174.441-.896.817-.531 1.115.132 2.939 1.528.457-.887.481.17.562.54.667.174.714-.403 1.066-1.048.56-.208 1.211.759.752.208.334-.569.19-.654.445-.627.58-.475.524-.233 1.328.251 2.753 1.714 1.259.423 1.612-.343 3.72-2.842 1.01-.251 6.882.251.045.441.38 1.01.54 1.082.539.65.762.094 1.032-.916.763.024.423.489.714 1.565 5.279 5.97.56 1.994.215 2.11.349 2.056.958 1.848v.719l-.25 1.456.653 1.279 1.769 2.016-.887.11-.42.873.055.997.594.482.77.311-.41.713-1.446 1.272-2.552 3.505-1.079 2.086-.155 1.595-6.512 6.151-1.608 2.522-4.009 10.696-1.487 5.97-.349 2.347.17 2.142 1.187.934.19.985-.994 2.101-.036.081-5.626 9.072-1.916 4.122-.822 4.112.186.968.367.697.309.846-.007 1.394-.307.64-1.146 1.497-.248.584-.385 2.061-.918 1.281-2.14 1.716-1.673 2.401-1.495 2.697-1.014 1.223-3.473 2.236-1.05.938-1.106 1.324-.593 1.239-.3.629-.678 4.982-.752 1.385-.851 1.144-.627 1.68-.005.885.39 1.55.04.663-.347.789-1.112 1.216-.654 1.962-.963 1.216-5.841 4.225-1.07 2.379-1.271.918-2.394 1.197-.557.864-1.178 2.986-.6.285-.441-.285-.494-.459-.779-.24-3.397.5-14.722 2.161-.309.047-2.408 1.111-2.159 1.683-6.497 6.668-2.614 1.109-2.698-.903.745 1.058 1.091.421 2.646-.009 1.303-.357 2.63-1.592 2.418-.605 12.416-6.344.645-.752.578-1.073 1.343-.863 1.5-.257 1.063.692 1.111 1.106 2.2.184.746 1.405.119 2.146-.459 2.011-.831 1.678-.994 1.153h1.531l.235.343.276 1.548.121.417.705.329.553.096.459.247.414.795 5.698.439 1.363.703 2.122 1.994.5.282 2.265 2.021v.689l-3.32 3.284-1.135 2.222-1.475.708-3 .683-3.949 2.727-1.404.4-1.531-.264-3.822-2.034-2.989-.058-1.513.423-.645.82-.481 1.031-3.311 2.374-3.457 3.989-1.027.601-1.247.45-.67 1.192-.868 3.765-.706 1.635-.922.645-4.366.236-1.242.562-2.16 1.494-2.47 1.158-2.438.421-2.438-.168-10.067-2.997-5.539.101-2.4-.809-2.205-1.577-.065-.062-2.226-2.169-1.302-1.669-.865-.573-1.276-.04v.692l3.723 2.636.533.858.517.3 2.145 3.842.311.818.549.19 1.193-.24.425.05.441.584.296.753.405.663.75.287 3.522-.784 1.392.022 10.713 3.044h2.937l1.081-.526.614.04.662.898 1.057.939 11.315.925.441.354 1.114 1.577.381.421.779.15 3.896-.408 4.719-2.092 1.451-1.259 1.034-1.731 1.07-1.373 1.551-.191-.351-1.348-.168-.5-.289-.441 1.133-1.012 1.845-2.231 1.267-.567 10.446.759 1.193.544 1.769 2.48 1.13.722-.557 1.836-.329.585.877.313 1.59-.304.94.681.26-.446.638-.58.412-.495.913.965 2.539 1.815 2.375.77 3.952 3.358 2.688 1.467 10.026 1.969.55.298.341.91.091 1.025.146.823.486.342 1.339.547 1.202 1.38 3.571 7.092.821 1.623 8.212 10.625.913 2.574.629 1.357 1.344.954.34.782.273.795.325.39.582-.179.396-.522.28-.553.231-.256.696.099.797.414.754.916.551 1.591h-1.265v.687l.748.453 2.187-.63 1.354.175 4.254 3.076v.752l-.343.728.104.802.436.802.654.753-.851.676v.753l.537.354 1.203 1.151v.753l-.522.963.309.529.624.367.437.466.273 1.317.224 7.37-.11 1.068-.322 1.797-.052.589-.015.95.376 2.392 1.54 2.827.173 1.926-.076.518-.121.499-.184.468-.24.455-.268.815.114.722.246.694.137.721.349 1.273.781 1.218 1.431 1.584-.511 1.436.316.672.611.582.394 1.107-.176 1.079-.421.932-.285.954.262 1.127 1.073 1.673.297.787.213 2.354.548 2.318.229.688.239.19.806.363.231.186.094.309.21.89 1.021 2.75.569.984.32.97.284 1.375.412 1.239.71.531.208.304 1.742 1.857.472 1.167.059.663-.112.482-.032.658.072 2.415.157.963.447.383-.168 1.002 3.679 13.46 1.327 3.402 2.181 2.89.958.717 3.293 1.487v.804h-1.269l.011.486.105.334.349.659.153.864.244.789.367.688.513.6-.513.925-.596.535-1.482.675.159.779.305.446.439.192.602.052.172-.175.056-.354.092-.275.295.069.166.271.26.527.154.513-.109.233.75-.148.369-.569.54-3.024 1.088 1.458 1.056.898 1.209.455 2.626.358 3.027 2.041 12.806 4.016 14.012 8.958 1.764 1.754.734 1.492.065.968-.112.837.197 1.089.65.912 2.068 1.539.876.88.935 1.689 1.071 2.556.754 2.701.025 2.148.217.708.345.699.485.546.652.227-.26 1.109-.168.421.517.546 1.171 1.745.479.556 2.541.685.629.473.735.741 1.435.737.465 1.075.439 2.832.137.437 1.65 1.758 7.627 3.073 2.239 2.068-5.507 3.053-1.917 2.24-1.542 4.198 1.374 2.965 1.789 6.938 1.095 3.178 6.6 10.367 11.126 16.704.983 3.472-.77 3.409-.356.387-1.343 1.107 1.354-3.235.289-1.783-.983-.781-1.292-.442-2.697-1.993-1.348-.504-1.227.295-2.413 1.515-1.317.347-1.518-.146-1.423-.432-1.267-.681-1.086-.898-5.937-7.773-2.183-1.633-2.199-.356-.593-.094-7.847 2.674h-4.941l-2.113.511-.441-.179-1.54-1.526-.184-.244-3.604-.423-1.328.423-4.242 2.881.568.206.549.309.521.412.482.511.933-1.667 1.724-.817 1.885-.132 1.455.398 2.535 1.851.669.728.922.62.992-.381 1.726-1.386 11.156-2.083 1.737.754 1.185 2.117 4.468 7 2.778 1.449 1.921 2.312 1.075.786 2.18.334.894.377 2.91 3.675 5.971 4.926 1.191.538 1.182.273 1.11.504.994 1.185.193.784.136 1.073.168.95.356.412.569.195 1.8 1.294-.473.715 1.086.824.967 1.447.699 1.658.269 1.42 5.088 14.096.878 3.929.024 4.451-1.298 5.43-.37.721-.694.291-1.238.258-1.018.659-5.572 5.678-1.156.482-.85.669-4.903 7.278-1.305 1.414-1.469.602-.963.681-.846 1.443.105 1.256 1.894.144 3.233-.769.817.327 1.733 1.463.851.327 1.48 1.022 3.208 4.999 1.515 1.85 1.106-.822 1.319-.192 2.485.246 1.014.592 1.748 2.515.914.477v-.703l-.329-1.611 1.258-1.926 1.627-1.841.818-1.378.333-2.511.795-2.782.97-2.527.83-1.763 2.15-2.251 3.08-1.451 3.35-.657 3.02.126-.47-.771 1.27-.468 1.38.329 1.39.594 1.33.316h5.31l2.47.649 2.84 1.398 2.95.741 2.84-1.31-.66-.475-.74-.282-.78-.096-.8.085v-.708l19.22 4.681 7.56 3.903 15.46 11.925 1.81 2.075 1.48 2.537 1.17 4.864 1.14 2.994.82 3.022-.41 2.184.38 1.577.12 2.025-.07 3.692 1.47 4.8-.25.916-.79.983-1.57 5.294.06.99-.15.981-2.75 7.325-1.98 3.608-.67.746-.66 1.156-.14 2.61.16 4.583-.33 1.973-1.13 3.497-.24 1.839-.89 2.741-.11 1.405-.32.558-4.9 2.078-1.05 1.212-.93-.73-.32.833-.18 1.304-.5.672-.43.358-1.5 2.341-4.36 4.839-.71 1.131-.7.28-4.23-5.49-1.84-.601-3.09-2.509-1.7-.347v.692l2.22 2.115 1.3.947 2.86.672.65.334.27.457-.04 1.631-.21.448-1.27-.32-.73.098-1.33.437-.74.09-.78-.211-1.74-1.165-1.38.099-3.03 1.021-1.58.256 1.64.777 10.38.667 1.24-.752-.22 1.888-4.92 5.076.8.607.97.43 2.28.34.64-.636.47-1.035.27-.109.1 2.128-.74 1.592-3.56 3.325-3.2 2.177-2.02.858-4.36.647-1.17-.177-.58-.515-1-2.054-2.03-2.793-.55-1.342-.18 1.913-.93 1.091-2.3 1.131-1.92 1.807-.46.251-.03.549-.18 1.205-.29 1.205-.32.549-.73.177-1 .885-.64.307-.76-.014-1.38-.589-.6-.148-1.53.173-2.88 1.133-1.39.82.97.48 1.14.152 1.05.531.71 1.588 1.77-1.756 3.98-.881 1.9-.801 1.8-1.474 1.1-.209.96.995.12.851-.18.983-.25.753-.15.164.13.797.24.791.49 1.223-.63.54-.24.858.01 2.334-.21.539-.49.5-.96.71 1.68-.114.6.347.24.453-1.71 2.878-3.19 2.894-2.8 1.765-.75.468-2.8.894-4.93-.806-1.73.125-.04-.049-.82-.025-.24.045-.17.029-.08.155-1.2 1.149-.92.307-.84.035-.81.209-.83.82-1.01-.961-.34.024-1.36.081-4.32 1.138-.323.73-.176 1.006-.397 1.12-.821.994-.898.522-.927.35-.913.528 3.98-.683.525-.318.29-.703.21-.708.29-.318 4.07-1.129 9.96 1.465.92.652.77 1.424.08.957-.63.549-1.29.17-2.23-.5-.97.036-1.97 1.904-2.28.553-1.14.74.49.56.42.694.46.598.59.255h5.35l2.56.684-.5-1.174-.28-1.382.31-.968 1.31.049.12 1.277.68 1.83.88 1.638.68.71 13.26 1.519 7.71-2.402 20.11-1.881 1.52.918-.57 3.275-.22.634-.29.593-.36.484-.4.33-2.23-.014-.33.354.19 2.142.45 1.68 1.02 2.643.55 3.947-.52 3.801-1.26 3.167-1.7 2.054-4.16 1.438-1.71 1.318-.71.071-1.35-.116-.74.271-.61.625-.53.703-.48.497-1.24.518-4.08.101-1.22.336-1.26.851-2.45 2.255-3.19 4.678-.61 1.16.16 2.56.67 3.828-2.16.87-4.7-1.557-4.21-1.394-2.47.823-6.11 5.987-2.51 1.145-13.498 2.9-2.317 1.04-.314-.02-.685.923-.613 1.043-.132.386-2.129 1.4-2.313 3.308-2.313.036-1.231-.188-2.854-1.075-.681-.121-2.201.024-.562-.329-1.09-1.075-1.153-.39-2.648-.193-1.057-.385-11.881-4.354-2.053-.202-.172.092-1.511.806-2.277-.923-7.968 2.883H936.33l-10.202 3.43-.55-.193-.517-.457-.52-.316-.582.233-.345.858.426 1.859-.294 1.011-1.182.674-1.423-.466-5.689-3.656-.459-.585.349-1.007.833-.65 1.798-.735v-.609l-.62-.461-1.218-1.226-.721-.394-.302.329-.759.433-.45-.121.618-1.317-.672-.379-.587-.32-1.968-.37-1.499-.009-.437-.004-1.175.34-.8 1.752-.566 2.367-.846 1.862-1.653.204-1.262-1.432.584-1.722 1.142-1.687.383-1.346-1.131-.607-.051.004-3.842.305-.927.298 2.181 1.83.369.623.159 1.915-.23 1.05-.82.766-.813-.044-1.135-.441-1.014-.646-.436-.613-.417-.917-2.008-1.084-1.475-1.283-2.053-.715-.826-.441-1.07-1.311-1.267-1.559-6.876-3.888-1.068-.603v.616l.621.314 1.15.735.77.12 1.527 1.871 4.863 5.472.548 1.342-.188 1.176-1.404.502-3.993.354-.918.313.456.345.401.39v.614l-2.839.528-1.603.585-.705.562-.273.045-2.044-.372-2.024 3.719-.136.401-.112.024-1.216-.36-1.334-.899-4.269-.817h-.141l-1.252.011-1.375.408-2.395 1.274-1.133.269-1.603-.3-2.344-.446-1.392.072-1.243.405-1.184.645-.034.025-1.058.849-.948 1.138-.678.497-.268-.672-.112-1.01-.197-.533-2.394-.67-1.632.117-.501-.117-.217-.367-.045-.121-.477-1.185-.32-.276-.569.504-2.153 3.53.817-.112.736-.268.692-.437.685-.596 1.339 2.415.725.737 1.146.273 1.039-.011.914.204.432.759-.441 1.673.918.592.358.136-2.167 2.688.13 1.463-1.153.547-5.076.107-1.059-.228-4.681-2.227-11.543-1.304-2.145-1.35-1.325.192-2.339.793-.73.948-.775 2.099-.347 2.096.573.948 1.572.515.157 1.245-.659 1.546-.877 1.389h-.385l-.052-3.712-1.442-2.444-13.047-10.066-10.708-4.035-1.401-.055-3.627.842-1.073.248-2.207 1.483-1.473.173-2.36-.672-.725.228-1.419 1.185-.318.184-1.035.896-.6.264-.649-.065-1.2-.533-.707-.143-1.191.204-2.089.976-2.534.616-.721.988-.562 1.308-.943 1.344-4.522 2.007-1.406-.071-1.048-.341-.837-.804-.77-1.472-.81-2.345-.253-.397-.177-.096-.135-.213-.197-.208-.362-.096-.208.208-.072.464.065.463.781.892.826 3.38.542 1.304-1.11 1.064-1.003 1.357-.902 1.673-.818 2.001-.691 2.681.058 1.922 1.095 4.093-1.388.091-1.395.363-1.077.809-.425 1.409.434 1.615 1.079.524 2.774-.132v.665l-.625 1.702-.051.359-.562.087-.477.278-.322.502-.424 2.446-.745.524-.974-.314-.998-.853-.45 2.182-1.328.802-1.399.38-.649.937-.334 1.651-.636 2.027-.358 2.3.479 2.44-.936.49-2.509.73-1.066.11-1.395-.34-1.135-.58-.974-.11-.918 1.03-2.326-2.13-3.604-4.51-4.097-3.76-.689-.318-.574.148-1.591.909-.614.215-.358.222-.837.952-.511.222-.691-.15-.641-.381-.989-.867.141-.349.244-.921-1.368-.39-1.386-1.012-.651-1.49.857-1.837-2.29.159-.685-.159-.795-.558-.369-.629-.269-.788-.502-1-.476-1.619.472-1.378.846-1.315.672-1.397-1.24.62-.632-.06-.685-.563-.195.785-.064.266-.477.706-.632.342-.761-.031v.605l.905.614.253.992-.224 1.039-.549.755-.806.262-3.018-.262 1.053 1.512 3.541-.573 1.397 1.061-2.164.61v.667l.521-.143 1.22.143-.463.728h1.742v.607l-.703.256-.417.519-.071.668.333.679v.602l-1.323-.087-.667-1.196-.587-1.382-1.074-.668-5.317-1.395-2.864.309-4.517 2.862-2.438.955-10.245.602.016.159-.195.278-.318.237-.351-.009-.856-2.665-.445-.072-.365.251-.336.327-.36.164-1.261.118-1.28.426-.697.802.491 1.254v.731l-.432.36-.578.632-.513.702-.217.63.092.6.334.65v.42l-.744 1.82-.107.54-.625.69-3.087-.49-1.184.5-1.158 1.4-1.088.64-2.646.89-.837.86-2.602 4.52-.754-1.22-.363-3.44-.799-.72-1.231.35-.041.86.11 1.11-.79 1.06v.6l.378.29.938 1.1-.524-.04-.409.18-.768.53-.594.44-.08.71.04.8-.253.71-.553.42-1.997.9.705-.03.535.15.885.54.309.05.721-.14.284.09.145.43.222 1.29.253.27.271.82-.808 1.79-1.78 2.7-.575.13-1.254-.24-.761.11-.426.37-1.847 2.19-.723 2.27-.212.52-.558-.22-.638-.52-1.871-2.09-.303-.46-.266-.68-.222-1.21.049-.79-.024-.68-.441-.96-1.784-2.92-.994-1.22-1.223-.9-3.752-1.79-2.525-.46-2.082-1.28-1.041-.44-1.299.07-1.63.58-1.188.99.017 1.34.374 1.69-.678 1.3-1.115.9-.933.48-2.555.83-2.986.32-2.353-.92-.654-2.95.602-.07.446-.19.268-.4.005-.61-.168-.46-.199-.26h-.103l-.338-1.83-.114-1.03.239-.45.117-.33 1.175-2.03.492-.34 1.829-.69 3.972-2.31 2.129-.75 2.395-1.55 1.362-.03 1.932 1.85 1.253.63 1.283-.8.9-1.45.441-.96.186-.91.331-.36h2.221l2.308-1.3 7.135-7.526 2.288-1.61.851-.287.213-.502.051-1.133-.087-1.221-.414-1.965.703-.49.942-.072.468.045 4.328-2.341.132-.558.588-1.321.558-3.806.071-1.985.211-1.686.6-1.353 1.247-.995h1.271l.457-.336.811-.945.472-.119.36.54.271 1.142.168 1.342.054 1.118.419-.26.159-.155.235-.311 1.128.695 2.583.136 1.003.502-.685-1.308-1.088-.654-2.053-.775-.973-1.266.1-.91.314-.817-.332-1.026v-.611l1.55.32 4.638-.32 1.789-.592.99-1.438.721-1.783.982-1.615-.385-1.467.217-1.053.625-.473.86.253 4.412-3.819.73-1.221.484-1.735 1.171-1.342 2.601-1.965 1.69-3.434-.3-8.709.694-4.095.432-.828.882-2.489-.248-.757-.233-1.418-.056-1.387.305-.62h5.549l.679.226 1.287.972.625.218 3.615.398 1.272-.398.933-.677 4.212-4.737.347-.574.277-.593.385-.534.654-.387-.39-.957-.75-2.701-.136-.715-.213-.622-1.066-1.609-.42-.858 2.084.177.466-.177.402-1.07-.091-1.049-.464-.848-.698-.482v-.618l4.746-1.907 11.391-1.073 2.335-.891 1.171-.202h4.504l1.366-.266 1.983-1.066 1.117-.095 8.062 2.124 5.01-.17 7.796 1.821 1.858 1.765 1.206.578 7.118-.316 4.475-1.409 2.25-.316 4.112.217 2.443-.36 1.759-1.219.464.681-.855 1.42.855.681 1.061-2.056.215-.724.11-1.276-.121-.643-.215-.536-.197-.943.033-3.729-.185-1.895-.699-1.181 1.209.374.638-.284.005-.011.23-.905.038-1.55.493-.919.866-.905.399-.929-.941-.995 1.355-1.427 1.99.408 2.295-2.251 4.222-5.665 1.11-.901 1.102-.647 1.224-.379 1.471-.123 1.321-.551 1.263-1.308 5.503-9.498.512-.403.647-.287.549-.441.226-.891.148-.825.342-.927.419-.847.365-.589 3.564-3.77 2.129-2.93 1.075-.602 2.668-.934 1.019-.934.483-1.156-.161-1.143-.915-.893-.271 1.868-1.12 1.053-1.435.47-1.236.114-1.17.446-.858 1.093-.754 1.351-.882 1.227-3.712 2.48-.589.638-.567.981-4.047 4.873Zm98.588 89.85 1.271 2.019v.741l-.288.005-.168.172-.139.249-.213.239-2.33.697-.994.493-1.727 1.541-.364.473-.155.495.036 2.119-.056 1.095-.213.468-6.899 2.056-2.264-.654-8.124-5.792-.426-.605-2.066-1.481-.714-.291-2.349.289-1.018.421-1.12.697 1.505-2.762 2.454-2.126 5.433-2.567-.137.329-.159.666-.118.351 1.526-.183 1.454-1.203 2.122-2.646 1.556-1.095 1.417-.101 9.436 3.88 1.54-.04.65.132.752.58.038.249-.076.828.038.265.175.067.539-.137.175.067Zm7.654-9.354v.609l.329.321.558.69.423.338v.735l-5.102-.735v-.665l1.374-.578 1.628-2.838.79.044.595.547.155.589-.224.531-.526.412Zm116.576-59.958 1.31 1.447.6 1.467-.36 1.194-1.55.663-7.27-.613-1.23-.475-1.09-1.109-.88-1.367-.59-1.207.8-2.746.44-.607.81-.224 7.72 2.69.61.35.68.537ZM686.64 699.263l.282.575.549.632.343.802-.323 1.127-.515.255-.624-.262-1.279-1.154-1.269-2.383-.609-.73-.546-.148-1.809.148-.39-.224-1.077-1.846v-.712l1.662-1.49.725.432.714.025 1.115-.141.461.394.938.93.833 1.109.593 1.261.226 1.4Zm29.847-3.92 1.821-.077.864.191.759.598-1.279 1.409-2.16 4.079-1.491.856-1.54.297-1.574.802-1.469 1.156-1.202 1.36-.228.329-.117.267-.04.419v.761l-.063.834-.186.094-.27-.101-2.192 1.586-.972 1.243-3.969 2.381-.654.22-.768-.153-1.603-.719-.018.238-.373.342-.495.224-.388-.152-.091-.6.038-.963.107-.881.139-.399.486-.448.721-.972.327-.974-.663-.444-.943.471-1.368 2.005-.917.362-.061-.324-2.064-1.804-.175-.076-.499.133-.177-.057-.04-.28.081-.862-.041-.28.016-.305-.076-.761-.206-.775-1.263-1.208-2.068-4.072-1.118-1.409v-.779l.361-1.053.127-1.588-.024-2.276.309-3.474-.137-1.515-.633-1.561 1.094-.815 7.979-2.733.782-.025 4.318.719 1.171.061 2.378 1.366.611.567.302 1.25.157 1.25.208.569-.056.28.772.6.9.511.332.029.062.531-.071.714-.02.634.226.26.058.242.983 1.185.342 1.201.119.887.262.564.788.199.795-.102 1.426-.446.772-.103.365-.238.551-1.019.362-.233.426.123.786.536.279.121ZM583.286 481.427l3.215.495.654.32.152 1.172-.387 1.38-.591 1.23-.453.703.097-.88.024-.525.068-.392.235-.508-1.44-1.239-1.54-.152-1.545.177-1.43-.217.687-.655.689-.49.739-.302.826-.117Zm72.612-21.737-1.384.981.121 1.447.638 1.718.159 1.799-.859 1.01-1.606.697-2.852.538-3.351-.341-2.85-1.015-2.59-1.642-2.555-2.255v-.748l-.031-.726-.571-2.957-.251-.833v-.753l.32-.273.121-.278.117-.349.293-.529-1.54-2.202-1.162-2.204-.549-2.643.309-3.571.842-2.383 1.507-2.375 1.923-1.704 2.106-.392-.129-.379-.159-.824-.137-.379 1.621-.107.51.107 4.041 2.048 1.1 1.043 1.287 2.066.871 2.347 1.247 5.459-.714 1.49 2.69 2.809.148 2.47-.611.377-.895.031-.574.385.343 1.465.51.408 2.546 1.167Zm2.554-26.515.67.464.479.842.121.928-.423.716-.786-.053-.602-.946-.735-1.951-4.068-3.864-.647-1.845-.723-3.11-.13-1.436-2.153-1.485-.401-.822-.495-1.704-.761-1.931.078-1.732 2.033-1.086 1.928 1.655 1.896 2.139.562.354.553.099.419.338.358 2.518.445.533.573.217.533.489.761 1.48.571 1.458.441 1.517.647 3.452-.08.676-.401.578-.663 1.512Zm-62.333 2.26-.15 1.261.027 1.253.19 1.12.36.896v.692l-.741.378-.644.464-.493.652-.289.907-.385-.826-1.119 1.718-1.435 1.312-1.648.925-1.751.572-2.648-.433-.795.433-.463 2.329-.262.417-.598.679-1.576 1.301-1.587.591-1.485-.528-.87-2.46.369-2.506 1.357-1.573 3.378-1.951-1.343-3.909-.766-.941-2.472-1.225-.523-.036.264-2 1.585-2.041 2.836-2.764-1.359-.685-1.784-.307-1.762.293-1.265 1.078-1.464 3.844-.875 1.814-1.993 1.405-1.977 2.992-.788.896-1.744.291-.783-1.052.067-1.806.795-1.962-.314-.204-.244-.432-.329-.191.665-1.814 2.778-4.164-2.088-1.512.817-.717.515-.694.259-1.046.074-1.743.168-1.391.473-.881 2.25-1.639 3.402-1.537.737-.831.703-.56.81.361-.472.705-.766 3.15v.692l.466 1.991.466.813.768.231v-.759l-.471-2.182 1.337-2.471 2.006-2.025 2.225-1.321 1.547-2.146.802-.475.886-.249.929-.598.82-.75.557-.683.625.217.4.434.215.675.267 4.742.846 6.169.195 3.353.383 1.033.87 1.131.943.898.587.374.297.406-.156.918-.285 1.019-.085.677.314.604.412.415 1.005.499Zm-10.921-41.558.466-.397.974.41.517-.428-.193-.428-.1-.3-.173-.728 1.05-.15.97-.463.709.026.289 1.351-2.01 3.479-.717 2.235.177 1.976-1.247.945-1.704.5-1.712-.054-1.29-.694.972-.791.466-1.286.32-1.489.562-1.356 1.303-1.718.371-.64Zm25.423-1.105 3.184-3.257 1.903-1.274 1.336.643.229 1.07.177 1.539-.083 1.378-.981.977-.938 1.664-1.251 1.299-2.49 6.221-5.252 10.469-1.361 4.453-.654-.244-1.538 1.958-1.034.556-.455.853-.62 4.276-.416 1.698-1.587 1.125-2.434-.164-2.23-1.485-.978-2.823-.549-5.337.121-1.931.609-1.739.936-.772 1.061-.563 1.008-1.108 1.84-1.535 4.883-.965 2.037-1.754-1.475-.04-2.295.651-2.109.081-.927-1.794.768-2.545 1.748-2.885 1.917-2.37 1.276-.99 1.885-.591 4.739-4.745Zm6.808-10.01.462.838.452 1.749-1.281 1.158-1.932.647-1.491.195.672-1.836 1.003-1.076 2.115-1.675Zm3.437-6.888.329.392.304.264.307-.056.338-.602.128 1.579-.473 1.61-.624 1.629-.578 3.501-.631-.683-1.189-3.038.638-1.068.69-2.684.761-.844Zm0-6.207.77-.614 1.424.264.826-.421-.363 1.344-.593.914-.336.959.396 1.463-1.414.882-1.158-.755-.401-1.796.849-2.24Zm4.683-10.752 1.959.083.882-.211.598-.643-.954 1.945-1.13 1.31-1.357.65-1.661-.065.3-1.06.365-.728.998-1.281Zm-37.505-6.23-3.269.193-1.556-.249-1.632-1.487.649-1.089.697-.759.776-.423.889-.036.907.983 1.88 1.557.659 1.31Zm-41.026-7.712 3.202-1.214 1.578.083.786 1.978-.878 1.415-3.77.473-.109 1.888-1.243 1.084-1.383.281-1.344.582-1.135 1.978.37 2.009-1.301.061-3.909-1.817-.548-1.313-.359-1.763-.633-1.865 1.357-.773 4.213-.699 1.397-.524 2.301-1.517 1.408-.347Zm70.411 11.63.544.771.909 1.586.457 1.554-.79.71-2.037.045-.898-.45.112-1.21-.376-.477-.388-.219-.423-.057-.477.057.204 1.476-.748 1.328-2.046 1.805v.838l.994-.768 1.12-.495 2.352-.343 1.015.535-.421 1.224-1.075 1.328-5.527 3.806-2.461.593-1.988-1.344.401-.334.685-.741.573-.961.081-1.03-.513-.619-.763.07-1.529.549-.321.356-.34.795-.436.795-.587.356-2.1.48-4.959 2.564-1.063 1.208-.712.593-.781-.21-.773-.522-.712-.282-.633.228-1.48 1.042-.665.338h-5.785l-.369.356-.287.786-.38.796-.647.356-.775-.07-1.292-.439-1.71-1.037-1.129-1.243-.906-1.718-.37-2.085.569-1.593 1.343-.925 1.567-.316 1.241.219.989 1.185.829 1.638.87.97 1.142-.795v-.769l-.492-.114-.269-.188-.213-.224-.34-.233 1.135-.513 2.812.636.98-.508 1.057-1.015 4.296-.907 2.806-2.048 1.188-1.236-.383-.565-1.244.343-3.645 2.034-3.027.782-1.551-.11-1.223-1.091-.291-1.205.274-1.127.599-.838.695-.32.826-.215.472-.544.907-2.321.188-.822.282-.797.535-.688.598-.22 2.205.22 3.718-1.767.748-.616.363-1.143.045-1.097-.262-.928-.573-.681-4.017 2.099-1.323.206-.475.285-.53.502-.558.215-.582-.574-1.014-2.33-.562-1.034-.761-.84-1.285-.755-5.827-1.013-1.198-.566-1.034-.787-.865-.882 2.978-2.251-.517-1.051-1.279-1.44-.371-1.373 2.288-.213 1.016-.48.99-.923.551.876.548.457h.524l.463-.493.155-2.188 1.84-1.434 2.458-.779 2.008-.235.855.609 2.933.941-.105.513-.17 1.232-.112.506 1.925.17 1.541 2.281 2.525 6.113.19.79.002.746.162.56.649.222h6.226l.501.405.45.672.464.433.96-.663.614-.126.613.126.436.345 1.38 2.193.532.468.607.183 1.153-.197.412.014.714.587.846 1.037.699 1.308.289 1.377.463.245.909-.229.649.45-.32 2.229-.517-.385-.51-.193-1.127-.179Zm-48.023-27.518-.593 1.131-.86 2.298-.443.871-.473.664-.481.483-.58.301-.808.1-2.297 3.152-3.253 2.661-1.041.363-1.504-.663-.73.004-.314 1.044-.244 1.165-.557-.625-.589-1.382-.349-1.091 1.708-.318 1.643-1.631 2.817-4.619.716-.931 2.002-1.524 1.47-.631 1.856-1.649 1.01-.374 1.704-.291.609.318-.419 1.174Zm-58.228-37.845.305.755.186.949.255.89.528.535-1.8-.06-.537.419-.506.73-.501.544-.486.376-.457.265.345 1.059-.529.753-.964.446-.981.148-4.041-.782-.956-.498.034-1.093.705-1.106 1.05-.493.721-.522.306-1.196-.152-1.29-.64-.834 1.52-1.131 1.509-.336 1.157-.979.493-3.095.282.004.206.155.401.625.425.047.322.139.267.237.266.358-.895 1.967-.385.448 2.001 1.053.546.513Zm66.579-5.542 3.255 2.103 1.368 1.566-1.178 1.031v.842h1.661l-.842 4.166-1.202 2.363-1.719 1.042-2.382.242-1.115-.623-1.019-2.726-.882-.623-.94-.445-1.955-2.054-1.166-.63 3.752-4.348 1.932-1.572 2.432-.334Zm-17.516.784.967-.831 2.149-1.279 1.173-.307.723.654 1.516.397.741.582-1.637.905-2.012.354-2.006-.094-1.614-.381Zm40.351-26.757-1.634-.685-1.431-1.521-.381-1.597 1.491-.93 2.134.45 1.643 1.662.244 1.79-2.066.831Zm-80.058-4.733.732.775.582.943.674.663 1.021-.085-.307 1.689-.582.634-.73.385-.734.901-.369 1.041-.65 2.373-.445.918-1.207.571-4.791-1.283v.712l4.001 1.248 1.106 1.111.553 1.769.28 2.431-.137 2.291-.694 1.367-1.081-.697-1.193-.211-2.403.121v.787l1.106.201 2.241-.309.947.108 1.075.907.723 1.214.775.952 1.249.125v.715l-1.449 1.528-5.142-1.078-1.952 1.192-1.805-2.157-.541-1.23-1.617-6.037-.233-1.857.372-1.344v-.786l-1.061-1.519-.674-.596-.819-.244.79-.927.483-.82.811-2.191.289-1.216.147-.999.309-.677.804-.253.459-1.592-.734-3.51-1.659-5.231 1.227-.923 2.838-1.422.614-.018 5.572 3.945-.531.423-.438.038-1.203-.461v.79l1.375.274 1.961 1.881 1.384.215v.784l-1.726.916-1.337-.649-1.144-1.147-2.583-1.561-1.232-1.826-1.227-1.261-1.423.791.385.376.416.517.334.569.136.522.191.979.454.222.562-.06.497.112 1.504.714.253.244.788 1.4.936.466 1.923.034.974.293Zm-1.236-18.233-.107.504-.027.085-.078-.018-.253.222.532.481.515-.085.531-.269.589-.127.425.197 1.704 1.382-.39.717-.848-.52-1.413 1.306-1.175.08.333 1.141.533.448 1.449-.005.897.358.495.782-.083.791-5.395 1.606-1.632-.381-4.851-3.006-.715-1.348.307-2.169.837-1.801 1.225-1.095 1.46-.072.729.563.768.255.768-.141.71-.674.369.537.497.282.609.072.685-.098Zm74.701 15.798-.685-.976-.108-1.933.502-7.444.463-1.922 1.003-.918 1.798-.231v-.789l-.432-.551-.341-.604-.501-1.223.698-.733.625-.06 1.263.793v-.874l-.887-1.577.558.157.472.311.38.482.292.627-.262 1.765-1.017 3.409-.911 4.01.061 3.539.483.856.86 1.906.349 1.895-1.057.869-1.021.408-.985.748-1.003.39-1.067-.686.167-.831.101-.338.202-.475Zm5.991-19.835-.963-.52-.39-1.227.168-1.55.723-1.456-.273-.307-.018-.114-.134-.451.425-.698.439-.493.421-.085.419.557-.8 4.483-.017 1.861Zm-72.332-15.698.922.067 1.368.03 1.153.663.562 1.444-.647.654-1.055 1.96-.425.489-.866-.162-.625-.815-.477-.905-.407-.425-.692-.256-1.415-1.407h-2.787v.867l.725.072.437.246.069.475-.374.731v.866l1.8-.136.551.549.202 1.577.429 1.05 1.012.043 1.995-.697-1.22 2.54-1.518 1.093-3.64.336-.457.171-.902.577-.381.039-.434-.469-.549-1.532-.291-.374-.819.226-2.628 2.146v.869h4.486l3.661-1.082 1.251.213 1.061.412.403.397.235.779-.21.728-1.263 2.447-2.595-.189-1.285.218-1.025.835-1.01-.779-2.178.179-1.11-.264-.587-.41-.235-.283-.716-1.375-.218-.634-.288-.629-.502-.563.537-.056 1.203-.813-2.053-.188-3.761-2.491-1.917-.481-.425.741-.419.52-.434.246-.497-.103-.772-.497-1.006-.412-2.827-2.086v-.795l1.408-.999.974-1.998.844-2.312 1.025-1.924 1.323.755 4.249-.755v.798l-.485.076-1.214.721 1.113 1.508 1.851-1.878 1.962-2.874 1.45-1.451v.721l-.38.408-.291.479-.6 1.494 3.403 1.441 1.318.152v-.795l-.416-.103-.862-.692 1.325-.583 2.922-2.224 1.703-.294.782 1.091.235 1.087-.383.972-1.095.748 1.014.645 1.885-.994.82.593Zm35.213 35.533-1.023.899-5.727-1.978-1.462-.979-1.17-1.411-.477-1.656-.578-3.013-2.586-1.978-.665-2.591h3.829l-.867-1.01-.555-1.246-.119-1.395.462-1.463.837-1.261.647-.325.591.383 3.295 4.899.388 1.062.575.725 1.126.901.824.184-.358-1.452v-.717l.266-.226.255-.367.291-.193-1.072-1.331-.168-.255-.177-.383-.562-.836-.112-.448.153-.499.573-.24.127-.401.495-.566 1.111.141 1.838.855-.614-2.101-1.583-1.836-1.9-1.277-1.552-.412.822-1.15.658-1.727.132-1.664-.721-1.008v-.876l1.288.018.882.885.705 1.051 1.374.931.24.957.096 1.068.173.728.593.737.425.341 2.899 1.626.674.614.705 1.077.883.981.826-.094.87-.452 1.053-.076-1.415 3.456.62.188 1.334-1.727.737-2.276.828.43 4.737 6.337v-.788l-.304-.392-.323-.755-.264-.439.036-1.591-.866-1.467-2.145-2.565-1.034-2.428.23-1.182.838-1.154.783-2.37-.752.128-.712-.123-.609-.319-.443-.481.273-1.591-.327-.938-.524-.677-.311-.772-.072-1.38.139-.399.426-.128 2.493-1.621.419-.451.54-1.4.367-1.409.457-.811.794.37.479-.199.2-.171.21-.427.54 1.218.555.742 1.459 1.223.587.802 1.52 2.616.213.553 2.783 2.388 1.191 1.548.653 1.136.28.965.573 8.08.596 3.474.11 1.599-.168 1.732-.562 2.63-.117 1.563-.345.876-1.643 1.619-.568 1.064.754-.748 1.034-.757 1.1-.396.938.32.537 1.187-.349 1.102-.658.95-.377.706.305 1.913.902 1.189.938.856.403.846-.459 1.024-2.1 1.272-.846.789 5.337-.719 1.419.408.269.943-.734 1.05-1.572.751v.788l1.699-.184 1.368-.703 1.272-.163 1.383 1.435.596.46.824.098 1.576-.163.927.459.589 1.041.416 1.082.405.643.898.094.555-.544.374-.741.343-.451 2.585.112 1.778-1.801 1.739-.647 1.829.013 1.039 1.459h4.639l-1.03 2.86.025.751.273 1.245-.242 1.124-.479.928-1.263 1.74-2.265 1.924-.938.5-2.474.253-.432.777-.112 2.538-.598 1.57-1.312 1.065-1.321.741-.595.576-.493.873-3.66 5.188-1.001 1.022-1.153.81-3.32.657-.877-.401-.596-1.492.195-1.978 1.683-2.495-.174-1.008v-.784l.371-.253.177-.323.264-1.064.191-.504.425-.56 1.137-2.186.562-.766.699-.684 5.993-3.068v-.787l-1.719.955-1.74.515-5.317.103-.34-.296-.088-.688-.015-.804-.141-.64-1.476-2.516-.806-1.026-.734-.394.264 1.214.273.91.741 1.812-.658 1.684-.421.8-.624.654.425.851-.763.936-.52 1.282-.575 1.144-.92.5-.799-.892-.359-2.047-.25-2.33-.106-1.727-.501-.631-.343-.164-.349.235-.501.563-.457-.717-.506-.502-.553-.284-.613-.07v.717l.902.932-1.079.739-8.796 2.321v-.852l.707-.627 1.885-2.513v-.717l-1.157-.047-1.108.287-1.053.562-.974.773-1.191-1.868-.938-2.135.679-.309.586-.421.484-.618.38-.932-2.854.271-1.045-.323-2.947-3.953-.156-.386-.309-1.088-.193-.498-.32-.492-.273-.278-.224-.386-.188-.817 2.863-2.068 1.232-.555 1.394.253 1.102.988 1.11 1.38 1.301 1.194 1.666.385-.809-1.53-3.906-3.275-.806-1.001-.414-.359-.714-.141-.697.146-1.354.578-.772-.009.891-.715v-.864l-.497-.103-1.205-.686.448-.17.183-.17.177-.453-.573-.3-.418-.62-.121-.946.304-1.285-.927.253-1.231 1.552-.822.555.316-1.016.067-1.078-.224-1.042-.586-.88-.517 1.521-.715.5-.729.295-.587.91-.101 1.326.688 2.112-.108 1.308Zm-41.023-42.15 2.646-2.921 1.183-.271.573 1.25-1.122 1.302-1.802.84-1.478-.2Zm-87.11-14.439.979.795 2.257.321 1.049.557-1.041 1.329-1.365.329-1.234-.934-.645-2.397Zm98.203-8.073-.217 1.322-.441.777-.645.367-.862.086.141-.975.018-.244-.069-.058-.092-.41 2.59-2.54 1.384-.659 1.131.802.02 2.529-.755.464-2.203-1.461Zm10.672-37.076.65.038.203-.038v-.742l-.785-.443-.63-1.122-.244-1.344.386-1.201 1.175.52 2.008 2.318.645-.41.557.594.477.723.387.867.282 1.051h-5.111v-.811Zm-5.102 55.597-1.144 1.225-.454-.2-3.168-3.778-.607-.361-3.77-4.791-.678-.516-.282-.842-.457-.9-.027-.719.974-.296.775.161.521.542.336.972.244 1.452 5.105-4.803.781-1.31 1.406-.461 2.995.109-3.013-2.336v-.802l3.174-1.866 1.863-.434 1.858.434 1.223.997-.598-.582-.602-.511-.502-.448-.208-.329-.179-.388 1.173-.773.492-.101v-.801h-3.611l-.855-.388-1.632-1.707-.938-.387-3.593.172-1.652-.632-.517-1.87-.791.67-.533-.018-2.926-2.258 1.003-.851.737-.995.813-.703 1.238.063v-.724l-.188-.264-.045-.11-.029-.148-.13-.354 1.889-.302 2.035-.733 3.775-2.184-5.861 1.64-1.838-.029.286-1.078.491-.571.635-.148.717.186v-.732h-1.737l.568-.388.484-.533.394-.69.291-.867-2.707 1.985-.501.058-1.827-3.837-.493-.625.327-1.407-.351-.517-.544-.26-.282-.634.19-1.498.703-1.037-.04-1.167.537-.202.248-.278.157-.428.289-.634-.452-.201-.446-.475-.336-.202v-.73l4.677-.307 1.278-.567-1.634-.77-.654-.641-.266-1.42.134-1.454.367-.795 1.203-1.46.92.723 2.418 1.331.485.071.464-.405 3.407 1.584v.808l-1.853-.125.416 1.675 1.292 2.021.783.905-.078 1.816.64 2.46.945 2.242.826 1.181-.114-1.062-.027-.652.141-1.586-.436-.75-.934-2.063-.369-1.154.624-.448.224-.851.078-.822.197-.365 2.768-.704.615-.51 1.041-.318 1.612.813 1.498 1.487.736 1.718 1.702-2.486-1.556-.977-.533-.64-.244-.722-.358-1.843-.289-.666-.365-.15-.92.26-.376-.11-.117-.304-.237-1.069-.107-.318-.714-1.07-.309-.59-.26-.698.318-.231.251-.289.293-.235.421-.05-.325-.858-.293-.56-.408-.25-.676.042 5.084-4.572 1.333-1.904.761.45.461-.304.389-.58.518-.377h2.122l1.661-.501 3.936-2.117.559-.504 1.568-2.139 11.07-8.622 3.072-4.061 1.8-1.763 1.506.125 1.259 1.403 1.099 2.139.788 2.289.295 1.9 1.122 1.919.195 1.25-1.126.562-.464.672-1.428 4.935.524.768.707.581.829.309.92-.034v.885l-1.33.676-2.796 2.135-1.014 1.169.311 1.049-.09.781-.461.498-.81.172-.737.377-.596 1.673-1.844.748-.13.874.186 1.041-.088.883-.568.587-.688.25-1.721.043 1.146 1.909 2.297.723 2.49-.172 1.723-.775 3.016-3.3.938-.549 1.162-.405.649.071-.58.883v.737h.383l-.291.578-.295.737-.26.376.161.433.302 1.18-1.645.813-.549.403-.432.533-.586 1.147-.229.336-1.135.612-.864-.139-1.824-1.279-1.05-.365-2.781.365-1.039-.365-1.856-1.223-.971-.029 1.448 4.307.679 1.351-.522.524-.219.477.047.592.268.893-1.106.89-3.147.725-2.087 2.617-.931.604-.589-.038-.954-.676-.586-.087-1.702 1.608-3.244.896-1.009-.092v.806l2.373.068 8.095-1.967 1.912-1.176.844-.143.813.6.631 1.18.331 1.501-.076 1.539.253.202.598.676-.472.661-.513.475-.549.298-.595.105.671.504.735.287.783.1.788-.085-1.153 1.342-.879 1.331-.983 1.014-1.471.401-5.841-1.028-1.312-.546-.349-.03-.361.876.529.518 1.339.573.973.977 2.21.661.882 1.214v.804l-.593.477-1.01 1.864-.528.788-1.115.831-.784-.071-.792-.451-1.135-.311v.874l.273.21.293.35.282.244v.873l-1.392.717-1.162-.235-.961-.898-.779-1.261-.537-1.591-.342-.632-.587-.257-.32.602.336 1.333.597 1.418.466.802-.425.73-1.982-1.021-.609-.583-.324-.602-.39-1.443-1.706-3.528-.494-1.57-.101-1.684.918-3.085 1.795-1.716 2.266-.739 2.333-.163v-.733h-5.998v.733l-.273 1.337-1.455 1.881-1.773 1.705-1.216.775.819 1.284 1.294 3.53.692.732.887.417.716.957.611 1.093.589.817-.336.229-.255.307-.311.253-.448.085.419.75.537.338.497.173.284.271.166.788.262 2.491-5.104-1.283-2.165-1.27-.582.381-.336.595-.309.744-.513.831.705.482 1.335.582.55.39 1.453 2.679.251.658-.327.93-.85.587-1.115.219-1.106-.134v.8h.461v.728l-1.388-.229-2.899-2.17-.432.871.34.271.517.824.421.433-.69 1.142-.685.771-1.643 1.346.3.228.305.352.284.22-1.287 1.337-3.811 2.657ZM787.825 76.413l2.866.23 1.453.71-.105 1.46-1.758 1.152-.365.484-.107 1.078.335.822.112.698-.77.69.683 2.041.271 1.617-.423 1.241-1.377.919-2.98-3.208v-.894l.838-.867-.654-1.81-1.921-3.075.734.54.784.186.774-.186.728-.54v-.891h-4.258v-.755l2.402-1.078 2.738-.564ZM769.42 82.17l1.863-.133 3.636-1.772 1.771.186-1.534 2.37-3.089.93-5.817-.01-.309-.566-1.195-3.089-.269-1.057-.613-.676-.721-.545-.564-.569-1.279-2.462-.069-.685.244-.52.152-.528-.327-.737-.434-.157-.741.706-.293-.137-.6-.52-.636.119-.497-.099-.197-1.22.927-2.357.132-.457 1.44-1.445 2.733-1 .761-.021.954.61 2.133 2.136 1.38.47 1.206.708 3.296 5.137-.885.746v.891l.737.07.517.354.904 1.225v.755l-1.188.165-1.476.53-1.321 1.027-.732 1.626Zm32.442-21.554.875.486.372.955.09 1.39-.02 1.815-.513.84-1.184.643-2.38.535-.813.605-1.433 2.74-.985.779-.965-.132-4.714-1.987-.735-.692-.649-1.013-2.266-4.9-.472-.762-.784.156-.875 1.18-.998 1.034-1.156-.305-.633.51-.573-.073-.618-.296-.802-.143.887 1.729-1.928-.172-.745.418-.302 1.322-1.534-.663-3.745.638-1.565-1.543-.663-2.684.197-2.616.75-2.273.992-1.66v-.753l-.459-.748-.356-.802-.264-.858-.199-.892-.677.415-.441.562-.087.686.39.813v.828l-.589-.385-.549-.163-.517.132-.517.414.573.502.222.753-.063.95.123.201.318 1.58-.521 1.106-1.498 1.51v.761l-2.107-.822-1.872-3.1-.837-4.028.99-3.626.425-.818-.387-5.479 1.645-3.577 2.774-1.958 3.004-.593 3.012.152 1.654.598 2.154 2.22.826-.03.77-.38.71-.079.644.513.981 1.459.578.445-.896.742-.421.09 1.176 1.348 3.546 2.043-.459.188-.195.184-.197.448.273.257.298.356.282.218-3.687 1.51-.569-.267-.522 1.942-1.229 1.779-1.432 1.276-1.109.379.936.833 1.207.502 2.342.32.942-.797.958-1.492 1.075-.858 2.337 2.215.878-.25.824-.773.875-.453.983.62.669 1.163.696.67 1.057-.871-.132.562-.184 1.413-.118.58 1.285.276 1.063-.659 1.028-.895 1.133-.449 1.421-.103.594.236.326.768-.405 1.21-2.53 1.859-.938.988.706 1.568.891.996 1.067.37 1.209-.314-.875-2.56-.407-.822 1.146-.099 2.089-1.41 1.027-.207Zm11.565-18.137-.402 1.398.378.737 1.722 1.11-1.113 1.244-2.705.423-1.325.82-.134-2.74-.927-1.377-1.249-.168-1.086.894.168 1.91-1.343.484-.959-.927 1.283-2.296.936-.446.976-.119.772-.45.289-1.404-.403-.713-1.925-2.116-.645-.48 2.483-.876.878.12v.756l-.206.372-.184.455 1.726-.054.755.202.532.602-.806-.213-.656.659-.145 1.097.721 1.094.75.208.803-.242 1.46-.87.034.624-.11.159-.175-.02-.168.143Zm-28.83-.903-1.972-.134-1.816-.549-1.632-1.118-1.424-1.888-.36-2.218 1.123-1.664 1.758-.883 1.558.079.069.237.112.49.233.55.437.385.4.099.455.004 2.554-.623h.806l.929.52.032.61-.088.172-.181.004-.224.114-1.048 1.506.195 1.928-.076 1.671-1.84.708Zm10.885-8.373.794.683.634-.07.613-.391.706-.224.065-.426-.334-2.1.072-.803-.173-1.557.249-1.25.651-.694 1.019.099v.911h-.47v.825l.821-.189.735.16.588.58.408 1.115-.408 1.055-1.379 2.126-.295.605v1.922l.134 1.592.49.99 1.035.104v.826l-1.84.701-1.08.148-.483-.475-.213-1.617-.564-1.158-.819-.7-.954-.228v-2.56h-.002Zm23.901-11.724 1.336-2.126.867-1.044.382.323.587 2.598.188 1.172-2.948.159-1.194.616-.497 1.33-.678.666-1.218 2.871-.443.71-.638.361-.094-2.648-1.05.12-2.723 3.287.314-1.263.148-.4v-.825l-1.196.723-.51-.058-.459-.665-2.308 3.248-1.285 1.324-1.086-.343-.161 1.649-.361.752-.309-.257-.02-1.387.309-1.738.434-.63.591-.266.793-.62.566-.798 1.032-1.866.533-.735.748-.396.613.015.448-.416.278-1.698-.345-.372-.927-1.37 1.487-.017 2.52-1.534 1.565-.119v.91l-.924.596-.925.849-1.556 1.966.466.14.19.167.19.453.723-.7 2.047-.427 1.643-1.837.947-.168.998.011.912-.293Zm-37.551-3.264-.593-.392-.517.036-.397-.224-.23-1.163 1.294-.029 1.99.477 1.005-.448 1.735-2.567.943-.716 1.153.855.02.534-.081.123-.156-.01-.173.11-.685.917-.036.596.26 1.072-1.283.079-.425-.079v.832l4.874 1.554.875.497 1.182 3.179.347.685.707.462.67.09.613.208.558.828v.755l-1.247-.004-.753.6-1.443 2.047.082-1.075.112-.829.24-.718.463-.773-3.074-3.033-1.688-.984-1.699-.224v.91l.305.448.588 1.294-.893-.909-.481 1.078-.452.347-.509-.13-.647-.388-.434-.436-.32-.666-.898-2.547-.127-.67-.202-.645-.573-.954Zm87.081-25.632.474-2.052 1.149-1.25 1.395-.546 1.229.035.044.596-.091.175-.159.011-.184.14-.891.19-.28.44-.141.966h.851v.916l-1.037.67-1.112 1.18-.887.355-.36-1.826Zm53.992-135.71.96.248.672.712.224 1.096-.37 1.411-1.527 1.46-1.739-.526-1.807-.997-1.764.063v.945l.347.403.186.384.145.403.213.47-1.704-.408-1.359-2.069-2.086-4.377v-.941h7.269l.663.363.092.833-.077.894.137.506.549.043.42-.321.325-.392.231-.203Zm-19.466 25.155.562-2.086.951-1.456 1.171-.757 1.216-.016-.889 2.184-4.395 5.307-.362.954.08 1.033.387.206.468-.605.611-1.241.359-.369.81-.596.822-.011.369 1.37-.036.704-.156 1.299-.312 1.266-.546.564-4.862.538-.936.401 1.285 1.297 3.138.779 1.615 1.281-2.978 3.098-.698.426-.224.282-.041.645.092.733.173.526.302.2.454-.661.325.067.477.318.842.139.38.323-2.489 2.475-1.131.501-1.05-.322-.62-1.662-.515-.916-.604-.076-.406.705.063.797.347.706.459.444v.781l-.609-.02-.519.188-1.003.69v.778h2.514l-.405.849-.334.873-.533 1.78 1.149-1.704.615-.591.826-.264-1.828 4.195-.336 1.866 1.003-1.45 1.329-.586.697.627-.867 2.189 2.125 1.79v.779h-1.742v.932h.463v.855l-1.034-.732-.629.62-.658.867-1.115.025.889.932-.291 1.04-.329.58-.461.223-.666-.056v.769l.493.132 1.254.723-1.064 1.414.585 1.657 1.148 1.19.607.004-.334 1.783-.94.961-1.155.218-.976-.401.268 1.69 1.4 3.578-.538 1.384-.906-.06-1.962-1.324.269 2.571-.139 2.63-.519 2.341-.882 1.732-.255-.592-.17-.257.497 1.451.197 1.371-.157 1.44-.537 1.678.673.89.173 1.055-.251.938-.595.576-.242-.612-1.035-1.928-.49 1.283-.513-.152-.109-.939.712-1.11v-.85l-.938-.88-1.957.495-1.003-.535-.745-1.533 1.117-1.608-.372-1.96.517-1.012.614-.612.689-.217.734.14v-.698l-1.126-1.389-.539-.39v-.846h1.665l-.358-2.22.667-1.949.943-2.105.945-5.943.913-2.446.652-2.484-.321-3.392-.331-.504-.367.137-.347-.108-.271-1.238.045-.475.179-.627.992-2.612-.634.04-.904.683-.256.42-.687-.093-.199-.448.192-1.05.914-3.307.492-1.24.567-.997.62-.643v-.858l-1.196-.139-.913 1.32-1.724 3.957-.857-2.916-.914-2.115-1.303-1.312-2.028-.511v.936l1.202.614.981 1.078.848 1.503.793 1.868-.426 1.796-1.215-1.297-.576-.439-.794-.06.033 2.307-.439 1.653-.561.316-.314-1.71-.752.72-.258 1.306-.174 1.386-.513.948-.591-.047-2.42-1.743-.132-.26-1.341-1.545-.19.096-.39-1.154.034-.582.358-.838.714-.714 1.876-.511.808-.403-.799-.627-1.52-2.653-.269 1.013-.335 1.711-.73 1.17-.73.179-.334-1.257-.38-1.104-.898.286-1.892 1.282-1.379.188-.593-.188-.347-.46-.058-.627-.101-.55-.502-.236-1.271-.215-.526-.715-.598-3.281-.674-2.446.235-.726.905-1.116.902-.808 1.159-.661 1.207-.363 1.023.112.914.809.689 1.044.743.761 1.053-.036-.462-1.72 2.17.86v-.86h-.464v-.86l2.929-.379.862.999.074 3.752.311-.127.698-.507.264-.306-.309-.697-.344-1.331-.195-.542h1.28l-.172-.513-.26-1.29 1.444-.652 1.646.538 1.377 1.689.638 2.795.871-1.453.866-1.116-1.74-1.803 1.279-3.356.432.522.389.179.921.083-.784-1.424 1.117-.401 3.103.103-1.491-1.066-1.84-.422-1.478-.958-.369-2.715-1.187 1.422-.676.457-.687-.163-.658-.955-.224-1.216.208-1.207.674-.925v-.863l-1.943.02-.84-.262-.622-.712.172-1.564-.114-2.19-.49-4.014-.838 2.459-.651 1.337-.638.603-.965-.432-.217-1.035.376-1.19.808-.88-1.254.031-1.029.325-.956-.062-1.017-1.159-.566 1.468-.905.495-2.16-.155-.168-.679.325-1.478.562-1.49.557-.674 1.536.182.354-.182.32-.876.031-.927-.031-.892.141-.757.602-1.216.732-.995.808-.123.838 1.394.77 2.661 2.064 2.148 2.342.844 2.057-1.256-.705-.578-.934-.247-1.571-.04-.45-.452-.549-.97-.741-.919-1.012-.248.531-.899.846-2.208.325-.439.694-.186 1.9-1.472-.645-.732-.243-.213.552-.914.153-.621-.099-.497-.19-.569 1.529-.764 1.701.265 1.689.965 1.508 1.344.191-.538.235-.403-1.088-1.23.136-1.292 1.404-2.762.625 2.534.044 1.012-.271.869.184 1.107-.09.806-.349.506-.595.182.454 2.916-.499 1.362-.904.97-.755 1.68h1.281l-.298.623-.282.217-.703.099.345.242.203.277.247.233.485.115-1.28 4.244.595-.123.562-.32.52-.504.481-.701.398.781-.879 1.927-.173.777.202.757v.941l-1.2.54-1.485 4.399-1.148 1.1v.945l.793.092.774-.112.728-.338.647-.585-.083-2.28 1.704-1.295 3.947-.734-2.951-2.283-.876-1.174.641-.956.797-.706.624.341.099 2.11.571-.751 1.271-2.26.244-.833.582-.341 1.135.71.811 1.282-.396 1.404.774.37.638.643.473.992.28 1.449-.325.572-.101.293.808.777-.763.674-1.366-.77-.631.571-.517.874-.602.652-.634.448.213.293.754-.202 1.462-.73-.246.314-.645.549v.945l2.12-1.248.732.524.121 2.44h.463l.249-1.299.208-.077.3.186.522-.524.251-.755.19-.95.289-1.008.537-.904.215.421.098.41.097.972Zm6.844-35.657-.672 1.539.056 1.212 1.079 2.469-.374 1.37-.483 1.304-2.018-2.394-1.041-.901-1.229-.17.735.932.857 1.615 1.424 3.526-.822.64-.866.269-.891-.186-.864-.723.304 1.404.761.815.979.372.974.083-.121.423-.016.115-.327.253 1.068 1.286.02 1.547-.734 1.248-1.205.329.927 2.182.282 1.089.108 1.485-.191 1.586-.494.293-1.48-.654-1.531.083-.746-.32-.311-.99-.228.062-.365.504-.074.757.667.84v.782l-2.087-.479-1.455-1.561-.866-2.798-.764-11.953.54-2.71 2.075-.415v.787l-.186 1.509.679 1.506.974.873.689-.34-.195-.589-.875-3.356-.197-1.734.175-.837.591-1.875-.153-.368-.349-.492-.056-1.152.15-1.31.255-.959.618-1.404.741-1.219.762-.025.669 2.216.719-1.474 1.285-.435 2.709.253.02 1.712-.099.524-.383.284v.95l.307.186.271.374.278.235Zm5.138 1.741-1.877.244-.965-.28-.989-.746.302-1.254.085-1.199-.116-1.084-.271-.903 1.095.899.336-1.026-.159-1.821-.417-1.537 1.043-.466.596-1.734-.002-1.922-.788-1.023v-.952l.98-.511 1.178-1.259.848-1.487-.031-1.187.593-1.302.71-.02.609.979.257 1.738-.257 1.409-.613.838-.715.708-.582 1.043.168.375.761-.375.882-.712.551-.676 1.33-4.698.602-.972.408.614.364.177.887.087.79.359.683.613.495 1.02.197 1.57-.502.058-1.195.733 1.211.763.486.11-.938 1.091-1.245.759-.79.894.423 1.544v.949l-1.229.074.425.177.408.26.396.354v.961l-2.561 2.652-.45.746.436 1.55.882 1.416.435 1.259-.905 1.073-.609.078-.517-.296-.481-.419-.515-.311-1.225-.119-.908.117ZM579.398 1034.29l.409.33.502.91-.208.84-.609.43-.741-.39.105-1.34.542-.78Zm-2.17-2.34.349.3.097.72-.374.72-.542-.29-.425-1.11-.056-.79.445.07.309.26.197.12Zm103.921-120.12.092.647.031 1.214-.437.473-.501-.692-.079-1.344.211-1.246.325-.195.264.733.094.41ZM118.945 223.616l-.056-.029v-.076l.056-.076h.114l.058.076v.034l-.058.071h-.114Zm770.911-301.04.426-.051.214.945-.311 1.277-.495 1.265-.561 1.951-.424.874-.34-.036.063-.898.257-1.302.045-1.52-.094-.33-.074.784-.159.753-.965 1.602-.875.797-.121-.538.802-1.129.308-1.418.28-1.738.596-1.25-.152-.78-.408-.609.081-.548 1.115-.305.414-.535.331.024.049 1.136-.418 1.664-.099.612.515-.697Zm-45.981-7.73.268 1.05.052 2.243-.927 1.404-1.491-.663-1.151-1.1-.432-.743.121-.916.432-.592.967-.676 1.444-.229.717.222Zm61.693-1.07.768-.7.004.856-.141 1.799-.421 1.35-.454 1.055-.439 2.689-.629.32-1.809-1.389-.578-.856.186-4.065-1.021-1.55.045-1.347 1.191-.183 1.137.555.495-.307.197-1.041.434-.23.283.687.111 1.23.2 1.102.441.024Zm8.975-27.922.38-.077.092.565-.405.712-.851 1.031-1.072 1.59-1.706 1.958-2.442.779-1.176-.759.323-.692.331-.477.128-.636.32-.95.624-.878.697-.339.723-.082.571-.457.427-.648 2.201-.215.654-.231.181-.194Z" fill="#fff" stroke="#fff" stroke-width=".5" stroke-linecap="round" stroke-linejoin="round"/></g><defs><filter id="a" x="-296" y="-241" width="1793" height="1346" filterUnits="userSpaceOnUse" color-interpolation-filters="sRGB"><feFlood flood-opacity="0" result="BackgroundImageFix"/><feBlend in="SourceGraphic" in2="BackgroundImageFix" result="shape"/><feGaussianBlur stdDeviation=".5" result="effect1_foregroundBlur_138_2670"/></filter></defs></svg>
