<svg xmlns="http://www.w3.org/2000/svg" viewBox="0 0 254.156 109.594"><path style="marker:none" d="M20 20v34.094c11.437 0 20.719 9.282 20.719 20.718C40.719 86.25 31.437 95.5 20 95.5v34.094h146.688v-9.5h3v9.5h104.468V95.5h-.031c-11.437 0-20.719-9.25-20.719-20.688 0-11.436 9.282-20.718 20.719-20.718h.031V20H169.687v9.094h-3V20H20Zm146.688 16.094h3v14h-3v-14zm41.44 12.834c2.792 0 5.024 1.927 5.024 4.312 0 2.385-2.232 4.364-5.023 4.364-2.74 0-4.973-1.979-4.973-4.364s2.233-4.312 4.973-4.312zm-13.228 4.21v8.018h3.96v6.291h-3.96v12.28c0 2.03.71 2.79 2.131 2.79.71 0 1.067-.101 1.828-.406v5.936c-.71.406-2.386.965-4.619.965-6.14 0-8.98-3.754-8.98-8.473V67.447h-2.842v-6.29h2.842v-5.583l9.64-2.435zm-28.213 3.956h3v14h-3v-14zM92.12 60.648c8.474 0 14.207 4.516 14.207 14.106 0 8.626-5.023 14.105-12.076 14.105-1.725 0-3.147-.203-3.857-.406v10.961h-9.641V62.73c2.588-1.218 6.09-2.08 11.367-2.08zm49.863 0c8.575 0 12.635 5.936 12.127 15.221l-15.931 2.235c.609 2.942 2.18 4.414 5.681 4.414 3.248 0 5.785-.712 7.307-1.473l2.13 5.887c-2.384 1.167-5.58 2.08-10.653 2.08-8.93 0-13.649-6.038-13.649-14.258 0-8.22 4.413-14.106 12.988-14.106zm-17.921.006c.892.014 1.827.045 2.804.096l-1.676 6.697c-1.775-.862-3.5-.913-4.77-.457v21.514h-9.64V62.729c2.797-1.377 7.032-2.17 13.282-2.075zm79.248.502h9.64v27.348h-9.64V61.156zm13.234 0h10.047l3.299 6.85h.101l3.602-6.85h8.98l-7.965 12.633 8.727 14.715H232.68l-3.502-7.56h-.102l-3.652 7.56h-9.742l8.574-14.106-7.713-13.242zm-74.967 5.024c-2.841 0-4.414 2.586-4.11 7.355l7.764-1.166c0-4.16-1.218-6.19-3.654-6.19zm-49.508.1c-.71 0-1.219.101-1.675.253v16.44c.355.152.863.254 1.523.254 3.45 0 4.871-2.84 4.871-8.422 0-5.734-1.218-8.526-4.719-8.526zm74.62 11.814h3v14h-3v-14zm0 21h3v14h-3v-14z" transform="translate(-20 -20)" color="#000" overflow="visible" fill="#3b1c4a"/></svg>
