<svg fill="none" xmlns="http://www.w3.org/2000/svg" viewBox="0 0 1208 226"><path d="m1047.7.588-8.49 90.2h-4.48v47.403l-4.84-42.92-4.24 48.578h-.71v-7.427h-7.43v7.427h-14.85v-9.905h-8.613v-8.723h-8.606v2.475h-6.133l-2.475-4.953h-2.476l-5.778 11.084h-22.638v-9.905h-6.133v3.657h-7.427v6.13h-6.132v-16.035h-7.427v3.655h-11.084v2.475h-4.954v9.905h-19.808v-12.38h-2.475v-4.482l-3.42-3.417-14.032 7.899h-1.062v22.168H842.18v8.606h-6.133v-3.655h-9.905v-4.951h-8.606v4.951h-7.429v18.511h-13.56v-7.427h-6.13v-7.429h-7.43v7.429h-4.951v18.511h-13.56v-11.084h-6.132v-7.427h-3.655v-13.559h-2.476v-12.381h-6.13v14.856h-33.37v-13.56h-5.661c5.896-6.131-5.305-9.315-5.305-9.315.471-11.319-12.381-16.507-12.381-16.507V96.685h-2.476v12.381s-12.615 5.07-12.026 16.507c0 0-10.966 2.595-5.071 9.315l-10.022.235v-2.475h-6.131v-3.655h-7.429v18.511h-13.56v-11.082h-12.38v-8.608h2.476v-4.952h-4.597s0-9.315-5.896-10.376c0 0-7.548.472-6.015 10.376h-20.515v-18.513l-3.302-3.537s-3.773-15.682-13.56-21.341l-2.947-3.066V59.898h-4.952V41.384h-2.478v18.514h-4.951v16.39l-2.358 3.065c-9.787 5.66-13.325 21.341-13.325 21.341l-4.007 3.538v19.809h-9.553c2.005-9.904-6.13-11.321-6.13-11.321-7.782 1.062-7.664 10.023-7.664 10.023h-13.56v4.953h1.179v19.808h-20.989v-11.082h-5.186v-3.657h-14.859v23.465h-7.427v-4.952h-7.429v-16.272c6.131-6.721-5.069-9.316-5.069-9.316.472-11.319-12.146-16.507-12.146-16.507v-12.38h-2.475v12.38s-12.852 5.07-12.381 16.507c0 0-9.788 2.595-4.953 9.316v34.783h-51.881v8.609h-22.52c-6.132 2.476-5.896 14.856-5.896 14.856h1.179v30.892c-3.302-8.254-11.437-.59-11.437-.59 3.302-8.843-9.315-5.541-9.315-5.541 3.891-7.782-7.192-8.371-7.192-8.371-7.193-6.131-11.319 5.659-11.319 5.659-2.24-4.481-8.491-4.362-8.491-4.362v-34.549h-6.13v-7.427h-3.772v-7.429h-3.658v9.905h-6.13v-7.43h-9.905v-8.606h-4.951v8.606h-8.609v-4.951h-13.559v-4.951h-7.427v11.081h-4.954v-9.902H193.2v8.606h-27.12v-13.56h-8.608v13.56h-7.427v-8.606h-6.133v-4.954h-4.951v20.634l-8.609 17.687H83.071v-7.427h-9.904v-6.133h4.953v-18.982c-2.476-10.259-14.859-15.564-14.859-15.564v-8.608h-3.655v-14.857h-3.182l-1.18-22.875-1.178 22.875H49.7v14.857h-3.654v6.839c-3.656 1.18-8.606 5.541-8.606 5.541v-4.951h-4.954v8.017c-4.952 2.004-6.13 24.054-6.13 24.054h-8.609v7.429H6.43v-4.954H.3v52h1207.4v-121.93h-.35l-2.01-27.357-2.94 27.357h-5.43l-1.41-27.357-3.54 27.357h-.59l-3.3-32.191-2.6 32.191h-1.29l-4.84-27.357-.23 27.357h-1.18v30.892h-17.33v-12.381h-9.91v11.343h-17.33v6.13h-6.13v18.511h-7.43v-19.808h-6.13v-4.953h-9.79v4.953h-4.95v-4.953h-11.09v4.953h-2.47v-11.084h-11.09v-2.475h-1.53l-4.24-35.963-3.42 35.963h-3.3v-34.55h-3.54L1047.7.588ZM55.008 137.954c2.593 0 4.716 5.189 4.716 11.438 0 6.368-2.122 8.961-4.716 8.961-2.595 0-4.717-2.711-4.717-8.961 0-6.367 2.123-11.438 4.717-11.438Zm370.476 4.244c3.183 0 5.778 3.655 5.778 8.254 0 4.598-2.595 8.253-5.778 8.253-3.184 0-5.778-3.655-5.778-8.253 0-4.599 2.594-8.254 5.778-8.254Z" fill="#005EB8"/></svg>
