<?xml version="1.0" encoding="utf-8"?>
<!-- Generator: Adobe Illustrator 26.0.3, SVG Export Plug-In . SVG Version: 6.00 Build 0)  -->
<svg version="1.1" id="svg71" xmlns="http://www.w3.org/2000/svg" xmlns:xlink="http://www.w3.org/1999/xlink" x="0px" y="0px"
	 viewBox="0 0 500 500" style="enable-background:new 0 0 500 500;" xml:space="preserve">
<style type="text/css">
	.st0{fill:#FFFFFF;}
	.st1{fill:#0078FF;}
	.st2{fill:#003C80;}
	.st3{fill:#4DA0FF;}
	.st4{fill:#265080;}
	.st5{fill:#005FCC;}
	.st6{fill:#0053B3;}
	.st7{fill:#1985FF;}
	.st8{fill:#B37200;}
	.st9{fill:#FFA300;}
</style>
<g>
	<path id="path12_00000070088717536185245950000007709635246478089346_" class="st1" d="M192.8,165.6h26.9v128
		c-13.8,2.5-23.8,3.6-34.9,3.6c-32.9,0-49.8-14.9-49.8-43.2c0-27.4,18.2-45.2,46.1-45.2c4.4,0,7.6,0.4,11.6,1.5V165.6L192.8,165.6z
		 M192.8,232c-3.1-1.1-5.8-1.5-9.1-1.5c-13.6,0-21.4,8.4-21.4,23.1c0,14.3,7.4,22.2,21.2,22.2c2.9,0,5.4-0.2,9.3-0.7V232L192.8,232z
		"/>
	<path id="path14_00000124852909558323340050000008000143090811191184_" class="st1" d="M270.5,211.5v62.3c0,21.4-1.6,31.8-6.4,40.7
		c-4.4,8.5-10.2,14-22,19.8l-24.9-11.8c11.8-5.6,17.6-10.5,21.2-18c3.8-7.6,5.1-16.5,5.1-40v-53L270.5,211.5L270.5,211.5z"/>
	<path id="path24_00000014607268293588953600000017011252438672762781_" class="st1" d="M364.1,235.3c-6.2-3.6-11.4-5.3-18.7-5.3
		c-15.4,0-26,8.5-26,22c0,14,10.4,22.9,26,22.9c7.3,0,12.5-1.5,19.6-5.1v21.8c-8.7,4.4-15.8,6.2-26.3,6.2
		c-28.5,0-46.5-16.7-46.5-43.4c0-27.4,19.8-45.8,48.7-45.8c8.7,0,14.9,1.5,23.4,5.1L364.1,235.3L364.1,235.3z"/>
	<path id="rect38_00000155848549866563850280000006043297553388136345_" class="st1" d="M243.7,166.1h26.9v27.6h-26.9V166.1z"/>
	<g>
		<path id="path30_00000181062498333610034200000012575124243113017004_" class="st1" d="M293,323.9h9.6v9.9H293V323.9z"/>
		<path id="path32_00000081609628287135514000000007601538901662224545_" class="st1" d="M316.6,323c0.2,3.3,2.8,5.1,7.2,5.1
			c3.3,0,6.3-0.9,8.9-2.6v6.4c-3.2,1.7-6.6,2.5-10.1,2.5c-8.9,0-14.1-5.1-14.1-13.8c0-8.5,5.3-14,13.4-14c7.8,0,12.2,5,12.2,13.6
			c0,0.5,0,1.2,0,2.1v0.6L316.6,323L316.6,323z M326.4,317.1c-0.2-3-1.8-4.6-4.5-4.6c-2.8,0-4.7,1.8-5.2,4.6H326.4z"/>
		<path id="path34_00000134972512965563626440000012927730049700521368_" class="st1" d="M348.1,307.3v15.2c0,3.4,1,4.5,4.3,4.5
			c1.1,0,2.4-0.1,3.4-0.3v-19.4h8.4V333l-1,0.1c-4.5,0.8-7.7,1.1-11.1,1.1c-4.5,0-7.6-0.9-9.6-2.7c-2-1.8-2.7-4.1-2.7-9v-15.1
			L348.1,307.3L348.1,307.3z"/>
	</g>
</g>
</svg>
