<svg width="500" height="500" xmlns="http://www.w3.org/2000/svg" version="1.1" xml:space="preserve">
 <g>
  <title>Layer 1</title>
  <g id="svg_1" stroke="null">
   <path id="path12_00000070088717536185245950000007709635246478089346_" class="st1" d="m129.80405,45.6l57.15275,0l0,289.76935c-29.32,5.65956 -50.56637,8.14976 -74.14985,8.14976c-69.90058,0 -105.80695,-33.73096 -105.80695,-97.79715c0,-62.02875 38.6684,-102.3248 97.94579,-102.3248c9.34841,0 16.14725,0.90553 24.6458,3.39573l0,-101.19289l0.21246,0zm0,150.31785c-6.58638,-2.49021 -12.3229,-3.39573 -19.3342,-3.39573c-28.89507,0 -45.46724,19.01611 -45.46724,52.29431c0,32.37267 15.72232,50.25687 45.04232,50.25687c6.16145,0 11.47304,-0.45276 19.75913,-1.58468l0,-97.57077l0,0l-0.00001,0z" fill="#0078FF" stroke="null"/>
   <path id="path14_00000124852909558323340050000008000143090811191184_" class="st1" d="m294.88839,149.50948l0,141.03617c0,48.44581 -3.39942,71.98957 -13.59768,92.1376c-9.34841,19.2425 -21.6713,31.69352 -46.74203,44.8237l-52.90348,-26.71311c25.07072,-12.67741 37.39362,-23.77014 45.04232,-40.74881c8.07362,-17.20506 10.83565,-37.35308 10.83565,-90.55292l0,-119.98262l57.36522,0l0,0l0,-0.00001z" fill="#0078FF" stroke="null"/>
   <path id="path24_00000014607268293588953600000017011252438672762781_" class="st1" d="m493.75447,203.38847c-13.17275,-8.14976 -24.22087,-11.99826 -39.73072,-11.99826c-32.71942,0 -55.24058,19.2425 -55.24058,49.80411c0,31.69352 22.09623,51.84155 55.24058,51.84155c15.50985,0 26.55797,-3.39573 41.6429,-11.5455l0,49.35134c-18.48435,9.96082 -33.56927,14.0357 -55.87797,14.0357c-60.55217,0 -98.79565,-37.80584 -98.79565,-98.24992c0,-62.02875 42.06782,-103.68309 103.46985,-103.68309c18.48435,0 31.6571,3.39573 49.71652,11.5455l-0.42493,48.89858l0,0l0,-0.00001z" fill="#0078FF" stroke="null"/>
   <path id="rect38_00000155848549866563850280000006043297553388136345_" class="st1" d="m237.94811,46.73191l57.15275,0l0,62.48152l-57.15275,0l0,-62.48152z" fill="#0078FF" stroke="null"/>
   <g id="svg_2" stroke="null">
    <path id="path30_00000181062498333610034200000012575124243113017004_" class="st1" d="m342.69274,403.96319l20.39652,0l0,22.41185l-20.39652,0l0,-22.41185z" fill="#0078FF" stroke="null"/>
    <path id="path32_00000081609628287135514000000007601538901662224545_" class="st1" d="m392.83419,401.92575c0.42493,7.47062 5.94899,11.5455 15.29739,11.5455c7.0113,0 13.38522,-2.03744 18.90927,-5.88594l0,14.48847c-6.79884,3.8485 -14.02261,5.65956 -21.45884,5.65956c-18.90927,0 -29.95739,-11.5455 -29.95739,-31.24076c0,-19.2425 11.26058,-31.69352 28.47014,-31.69352c16.57217,0 25.92058,11.31912 25.92058,30.78799c0,1.13191 0,2.71659 0,4.75403l0,1.35829l-37.18116,0.22638l0,0l0.00001,0zm20.82145,-13.35656c-0.42493,-6.79147 -3.82435,-10.41359 -9.56087,-10.41359c-5.94899,0 -9.9858,4.07488 -11.04812,10.41359l20.60898,0l0.00001,0z" fill="#0078FF" stroke="null"/>
    <path id="path34_00000134972512965563626440000012927730049700521368_" class="st1" d="m459.76027,366.38372l0,34.41011c0,7.697 2.12464,10.1872 9.13594,10.1872c2.3371,0 5.09913,-0.22638 7.22377,-0.67915l0,-43.91817l17.84696,0l0,58.18025l-2.12464,0.22638c-9.56087,1.81106 -16.35971,2.49021 -23.58348,2.49021c-9.56087,0 -16.14725,-2.03744 -20.39652,-6.11232c-4.24928,-4.07488 -5.73652,-9.28167 -5.73652,-20.37441l0,-34.18373l17.63449,-0.22638l0,0l0,0.00001z" fill="#0078FF" stroke="null"/>
   </g>
  </g>
 </g>

</svg>