<svg height="700pt" preserveAspectRatio="xMidYMid meet" viewBox="0 0 700 700" width="700pt" xmlns="http://www.w3.org/2000/svg"><g transform="matrix(.1 0 0 -.1 0 700)"><path d="m2525 6883c-21-4-48-15-103-42-50-24-128-104-157-161-76-149-60-330 39-448 24-27 26-39 30-149l4-119h-31c-66-1-279-18-377-29-25-3-70-7-101-10s-64-7-75-9c-10-2-53-7-94-11s-79-10-84-13-100-6-210-7c-178-2-215-5-321-29-168-38-309-87-460-161-137-66-235-135-235-164 0-21 24-33 145-73 103-34 122-43 152-71 49-44 15-113-94-193l-65-48 38-17c105-44 227-79 376-109 91-18 174-25 308-25 161 0 188 4 376 50 60 15 120 29 134 31 14 3 31 7 39 9 13 5 142 33 186 41 204 35 279 44 385 48l35 1 1-55c0-48 4-174 19-625 2-60 7-209 10-331 4-121 8-232 9-247 4-33 0-36-56-43-232-29-452-111-643-240-125-84-282-232-339-319-79-119-145-286-180-455-30-144-38-230-38-400 0-148 6-232 27-350 1-8 6-35 10-60s9-52 11-60c53-225 126-403 232-565 61-93 201-232 280-278 132-77 572-233 717-254 83-12 85-14 86-100 0-43 2-103 4-133 1-30 6-143 10-250 7-178 10-232 14-252 3-19 48-48 72-48 48 0 78 37 84 100 12 141 26 419 29 550 0 41 5 78 9 81s27 3 50-1c81-12 421-1 487 15 8 2 33 7 55 10 61 8 73 11 183 41 56 15 102 30 102 33s-28 6-63 6c-70 1-251 13-312 21-106 13-310 57-397 84-86 27-101 36-100 60 0 3 3 83 6 179 4 96 9 177 12 180 2 3 494 6 1092 7s1114 4 1147 8c604 64 1029 249 1403 610 310 300 526 741 578 1179 2 20 7 56 10 80 3 23 7 139 8 257 4 216-7 360-39 520-3 14-7 34-9 45-25 125-100 367-148 475-7 14-12 27-13 30-6 18-30 71-68 147-297 596-842 981-1497 1057-212 25-636 25-1040 1-30-2-113-6-185-10-200-12-435-26-470-29-11-1-51 9-90 22-76 25-182 52-230 58-16 2-55 8-85 14-48 8-191 23-227 23-11 0-17 16-15 38 1 3 2 46 3 94 2 87 3 90 45 152 90 132 103 287 35 421-71 140-199 220-346 219-38 0-79-2-90-4zm186-175c113-58 165-203 114-321-9-21-34-58-57-83-45-49-46-53-48-275v-56h-110c-60-1-110 0-111 0 0 1-3 54-5 117-6 165-8 175-53 227-110 124-75 319 72 392 52 27 145 26 198-1zm-61-2168c0-356-2-649-4-651-10-9-83 3-83 14-1 7-4 109-7 227-4 118-9 267-11 330s-7 207-10 320-8 250-10 305l-4 100 65 1h64zm2140 99c174-8 316-121 415-332 48-101 66-176 71-292 4-107-5-184-37-283-78-247-286-494-619-732-41-30-77-57-80-60s-21-17-40-30c-19-14-44-32-55-42-80-67-108-88-112-84-4 3-6 1354-3 1598 0 30 9 45 48 85 48 50 111 97 170 127 34 18 173 56 182 51 3-2 30-4 60-6zm-2145-1412c-2-89-7-236-10-327s-7-253-10-360c-6-202-14-265-16-119 0 46-2 122-4 169s-6 164-9 260-8 254-12 352c-5 165-4 176 13 180 55 11 52 20 48-155zm-220-29c9-271 16-492 20-613 3-71 7-197 10-280 8-236 16-492 20-590 2-49 6-186 10-304l7-214-38 22c-191 112-380 313-477 506-231 463-135 1081 223 1435 75 74 206 167 218 156 2-3 5-55 7-118z"/><path d="m459 5376c-2-3-22-7-44-9-22-3-74-13-115-22-92-20-215-26-253-12-35 12-47-1-47-51 0-22 8-41 26-58 24-25 29-26 102-20 42 3 88 8 102 11s39 8 55 10c77 14 224 58 274 83 66 32 77 56 30 66-36 7-123 8-130 2z"/></g></svg>